<svg width="56" height="56" viewBox="0 0 56 56" fill="none" xmlns="http://www.w3.org/2000/svg">
<path fill-rule="evenodd" clip-rule="evenodd" d="M24.652 14.0636C28.4728 12.9013 32.6714 13.6852 35.643 16.0677L24.652 14.0636ZM37.9771 13.1539C34.0049 9.96996 28.5165 8.98549 23.5647 10.4921C19.0858 11.8565 15.5431 15.114 14.1025 19.2923C7.79609 19.9782 2.8 25.1438 2.8 31.5396C2.8 38.4147 8.56826 43.8651 15.5301 43.8759L30.3333 43.8759C31.3643 43.8759 32.2 43.0402 32.2 42.0093C32.2 40.9783 31.3643 40.1426 30.3333 40.1426L15.5359 40.1426C15.5355 40.1426 15.5364 40.1426 15.5359 40.1426C10.4957 40.1341 6.53334 36.2188 6.53334 31.5396C6.53334 26.8622 10.4947 22.9483 15.533 22.9483C16.4074 22.9483 17.1646 22.3414 17.3549 21.488C18.1101 18.102 20.8363 15.2262 24.652 14.0636M37.9771 13.1539C41.3438 15.8467 43.2055 19.7897 43.0556 23.8723H43.2507C47.1937 23.8723 50.598 26.1765 52.2052 29.5112C52.6528 30.4399 52.2628 31.5556 51.3341 32.0032C50.4054 32.4508 49.2897 32.0607 48.8421 31.1321C47.8313 29.0348 45.701 27.6056 43.2507 27.6056H40.9407C40.3744 27.6056 39.8387 27.3486 39.4845 26.9068C39.1302 26.465 38.9956 25.8863 39.1186 25.3336C39.868 21.9648 38.5974 18.4303 35.643 16.0677" fill="#111111"/>
<path d="M51.3333 51.3333L39.6667 39.6666" stroke="#111111" stroke-width="2.6" stroke-linecap="round" stroke-linejoin="round"/>
<path d="M39.6667 51.3333L51.3333 39.6666" stroke="#111111" stroke-width="2.6" stroke-linecap="round" stroke-linejoin="round"/>
<circle cx="28" cy="28" r="7" fill="#FF0000"/>
</svg>
