<svg width="56" height="56" viewBox="0 0 56 56" fill="none" xmlns="http://www.w3.org/2000/svg">
<path d="M14.0001 5C13.4767 5 12.9415 5.18359 12.5626 5.5625C12.1837 5.94141 12.0001 6.47656 12.0001 7V24C12.0001 24.5234 12.1837 25.0586 12.5626 25.4375C12.9415 25.8164 13.4767 26 14.0001 26H42.0001C42.5236 26 43.0587 25.8164 43.4376 25.4375C43.8165 25.0586 44.0001 24.5234 44.0001 24V7C44.0001 6.47656 43.8165 5.94141 43.4376 5.5625C43.0587 5.18359 42.5236 5 42.0001 5H14.0001ZM14.0001 7H42.0001V24H14.0001V7ZM26.0001 11V18.0938L27.8126 16.4062L28.9064 19L29.9064 18.5938L28.6876 16L31.0939 15.8125L26.0001 11ZM21.0001 27V29H35.0001V27H21.0001ZM3.81263 30C3.33607 30.0898 2.99232 30.5117 3.00013 31V35C3.00013 35.5508 3.44935 36 4.00013 36H5.00013V50C5.00013 50.5508 5.44935 51 6.00013 51H10.0001C10.5509 51 11.0001 50.5508 11.0001 50V36H45.0001V50C45.0001 50.5508 45.4493 51 46.0001 51H50.0001C50.5509 51 51.0001 50.5508 51.0001 50V36H52.0001C52.5509 36 53.0001 35.5508 53.0001 35V31C53.0001 30.4492 52.5509 30 52.0001 30H4.00013C3.96888 30 3.93763 30 3.90638 30C3.87513 30 3.84388 30 3.81263 30ZM5.00013 32H51.0001V34H5.00013V32ZM7.00013 36H9.00013V49H7.00013V36ZM47.0001 36H49.0001V49H47.0001V36Z" fill="#111111"/>
</svg>
