<svg width="56" height="56" viewBox="0 0 56 56" fill="none" xmlns="http://www.w3.org/2000/svg">
<path fill-rule="evenodd" clip-rule="evenodd" d="M16.8165 10C15.7693 10 14.8331 10.6527 14.4709 11.6352L10.4347 22.5827L18.6728 21.11C24.842 20.0071 31.158 20.0071 37.3272 21.11L45.176 22.5131L41.1655 11.6352C40.8032 10.6527 39.867 10 38.8198 10H16.8165ZM47.4638 22.9367L43.042 10.9434C42.39 9.17478 40.7048 8 38.8198 8H16.8165C14.9316 8 13.2464 9.17478 12.5943 10.9434L8.12928 23.0542C5.69604 23.8508 4 26.1331 4 28.7556V43.1177C4 45.538 5.96205 47.5 8.38235 47.5C10.8027 47.5 12.7647 45.538 12.7647 43.1177V42.4767C12.7647 42.2769 12.9355 42.12 13.1345 42.1368L22.2376 42.9053C26.0724 43.229 29.9276 43.229 33.7624 42.9053L42.8655 42.1368C43.0645 42.12 43.2353 42.2769 43.2353 42.4767V43.1177C43.2353 45.538 45.1973 47.5 47.6176 47.5C50.038 47.5 52 45.538 52 43.1177V28.7556C52 25.9892 50.1128 23.6014 47.4638 22.9367ZM36.9753 23.0788C31.0388 22.0175 24.9612 22.0175 19.0247 23.0788L9.29606 24.818C7.38871 25.159 6 26.818 6 28.7556V43.1177C6 44.4334 7.06661 45.5 8.38235 45.5C9.69809 45.5 10.7647 44.4334 10.7647 43.1177V42.4767C10.7647 41.106 11.937 40.0285 13.3028 40.1438L22.4059 40.9123C26.1287 41.2266 29.8713 41.2266 33.5942 40.9123L42.6972 40.1438C44.063 40.0285 45.2353 41.106 45.2353 42.4767V43.1177C45.2353 44.4334 46.3019 45.5 47.6176 45.5C48.9334 45.5 50 44.4334 50 43.1177V28.7556C50 26.818 48.6113 25.159 46.7039 24.818L36.9753 23.0788ZM8.5 32.5C8.5 31.1193 9.61929 30 11 30H14C15.3807 30 16.5 31.1193 16.5 32.5C16.5 33.8807 15.3807 35 14 35H11C9.61929 35 8.5 33.8807 8.5 32.5ZM11 32C10.7239 32 10.5 32.2239 10.5 32.5C10.5 32.7761 10.7239 33 11 33H14C14.2761 33 14.5 32.7761 14.5 32.5C14.5 32.2239 14.2761 32 14 32H11ZM17.5 32.5C17.5 31.1193 18.6193 30 20 30H36C37.3807 30 38.5 31.1193 38.5 32.5C38.5 33.8807 37.3807 35 36 35H20C18.6193 35 17.5 33.8807 17.5 32.5ZM20 32C19.7239 32 19.5 32.2239 19.5 32.5C19.5 32.7761 19.7239 33 20 33H36C36.2761 33 36.5 32.7761 36.5 32.5C36.5 32.2239 36.2761 32 36 32H20ZM39.5 32.5C39.5 31.1193 40.6193 30 42 30H45C46.3807 30 47.5 31.1193 47.5 32.5C47.5 33.8807 46.3807 35 45 35H42C40.6193 35 39.5 33.8807 39.5 32.5ZM42 32C41.7239 32 41.5 32.2239 41.5 32.5C41.5 32.7761 41.7239 33 42 33H45C45.2761 33 45.5 32.7761 45.5 32.5C45.5 32.2239 45.2761 32 45 32H42Z" fill="#111111"/>
</svg>
