<svg width="56" height="56" viewBox="0 0 56 56" fill="none" xmlns="http://www.w3.org/2000/svg">
<path d="M29.7815 3.00748C29.7502 3.01529 29.719 3.02701 29.6877 3.03873L13.6877 8.03873C13.2698 8.17545 12.9924 8.56998 13.0002 9.00748V48.0075C13.0002 48.4645 13.3088 48.8629 13.7502 48.9762L29.7502 52.9762C30.051 53.0544 30.3674 52.9879 30.6135 52.7965C30.8557 52.609 31.0002 52.3161 31.0002 52.0075V4.00748C31.0041 3.71842 30.8791 3.44498 30.6643 3.25358C30.4494 3.06217 30.1604 2.97233 29.8752 3.00748C29.844 3.00748 29.8127 3.00748 29.7815 3.00748ZM29.0002 5.38248V50.7262L15.0002 47.2262V9.75748L29.0002 5.38248ZM33.0002 7.00748V9.00748H41.0002V47.0075H33.0002V49.0075H42.0002C42.551 49.0075 43.0002 48.5583 43.0002 48.0075V8.00748C43.0002 7.4567 42.551 7.00748 42.0002 7.00748H33.0002ZM27.0002 26.0075C26.4494 26.0075 26.0002 26.6794 26.0002 27.5075C26.0002 28.3356 26.4494 29.0075 27.0002 29.0075C27.551 29.0075 28.0002 28.3356 28.0002 27.5075C28.0002 26.6794 27.551 26.0075 27.0002 26.0075Z" fill="#111111"/>
</svg>
