<svg width="56" height="56" viewBox="0 0 56 56" fill="none" xmlns="http://www.w3.org/2000/svg">
<path d="M5.81262 10C5.33605 10.0898 4.9923 10.5117 5.00012 11V41C5.00012 41.5508 5.44933 42 6.00012 42H50.0001C50.5509 42 51.0001 41.5508 51.0001 41V11C51.0001 10.4492 50.5509 10 50.0001 10H6.00012C5.96887 10 5.93762 10 5.90637 10C5.87512 10 5.84387 10 5.81262 10ZM7.00012 12H49.0001V40H7.00012V12ZM28.0001 15C24.6993 15 22.0001 17.6992 22.0001 21C22.0001 23.0898 23.09 24.9258 24.7189 26C21.5431 26.1445 19.0001 28.7891 19.0001 32H21.0001C21.0001 29.7812 22.7814 28 25.0001 28H31.0001C33.2189 28 35.0001 29.7812 35.0001 32H37.0001C37.0001 28.7891 34.4571 26.1445 31.2814 26C32.9103 24.9258 34.0001 23.0898 34.0001 21C34.0001 17.6992 31.3009 15 28.0001 15ZM28.0001 17C30.2228 17 32.0001 18.7773 32.0001 21C32.0001 23.2227 30.2228 25 28.0001 25C25.7775 25 24.0001 23.2227 24.0001 21C24.0001 18.7773 25.7775 17 28.0001 17ZM13.0001 34V38H19.0001V34H13.0001ZM21.0001 34V38H27.0001V34H21.0001ZM29.0001 34V38H35.0001V34H29.0001ZM37.0001 34V38H43.0001V34H37.0001ZM17.7189 44C17.1681 44.0781 16.7814 44.5898 16.8595 45.1406C16.9376 45.6914 17.4493 46.0781 18.0001 46H38.0001C38.3595 46.0039 38.6954 45.8164 38.879 45.5039C39.0587 45.1914 39.0587 44.8086 38.879 44.4961C38.6954 44.1836 38.3595 43.9961 38.0001 44H18.0001C17.9689 44 17.9376 44 17.9064 44C17.8751 44 17.8439 44 17.8126 44C17.7814 44 17.7501 44 17.7189 44Z" fill="#111111"/>
</svg>
