<svg width="50" height="50" viewBox="0 0 50 50" fill="none" xmlns="http://www.w3.org/2000/svg">
<path d="M25 4.39124C25.8863 4.39124 26.7581 4.6193 27.5303 5.05432C28.3024 5.48934 28.949 6.11666 29.4082 6.87463L29.4112 6.87854L46.3125 35.1031C46.7592 35.8805 46.9958 36.7611 46.9981 37.6578C47.0003 38.5572 46.7667 39.4419 46.3213 40.2233C45.8759 41.0046 45.234 41.6566 44.459 42.1129C43.684 42.5692 42.8027 42.8144 41.9034 42.8248H8.09769C7.19792 42.8147 6.31559 42.5694 5.54008 42.1129C4.76478 41.6565 4.12225 41.0049 3.67679 40.2233C3.23127 39.4414 2.99844 38.5557 3.00101 37.6559C3.00367 36.7562 3.24153 35.8725 3.69144 35.0934L3.70121 35.0778L20.5586 6.93127L20.5635 6.92346L20.5674 6.91565C20.5751 6.90175 20.5836 6.88822 20.5918 6.87463C21.0511 6.11666 21.6976 5.48933 22.4698 5.05432C23.242 4.6193 24.1137 4.39124 25 4.39124ZM25 6.72424C24.515 6.72424 24.0379 6.84944 23.6153 7.08752C23.2085 7.31671 22.8655 7.6436 22.6162 8.03772L22.6094 8.04749L22.6036 8.05823C22.5993 8.06565 22.5953 8.07327 22.5909 8.08069L5.70511 36.2731C5.46357 36.6964 5.33547 37.1752 5.33402 37.6627C5.33261 38.1552 5.46031 38.6401 5.70414 39.068C5.94797 39.4958 6.30027 39.8524 6.72465 40.1022C7.14618 40.3502 7.62535 40.4846 8.11429 40.4918H41.8858C42.3745 40.4845 42.8531 40.3501 43.2745 40.1022C43.6986 39.8524 44.0502 39.4956 44.294 39.068C44.5378 38.6403 44.6653 38.156 44.6641 37.6637C44.6628 37.1763 44.5352 36.6973 44.294 36.274L44.2891 36.2653L27.4141 8.08557L27.4121 8.08362L27.4102 8.07971C27.159 7.66668 26.806 7.32484 26.3848 7.08752C25.9622 6.84944 25.4851 6.72425 25 6.72424ZM25.0205 32.1666C25.6647 32.1668 26.1866 32.6894 26.1866 33.3336C26.1865 33.9777 25.6646 34.4994 25.0205 34.4996H24.9991C24.3549 34.4995 23.8332 33.9778 23.833 33.3336C23.833 32.6894 24.3548 32.1668 24.9991 32.1666H25.0205ZM25.0205 17.5836C25.6645 17.5838 26.1863 18.1057 26.1866 18.7496V27.0836C26.1865 27.7277 25.6646 28.2494 25.0205 28.2496C24.3763 28.2496 23.8536 27.7279 23.8536 27.0836V18.7496C23.8538 18.1055 24.3764 17.5836 25.0205 17.5836Z" fill="#111111"/>
</svg>
