<svg width="56" height="56" viewBox="0 0 56 56" fill="none" xmlns="http://www.w3.org/2000/svg">
<path d="M27.9062 3.00452C27.8633 3.01233 27.8203 3.02405 27.7812 3.03577C27.3164 3.14124 26.9883 3.55921 27 4.03577V7.03577H3V41.0358H27V42.5983L18.2812 51.317C17.8828 51.7155 17.8828 52.3561 18.2812 52.7545C18.6797 53.153 19.3203 53.153 19.7188 52.7545L27 45.4733V48.0358C26.9961 48.3951 27.1836 48.7311 27.4961 48.9147C27.8086 49.0944 28.1914 49.0944 28.5039 48.9147C28.8164 48.7311 29.0039 48.3951 29 48.0358V45.4733L36.2812 52.7545C36.6797 53.153 37.3203 53.153 37.7188 52.7545C38.1172 52.3561 38.1172 51.7155 37.7188 51.317L29 42.6295V41.0358H53V7.03577H29V4.03577C29.0117 3.74671 28.8945 3.46936 28.6875 3.27405C28.4766 3.07483 28.1914 2.97717 27.9062 3.00452ZM5 9.03577H51V39.0358H28.1875C28.0547 39.0084 27.9141 39.0084 27.7812 39.0358H5V9.03577ZM44 17.0358C42.8945 17.0358 42 17.9303 42 19.0358C42 19.1217 42.0195 19.2037 42.0312 19.2858L31.7812 27.192C31.543 27.0905 31.2773 27.0358 31 27.0358C30.7227 27.0358 30.457 27.0905 30.2188 27.192H30.1875L22 21.2233C22.0039 21.1608 22 21.0983 22 21.0358C22 19.9303 21.1055 19.0358 20 19.0358C18.8945 19.0358 18 19.9303 18 21.0358C18 21.11 18.0234 21.1803 18.0312 21.2545L12.7812 25.192C12.543 25.0905 12.2773 25.0358 12 25.0358C10.8945 25.0358 10 25.9303 10 27.0358C10 28.1412 10.8945 29.0358 12 29.0358C13.1055 29.0358 14 28.1412 14 27.0358C14 26.9615 13.9766 26.8912 13.9688 26.817L19.2188 22.8795C19.457 22.9811 19.7227 23.0358 20 23.0358C20.2773 23.0358 20.543 22.9811 20.7812 22.8795H20.8125L29 28.8483C28.9961 28.9108 29 28.9733 29 29.0358C29 30.1412 29.8945 31.0358 31 31.0358C32.1055 31.0358 33 30.1412 33 29.0358C33 28.9498 32.9805 28.8678 32.9688 28.7858L43.2188 20.8795H43.25C43.4805 20.9733 43.7344 21.0358 44 21.0358C45.1055 21.0358 46 20.1412 46 19.0358C46 17.9303 45.1055 17.0358 44 17.0358Z" fill="#111111"/>
</svg>
