<svg width="20" height="20" viewBox="0 0 20 20" fill="none" xmlns="http://www.w3.org/2000/svg">
<path d="M5.33359 8.10156C5.63695 7.92456 6.02443 8.01761 6.20859 8.3125C6.38769 8.61257 6.29323 8.9967 5.99472 9.17871C4.97514 9.79356 4.33377 10.8656 4.2789 12.041C4.18935 13.9939 5.71686 15.6575 7.69199 15.7461C9.1943 15.8148 10.5876 14.9387 11.1646 13.5713C11.299 13.2518 11.6715 13.099 11.9947 13.2314V13.2266C12.3181 13.3594 12.4728 13.7291 12.3385 14.0488C11.5822 15.8343 9.80111 16.995 7.85605 16.9951C7.78142 16.9951 7.70607 16.9902 7.63144 16.9902C6.33814 16.9311 5.14465 16.3799 4.26913 15.4307C3.39351 14.4862 2.94576 13.2565 3.00546 11.9775C3.08009 10.3837 3.9505 8.9329 5.33359 8.10156ZM8.20859 3C9.01456 3 9.67636 3.65426 9.67636 4.45117C9.67635 5.24797 9.02505 5.89233 8.22421 5.90234L8.37851 8.07129H11.3883C11.7364 8.0714 12.0249 8.35206 12.025 8.70117C12.025 9.05036 11.7364 9.33094 11.3883 9.33105H8.46738L8.52695 10.1279H12.4225C12.6662 10.1279 12.8902 10.2659 12.9947 10.4873L14.8355 14.3926L16.1344 13.8955C16.4627 13.7678 16.8312 13.9303 16.9605 14.2549C17.0899 14.5745 16.9254 14.9384 16.5973 15.0664L14.7408 15.7754C14.6664 15.8048 14.5917 15.8193 14.5123 15.8193C14.2735 15.8193 14.0446 15.6813 13.9352 15.4551L12.0152 11.3877H7.93515C7.63928 11.3876 7.39266 11.1915 7.31894 10.9219L6.73593 4.45117C6.73593 3.64947 7.40278 3.0002 8.20859 3Z" fill="#111111"/>
</svg>
