<svg width="20" height="20" viewBox="0 0 20 20" fill="none" xmlns="http://www.w3.org/2000/svg">
<path d="M7.15703 6.99902C7.59868 6.99909 7.95663 7.35721 7.95683 7.79883V14.3535L8.94804 13.3623C9.26039 13.05 9.76647 13.0501 10.0789 13.3623C10.3913 13.6747 10.3913 14.1808 10.0789 14.4932L7.72246 16.8496C7.63464 16.9374 7.53157 17.0006 7.42168 17.0391C7.41112 17.0428 7.40021 17.0465 7.38945 17.0498C7.37996 17.0527 7.36972 17.0541 7.36015 17.0566C7.29524 17.0737 7.2273 17.084 7.15703 17.084C7.11039 17.084 7.06476 17.079 7.02031 17.0713C6.86324 17.0443 6.71186 16.9718 6.59062 16.8506L4.23418 14.4932C3.92212 14.1808 3.92201 13.6737 4.23418 13.3613C4.54654 13.0493 5.05367 13.0502 5.36601 13.3623L6.35722 14.3535V7.79883C6.35742 7.35722 6.7154 6.99911 7.15703 6.99902ZM13.2928 2.0127C13.4498 2.0397 13.6012 2.11224 13.7225 2.2334L16.0799 4.58984C16.392 4.90218 16.3919 5.41029 16.0799 5.72266C15.7675 6.03477 15.2604 6.03379 14.948 5.72168L13.9559 4.73047V11.2852C13.9556 11.7267 13.5976 12.0849 13.1561 12.085C12.7146 12.0847 12.3575 11.7266 12.3572 11.2852V4.73047L11.365 5.72168C11.0527 6.03402 10.5466 6.03387 10.2342 5.72168C9.92189 5.40925 9.9218 4.90319 10.2342 4.59082L12.5906 2.23438C12.6785 2.14654 12.7824 2.08341 12.8924 2.04492C12.9028 2.04128 12.9131 2.0374 12.9236 2.03418C12.9331 2.03129 12.9433 2.02987 12.9529 2.02734C13.0178 2.0103 13.0858 2.00004 13.1561 2C13.2026 2.00001 13.2484 2.00506 13.2928 2.0127Z" fill="#111111"/>
</svg>
