<svg width="20" height="20" viewBox="0 0 20 20" fill="none" xmlns="http://www.w3.org/2000/svg">
<path d="M10.5029 8.16992C10.8748 8.17009 11.1786 8.46738 11.1787 8.83105V16.3389C11.1787 16.7026 10.8749 16.9998 10.5029 17C10.1308 17 9.82617 16.7027 9.82617 16.3389V8.83105C9.82627 8.46728 10.1309 8.16992 10.5029 8.16992ZM15.418 1.99512C15.7429 1.99512 16.0107 2.25136 16.0107 2.57422C16.0106 2.89696 15.7428 3.15332 15.418 3.15332H11.084C11.0892 3.18394 11.0898 3.2145 11.0898 3.24512V4.44434C11.3936 4.62876 11.5926 4.96185 11.5928 5.34082C11.5928 5.72004 11.3938 6.04891 11.0898 6.2334V6.79688C11.9806 7.04808 12.6357 7.85258 12.6357 8.80566V9.94336H14.5537C14.8838 9.94342 15.1455 10.1996 15.1455 10.5225C15.1455 10.8452 14.8838 11.1015 14.5537 11.1016H12.6045C11.9704 11.1016 11.4512 10.5937 11.4512 9.97363V8.80566C11.4512 8.28807 11.0211 7.87305 10.4971 7.87305C9.97315 7.87321 9.54395 8.28817 9.54395 8.80566V13.208C9.54379 13.833 9.02485 14.3397 8.38574 14.3398H6.43555C6.10557 14.3396 5.84375 14.0835 5.84375 13.7607C5.84399 13.4382 6.10572 13.1818 6.43555 13.1816H8.35352V8.81055C8.3536 7.85743 9.00955 7.05285 9.90039 6.80176V6.22266C9.61222 6.03309 9.42294 5.71555 9.42285 5.34668C9.42285 4.9777 9.61216 4.65446 9.90039 4.46484V3.25C9.90043 3.21436 9.90527 3.18882 9.90527 3.1582H5.5918C5.26706 3.15799 5.00001 2.8967 5 2.5791C5 2.2615 5.26706 2.00021 5.5918 2H15.4082L15.418 1.99512ZM10.5029 4.86426C10.2306 4.86426 10.0159 5.07457 10.0156 5.34082C10.0156 5.6073 10.2304 5.81836 10.5029 5.81836C10.7701 5.81819 10.9902 5.60208 10.9902 5.34082C10.99 5.07978 10.7751 4.86442 10.5029 4.86426Z" fill="black"/>
</svg>
