<svg width="20" height="20" viewBox="0 0 20 20" fill="none" xmlns="http://www.w3.org/2000/svg">
<path fill-rule="evenodd" clip-rule="evenodd" d="M7.39775 3.71762C8.22276 3.37589 9.10701 3.2 10 3.2C10.893 3.2 11.7772 3.37589 12.6022 3.71762C13.4273 4.05935 14.1769 4.56024 14.8083 5.19167C15.4398 5.82311 15.9406 6.57274 16.2824 7.39775C16.6241 8.22277 16.8 9.10701 16.8 10C16.8 10.893 16.6241 11.7772 16.2824 12.6022C15.9406 13.4273 15.4398 14.1769 14.8083 14.8083C14.1769 15.4398 13.4273 15.9406 12.6022 16.2824C11.7772 16.6241 10.893 16.8 10 16.8C9.10701 16.8 8.22276 16.6241 7.39775 16.2824C6.57274 15.9406 5.82311 15.4398 5.19167 14.8083C4.56023 14.1769 4.05935 13.4273 3.71762 12.6022C3.37588 11.7772 3.2 10.893 3.2 10C3.2 9.10701 3.37588 8.22277 3.71762 7.39775C4.05935 6.57274 4.56023 5.82311 5.19167 5.19167C5.82311 4.56024 6.57274 4.05935 7.39775 3.71762ZM10 4.8C9.31712 4.8 8.64094 4.9345 8.01004 5.19583C7.37915 5.45715 6.80591 5.84018 6.32304 6.32305C5.84018 6.80591 5.45715 7.37915 5.19582 8.01005C4.9345 8.64094 4.8 9.31713 4.8 10C4.8 10.6829 4.9345 11.3591 5.19582 11.99C5.45715 12.6208 5.84018 13.1941 6.32304 13.677C6.80591 14.1598 7.37915 14.5429 8.01004 14.8042C8.64094 15.0655 9.31712 15.2 10 15.2C10.6829 15.2 11.3591 15.0655 11.99 14.8042C12.6208 14.5429 13.1941 14.1598 13.677 13.677C14.1598 13.1941 14.5428 12.6208 14.8042 11.99C15.0655 11.3591 15.2 10.6829 15.2 10C15.2 9.31713 15.0655 8.64094 14.8042 8.01005C14.5428 7.37915 14.1598 6.80591 13.677 6.32305C13.1941 5.84018 12.6208 5.45715 11.99 5.19583C11.3591 4.9345 10.6829 4.8 10 4.8Z" fill="#111111"/>
<path fill-rule="evenodd" clip-rule="evenodd" d="M12.5657 8.10098C12.8781 8.4134 12.8781 8.91993 12.5657 9.23235L9.89902 11.899C9.5866 12.2114 9.08006 12.2114 8.76764 11.899L7.43431 10.5657C7.12189 10.2533 7.12189 9.74673 7.43431 9.43432C7.74673 9.1219 8.25326 9.1219 8.56568 9.43432L9.33333 10.202L11.4343 8.10098C11.7467 7.78856 12.2533 7.78856 12.5657 8.10098Z" fill="#111111"/>
</svg>
