<svg width="20" height="20" viewBox="0 0 20 20" fill="none" xmlns="http://www.w3.org/2000/svg">
<path d="M7.57037 3C6.67595 3 5.95062 3.78287 5.95062 4.74827V9.125C5.95062 10.0904 6.67595 9.99827 7.57037 9.99827H12.4296C13.3241 9.99827 14.0494 10.0904 14.0494 9.125V4.74827C14.0494 3.78287 13.3241 3 12.4296 3H7.57037ZM5.43116 11.0345C5.40191 11.0342 5.37268 11.0367 5.34385 11.042H4.49285C4.42846 11.041 4.36453 11.0539 4.30477 11.0798C4.24502 11.1057 4.19063 11.1442 4.14478 11.193C4.09892 11.2418 4.06251 11.2999 4.03765 11.3641C4.0128 11.4282 4 11.497 4 11.5665C4 11.636 4.0128 11.7048 4.03765 11.7689C4.06251 11.8331 4.09892 11.8912 4.14478 11.94C4.19063 11.9888 4.24502 12.0273 4.30477 12.0532C4.64601 12.2012 4.71085 12.6011 4.86678 12.966L4.3353 16.392C4.32497 16.4612 4.32758 16.5318 4.34298 16.5999C4.35838 16.668 4.38625 16.732 4.42495 16.7882C4.46366 16.8445 4.5124 16.8918 4.56832 16.9274C4.62424 16.9629 4.68619 16.986 4.75052 16.9954C4.81485 17.0047 4.88026 17 4.94288 16.9815C5.0055 16.9631 5.06407 16.9313 5.11513 16.8881C5.16619 16.8448 5.2087 16.791 5.24016 16.7297C5.27162 16.6684 5.29138 16.601 5.29829 16.5313L6.704 12.966H13.296L14.7017 16.5313C14.7086 16.601 14.7284 16.6684 14.7598 16.7297C14.7913 16.791 14.8338 16.8448 14.8849 16.8881C14.9359 16.9313 14.9945 16.9631 15.0571 16.9815C15.1197 17 15.1852 17.0047 15.2495 16.9954C15.3138 16.986 15.3758 16.9629 15.4317 16.9274C15.4876 16.8918 15.5363 16.8445 15.575 16.7882C15.6138 16.732 15.6416 16.668 15.657 16.5999C15.6724 16.5318 15.675 16.4612 15.6647 16.392L15.1332 12.966C15.2892 12.6011 15.354 12.2012 15.6952 12.0532C15.755 12.0273 15.8094 11.9888 15.8552 11.94C15.9011 11.8912 15.9375 11.8331 15.9623 11.7689C15.9872 11.7048 16 11.636 16 11.5665C16 11.497 15.9872 11.4282 15.9623 11.3641C15.9375 11.2999 15.9011 11.2418 15.8552 11.193C15.8094 11.1442 15.755 11.1057 15.6952 11.0798C15.6355 11.0539 15.5715 11.041 15.5072 11.042H14.6574C14.6053 11.0328 14.552 11.0328 14.4999 11.042H5.50139C5.47818 11.0377 5.45471 11.0352 5.43116 11.0345Z" fill="#111111"/>
</svg>
