<svg width="20" height="20" viewBox="0 0 20 20" fill="none" xmlns="http://www.w3.org/2000/svg">
<path d="M15.1328 16.3564C15.1991 16.3556 15.2657 16.3673 15.3271 16.3906C15.3884 16.4139 15.4442 16.4485 15.4912 16.4922C15.5384 16.5361 15.576 16.5888 15.6016 16.6465C15.6271 16.704 15.6406 16.7658 15.6406 16.8281C15.6406 16.8906 15.6271 16.9531 15.6016 17.0107C15.576 17.0682 15.5383 17.1203 15.4912 17.1641C15.4442 17.2078 15.3884 17.2423 15.3271 17.2656C15.2657 17.2889 15.1991 17.3007 15.1328 17.2998H9.4668C9.40067 17.3007 9.33482 17.2888 9.27344 17.2656C9.21197 17.2423 9.15557 17.2079 9.1084 17.1641C9.06131 17.1203 9.02362 17.0682 8.99805 17.0107C8.97247 16.9531 8.95898 16.8906 8.95898 16.8281C8.95901 16.7658 8.97253 16.704 8.99805 16.6465C9.02362 16.5888 9.06121 16.5361 9.1084 16.4922C9.15553 16.4484 9.21206 16.4139 9.27344 16.3906C9.33478 16.3675 9.40072 16.3556 9.4668 16.3564H15.1328ZM17.4668 6.2998C18.4776 6.29997 19.2998 7.07522 19.2998 8.02832V13.6855C19.2998 14.6386 18.4776 15.4139 17.4668 15.4141H7.13281C6.12198 15.4139 5.29984 14.6386 5.2998 13.6855V8.02832C5.29983 7.07522 6.12198 6.29997 7.13281 6.2998H17.4668ZM12.4668 3C13.5773 3.00017 14.4898 3.84855 14.5908 4.93262C14.6011 5.04261 14.5099 5.13281 14.3994 5.13281H13.2002C13.0898 5.13281 13.0034 5.04021 12.9629 4.9375C12.8849 4.73978 12.6921 4.59974 12.4668 4.59961H3.39941C2.9579 4.59982 2.59982 4.9579 2.59961 5.39941V10.2002C2.59982 10.6417 2.9579 10.9998 3.39941 11C3.46252 11 3.51367 11.0512 3.51367 11.1143V12.4854C3.51367 12.5485 3.46252 12.5996 3.39941 12.5996C2.07424 12.5994 1.00021 11.5254 1 10.2002V5.39941C1.00021 4.07424 2.07424 3.00021 3.39941 3H12.4668Z" fill="#111111"/>
</svg>
