<svg width="20" height="20" viewBox="0 0 20 20" fill="none" xmlns="http://www.w3.org/2000/svg">
<path d="M9.16786 3.14972C3.24093 4.41875 2.06897 12.4626 7.44864 15.2504C8.1198 15.5951 9.30209 15.9998 10.0559 15.9998C10.5773 15.9998 10.8355 15.3603 10.4431 15.0106C10.2314 14.8307 9.73061 14.8357 9.43632 14.7758C4.59359 13.7865 3.55586 7.43143 7.7171 4.91337C11.6563 2.5302 16.3494 5.73773 15.8176 10.1793C15.6266 11.7881 14.1603 14.0164 12.3895 14.1563C11.4653 14.2262 11.1814 13.5667 11.1607 12.7673H12.2862C12.2862 12.7673 12.4927 12.6774 12.5237 12.6574C12.6889 12.5475 12.8077 12.3127 12.8283 12.1228C12.9109 11.3684 12.8748 10.4991 12.9109 9.73965C12.9212 9.53481 12.9625 9.32497 12.9367 9.11513C13.0916 9.04019 13.2568 8.93527 13.2775 8.74542C13.293 8.63051 13.293 8.2558 13.2775 8.14588C13.2568 8.05595 13.0864 7.8661 13.0038 7.8661H12.5237C12.4824 7.84111 12.4876 7.81114 12.4824 7.77617C12.4101 7.16164 12.5547 6.39723 12.4824 5.7777C12.4308 5.34803 11.9403 5.15318 11.6047 5.43796C11.5324 5.49792 11.4189 5.66279 11.4189 5.75272V7.8661H9.73577L9.69447 7.82613V5.70276C9.69447 5.67278 9.61186 5.52789 9.58605 5.49792C9.33307 5.19815 8.82195 5.26809 8.66706 5.62782C8.65158 5.65779 8.61027 5.79269 8.61027 5.80768V7.8661H8.17659C8.08883 7.8661 7.9391 8.04596 7.91329 8.13089C7.87715 8.27078 7.87715 8.71045 7.92878 8.84035C7.98041 8.96525 8.10948 9.06018 8.23855 9.08016C8.29018 9.11513 8.2592 9.50983 8.26436 9.60476C8.3005 10.4141 8.29018 11.3234 8.37278 12.1228C8.3986 12.4076 8.62576 12.7124 8.92004 12.7573C9.25563 12.8073 9.66865 12.7373 10.0146 12.7623C10.0352 13.9114 10.5928 15.0506 11.837 15.2504C14.0571 15.6051 16.1738 13.182 16.7314 11.2685C18.0841 6.63704 14.0158 2.11052 9.16786 3.14972ZM10.2314 11.7731C10.2004 11.8081 10.1488 11.888 10.1127 11.908C9.99391 11.9729 9.84935 11.868 9.87517 11.7381L10.1849 10.4941H9.5654C9.4673 10.4941 9.37437 10.3292 9.44665 10.2443C9.84419 9.72467 10.1953 9.15011 10.5928 8.6405C10.6186 8.61052 10.6548 8.55057 10.6909 8.53558C10.7838 8.48062 10.9129 8.54058 10.9284 8.6455L10.7993 9.73965H11.4602C11.4602 9.73965 11.5221 9.76963 11.5324 9.77962C11.5892 9.82959 11.5995 9.92451 11.5582 9.98447C11.1039 10.564 10.6909 11.1835 10.2366 11.7681L10.2314 11.7731Z" fill="#111111"/>
</svg>
