<svg width="20" height="20" viewBox="0 0 20 20" fill="none" xmlns="http://www.w3.org/2000/svg">
<path d="M10 2C5.5888 2 2 5.5888 2 10C2 14.4112 5.5888 18 10 18C14.4112 18 18 14.4112 18 10C18 5.5888 14.4112 2 10 2ZM10 4.4C13.088 4.4 15.6 6.912 15.6 10V10.6C15.6 11.8128 14.6132 12.8 13.4 12.8C12.6948 12.8 12.0669 12.4645 11.6641 11.9469C11.1913 12.4717 10.5312 12.8 9.8 12.8C8.3664 12.8 7.2 11.5436 7.2 10C7.2 8.4564 8.3664 7.2 9.8 7.2C10.3236 7.2 10.8107 7.36903 11.2195 7.65703C11.2839 7.39543 11.518 7.2 11.8 7.2C12.1316 7.2 12.4 7.4688 12.4 7.8V10.6C12.4 11.1516 12.8488 11.6 13.4 11.6C13.9512 11.6 14.4 11.1516 14.4 10.6V10C14.4 7.574 12.426 5.6 10 5.6C7.574 5.6 5.6 7.574 5.6 10C5.6 12.426 7.574 14.4 10 14.4C10.5324 14.4 11.0529 14.3063 11.5461 14.1211C11.8553 14.0039 12.2028 14.1623 12.3188 14.4727C12.4352 14.7827 12.278 15.1281 11.968 15.2445C11.3392 15.4801 10.6768 15.6 10 15.6C6.912 15.6 4.4 13.088 4.4 10C4.4 6.912 6.912 4.4 10 4.4ZM9.8 8.4C9.4287 8.4 9.0726 8.56857 8.81005 8.86863C8.5475 9.16869 8.4 9.57565 8.4 10C8.4 10.4243 8.5475 10.8313 8.81005 11.1314C9.0726 11.4314 9.4287 11.6 9.8 11.6C10.1713 11.6 10.5274 11.4314 10.79 11.1314C11.0525 10.8313 11.2 10.4243 11.2 10C11.2 9.57565 11.0525 9.16869 10.79 8.86863C10.5274 8.56857 10.1713 8.4 9.8 8.4Z" fill="#111111"/>
</svg>
