<svg width="14" height="14" viewBox="0 0 14 14" fill="none" xmlns="http://www.w3.org/2000/svg">
<path fill-rule="evenodd" clip-rule="evenodd" d="M4.19775 0.517619C5.02277 0.175887 5.90701 0 6.8 0C7.69299 0 8.57723 0.175887 9.40225 0.517619C10.2273 0.859351 10.9769 1.36024 11.6083 1.99167C12.2398 2.62311 12.7406 3.37274 13.0824 4.19775C13.4241 5.02277 13.6 5.90701 13.6 6.8C13.6 7.69299 13.4241 8.57723 13.0824 9.40225C12.7406 10.2273 12.2398 10.9769 11.6083 11.6083C10.9769 12.2398 10.2273 12.7406 9.40225 13.0824C8.57723 13.4241 7.69299 13.6 6.8 13.6C5.90701 13.6 5.02277 13.4241 4.19775 13.0824C3.37274 12.7406 2.62311 12.2398 1.99167 11.6083C1.36024 10.9769 0.859351 10.2273 0.517619 9.40225C0.175887 8.57723 0 7.69299 0 6.8C0 5.90701 0.175887 5.02277 0.517619 4.19775C0.859351 3.37274 1.36024 2.62311 1.99167 1.99167C2.62311 1.36024 3.37274 0.859351 4.19775 0.517619ZM6.8 1.6C6.11713 1.6 5.44094 1.7345 4.81005 1.99583C4.17915 2.25715 3.60591 2.64018 3.12304 3.12304C2.64018 3.60591 2.25715 4.17915 1.99583 4.81005C1.7345 5.44094 1.6 6.11713 1.6 6.8C1.6 7.48287 1.7345 8.15906 1.99583 8.78995C2.25715 9.42085 2.64018 9.99409 3.12304 10.477C3.60591 10.9598 4.17915 11.3429 4.81005 11.6042C5.44094 11.8655 6.11713 12 6.8 12C7.48287 12 8.15906 11.8655 8.78995 11.6042C9.42085 11.3429 9.99409 10.9598 10.477 10.477C10.9598 9.99409 11.3429 9.42085 11.6042 8.78995C11.8655 8.15906 12 7.48287 12 6.8C12 6.11713 11.8655 5.44094 11.6042 4.81005C11.3429 4.17915 10.9598 3.60591 10.477 3.12304C9.99409 2.64018 9.42085 2.25715 8.78995 1.99583C8.15906 1.7345 7.48287 1.6 6.8 1.6Z" fill="#111111"/>
<path fill-rule="evenodd" clip-rule="evenodd" d="M9.36569 4.90098C9.6781 5.2134 9.6781 5.71993 9.36569 6.03235L6.69902 8.69902C6.3866 9.01144 5.88007 9.01144 5.56765 8.69902L4.23431 7.36569C3.9219 7.05327 3.9219 6.54673 4.23431 6.23431C4.54673 5.9219 5.05327 5.9219 5.36569 6.23431L6.13333 7.00196L8.23431 4.90098C8.54673 4.58856 9.05327 4.58856 9.36569 4.90098Z" fill="#111111"/>
</svg>
