<svg width="20" height="20" viewBox="0 0 20 20" fill="none" xmlns="http://www.w3.org/2000/svg">
<path fill-rule="evenodd" clip-rule="evenodd" d="M5.19167 5.19167C6.46692 3.91643 8.19653 3.2 10 3.2C11.8035 3.2 13.5331 3.91643 14.8083 5.19167C16.0836 6.46692 16.8 8.19653 16.8 10C16.8 10.893 16.6241 11.7772 16.2824 12.6022C15.9406 13.4273 15.4398 14.1769 14.8083 14.8083C14.1769 15.4398 13.4273 15.9406 12.6022 16.2824C11.7772 16.6241 10.893 16.8 10 16.8C9.10701 16.8 8.22276 16.6241 7.39775 16.2824C6.57274 15.9406 5.82311 15.4398 5.19167 14.8083C4.56023 14.1769 4.05935 13.4273 3.71762 12.6022C3.37588 11.7772 3.2 10.893 3.2 10C3.2 8.19653 3.91642 6.46692 5.19167 5.19167ZM10 4.8C8.62087 4.8 7.29823 5.34786 6.32304 6.32305C5.34785 7.29823 4.8 8.62088 4.8 10C4.8 10.6829 4.9345 11.3591 5.19582 11.99C5.45715 12.6208 5.84018 13.1941 6.32304 13.677C6.80591 14.1598 7.37915 14.5429 8.01004 14.8042C8.64094 15.0655 9.31712 15.2 10 15.2C10.6829 15.2 11.3591 15.0655 11.99 14.8042C12.6208 14.5429 13.1941 14.1598 13.677 13.677C14.1598 13.1941 14.5428 12.6208 14.8042 11.99C15.0655 11.3591 15.2 10.6829 15.2 10C15.2 8.62088 14.6521 7.29823 13.677 6.32305C12.7018 5.34786 11.3791 4.8 10 4.8Z" fill="#111111"/>
<path fill-rule="evenodd" clip-rule="evenodd" d="M9.2 8C9.2 7.55817 9.55817 7.2 10 7.2H10.0067C10.4485 7.2 10.8067 7.55817 10.8067 8C10.8067 8.44183 10.4485 8.8 10.0067 8.8H10C9.55817 8.8 9.2 8.44183 9.2 8Z" fill="#111111"/>
<path fill-rule="evenodd" clip-rule="evenodd" d="M10 9.2C10.4418 9.2 10.8 9.55817 10.8 10V12.6667C10.8 13.1085 10.4418 13.4667 10 13.4667C9.55817 13.4667 9.2 13.1085 9.2 12.6667V10C9.2 9.55817 9.55817 9.2 10 9.2Z" fill="#111111"/>
</svg>
