<svg width="20" height="20" viewBox="0 0 20 20" fill="none" xmlns="http://www.w3.org/2000/svg">
<path d="M4.09524 3C2.93981 3 2 3.91631 2 5.04285V11.7285C2 12.8551 2.93981 13.7714 4.09524 13.7714H15.9048C17.0602 13.7714 18 12.8551 18 11.7285V5.04285C18 3.91631 17.0602 3 15.9048 3H4.09524ZM6.7619 14.8857C6.68618 14.8846 6.611 14.8983 6.54074 14.9258C6.47047 14.9533 6.40651 14.9942 6.35259 15.046C6.29866 15.0979 6.25584 15.1596 6.22662 15.2278C6.19739 15.2959 6.18234 15.369 6.18234 15.4428C6.18234 15.5166 6.19739 15.5897 6.22662 15.6579C6.25584 15.726 6.29866 15.7877 6.35259 15.8396C6.40651 15.8914 6.47047 15.9323 6.54074 15.9598C6.611 15.9873 6.68618 16.001 6.7619 15.9999H13.2381C13.3138 16.001 13.389 15.9873 13.4593 15.9598C13.5295 15.9323 13.5935 15.8914 13.6474 15.8396C13.7013 15.7877 13.7442 15.726 13.7734 15.6579C13.8026 15.5897 13.8177 15.5166 13.8177 15.4428C13.8177 15.369 13.8026 15.2959 13.7734 15.2278C13.7442 15.1596 13.7013 15.0979 13.6474 15.046C13.5935 14.9942 13.5295 14.9533 13.4593 14.9258C13.389 14.8983 13.3138 14.8846 13.2381 14.8857H6.7619Z" fill="#111111"/>
</svg>
