<svg width="20" height="20" viewBox="0 0 20 20" fill="none" xmlns="http://www.w3.org/2000/svg">
<path d="M11.0605 11.3135C11.8774 11.3135 12.54 11.9705 12.54 12.7812V15.5322C12.54 16.3429 11.8774 17 11.0605 17H9.93359C9.11699 16.9998 8.45515 16.3427 8.45508 15.5322V12.7812C8.45508 11.9707 9.11695 11.3137 9.93359 11.3135H11.0605ZM10.5381 3C11.3881 3.00015 12.1173 3.52483 12.4141 4.26367H14.3457C14.7029 4.26367 14.9951 4.54776 14.9951 4.90723C14.9951 5.26671 14.7029 5.55664 14.3457 5.55664H12.4795C12.4696 5.57648 12.4649 5.60126 12.46 5.62109C13.2345 5.83093 13.8027 6.53548 13.8027 7.36914V12.3066H13.7871C13.6412 10.9686 12.4996 9.92969 11.1162 9.92969H9.97949C8.59605 9.92969 7.45352 10.9686 7.30762 12.3066H7.29297V7.36914C7.29297 6.54032 7.85642 5.84067 8.62109 5.62598C8.61618 5.60656 8.60158 5.55993 8.60059 5.55664H6.6543C6.29208 5.55664 6 5.26172 6 4.90723C6.00003 4.55276 6.29713 4.26367 6.6543 4.26367H8.66113C8.95795 3.52473 9.68789 3 10.5381 3ZM10.4971 4.27832C10.13 4.27854 9.83301 4.57316 9.83301 4.9375C9.83315 5.30172 10.1301 5.59646 10.4971 5.59668C10.8642 5.59668 11.161 5.30186 11.1611 4.9375C11.1611 4.57302 10.8643 4.27832 10.4971 4.27832Z" fill="#111111"/>
</svg>
