<svg width="20" height="20" viewBox="0 0 20 20" fill="none" xmlns="http://www.w3.org/2000/svg">
<path d="M10.6 2.99994C10.4624 2.99994 10.3277 3.01422 10.1969 3.03822C10.1897 3.03942 10.1822 3.04015 10.175 3.04135C10.0466 3.06655 9.92389 3.10354 9.80469 3.14994C9.79749 3.15274 9.78963 3.15495 9.78203 3.15775C9.66243 3.20575 9.54863 3.26477 9.44063 3.33197C9.43543 3.33517 9.4302 3.33775 9.425 3.34135C9.3158 3.41055 9.21395 3.4897 9.11875 3.5765C9.11635 3.5789 9.11374 3.58113 9.11094 3.58353C9.01454 3.67233 8.92607 3.76936 8.84688 3.87416C8.84647 3.87456 8.84571 3.87532 8.84531 3.87572C8.56691 4.24452 8.4 4.70234 8.4 5.19994C8.4 5.56055 8.48846 5.89962 8.64219 6.19994H3.2C2.5372 6.19994 2 6.73714 2 7.39994V12.9999C2 13.6627 2.5372 14.1999 3.2 14.1999H8.8C9.4628 14.1999 10 13.6627 10 12.9999V7.39994C10 7.37003 9.99356 7.3418 9.99141 7.31244C10.1849 7.36811 10.3885 7.39994 10.6 7.39994C11.31 7.39994 11.9398 7.0614 12.3422 6.539C12.345 6.5354 12.3488 6.53128 12.3516 6.52728C12.4856 6.35088 12.5928 6.15374 12.6687 5.94134C12.6736 5.92775 12.6796 5.91394 12.6844 5.89994C12.718 5.79994 12.7441 5.69656 12.7633 5.59056C12.7669 5.57136 12.7691 5.55273 12.7719 5.53353C12.7887 5.42433 12.8 5.31354 12.8 5.19994C12.8 3.98474 11.8152 2.99994 10.6 2.99994ZM15.4 3.79994C15.1636 3.79987 14.9295 3.84637 14.711 3.9368C14.4926 4.02723 14.2941 4.1598 14.1269 4.32696C13.9597 4.49411 13.827 4.69256 13.7365 4.91098C13.646 5.12941 13.5995 5.36351 13.5995 5.59994C13.5995 5.83636 13.646 6.07047 13.7365 6.28889C13.827 6.50731 13.9597 6.70577 14.1269 6.87292C14.2941 7.04007 14.4926 7.17265 14.711 7.26308C14.9295 7.3535 15.1636 7.40001 15.4 7.39994C15.8773 7.3998 16.335 7.21009 16.6724 6.87254C17.0099 6.53499 17.1995 6.07724 17.1995 5.59994C17.1995 5.12264 17.0099 4.66489 16.6724 4.32734C16.335 3.98979 15.8773 3.80008 15.4 3.79994ZM11.2 8.19994V13.5999C11.2 14.5919 10.392 15.3999 9.4 15.3999H7.02422C7.76022 16.6079 9.092 17.3999 10.6 17.3999C12.916 17.3999 14.8 15.5159 14.8 13.1999V8.79994C14.8 8.46794 14.532 8.19994 14.2 8.19994H11.2ZM15.8961 8.19994C15.9641 8.38794 16 8.58794 16 8.79994V13.1999C16 13.9799 15.832 14.7193 15.532 15.3913C16.904 15.3273 18 14.1879 18 12.7999V8.79994C18 8.46794 17.732 8.19994 17.4 8.19994H15.8961Z" fill="#111111"/>
</svg>
