<svg width="20" height="20" viewBox="0 0 20 20" fill="none" xmlns="http://www.w3.org/2000/svg">
<path d="M10.6349 13.0009L11.4758 13.8798C10.9769 14.3264 10.3696 14.6501 10.0802 15.2929C9.71059 16.1144 9.63303 16.7315 8.89763 17.3691C7.59829 18.4946 5.61785 18.0656 4.94548 16.4687C4.79666 16.1149 4.67303 15.6853 5.12809 15.5039C5.83457 15.2216 6.04607 16.08 6.41618 16.415C6.99043 16.9342 7.74981 16.7897 8.23649 16.2392C8.6316 15.7915 8.70073 15.2922 8.93083 14.7724C9.28286 13.9793 9.91977 13.5051 10.5734 12.9882L10.6349 13.0009ZM3.20134 4.21674C2.60867 3.53842 3.44552 2.59514 4.16813 3.18647L16.8205 16.0292C17.2881 16.5615 16.7681 17.3913 16.0998 17.1835C15.7752 17.0825 15.429 16.6037 15.1857 16.3613C11.1626 12.3424 7.21027 8.25048 3.20134 4.21674ZM13.8927 5.04194C14.3337 4.96516 14.5558 5.3598 14.7746 5.6728C16.2875 7.83748 16.4748 10.7813 15.1818 13.1015L14.2482 12.1708C15.0319 10.5032 14.9483 8.5225 14.0646 6.91401C13.8999 6.61376 13.4304 6.06821 13.3918 5.78608C13.3479 5.46363 13.5677 5.09808 13.8927 5.04194ZM8.92985 5.26655C11.2422 5.15126 13.2523 6.8567 13.505 9.19526C13.576 9.85416 13.511 10.5742 13.2746 11.1894L12.2736 10.1728C12.2614 9.89749 12.2908 9.64644 12.2599 9.36616C12.063 7.56347 10.4804 6.34498 8.71403 6.56049L7.68864 5.51948C8.06552 5.35854 8.51822 5.28694 8.92985 5.26655ZM6.21696 8.52631C6.05162 8.89402 6.08847 9.38253 5.71599 9.62299C5.45222 9.79336 5.04669 9.74706 4.87224 9.47065C4.74208 9.26455 4.77744 9.12663 4.81071 8.90327C4.87828 8.44706 5.04983 7.9634 5.27946 7.56733L6.21696 8.52631Z" fill="black"/>
<path d="M8.93509 11.2892C8.24767 11.2415 7.63811 10.6203 7.59061 9.92453L8.93509 11.2892Z" fill="black"/>
</svg>
