<svg width="20" height="20" viewBox="0 0 20 20" fill="none" xmlns="http://www.w3.org/2000/svg">
<path d="M16.896 9.29843L15.6295 5.65843C15.2843 4.66671 14.3502 4 13.3052 4H6.69477C5.64985 4 4.71569 4.66671 4.37108 5.65781L3.10462 9.29781C2.42831 9.74538 2 10.5186 2 11.3691V15.7619C2 16.446 2.55077 17 3.23077 17C3.91077 17 4.46154 16.446 4.46154 15.7619V14.9813C4.46154 14.9813 7.71138 15.1429 10 15.1429C12.2886 15.1429 15.5385 14.9813 15.5385 14.9813V15.7619C15.5385 16.446 16.0892 17 16.7692 17C17.4492 17 18 16.446 18 15.7619V11.3691C18 10.5186 17.5711 9.74538 16.896 9.29843ZM4.82769 8.09376L5.53292 6.067C5.70585 5.57052 6.17169 5.2381 6.69477 5.2381H13.3052C13.8283 5.2381 14.2942 5.57052 14.4671 6.067L15.1723 8.09376C15.2831 8.41257 15.0191 8.73386 14.6874 8.68C13.4806 8.48376 11.9292 8.33333 10 8.33333C8.07077 8.33333 6.51938 8.48376 5.31262 8.68C4.98092 8.73386 4.71692 8.41257 4.82769 8.09376ZM4.76923 12.6667C4.25969 12.6667 3.84615 12.2507 3.84615 11.7381C3.84615 11.2255 4.25969 10.8095 4.76923 10.8095C5.27877 10.8095 5.69231 11.2255 5.69231 11.7381C5.69231 12.2507 5.27877 12.6667 4.76923 12.6667ZM11.8462 12.0476H8.15385C7.81415 12.0476 7.53846 11.7703 7.53846 11.4286C7.53846 11.0869 7.81415 10.8095 8.15385 10.8095H11.8462C12.1858 10.8095 12.4615 11.0869 12.4615 11.4286C12.4615 11.7703 12.1858 12.0476 11.8462 12.0476ZM15.2308 12.6667C14.7212 12.6667 14.3077 12.2507 14.3077 11.7381C14.3077 11.2255 14.7212 10.8095 15.2308 10.8095C15.7403 10.8095 16.1538 11.2255 16.1538 11.7381C16.1538 12.2507 15.7403 12.6667 15.2308 12.6667Z" fill="#111111"/>
</svg>
