<svg width="20" height="20" viewBox="0 0 20 20" fill="none" xmlns="http://www.w3.org/2000/svg">
<path d="M8.76724 3.05046L9.45485 4.67247C9.75445 5.37928 9.58845 6.21049 9.04365 6.72729L7.75883 7.94651C7.61403 8.08411 7.53883 8.28371 7.57123 8.48051C7.69523 9.23292 7.97003 9.97493 8.39564 10.7069C8.82044 11.4373 9.33765 12.0589 9.94765 12.5714C10.1093 12.707 10.3337 12.7422 10.5337 12.6754L12.0325 12.1753C12.7225 11.9453 13.4737 12.2098 13.8969 12.8314L14.8829 14.2798C15.3749 15.0026 15.2865 15.9994 14.6761 16.6122L14.0217 17.269C13.3705 17.9226 12.4405 18.1598 11.5801 17.8914C9.54885 17.2578 7.68163 15.377 5.97761 12.2486C4.2712 9.11572 3.66919 6.45729 4.1712 4.27407C4.3824 3.35526 5.0364 2.62365 5.89041 2.35085L6.75162 2.07565C7.55963 1.81845 8.42164 2.23525 8.76724 3.05046Z" fill="#111111"/>
</svg>
