<svg width="20" height="20" viewBox="0 0 20 20" fill="none" xmlns="http://www.w3.org/2000/svg">
<path d="M2.6 3C2.26863 3 2 3.26863 2 3.6V13.2889C2 13.6203 2.26863 13.8889 2.6 13.8889H14.3524C14.6838 13.8889 14.9524 13.6203 14.9524 13.2889V3.6C14.9524 3.26863 14.6838 3 14.3524 3H2.6ZM17.0762 6.11111C16.7448 6.11111 16.4762 6.37974 16.4762 6.71111V14.8444C16.4762 15.1758 16.2076 15.4444 15.8762 15.4444H5.64762C5.31625 15.4444 5.04762 15.7131 5.04762 16.0444V16.4C5.04762 16.7314 5.31625 17 5.64762 17H17.4C17.7314 17 18 16.7314 18 16.4V6.71111C18 6.37974 17.7314 6.11111 17.4 6.11111H17.0762ZM10.0015 8.31026C10.2443 7.98649 10.7315 7.99112 10.9682 8.31943L13.1762 11.3825C13.4623 11.7793 13.1787 12.3333 12.6895 12.3333H4.30851C3.81085 12.3333 3.52952 11.7624 3.83275 11.3677L5.29812 9.46077C5.53409 9.15369 5.99485 9.14727 6.23928 9.44766L7.26834 10.7123C7.51459 11.015 7.97961 11.0058 8.21372 10.6937L10.0015 8.31026Z" fill="#111111"/>
</svg>
