<svg width="20" height="20" viewBox="0 0 20 20" fill="none" xmlns="http://www.w3.org/2000/svg">
<path d="M15.7422 3C16.4374 3 17 3.56265 17 4.25781V15.7422C17 16.4374 16.4374 17 15.7422 17H4.25781C3.56265 17 3 16.4374 3 15.7422V4.25781C3 3.56265 3.56265 3 4.25781 3H15.7422ZM7.22559 6.58496C6.27664 7.41305 5.67783 8.70621 5.67773 10.042C5.67773 11.3779 6.22784 12.5812 7.11035 13.4033H12.9014C13.7779 12.5752 14.334 11.4323 14.334 10.042C14.3339 8.65199 13.7298 7.41305 12.7871 6.58496H7.22559ZM10.0117 10.7734C10.3925 10.7734 10.7012 11.0821 10.7012 11.4629V12.1523H9.32324V11.4629C9.32324 11.0822 9.63106 10.7736 10.0117 10.7734ZM11.3848 7.97461C11.5719 7.97487 11.7227 8.12625 11.7227 8.31348V9.46191C11.7227 9.64915 11.5719 9.80052 11.3848 9.80078C11.1974 9.80078 11.0459 9.64931 11.0459 9.46191V8.31348C11.0459 8.12608 11.1974 7.97461 11.3848 7.97461ZM8.61523 7.97461C8.80219 7.97461 8.9541 8.12652 8.9541 8.31348V9.45605C8.95405 9.64297 8.80216 9.79492 8.61523 9.79492C8.42853 9.79466 8.2774 9.64281 8.27734 9.45605V8.31348C8.27734 8.12668 8.4285 7.97487 8.61523 7.97461Z" fill="#111111"/>
</svg>
