<svg width="20" height="20" viewBox="0 0 20 20" fill="none" xmlns="http://www.w3.org/2000/svg">
<path d="M11.4678 3.00284C11.3733 2.99668 11.2773 3.00057 11.1818 3.01418L4.48332 3.97835C4.20559 4.01828 4 4.24711 4 4.51644V15.2769C4 15.5466 4.20559 15.775 4.48332 15.815L11.1818 16.7791C11.2473 16.7886 11.3133 16.7933 11.3784 16.7933C11.6936 16.7933 12.0001 16.6856 12.2423 16.4856C12.486 16.2842 12.6364 16.0053 12.682 15.7044H14.7838C15.5084 15.7044 16.1081 15.129 16.1081 14.4339V5.35938C16.1081 4.66429 15.5084 4.08895 14.7838 4.08895H12.682C12.6364 3.78806 12.486 3.50955 12.2423 3.3084C12.0229 3.12736 11.7513 3.0213 11.4678 3.00284ZM12.7027 5.17789H14.7838C14.8954 5.17789 14.973 5.25229 14.973 5.35938V14.4339C14.973 14.541 14.8954 14.6154 14.7838 14.6154H12.7027V5.17789ZM10.0541 9.53368C10.4722 9.53368 10.8108 9.85854 10.8108 10.2596C10.8108 10.6607 10.4722 10.9856 10.0541 10.9856C9.63595 10.9856 9.2973 10.6607 9.2973 10.2596C9.2973 9.85854 9.63595 9.53368 10.0541 9.53368Z" fill="#111111"/>
</svg>
