<svg width="15" height="14" viewBox="0 0 15 14" fill="none" xmlns="http://www.w3.org/2000/svg">
<path fill-rule="evenodd" clip-rule="evenodd" d="M6.44737 0.267274C6.75839 0.092055 7.10935 0 7.46633 0C7.82332 0 8.17427 0.092055 8.4853 0.267274C8.79632 0.442493 9.05691 0.694955 9.24189 1.00028L9.24402 1.00379L14.6548 10.0391C14.8358 10.353 14.9314 10.7088 14.9323 11.0711C14.9332 11.4334 14.8392 11.7896 14.6598 12.1043C14.4804 12.4191 14.2218 12.6814 13.9096 12.8652C13.5974 13.049 13.2425 13.1479 12.8802 13.1521L12.871 13.1522L2.05268 13.1521C1.69025 13.1481 1.33521 13.0491 1.02286 12.8653C0.710505 12.6814 0.451738 12.419 0.272291 12.104C0.0928444 11.7891 -0.00102932 11.4327 8.5129e-06 11.0703C0.00104629 10.7078 0.0969589 10.352 0.278207 10.0381L0.284594 10.027L5.67695 1.02402C5.68141 1.01603 5.68603 1.00812 5.69078 1.00028C5.87576 0.694955 6.13634 0.442493 6.44737 0.267274ZM7.46633 1.6C7.38448 1.6 7.30401 1.62111 7.2327 1.66128C7.16549 1.69914 7.10856 1.75273 7.06673 1.81736C7.06495 1.82043 7.06314 1.82349 7.06131 1.82654L1.66139 10.8424C1.62138 10.9133 1.60024 10.9934 1.6 11.0749C1.59976 11.158 1.62129 11.2397 1.66243 11.3119C1.70358 11.3841 1.76291 11.4443 1.83453 11.4864C1.90518 11.528 1.98536 11.5506 2.06729 11.5521H12.8652C12.9471 11.5506 13.0272 11.528 13.0978 11.4864C13.1694 11.4443 13.2287 11.3841 13.2698 11.312C13.311 11.2398 13.3325 11.1581 13.3323 11.075C13.3321 10.9936 13.311 10.9137 13.2711 10.8428L7.87344 1.82935L7.87264 1.82803C7.83028 1.75861 7.77083 1.7012 7.69997 1.66128C7.62865 1.62111 7.54818 1.6 7.46633 1.6Z" fill="#111111"/>
<path fill-rule="evenodd" clip-rule="evenodd" d="M8.27278 9.68817C8.27278 10.13 7.9146 10.4882 7.47278 10.4882H7.46611C7.02428 10.4882 6.66611 10.13 6.66611 9.68817C6.66611 9.24634 7.02428 8.88817 7.46611 8.88817H7.47278C7.9146 8.88817 8.27278 9.24634 8.27278 9.68817Z" fill="#111111"/>
<path fill-rule="evenodd" clip-rule="evenodd" d="M7.47277 8.48817C7.03095 8.48817 6.67277 8.13 6.67277 7.68817V5.02151C6.67277 4.57968 7.03095 4.22151 7.47277 4.22151C7.9146 4.22151 8.27277 4.57968 8.27277 5.02151V7.68817C8.27277 8.13 7.9146 8.48817 7.47277 8.48817Z" fill="#111111"/>
</svg>
