<svg width="14" height="14" viewBox="0 0 14 14" fill="none" xmlns="http://www.w3.org/2000/svg">
<path fill-rule="evenodd" clip-rule="evenodd" d="M1.99167 1.99167C3.26692 0.716426 4.99653 0 6.8 0C8.60347 0 10.3331 0.716427 11.6083 1.99167C12.8836 3.26692 13.6 4.99653 13.6 6.8C13.6 7.69299 13.4241 8.57723 13.0824 9.40225C12.7406 10.2273 12.2398 10.9769 11.6083 11.6083C10.9769 12.2398 10.2273 12.7406 9.40225 13.0824C8.57723 13.4241 7.69299 13.6 6.8 13.6C5.90701 13.6 5.02277 13.4241 4.19775 13.0824C3.37274 12.7406 2.62311 12.2398 1.99167 11.6083C1.36024 10.9769 0.859351 10.2273 0.517619 9.40225C0.175887 8.57723 0 7.69299 0 6.8C0 4.99653 0.716426 3.26692 1.99167 1.99167ZM6.8 1.6C5.42087 1.6 4.09823 2.14786 3.12304 3.12304C2.14786 4.09823 1.6 5.42087 1.6 6.8C1.6 7.48287 1.7345 8.15906 1.99583 8.78995C2.25715 9.42085 2.64018 9.99409 3.12304 10.477C3.60591 10.9598 4.17915 11.3429 4.81005 11.6042C5.44094 11.8655 6.11713 12 6.8 12C7.48287 12 8.15906 11.8655 8.78995 11.6042C9.42085 11.3429 9.99409 10.9598 10.477 10.477C10.9598 9.99409 11.3429 9.42085 11.6042 8.78995C11.8655 8.15906 12 7.48287 12 6.8C12 5.42087 11.4521 4.09823 10.477 3.12304C9.50177 2.14786 8.17913 1.6 6.8 1.6Z" fill="#111111"/>
<path fill-rule="evenodd" clip-rule="evenodd" d="M6 4.8C6 4.35817 6.35817 4 6.8 4H6.80667C7.24849 4 7.60667 4.35817 7.60667 4.8C7.60667 5.24183 7.24849 5.6 6.80667 5.6H6.8C6.35817 5.6 6 5.24183 6 4.8Z" fill="#111111"/>
<path fill-rule="evenodd" clip-rule="evenodd" d="M6.8 6C7.24183 6 7.6 6.35817 7.6 6.8V9.46667C7.6 9.90849 7.24183 10.2667 6.8 10.2667C6.35817 10.2667 6 9.90849 6 9.46667V6.8C6 6.35817 6.35817 6 6.8 6Z" fill="#111111"/>
</svg>
