<svg width="20" height="20" viewBox="0 0 20 20" fill="none" xmlns="http://www.w3.org/2000/svg">
<path fill-rule="evenodd" clip-rule="evenodd" d="M8.98123 3.69117C9.29225 3.51596 9.64321 3.4239 10.0002 3.4239C10.3572 3.4239 10.7081 3.51596 11.0192 3.69117C11.3302 3.86639 11.5908 4.11886 11.7757 4.42418L11.7779 4.42769L17.1886 13.463C17.3696 13.7769 17.4652 14.1327 17.4661 14.495C17.467 14.8573 17.3731 15.2135 17.1937 15.5282C17.0143 15.843 16.7556 16.1053 16.4434 16.2891C16.1312 16.4729 15.7764 16.5718 15.4141 16.576L15.4049 16.5761L4.58654 16.576C4.22411 16.572 3.86906 16.473 3.55671 16.2892C3.24436 16.1053 2.9856 15.8429 2.80615 15.5279C2.6267 15.213 2.53283 14.8566 2.53387 14.4942C2.53491 14.1317 2.63082 13.7759 2.81207 13.462L2.81845 13.4509L8.2108 4.44792C8.21527 4.43993 8.21988 4.43202 8.22464 4.42418C8.40962 4.11886 8.6702 3.86639 8.98123 3.69117ZM10.0002 5.0239C9.91834 5.0239 9.83787 5.04501 9.76656 5.08518C9.69935 5.12304 9.64242 5.17663 9.60059 5.24126C9.5988 5.24433 9.597 5.24739 9.59517 5.25044L4.19525 14.2663C4.15524 14.3372 4.13409 14.4173 4.13386 14.4988C4.13362 14.5819 4.15515 14.6636 4.19629 14.7358C4.23744 14.808 4.29677 14.8682 4.36839 14.9103C4.43904 14.9519 4.51922 14.9745 4.60115 14.976H15.3991C15.481 14.9745 15.5611 14.9519 15.6316 14.9103C15.7032 14.8682 15.7625 14.808 15.8037 14.7359C15.8448 14.6637 15.8663 14.582 15.8661 14.4989C15.8659 14.4175 15.8449 14.3376 15.805 14.2667L10.4073 5.25325L10.4065 5.25193C10.3641 5.18252 10.3047 5.12511 10.2338 5.08518C10.1625 5.04501 10.082 5.0239 10.0002 5.0239Z" fill="#111111"/>
<path fill-rule="evenodd" clip-rule="evenodd" d="M10.8066 13.1121C10.8066 13.5539 10.4485 13.9121 10.0066 13.9121H9.99997C9.55814 13.9121 9.19997 13.5539 9.19997 13.1121C9.19997 12.6702 9.55814 12.3121 9.99997 12.3121H10.0066C10.4485 12.3121 10.8066 12.6702 10.8066 13.1121Z" fill="#111111"/>
<path fill-rule="evenodd" clip-rule="evenodd" d="M10.0066 11.9121C9.56481 11.9121 9.20663 11.5539 9.20663 11.1121V8.44541C9.20663 8.00358 9.56481 7.64541 10.0066 7.64541C10.4485 7.64541 10.8066 8.00358 10.8066 8.44541V11.1121C10.8066 11.5539 10.4485 11.9121 10.0066 11.9121Z" fill="#111111"/>
</svg>
