<svg width="20" height="20" viewBox="0 0 20 20" fill="none" xmlns="http://www.w3.org/2000/svg">
<path d="M14.8438 11.6186L13.9706 9.04464C13.7326 8.34338 13.0886 7.87193 12.3681 7.87193H7.81056C7.09014 7.87193 6.44609 8.34338 6.2085 9.04421L5.33534 11.6181C4.86906 11.9346 4.57376 12.4814 4.57376 13.0828V16.1891C4.57376 16.6728 4.95349 17.0646 5.42231 17.0646C5.89114 17.0646 6.27087 16.6728 6.27087 16.1891V15.6371C6.27087 15.6371 8.51147 15.7513 10.0893 15.7513C11.6672 15.7513 13.9078 15.6371 13.9078 15.6371V16.1891C13.9078 16.6728 14.2876 17.0646 14.7564 17.0646C15.2252 17.0646 15.6049 16.6728 15.6049 16.1891V13.0828C15.6049 12.4814 15.3092 11.9346 14.8438 11.6186ZM6.52331 10.7667L7.00953 9.33356C7.12875 8.98248 7.44993 8.74742 7.81056 8.74742H12.3681C12.7288 8.74742 13.0499 8.98248 13.1692 9.33356L13.6554 10.7667C13.7318 10.9922 13.5497 11.2194 13.3211 11.1813C12.4891 11.0425 11.4195 10.9361 10.0893 10.9361C8.75924 10.9361 7.68964 11.0425 6.85764 11.1813C6.62895 11.2194 6.44694 10.9922 6.52331 10.7667ZM6.483 14.0004C6.1317 14.0004 5.84659 13.7062 5.84659 13.3437C5.84659 12.9813 6.1317 12.6871 6.483 12.6871C6.8343 12.6871 7.11942 12.9813 7.11942 13.3437C7.11942 13.7062 6.8343 14.0004 6.483 14.0004ZM11.3622 13.5626H8.81652C8.58232 13.5626 8.39225 13.3665 8.39225 13.1249C8.39225 12.8832 8.58232 12.6871 8.81652 12.6871H11.3622C11.5964 12.6871 11.7865 12.8832 11.7865 13.1249C11.7865 13.3665 11.5964 13.5626 11.3622 13.5626ZM13.6957 14.0004C13.3444 14.0004 13.0593 13.7062 13.0593 13.3437C13.0593 12.9813 13.3444 12.6871 13.6957 12.6871C14.047 12.6871 14.3321 12.9813 14.3321 13.3437C14.3321 13.7062 14.047 14.0004 13.6957 14.0004Z" fill="#111111"/>
<path d="M16.7082 17.0646V4.47046L3.47046 5.84936V17.0646C3.47046 17.4707 3.14139 17.7998 2.73523 17.7998C2.32908 17.7998 2 17.4707 2 17.0646V5.11413C2 4.70797 2.32908 4.3789 2.73523 4.3789L17.4435 3C17.8496 3 18.1787 3.32908 18.1787 3.73523V17.0646C18.1787 17.4707 17.8496 17.7998 17.4435 17.7998C17.0373 17.7998 16.7082 17.4707 16.7082 17.0646Z" fill="#111111"/>
</svg>
