<svg width="20" height="20" viewBox="0 0 20 20" fill="none" xmlns="http://www.w3.org/2000/svg">
<path d="M10.7996 5.05244C11.0684 4.90427 11.4643 5.07648 11.4988 5.38252L11.1072 8.59052H13.0682C13.0682 8.59052 13.2595 8.68573 13.2791 8.70967C13.4502 8.8533 13.4794 9.13619 13.3621 9.31806C12.0174 11.027 10.7996 12.8365 9.44511 14.5358C9.35709 14.646 9.20015 14.8799 9.08281 14.9421C8.73079 15.1335 8.30062 14.8229 8.38359 14.4353L9.31328 10.7878H7.47441C7.18101 10.7878 6.9116 10.3131 7.12187 10.0642C8.29047 8.54202 9.32728 6.8573 10.5154 5.35908C10.5888 5.27291 10.7018 5.1051 10.7996 5.05244ZM4.99492 5.59345C5.27349 5.54561 5.51806 5.73219 5.47441 6.01435C5.44508 6.1962 5.12702 6.45002 4.9998 6.60322C3.46926 8.42224 3.33773 11.0409 4.69218 12.9987C4.89753 13.2955 5.14698 13.5109 5.35722 13.7741C5.67993 14.181 5.2396 14.598 4.84843 14.3444C4.66751 14.2248 4.28614 13.7311 4.14433 13.5349C2.44765 11.2036 2.63351 7.8143 4.72636 5.77509C4.79961 5.69862 4.88268 5.61263 4.99492 5.59345ZM14.5506 6.08662C14.4039 5.69894 14.8675 5.41692 15.2 5.70869C16.217 6.59419 16.9214 8.32181 17.0047 9.62861L16.9998 9.6247V10.3757C16.8971 11.6586 16.4278 12.8654 15.5916 13.8659C15.4741 14.005 15.1659 14.3821 14.9998 14.4108C14.6673 14.473 14.4137 14.1957 14.5603 13.8894C14.6241 13.7505 14.8776 13.5398 14.9949 13.4011C16.6526 11.4288 16.6526 8.57555 14.9949 6.6081C14.8775 6.46452 14.6044 6.23492 14.5506 6.08662ZM13.7234 6.64228C13.9825 6.58964 14.1002 6.74228 14.2566 6.90498C15.8312 8.53734 15.8554 11.1846 14.4227 12.9079C14.2173 13.1568 13.8508 13.6117 13.5281 13.2243C13.2593 12.9037 13.6401 12.6641 13.826 12.4392C15.0191 10.9696 14.9996 9.01139 13.8162 7.54658C13.645 7.3313 13.3132 7.14455 13.4891 6.82881C13.5281 6.7571 13.6452 6.65687 13.7234 6.64228ZM6.06621 6.64228C6.35466 6.58014 6.59459 6.80042 6.5457 7.08759C6.5209 7.24071 6.27624 7.43209 6.16875 7.56123C4.97567 9.02603 5.00005 10.9889 6.1834 12.4489C6.3595 12.669 6.71098 12.8744 6.49101 13.195V13.1999C6.37371 13.3673 6.1494 13.4202 5.96855 13.3151C5.78286 13.2051 5.43087 12.7364 5.29863 12.5446C4.21795 10.9601 4.27157 8.85352 5.41093 7.30732C5.5186 7.15404 5.89998 6.67579 6.06621 6.64228Z" fill="#111111"/>
</svg>
