<svg width="12" height="12" viewBox="0 0 12 12" fill="none" xmlns="http://www.w3.org/2000/svg">
<path d="M3.3331 4.75302C3.53246 4.63676 3.78739 4.69783 3.9083 4.89169C4.02582 5.0887 3.9635 5.34043 3.76767 5.46005C3.09776 5.86394 2.67579 6.56869 2.63974 7.34091C2.58092 8.62381 3.58445 9.7163 4.88193 9.77451C5.86896 9.81975 6.78406 9.24416 7.16318 8.34579C7.25154 8.13599 7.49677 8.03596 7.70908 8.12314V8.12021C7.92134 8.20743 8.02261 8.44933 7.93467 8.65927C7.43795 9.83218 6.26805 10.5956 4.99033 10.5958C4.94133 10.5958 4.89186 10.5919 4.84287 10.5919C3.99315 10.5531 3.2091 10.1911 2.63388 9.56747C2.05866 8.94702 1.76361 8.13912 1.80283 7.29892C1.85194 6.25201 2.4246 5.2991 3.3331 4.75302ZM5.22178 1.40146C5.75112 1.40146 6.18544 1.83124 6.18564 2.35458C6.18564 2.87809 5.75774 3.30222 5.23154 3.30869L5.3331 4.73349H7.31064C7.53915 4.73365 7.72838 4.91743 7.72861 5.14658C7.72861 5.37592 7.53929 5.56048 7.31064 5.56064H5.3917L5.43076 6.08408H7.99033C8.15041 6.08414 8.2977 6.17504 8.36631 6.3204L9.57529 8.88583L10.4278 8.55966C10.6434 8.47569 10.8857 8.58197 10.9708 8.79501C11.0557 9.00494 10.948 9.24407 10.7325 9.32822L9.51279 9.79404C9.46389 9.81333 9.41457 9.82333 9.3624 9.82333C9.2057 9.82317 9.05534 9.73256 8.98349 9.58408L7.72178 6.91122H5.04209C4.84769 6.9112 4.68621 6.78269 4.63779 6.60556L4.25498 2.35458C4.25518 1.82805 4.69249 1.40153 5.22178 1.40146Z" fill="#111111"/>
</svg>
