<svg width="12" height="12" viewBox="0 0 12 12" fill="none" xmlns="http://www.w3.org/2000/svg">
<path d="M4.27438 4.24893C4.56113 4.24911 4.79272 4.48075 4.79294 4.76749V9.0253L5.43747 8.38174C5.64039 8.17883 5.96985 8.17892 6.17282 8.38174C6.37534 8.58465 6.37542 8.91325 6.17282 9.11612L4.64157 10.6474C4.59368 10.6953 4.53622 10.7333 4.47263 10.7597C4.46249 10.7639 4.4517 10.7669 4.44138 10.7704C4.41945 10.7779 4.39713 10.7854 4.37399 10.7899C4.2099 10.8221 4.03327 10.7744 3.90622 10.6474L2.37497 9.1171C2.17203 8.91416 2.17209 8.58374 2.37497 8.38077C2.57795 8.17803 2.90743 8.17886 3.11032 8.38174L3.75485 9.0253V4.76749C3.75507 4.48064 3.98748 4.24893 4.27438 4.24893ZM8.07126 1.00967C8.23522 0.977489 8.41196 1.02451 8.53903 1.15128L10.0703 2.68253C10.2732 2.88549 10.2732 3.21589 10.0703 3.41885C9.86729 3.62151 9.53779 3.62074 9.33493 3.41788L8.6904 2.77335V7.03214C8.69014 7.3188 8.45851 7.55045 8.17184 7.55069C7.885 7.55066 7.65257 7.31893 7.65231 7.03214V2.77335L7.00778 3.41788C6.80488 3.62078 6.47639 3.62065 6.27341 3.41788C6.07044 3.21491 6.07044 2.88647 6.27341 2.6835L7.80368 1.15225C7.85166 1.10421 7.90985 1.06631 7.9736 1.03995C7.98356 1.03587 7.99373 1.03265 8.00388 1.02921C8.02579 1.02174 8.04813 1.01419 8.07126 1.00967Z" fill="#111111"/>
</svg>
