<svg width="12" height="12" viewBox="0 0 12 12" fill="none" xmlns="http://www.w3.org/2000/svg">
<path fill-rule="evenodd" clip-rule="evenodd" d="M6.00001 0.849976C6.359 0.849976 6.65001 1.14099 6.65001 1.49998L6.65001 8.77003L9.01084 6.07195C9.24723 5.80178 9.65788 5.77441 9.92804 6.0108C10.1982 6.24719 10.2256 6.65784 9.98919 6.928L6.48919 10.928C6.36576 11.0691 6.18745 11.15 6.00001 11.15C5.81258 11.15 5.63427 11.0691 5.51084 10.928L2.01084 6.928C1.77445 6.65784 1.80182 6.24719 2.07199 6.0108C2.34215 5.77441 2.7528 5.80178 2.98919 6.07195L5.35001 8.77003L5.35001 1.49998C5.35001 1.14099 5.64103 0.849976 6.00001 0.849976Z" fill="#111111"/>
</svg>
