<svg width="12" height="12" viewBox="0 0 12 12" fill="none" xmlns="http://www.w3.org/2000/svg">
<path d="M5.59473 5.03418C5.8378 5.03418 6.03611 5.22813 6.03613 5.46582V10.3711C6.03588 10.6086 5.83766 10.8027 5.59473 10.8027C5.35187 10.8027 5.15357 10.6085 5.15332 10.3711V5.46582C5.15334 5.22818 5.35173 5.03426 5.59473 5.03418ZM8.80664 1C9.01874 1.00018 9.19333 1.16714 9.19336 1.37793C9.19336 1.58874 9.01876 1.75568 8.80664 1.75586H5.97461C5.97802 1.77589 5.97852 1.79637 5.97852 1.81641V2.59961C6.177 2.72008 6.30652 2.93794 6.30664 3.18555C6.30664 3.43326 6.17704 3.64802 5.97852 3.76855V4.13672C6.56046 4.30082 6.98828 4.82655 6.98828 5.44922V6.19238H8.24121C8.45677 6.19238 8.62772 6.35957 8.62793 6.57031C8.62793 6.78124 8.4569 6.94922 8.24121 6.94922H6.96777C6.55365 6.94922 6.21508 6.6178 6.21484 6.21289V5.44922C6.21484 5.11119 5.93401 4.84002 5.5918 4.83984C5.24943 4.83984 4.96875 5.11107 4.96875 5.44922V8.3252C4.96867 8.73351 4.62946 9.06532 4.21191 9.06543H2.93848C2.72278 9.06543 2.55078 8.89745 2.55078 8.68652C2.55084 8.47565 2.72282 8.30859 2.93848 8.30859H4.19141V5.45215C4.19156 4.82957 4.61925 4.30367 5.20117 4.13965V3.76172C5.01292 3.63788 4.88972 3.43042 4.88965 3.18945C4.88965 2.9484 5.01287 2.73716 5.20117 2.61328V1.82031C5.20117 1.79692 5.20409 1.7798 5.2041 1.75977H2.38672C2.17452 1.75968 2 1.58838 2 1.38086C2.00026 1.17355 2.17468 1.00301 2.38672 1.00293H8.7998L8.80664 1ZM5.59473 2.875C5.41688 2.87508 5.27655 3.01167 5.27637 3.18555C5.27637 3.35959 5.41677 3.49699 5.59473 3.49707C5.76934 3.49707 5.91309 3.35629 5.91309 3.18555C5.9129 3.01496 5.77264 2.875 5.59473 2.875Z" fill="black"/>
</svg>
