<svg width="12" height="12" viewBox="0 0 12 12" fill="none" xmlns="http://www.w3.org/2000/svg">
<path fill-rule="evenodd" clip-rule="evenodd" d="M2.35617 2.77538L1.54039 1.95959C1.28655 1.70575 1.28655 1.2942 1.54039 1.04036C1.79423 0.786515 2.20578 0.786515 2.45963 1.04036L3.27541 1.85614C4.12493 1.20715 5.16905 0.849976 6.25001 0.849976C7.54957 0.849976 8.7959 1.36622 9.71483 2.28515C10.6338 3.20408 11.15 4.45041 11.15 5.74998C11.15 6.39345 11.0233 7.03063 10.777 7.62512C10.6141 8.01834 10.4011 8.3878 10.1438 8.72456L10.9596 9.54036C11.2135 9.7942 11.2135 10.2058 10.9596 10.4596C10.7058 10.7134 10.2942 10.7134 10.0404 10.4596L9.22459 9.6438C8.88783 9.90106 8.51837 10.1141 8.12515 10.277C7.53066 10.5232 6.89348 10.65 6.25001 10.65C5.60653 10.65 4.96935 10.5232 4.37486 10.277C3.78036 10.0307 3.24019 9.6698 2.78518 9.2148C2.33018 8.75979 1.96924 8.21962 1.723 7.62512C1.47675 7.03063 1.35001 6.39345 1.35001 5.74998C1.35001 4.66902 1.70718 3.6249 2.35617 2.77538ZM3.28663 3.70584C2.87491 4.30271 2.65001 5.01475 2.65001 5.74998C2.65001 6.22273 2.74312 6.69086 2.92404 7.12764C3.10496 7.56441 3.37013 7.96127 3.70442 8.29556C4.03871 8.62985 4.43557 8.89503 4.87235 9.07594C5.30912 9.25686 5.77725 9.34998 6.25001 9.34998C6.72276 9.34998 7.19089 9.25686 7.62767 9.07594C7.86254 8.97865 8.08587 8.857 8.29413 8.71334L3.28663 3.70584ZM9.21337 7.7941C9.35703 7.58584 9.47869 7.36251 9.57597 7.12764C9.75689 6.69086 9.85001 6.22273 9.85001 5.74998C9.85001 4.7952 9.47072 3.87952 8.79559 3.20439C8.12046 2.52926 7.20479 2.14998 6.25001 2.14998C5.51478 2.14998 4.80274 2.37488 4.20587 2.7866L9.21337 7.7941Z" fill="#111111"/>
</svg>
