<svg width="12" height="12" viewBox="0 0 12 12" fill="none" xmlns="http://www.w3.org/2000/svg">
<path d="M3.98474 3.0655C3.7309 2.81166 3.31934 2.81166 3.0655 3.0655C2.81166 3.31934 2.81166 3.7309 3.0655 3.98474L5.08077 6.00001L3.06552 8.01525C2.81168 8.26909 2.81168 8.68065 3.06552 8.93449C3.31936 9.18833 3.73092 9.18833 3.98476 8.93449L6.00001 6.91924L8.01525 8.93449C8.26909 9.18833 8.68065 9.18833 8.93449 8.93449C9.18833 8.68065 9.18833 8.26909 8.93449 8.01525L6.91924 6.00001L8.93451 3.98474C9.18835 3.7309 9.18835 3.31934 8.93451 3.0655C8.68067 2.81166 8.26911 2.81166 8.01527 3.0655L6.00001 5.08077L3.98474 3.0655Z" fill="#111111"/>
</svg>
