<svg width="12" height="12" viewBox="0 0 12 12" fill="none" xmlns="http://www.w3.org/2000/svg">
<path d="M10.1667 0H1.83333C0.822333 0 0 0.822333 0 1.83333V10.1667C0 11.1777 0.822333 12 1.83333 12H10.1667C11.1777 12 12 11.1777 12 10.1667V1.83333C12 0.822333 11.1777 0 10.1667 0ZM4 9.66667C4 9.85067 3.85067 10 3.66667 10H2.33333C2.14933 10 2 9.85067 2 9.66667V8.33333C2 8.14933 2.14933 8 2.33333 8H3.66667C3.85067 8 4 8.14933 4 8.33333V9.66667ZM4 6.66667C4 6.85067 3.85067 7 3.66667 7H2.33333C2.14933 7 2 6.85067 2 6.66667V5.33333C2 5.14933 2.14933 5 2.33333 5H3.66667C3.85067 5 4 5.14933 4 5.33333V6.66667ZM4 3.66667C4 3.85067 3.85067 4 3.66667 4H2.33333C2.14933 4 2 3.85067 2 3.66667V2.33333C2 2.14933 2.14933 2 2.33333 2H3.66667C3.85067 2 4 2.14933 4 2.33333V3.66667ZM7 9.66667C7 9.85067 6.85067 10 6.66667 10H5.33333C5.14933 10 5 9.85067 5 9.66667V8.33333C5 8.14933 5.14933 8 5.33333 8H6.66667C6.85067 8 7 8.14933 7 8.33333V9.66667ZM7 6.66667C7 6.85067 6.85067 7 6.66667 7H5.33333C5.14933 7 5 6.85067 5 6.66667V5.33333C5 5.14933 5.14933 5 5.33333 5H6.66667C6.85067 5 7 5.14933 7 5.33333V6.66667ZM7 3.66667C7 3.85067 6.85067 4 6.66667 4H5.33333C5.14933 4 5 3.85067 5 3.66667V2.33333C5 2.14933 5.14933 2 5.33333 2H6.66667C6.85067 2 7 2.14933 7 2.33333V3.66667ZM10 9.66667C10 9.85067 9.85067 10 9.66667 10H8.33333C8.14933 10 8 9.85067 8 9.66667V8.33333C8 8.14933 8.14933 8 8.33333 8H9.66667C9.85067 8 10 8.14933 10 8.33333V9.66667ZM10 6.66667C10 6.85067 9.85067 7 9.66667 7H8.33333C8.14933 7 8 6.85067 8 6.66667V5.33333C8 5.14933 8.14933 5 8.33333 5H9.66667C9.85067 5 10 5.14933 10 5.33333V6.66667ZM10 3.66667C10 3.85067 9.85067 4 9.66667 4H8.33333C8.14933 4 8 3.85067 8 3.66667V2.33333C8 2.14933 8.14933 2 8.33333 2H9.66667C9.85067 2 10 2.14933 10 2.33333V3.66667Z" fill="#111111"/>
</svg>
