<svg width="12" height="12" viewBox="0 0 12 12" fill="none" xmlns="http://www.w3.org/2000/svg">
<path d="M10 3C10.1274 3.00014 10.25 3.04894 10.3427 3.13642C10.4353 3.22391 10.4911 3.34348 10.4986 3.4707C10.506 3.59792 10.4647 3.72319 10.3829 3.82092C10.3011 3.91864 10.185 3.98145 10.0585 3.9965L10 4H9.9595L9.5 9.5C9.50002 9.88261 9.35383 10.2508 9.09135 10.5291C8.82887 10.8075 8.46994 10.9751 8.088 10.9975L8 11H4C3.201 11 2.548 10.3755 2.504 9.625L2.5015 9.5415L2.04 4H2C1.87256 3.99986 1.74998 3.95106 1.65731 3.86358C1.56464 3.77609 1.50888 3.65652 1.50141 3.5293C1.49394 3.40208 1.53533 3.27681 1.61713 3.17908C1.69892 3.08136 1.81495 3.01855 1.9415 3.0035L2 3H10Z" fill="#111111"/>
<path d="M7 1C7.26521 1 7.51957 1.10536 7.7071 1.29289C7.89464 1.48043 8 1.73478 8 2C7.99985 2.12744 7.95106 2.25002 7.86357 2.34268C7.77609 2.43535 7.65652 2.49112 7.5293 2.49859C7.40208 2.50605 7.27681 2.46466 7.17908 2.38287C7.08135 2.30107 7.01855 2.18505 7.0035 2.0585L7 2H5L4.9965 2.0585C4.98144 2.18505 4.91864 2.30107 4.82091 2.38287C4.72319 2.46466 4.59791 2.50605 4.47069 2.49859C4.34347 2.49112 4.2239 2.43535 4.13642 2.34268C4.04893 2.25002 4.00014 2.12744 4 2C3.99992 1.74771 4.0952 1.50472 4.26674 1.31973C4.43829 1.13474 4.67342 1.02142 4.925 1.0025L5 1H7Z" fill="#111111"/>
</svg>
