<svg width="12" height="12" viewBox="0 0 12 12" fill="none" xmlns="http://www.w3.org/2000/svg">
<g clip-path="url(#clip0_50_21)">
<path d="M6.00712 0C3.00712 0 3.00712 1 3.00712 1.5C3.00712 3.5 3.50712 5.5 3.50712 5.5H8.50712C8.50712 5.5 9.00712 3.5 9.00712 1.5C9.00712 1 9.00712 0 6.00712 0ZM1.00712 4.5C0.940865 4.49906 0.875084 4.5113 0.8136 4.53601C0.752116 4.56072 0.696155 4.5974 0.64897 4.64392C0.601785 4.69044 0.564317 4.74588 0.538743 4.80701C0.51317 4.86814 0.5 4.93374 0.5 5C0.5 5.06626 0.51317 5.13186 0.538743 5.19299C0.564317 5.25412 0.601785 5.30956 0.64897 5.35608C0.696155 5.4026 0.752116 5.43928 0.8136 5.46399C0.875084 5.4887 0.940865 5.50094 1.00712 5.5H1.50712V6.70508C1.50712 7.41663 2.01491 8.03207 2.70927 8.1748C3.39069 8.31474 4.41735 8.48011 5.50712 8.52344V9.57129L2.68095 10.0059C2.57154 10.0209 2.47017 10.0716 2.39266 10.1503C2.31514 10.229 2.26585 10.3311 2.25247 10.4407C2.23909 10.5503 2.26237 10.6613 2.31868 10.7563C2.375 10.8513 2.46117 10.9249 2.56376 10.9658C2.51715 11.0797 2.49926 11.2032 2.51166 11.3256C2.52406 11.448 2.56638 11.5655 2.63489 11.6677C2.70339 11.7698 2.79598 11.8536 2.90449 11.9115C3.013 11.9695 3.1341 11.9999 3.25712 12C3.39294 11.9999 3.52619 11.963 3.64266 11.8931C3.75912 11.8232 3.85442 11.723 3.91839 11.6032C3.98235 11.4834 4.01259 11.3485 4.00585 11.2128C3.99912 11.0772 3.95568 10.9459 3.88017 10.833L5.51298 10.582C5.53127 10.7 5.59114 10.8075 5.68176 10.8851C5.77238 10.9628 5.88778 11.0054 6.00712 11.0054C6.12646 11.0054 6.24186 10.9628 6.33248 10.8851C6.4231 10.8075 6.48297 10.7 6.50126 10.582L8.13407 10.833C8.05856 10.9459 8.01512 11.0772 8.00839 11.2128C8.00166 11.3485 8.03189 11.4834 8.09585 11.6032C8.15982 11.723 8.25512 11.8232 8.37159 11.8931C8.48805 11.963 8.6213 11.9999 8.75712 12C8.88014 11.9999 9.00124 11.9695 9.10975 11.9115C9.21826 11.8536 9.31085 11.7698 9.37935 11.6677C9.44786 11.5655 9.49018 11.448 9.50258 11.3256C9.51499 11.2032 9.49709 11.0797 9.45048 10.9658C9.55307 10.9249 9.63925 10.8513 9.69556 10.7563C9.75187 10.6613 9.77515 10.5503 9.76177 10.4407C9.74839 10.3311 9.6991 10.229 9.62159 10.1503C9.54407 10.0716 9.4427 10.0209 9.33329 10.0059L6.50712 9.57129V8.52344C7.59507 8.47949 8.62155 8.3143 9.30302 8.1748C9.99836 8.03276 10.5071 7.416 10.5071 6.7041V5.5H11.0071C11.0734 5.50094 11.1392 5.4887 11.2006 5.46399C11.2621 5.43928 11.3181 5.4026 11.3653 5.35608C11.4125 5.30956 11.4499 5.25412 11.4755 5.19299C11.5011 5.13186 11.5142 5.06626 11.5142 5C11.5142 4.93374 11.5011 4.86814 11.4755 4.80701C11.4499 4.74588 11.4125 4.69044 11.3653 4.64392C11.3181 4.5974 11.2621 4.56072 11.2006 4.53601C11.1392 4.5113 11.0734 4.49906 11.0071 4.5H10.5071C9.96059 4.5 9.50712 4.95347 9.50712 5.5V6.7041C9.50712 6.9452 9.34248 7.14636 9.10282 7.19531C9.06179 7.20371 9.00681 7.21307 8.96318 7.22168C8.84205 6.80572 8.4623 6.5 8.00712 6.5H4.00712C3.55194 6.5 3.17219 6.80572 3.05107 7.22168C3.00715 7.21299 2.95172 7.20379 2.91044 7.19531C2.6708 7.14605 2.50712 6.94653 2.50712 6.70508V5.5C2.50712 4.95347 2.05365 4.5 1.50712 4.5H1.00712Z" fill="#111111"/>
</g>
<defs>
<clipPath id="clip0_50_21">
<rect width="12" height="12" fill="white"/>
</clipPath>
</defs>
</svg>
