<svg width="12" height="12" viewBox="0 0 12 12" fill="none" xmlns="http://www.w3.org/2000/svg">
<path d="M8.83258 9.75488C8.87353 9.75434 8.9147 9.76099 8.9527 9.77539C8.99052 9.78977 9.02521 9.8109 9.05426 9.83789C9.08342 9.865 9.10681 9.89797 9.12262 9.93359C9.13831 9.9691 9.14606 10.0074 9.14606 10.0459C9.14604 10.0844 9.13835 10.1227 9.12262 10.1582C9.10687 10.1937 9.08327 10.2259 9.05426 10.2529C9.02517 10.28 8.99058 10.302 8.9527 10.3164C8.9147 10.3308 8.87353 10.3375 8.83258 10.3369H5.33063C5.28968 10.3375 5.24851 10.3308 5.21051 10.3164C5.17263 10.302 5.13803 10.28 5.10895 10.2529C5.07993 10.2259 5.05634 10.1937 5.04059 10.1582C5.02486 10.1227 5.01716 10.0844 5.01715 10.0459C5.01715 10.0074 5.02489 9.9691 5.04059 9.93359C5.05639 9.89797 5.07979 9.865 5.10895 9.83789C5.138 9.8109 5.17269 9.78977 5.21051 9.77539C5.24851 9.76099 5.28968 9.75434 5.33063 9.75488H8.83258ZM10.275 3.53906C10.8997 3.53918 11.4078 4.01838 11.4078 4.60742V8.10352C11.4077 8.69253 10.8997 9.17176 10.275 9.17188H3.88824C3.26355 9.17176 2.75547 8.69253 2.75543 8.10352V4.60742C2.75543 4.01838 3.26353 3.53918 3.88824 3.53906H10.275ZM7.49469 1.5C8.18089 1.50018 8.74473 2.02444 8.80719 2.69434C8.81351 2.76231 8.7573 2.81836 8.68903 2.81836H7.94781C7.87958 2.81836 7.82637 2.76074 7.80133 2.69727C7.7531 2.57515 7.63387 2.48843 7.49469 2.48828H1.8902C1.61771 2.48867 1.39644 2.70993 1.39606 2.98242V5.9502C1.39635 6.22277 1.61765 6.44395 1.8902 6.44434C1.92914 6.44434 1.9614 6.47572 1.96149 6.51465V7.3623C1.96142 7.40125 1.92916 7.43262 1.8902 7.43262C1.07152 7.43223 0.408066 6.76889 0.407776 5.9502V2.98242C0.408163 2.16381 1.07158 1.50039 1.8902 1.5H7.49469Z" fill="#111111"/>
</svg>
