<svg width="12" height="12" viewBox="0 0 12 12" fill="none" xmlns="http://www.w3.org/2000/svg">
<path d="M3.51134 10.2726C3.65681 10.2726 3.79225 10.2421 3.89257 10.1965C4.24872 10.009 4.49953 9.75043 4.75034 8.99003C5.00617 8.19922 5.48772 7.82917 5.94921 7.46925C6.34549 7.16002 6.75681 6.84066 7.11296 6.18672C7.37882 5.70007 7.52429 5.16779 7.52429 4.69635C7.52429 3.27695 6.42073 2.1617 5.0162 2.1617C3.78104 2.1617 2.77865 3.02419 2.55484 4.19753C2.50294 4.46966 2.28352 4.69635 2.00649 4.69635C1.72945 4.69635 1.50123 4.47054 1.5379 4.19594C1.77117 2.44954 3.21327 1.14785 5.0162 1.14785C6.98756 1.14785 8.52752 2.70412 8.52752 4.69635C8.52752 5.33508 8.33691 6.03971 7.99079 6.67337C7.53432 7.5098 6.99759 7.93055 6.56118 8.27019C6.15487 8.58449 5.86393 8.81261 5.70341 9.3094C5.40244 10.232 5.0162 10.7491 4.334 11.109C4.07817 11.2256 3.79727 11.2864 3.51134 11.2864C2.57238 11.2864 1.78455 10.6354 1.56546 9.75548C1.49853 9.48665 1.72945 9.25871 2.00649 9.25871C2.28352 9.25871 2.49797 9.49633 2.62929 9.74026C2.79959 10.0566 3.13172 10.2726 3.51134 10.2726ZM8.54012 1.84675C8.36712 1.62948 8.36408 1.31302 8.55943 1.1156C8.75728 0.915654 9.08228 0.914343 9.26102 1.13154C10.0561 2.09766 10.534 3.34007 10.534 4.69635C10.534 6.05336 10.0556 7.29639 9.25972 8.26274C9.08162 8.479 8.75793 8.4777 8.56088 8.27855C8.36716 8.08279 8.36917 7.76927 8.54001 7.55324C9.15836 6.7713 9.53076 5.77854 9.53076 4.69635C9.53076 3.61606 9.15967 2.62488 8.54012 1.84675ZM6.27024 4.69635C6.27024 5.39591 5.70843 5.96367 5.0162 5.96367C4.32396 5.96367 3.76215 5.39591 3.76215 4.69635C3.76215 3.99679 4.32396 3.42903 5.0162 3.42903C5.70843 3.42903 6.27024 3.99679 6.27024 4.69635Z" fill="#111111"/>
</svg>
