<svg width="12" height="12" viewBox="0 0 12 12" fill="none" xmlns="http://www.w3.org/2000/svg">
<path d="M5.37783 1.61273C0.930906 2.56446 0.051592 8.59713 4.08791 10.688C4.59149 10.9465 5.47855 11.25 6.0441 11.25C6.43533 11.25 6.62901 10.7704 6.33462 10.5081C6.1758 10.3732 5.80006 10.3769 5.57926 10.332C1.9458 9.59008 1.1672 4.8239 4.28934 2.93541C7.24492 1.1481 10.7661 3.55367 10.3671 6.88475C10.2237 8.09128 9.12363 9.76244 7.79498 9.86736C7.1016 9.91982 6.88855 9.42521 6.87305 8.82569H7.7175C7.7175 8.82569 7.87245 8.75825 7.89569 8.74326C8.01965 8.66082 8.10874 8.48472 8.12424 8.34233C8.18621 7.77653 8.1591 7.12456 8.18621 6.55501C8.19396 6.40139 8.22495 6.24401 8.20558 6.08664C8.32179 6.03043 8.44575 5.95175 8.46124 5.80936C8.47286 5.72318 8.47286 5.44216 8.46124 5.35972C8.44575 5.29228 8.31792 5.14989 8.25594 5.14989H7.89569C7.8647 5.13115 7.86858 5.10867 7.8647 5.08244C7.81047 4.62156 7.91893 4.04827 7.8647 3.58365C7.82597 3.2614 7.45797 3.11527 7.20619 3.32885C7.15195 3.37381 7.06674 3.49746 7.06674 3.56491V5.14989H5.80393L5.77294 5.11991V3.52744C5.77294 3.50496 5.71096 3.3963 5.6916 3.37381C5.50179 3.14899 5.1183 3.20145 5.00209 3.47124C4.99047 3.49372 4.95948 3.59489 4.95948 3.60613V5.14989H4.6341C4.56824 5.14989 4.45591 5.28478 4.43654 5.34848C4.40943 5.4534 4.40943 5.78313 4.44816 5.88055C4.4869 5.97423 4.58374 6.04542 4.68058 6.06041C4.71932 6.08664 4.69607 6.38265 4.69995 6.45385C4.72706 7.06086 4.71932 7.74281 4.78129 8.34233C4.80066 8.55591 4.9711 8.78448 5.1919 8.8182C5.44368 8.85567 5.75357 8.80321 6.01311 8.82195C6.0286 9.68375 6.44695 10.5381 7.3805 10.688C9.04616 10.954 10.6343 9.13669 11.0527 7.70159C12.0676 4.22813 9.01517 0.83335 5.37783 1.61273ZM6.1758 8.08004C6.15256 8.10627 6.11382 8.16622 6.08671 8.18121C5.99761 8.22992 5.88915 8.15123 5.90852 8.05381L6.14094 7.12081H5.6761C5.6025 7.12081 5.53278 6.99716 5.58701 6.93346C5.88528 6.54377 6.14868 6.11287 6.44695 5.73067C6.46632 5.70819 6.49344 5.66323 6.52055 5.65199C6.59028 5.61077 6.68712 5.65573 6.69874 5.73442L6.6019 6.55501H7.09772C7.09772 6.55501 7.14421 6.5775 7.15195 6.58499C7.19456 6.62246 7.20231 6.69365 7.17132 6.73862C6.83044 7.17327 6.52055 7.63789 6.17967 8.07629L6.1758 8.08004Z" fill="#111111"/>
</svg>
