<svg width="12" height="12" viewBox="0 0 12 12" fill="none" xmlns="http://www.w3.org/2000/svg">
<path d="M3.50001 2C2.67297 2 1.99993 2.61028 1.99993 3.36021V4.07307C2.38095 4.283 2.69011 4.60905 2.86912 5.0153L3.33985 6.08062H8.65947L9.15657 4.95508C9.32608 4.5715 9.62734 4.2668 10.0004 4.06776V3.36021C10.0004 2.61028 9.32733 2 8.50028 2H3.50001ZM11.0141 4.72041C10.6046 4.72041 10.2364 4.94655 10.0844 5.29159L9.33626 6.98742H2.6611L1.94036 5.35181C1.79435 5.02082 1.47098 4.75839 1.07996 4.72484C0.879948 4.70761 0.685648 4.74273 0.508639 4.82933C0.0501139 5.05241 -0.113606 5.58153 0.0799045 6.01951L0.92956 7.94647C1.15757 8.46244 1.70918 8.80103 2.32221 8.80103H2.49996V9.25443C2.49902 9.31451 2.51126 9.37416 2.53597 9.42991C2.56068 9.48567 2.59736 9.53641 2.64388 9.5792C2.69041 9.62199 2.74585 9.65596 2.80698 9.67915C2.86811 9.70234 2.93372 9.71429 2.99998 9.71429C3.06625 9.71429 3.13186 9.70234 3.19299 9.67915C3.25412 9.65596 3.30956 9.62199 3.35608 9.5792C3.40261 9.53641 3.43929 9.48567 3.464 9.42991C3.48871 9.37416 3.50095 9.31451 3.50001 9.25443V8.80103H8.50028V9.25443C8.49934 9.31451 8.51159 9.37416 8.53629 9.42991C8.561 9.48567 8.59768 9.53641 8.64421 9.5792C8.69073 9.62199 8.74617 9.65596 8.8073 9.67915C8.86844 9.70234 8.93404 9.71429 9.00031 9.71429C9.06657 9.71429 9.13218 9.70234 9.19331 9.67915C9.25444 9.65596 9.30988 9.62199 9.35641 9.5792C9.40293 9.53641 9.43961 9.48567 9.46432 9.42991C9.48903 9.37416 9.50127 9.31451 9.50033 9.25443V8.80103H9.67417C10.2877 8.80103 10.8393 8.46201 11.0668 7.94558L11.9214 6.00889C12.1064 5.58904 11.9602 5.08629 11.5327 4.85324C11.3727 4.76574 11.1966 4.72041 11.0141 4.72041Z" fill="#111111"/>
</svg>
