<svg width="12" height="12" viewBox="0 0 12 12" fill="none" xmlns="http://www.w3.org/2000/svg">
<path d="M2 5.5C2.12744 5.50014 2.25001 5.54894 2.34268 5.63642C2.43535 5.72391 2.49111 5.84348 2.49858 5.9707C2.50605 6.09792 2.46466 6.22319 2.38286 6.32092C2.30107 6.41864 2.18504 6.48145 2.0585 6.4965L2 6.5H1.5C1.37256 6.49986 1.24998 6.45106 1.15731 6.36358C1.06464 6.27609 1.00888 6.15652 1.00141 6.0293C0.993941 5.90208 1.03533 5.77681 1.11713 5.67908C1.19892 5.58136 1.31495 5.51855 1.4415 5.5035L1.5 5.5H2Z" fill="#111111"/>
<path d="M6 1C6.12247 1.00002 6.24067 1.04498 6.33219 1.12636C6.4237 1.20774 6.48217 1.31987 6.4965 1.4415L6.5 1.5V2C6.49986 2.12744 6.45106 2.25002 6.36358 2.34268C6.27609 2.43535 6.15652 2.49112 6.0293 2.49859C5.90208 2.50605 5.77681 2.46466 5.67908 2.38287C5.58136 2.30107 5.51855 2.18505 5.5035 2.0585L5.5 2V1.5C5.5 1.36739 5.55268 1.24021 5.64645 1.14645C5.74021 1.05268 5.86739 1 6 1Z" fill="#111111"/>
<path d="M10.5 5.5C10.6274 5.50014 10.75 5.54894 10.8427 5.63642C10.9353 5.72391 10.9911 5.84348 10.9986 5.9707C11.006 6.09792 10.9647 6.22319 10.8829 6.32092C10.8011 6.41864 10.685 6.48145 10.5585 6.4965L10.5 6.5H10C9.87256 6.49986 9.74998 6.45106 9.65731 6.36358C9.56464 6.27609 9.50888 6.15652 9.50141 6.0293C9.49394 5.90208 9.53533 5.77681 9.61713 5.67908C9.69892 5.58136 9.81495 5.51855 9.94149 5.5035L10 5.5H10.5Z" fill="#111111"/>
<path d="M2.4465 2.44648C2.5326 2.36039 2.64715 2.30868 2.76866 2.30103C2.89018 2.29339 3.0103 2.33035 3.1065 2.40498L3.1535 2.44648L3.5035 2.79648C3.59318 2.88646 3.64524 3.0072 3.64912 3.13417C3.65299 3.26115 3.6084 3.38484 3.52438 3.48012C3.44036 3.5754 3.32323 3.63513 3.19677 3.64718C3.0703 3.65923 2.944 3.62269 2.8435 3.54498L2.7965 3.50348L2.4465 3.15348C2.35277 3.05972 2.30011 2.93256 2.30011 2.79998C2.30011 2.6674 2.35277 2.54024 2.4465 2.44648Z" fill="#111111"/>
<path d="M8.84648 2.44651C8.93646 2.35683 9.0572 2.30477 9.18417 2.30089C9.31115 2.29702 9.43484 2.34161 9.53012 2.42563C9.6254 2.50965 9.68513 2.62678 9.69718 2.75324C9.70923 2.87971 9.67269 3.00601 9.59498 3.10651L9.55348 3.15351L9.20348 3.50351C9.1135 3.59318 8.99276 3.64524 8.86579 3.64912C8.73881 3.653 8.61512 3.6084 8.51984 3.52438C8.42456 3.44037 8.36483 3.32323 8.35278 3.19677C8.34073 3.07031 8.37727 2.944 8.45498 2.84351L8.49648 2.79651L8.84648 2.44651Z" fill="#111111"/>
<path d="M7 9C7.13261 9 7.25979 9.05268 7.35355 9.14645C7.44732 9.24021 7.5 9.36739 7.5 9.5C7.5 9.89782 7.34196 10.2794 7.06066 10.5607C6.77936 10.842 6.39782 11 6 11C5.60218 11 5.22064 10.842 4.93934 10.5607C4.65804 10.2794 4.5 9.89782 4.5 9.5C4.50002 9.37753 4.54498 9.25933 4.62636 9.16781C4.70774 9.0763 4.81987 9.01783 4.9415 9.0035L5 9H7Z" fill="#111111"/>
<path d="M6 3C6.62965 3 7.24333 3.19811 7.75413 3.56627C8.26493 3.93443 8.64694 4.45398 8.84605 5.05132C9.04516 5.64865 9.05128 6.2935 8.86354 6.8945C8.6758 7.49551 8.30372 8.02221 7.8 8.4C7.73109 8.45176 7.64996 8.48483 7.5645 8.496L7.5 8.5H4.5C4.39181 8.5 4.28655 8.46491 4.2 8.4C3.69628 8.02221 3.3242 7.49551 3.13646 6.8945C2.94872 6.2935 2.95484 5.64865 3.15395 5.05132C3.35306 4.45398 3.73507 3.93443 4.24587 3.56627C4.75667 3.19811 5.37035 3 6 3Z" fill="#111111"/>
</svg>
