<svg width="12" height="12" viewBox="0 0 12 12" fill="none" xmlns="http://www.w3.org/2000/svg">
<path fill-rule="evenodd" clip-rule="evenodd" d="M8.06568 3.93428C8.3781 4.2467 8.3781 4.75324 8.06568 5.06565L5.06568 8.06565C4.75326 8.37807 4.24673 8.37807 3.93431 8.06565C3.62189 7.75324 3.62189 7.2467 3.93431 6.93428L6.93431 3.93428C7.24673 3.62186 7.75326 3.62186 8.06568 3.93428Z" fill="#111111"/>
<path fill-rule="evenodd" clip-rule="evenodd" d="M6.31596 3.27917L6.1054 3.52294C5.81658 3.85729 5.31139 3.89421 4.97703 3.60539C4.64268 3.31657 4.60576 2.81138 4.89458 2.47703L5.12608 2.20903C5.13881 2.19429 5.15207 2.18002 5.16584 2.16626C5.78479 1.5474 6.62422 1.19977 7.49947 1.19983C8.37473 1.19989 9.21411 1.54764 9.83296 2.16659C10.4518 2.78553 10.7995 3.62496 10.7994 4.50022C10.7993 5.37547 10.4516 6.21485 9.83263 6.83371C9.81944 6.8469 9.80579 6.85962 9.79171 6.87186L9.52471 7.10386C9.19119 7.39366 8.6859 7.35821 8.39611 7.0247C8.10632 6.69119 8.14176 6.1859 8.47527 5.8961L8.71911 5.68423C9.02685 5.36724 9.19936 4.94257 9.19939 4.5001C9.19942 4.04919 9.02033 3.61674 8.70151 3.29788C8.3827 2.97901 7.95027 2.79986 7.49936 2.79983C7.05726 2.7998 6.63291 2.97196 6.31596 3.27917Z" fill="#111111"/>
<path fill-rule="evenodd" clip-rule="evenodd" d="M5.48348 9.0208L5.69404 8.77704C5.98285 8.44268 6.48804 8.40575 6.8224 8.69457C7.15676 8.98339 7.19368 9.48857 6.90486 9.82293L6.67337 10.0909C6.66064 10.1057 6.64737 10.1199 6.6336 10.1337C6.01467 10.7526 5.17524 11.1002 4.29998 11.1002C3.42473 11.1001 2.58534 10.7524 1.96648 10.1334C1.34762 9.51449 0.999978 8.67506 1.00003 7.79981C1.00008 6.92455 1.34783 6.08517 1.96676 5.4663C1.97996 5.45311 1.99361 5.44039 2.00769 5.42815L2.27469 5.19615C2.6082 4.90635 3.11349 4.94179 3.40329 5.2753C3.69308 5.60881 3.65765 6.1141 3.32414 6.40389L3.0803 6.61577C2.77256 6.93276 2.60006 7.35744 2.60003 7.7999C2.6 8.25081 2.7791 8.68326 3.09792 9.00212C3.41674 9.32098 3.84917 9.50013 4.30008 9.50016C4.74218 9.50018 5.16653 9.32802 5.48348 9.0208Z" fill="#111111"/>
</svg>
