<svg width="12" height="12" viewBox="0 0 12 12" fill="none" xmlns="http://www.w3.org/2000/svg">
<path d="M1.87996 2C1.11897 2 0.5 2.61897 0.5 3.37995V7.89617C0.5 8.65715 1.11897 9.27612 1.87996 9.27612H9.65792C10.4189 9.27612 11.0379 8.65715 11.0379 7.89617V3.37995C11.0379 2.61897 10.4189 2 9.65792 2H1.87996ZM3.63627 10.0288C3.5864 10.0281 3.53689 10.0373 3.49061 10.0559C3.44433 10.0745 3.40221 10.1021 3.36669 10.1372C3.33117 10.1722 3.30297 10.2139 3.28372 10.2599C3.26447 10.3059 3.25456 10.3553 3.25456 10.4052C3.25456 10.4551 3.26447 10.5044 3.28372 10.5504C3.30297 10.5965 3.33117 10.6382 3.36669 10.6732C3.40221 10.7082 3.44433 10.7358 3.49061 10.7544C3.53689 10.773 3.5864 10.7822 3.63627 10.7815H7.9016C7.95148 10.7822 8.00099 10.773 8.04727 10.7544C8.09355 10.7358 8.13567 10.7082 8.17119 10.6732C8.2067 10.6382 8.23491 10.5965 8.25415 10.5504C8.2734 10.5044 8.28332 10.4551 8.28332 10.4052C8.28332 10.3553 8.2734 10.3059 8.25415 10.2599C8.23491 10.2139 8.2067 10.1722 8.17119 10.1372C8.13567 10.1021 8.09355 10.0745 8.04727 10.0559C8.00099 10.0373 7.95148 10.0281 7.9016 10.0288H3.63627Z" fill="#111111"/>
</svg>
