<svg width="12" height="12" viewBox="0 0 12 12" fill="none" xmlns="http://www.w3.org/2000/svg">
<path d="M6.32617 6.96289C6.86291 6.96293 7.29785 7.39503 7.29785 7.92773V9.73535C7.29785 10.2681 6.86291 10.7002 6.32617 10.7002H5.58594C5.04916 10.7002 4.61328 10.2681 4.61328 9.73535V7.92773C4.61328 7.395 5.04916 6.96289 5.58594 6.96289H6.32617ZM5.98242 1.5C6.54091 1.50007 7.01973 1.84472 7.21484 2.33008H8.48438C8.71909 2.33008 8.91113 2.51768 8.91113 2.75391C8.91092 2.98995 8.71896 3.17969 8.48438 3.17969H7.25879C7.25218 3.1928 7.24842 3.20954 7.24512 3.22266C7.7542 3.36046 8.12793 3.82318 8.12793 4.37109V7.61621H8.11816C8.02229 6.73692 7.27141 6.05371 6.3623 6.05371H5.61523C4.70616 6.05375 3.95622 6.73694 3.86035 7.61621H3.84961V4.37109C3.84961 3.82646 4.22017 3.36667 4.72266 3.22559C4.71926 3.21222 4.70996 3.17969 4.70996 3.17969H3.42969C3.19201 3.17944 3.00021 2.98653 3 2.75391C3 2.52111 3.19518 2.33033 3.42969 2.33008H4.74902C4.9441 1.84456 5.42378 1.5 5.98242 1.5ZM5.95605 2.33984C5.71473 2.33984 5.51953 2.53393 5.51953 2.77344C5.51966 3.01284 5.71481 3.20605 5.95605 3.20605C6.19719 3.20592 6.39245 3.01276 6.39258 2.77344C6.39258 2.53401 6.19727 2.33998 5.95605 2.33984Z" fill="#111111"/>
</svg>
