<svg width="12" height="12" viewBox="0 0 12 12" fill="none" xmlns="http://www.w3.org/2000/svg">
<path d="M11.172 4.95031L10.2222 2.23646C9.96323 1.49708 9.26262 1 8.47892 1H3.52108C2.73738 1 2.03677 1.49708 1.77831 2.236L0.828462 4.94985C0.321231 5.28354 0 5.86 0 6.49415V9.76923C0 10.2792 0.413077 10.6923 0.923077 10.6923C1.43308 10.6923 1.84615 10.2792 1.84615 9.76923V9.18723C1.84615 9.18723 4.28354 9.30769 6 9.30769C7.71646 9.30769 10.1538 9.18723 10.1538 9.18723V9.76923C10.1538 10.2792 10.5669 10.6923 11.0769 10.6923C11.5869 10.6923 12 10.2792 12 9.76923V6.49415C12 5.86 11.6783 5.28354 11.172 4.95031ZM2.12077 4.05215L2.64969 2.54108C2.77938 2.17092 3.12877 1.92308 3.52108 1.92308H8.47892C8.87123 1.92308 9.22062 2.17092 9.35031 2.54108L9.87923 4.05215C9.96231 4.28985 9.76431 4.52939 9.51554 4.48923C8.61046 4.34292 7.44692 4.23077 6 4.23077C4.55308 4.23077 3.38954 4.34292 2.48446 4.48923C2.23569 4.52939 2.03769 4.28985 2.12077 4.05215ZM2.07692 7.46154C1.69477 7.46154 1.38462 7.15138 1.38462 6.76923C1.38462 6.38708 1.69477 6.07692 2.07692 6.07692C2.45908 6.07692 2.76923 6.38708 2.76923 6.76923C2.76923 7.15138 2.45908 7.46154 2.07692 7.46154ZM7.38462 7H4.61538C4.36062 7 4.15385 6.79323 4.15385 6.53846C4.15385 6.28369 4.36062 6.07692 4.61538 6.07692H7.38462C7.63938 6.07692 7.84615 6.28369 7.84615 6.53846C7.84615 6.79323 7.63938 7 7.38462 7ZM9.92308 7.46154C9.54092 7.46154 9.23077 7.15138 9.23077 6.76923C9.23077 6.38708 9.54092 6.07692 9.92308 6.07692C10.3052 6.07692 10.6154 6.38708 10.6154 6.76923C10.6154 7.15138 10.3052 7.46154 9.92308 7.46154Z" fill="#111111"/>
</svg>
