<svg width="12" height="12" viewBox="0 0 12 12" fill="none" xmlns="http://www.w3.org/2000/svg">
<path d="M4.45387 1.68916C4.89513 1.2479 5.49361 1 6.11765 1C6.74169 1 7.34017 1.2479 7.78143 1.68916C8.22269 2.13042 8.47059 2.7289 8.47059 3.35294C8.47059 3.97698 8.22269 4.57546 7.78143 5.01672C7.34017 5.45798 6.74169 5.70588 6.11765 5.70588C5.49361 5.70588 4.89513 5.45798 4.45387 5.01672C4.0126 4.57546 3.76471 3.97698 3.76471 3.35294C3.76471 2.7289 4.0126 2.13042 4.45387 1.68916Z" fill="#111111"/>
<path d="M2 7.73369C2 7.2631 2.38074 6.88235 2.85133 6.88235H9.38396C9.85455 6.88235 10.2353 7.2631 10.2353 7.73369V8.50115C10.2353 9.8088 8.56647 11 6.11765 11C3.66882 11 2 9.8088 2 8.50115V7.73369Z" fill="#111111"/>
</svg>
