<svg width="12" height="12" viewBox="0 0 12 12" fill="none" xmlns="http://www.w3.org/2000/svg">
<path d="M4.97945 0.72219L5.40919 1.83733C5.59644 2.32326 5.49269 2.89471 5.15219 3.25002L4.34921 4.08822C4.25871 4.18282 4.21171 4.32005 4.23196 4.45535C4.30946 4.97263 4.4812 5.48276 4.7472 5.98602C5.0127 6.48817 5.33594 6.91553 5.71718 7.26781C5.81818 7.36103 5.95843 7.38523 6.08343 7.33931L7.02016 6.99555C7.4514 6.83743 7.9209 7.0192 8.18539 7.44656L8.80163 8.44234C9.10913 8.93927 9.05388 9.62458 8.67238 10.0459L8.26339 10.4974C7.8564 10.9468 7.27516 11.1099 6.73742 10.9253C5.46794 10.4897 4.30096 9.19668 3.23598 7.04588C2.16949 4.89206 1.79325 3.06439 2.10699 1.56342C2.23899 0.931742 2.64774 0.428762 3.18148 0.24121L3.71972 0.0520079C4.22471 -0.124819 4.76345 0.161734 4.97945 0.72219Z" fill="#111111"/>
</svg>
