<svg width="12" height="12" viewBox="0 0 12 12" fill="none" xmlns="http://www.w3.org/2000/svg">
<path d="M9.18183 2.28682C10.008 3.09332 10.4805 4.18192 10.4994 5.3224C10.5183 6.46289 10.0822 7.56587 9.28332 8.3981L9.18183 8.50061L7.06038 10.5714C6.7912 10.834 6.42984 10.987 6.04949 10.9992C5.66914 11.0114 5.29824 10.8821 5.01194 10.6373L4.93994 10.5714L2.81799 8.50013C1.9741 7.67619 1.5 6.55869 1.5 5.39347C1.5 4.22825 1.9741 3.11075 2.81799 2.28682C3.66189 1.46288 4.80646 1 5.99991 1C7.19336 1 8.33793 1.46288 9.18183 2.28682ZM5.99991 3.92899C5.80293 3.92899 5.60788 3.96687 5.4259 4.04047C5.24392 4.11406 5.07856 4.22194 4.93928 4.35793C4.79999 4.49392 4.68951 4.65536 4.61413 4.83304C4.53875 5.01072 4.49995 5.20115 4.49995 5.39347C4.49995 5.58579 4.53875 5.77623 4.61413 5.95391C4.68951 6.13158 4.79999 6.29303 4.93928 6.42902C5.07856 6.56501 5.24392 6.67288 5.4259 6.74648C5.60788 6.82007 5.80293 6.85795 5.99991 6.85795C6.39772 6.85795 6.77925 6.70366 7.06054 6.42902C7.34184 6.15437 7.49987 5.78188 7.49987 5.39347C7.49987 5.00507 7.34184 4.63257 7.06054 4.35793C6.77925 4.08328 6.39772 3.92899 5.99991 3.92899Z" fill="#111111"/>
</svg>
