<svg width="12" height="12" viewBox="0 0 12 12" fill="none" xmlns="http://www.w3.org/2000/svg">
<path d="M9.82248 1.5C10.2693 1.5 10.6309 1.86085 10.6311 2.30762V9.69141C10.6311 10.1383 10.2694 10.5 9.82248 10.5H2.43869C1.99192 10.4998 1.63107 10.1382 1.63107 9.69141V2.30762C1.63125 1.86096 1.99203 1.50018 2.43869 1.5H9.82248ZM4.34689 3.80371C3.73675 4.33613 3.35275 5.16848 3.35275 6.02734C3.35281 6.88611 3.70632 7.65901 4.27365 8.1875H7.99631C8.55969 7.65513 8.91715 6.92101 8.91721 6.02734C8.91721 5.1335 8.52835 4.33613 7.92209 3.80371H4.34689ZM6.13889 6.49707C6.38369 6.49707 6.5822 6.69564 6.58224 6.94043V7.38379H5.69553V6.94043C5.69557 6.69563 5.89408 6.49707 6.13889 6.49707ZM7.02072 4.69824C7.1412 4.69824 7.23849 4.79554 7.23849 4.91602V5.6543C7.23842 5.7747 7.14115 5.87207 7.02072 5.87207C6.90045 5.87189 6.80302 5.77459 6.80295 5.6543V4.91602C6.80295 4.79565 6.9004 4.69842 7.02072 4.69824ZM5.24142 4.69824C5.3615 4.69839 5.4592 4.79591 5.4592 4.91602V5.65039C5.45913 5.77044 5.36146 5.86802 5.24142 5.86816C5.12127 5.86816 5.02372 5.77053 5.02365 5.65039V4.91602C5.02365 4.79582 5.12123 4.69824 5.24142 4.69824Z" fill="#111111"/>
</svg>
