<svg width="12" height="12" viewBox="0 0 12 12" fill="none" xmlns="http://www.w3.org/2000/svg">
<path d="M1.74929 1L0.977983 1.76793L2.22337 3.00785C0.654188 4.28294 0 6 0 6C0 6 1.63636 10.3445 6 10.3445C7.13213 10.3445 8.076 10.0484 8.85938 9.61476L10.2507 11L11.022 10.2321L1.74929 1ZM6 1.65549C5.33891 1.65549 4.74862 1.76395 4.20916 1.93339L5.60582 3.32393C5.7351 3.30492 5.86527 3.28468 6 3.28468C7.506 3.28468 8.72727 4.5006 8.72727 6C8.72727 6.13414 8.70695 6.26374 8.68786 6.39245L10.5586 8.25499C11.566 7.14171 12 6 12 6C12 6 10.3636 1.65549 6 1.65549ZM3.72763 4.50552L4.52557 5.29996C4.42263 5.51169 4.36364 5.74833 4.36364 6C4.36364 6.89986 5.09618 7.62919 6 7.62919C6.25278 7.62919 6.49046 7.57045 6.70312 7.46797L7.50107 8.26241C7.0702 8.54683 6.55597 8.71532 6 8.71532C4.494 8.71532 3.27273 7.4994 3.27273 6C3.27273 5.44647 3.44195 4.93449 3.72763 4.50552Z" fill="#111111"/>
</svg>
