<svg width="12" height="12" viewBox="0 0 12 12" fill="none" xmlns="http://www.w3.org/2000/svg">
<path d="M1.38462 2C0.620192 2 0 2.62019 0 3.38462V7.07692C0 7.84135 0.620192 8.46154 1.38462 8.46154H10.6154C11.3798 8.46154 12 7.84135 12 7.07692V3.38462C12 2.62019 11.3798 2 10.6154 2H1.38462ZM8.76923 2.89423C10.0583 2.89423 11.1058 3.94171 11.1058 5.23077C11.1058 6.51983 10.0583 7.56731 8.76923 7.56731C7.48017 7.56731 6.43269 6.51983 6.43269 5.23077C6.43269 3.94171 7.48017 2.89423 8.76923 2.89423ZM8.76923 3.93269C8.05168 3.93269 7.47115 4.51322 7.47115 5.23077C7.47115 5.94832 8.05168 6.52885 8.76923 6.52885C9.48678 6.52885 10.0673 5.94832 10.0673 5.23077C10.0673 4.51322 9.48678 3.93269 8.76923 3.93269ZM1.61538 4.30769H4.84615C4.97416 4.30769 5.07692 4.41046 5.07692 4.53846C5.07692 4.66647 4.97416 4.76923 4.84615 4.76923H1.61538C1.48738 4.76923 1.38462 4.66647 1.38462 4.53846C1.38462 4.41046 1.48738 4.30769 1.61538 4.30769ZM1.61538 5.23077H4.84615C4.97416 5.23077 5.07692 5.33353 5.07692 5.46154C5.07692 5.58954 4.97416 5.69231 4.84615 5.69231H1.61538C1.48738 5.69231 1.38462 5.58954 1.38462 5.46154C1.38462 5.33353 1.48738 5.23077 1.61538 5.23077ZM1.61538 6.15385H4.84615C4.97416 6.15385 5.07692 6.25661 5.07692 6.38462C5.07692 6.51262 4.97416 6.61538 4.84615 6.61538H1.61538C1.48738 6.61538 1.38462 6.51262 1.38462 6.38462C1.38462 6.25661 1.48738 6.15385 1.61538 6.15385ZM1.38462 8.92308V9.38462C1.38462 9.63882 1.59195 9.84615 1.84615 9.84615H2.76923C3.02344 9.84615 3.23077 9.63882 3.23077 9.38462V8.92308H1.38462ZM8.76923 8.92308V9.38462C8.76923 9.63882 8.97656 9.84615 9.23077 9.84615H10.1538C10.4081 9.84615 10.6154 9.63882 10.6154 9.38462V8.92308H8.76923Z" fill="#111111"/>
</svg>
