<svg width="12" height="12" viewBox="0 0 12 12" fill="none" xmlns="http://www.w3.org/2000/svg">
<g clip-path="url(#clip0_49_21)">
<path d="M12 6.00154C12 8.43257 10.0131 10.417 7.57895 10.417L4.68257 10.417L5.18339 10.9172C5.24396 10.976 5.2921 11.0464 5.32494 11.1242C5.35778 11.202 5.37467 11.2855 5.37459 11.3699C5.37443 11.4954 5.33684 11.6179 5.26662 11.7219C5.19639 11.8259 5.09673 11.9066 4.98034 11.9537C4.86396 12.0009 4.73615 12.0123 4.61324 11.9866C4.49032 11.9608 4.37789 11.899 4.2903 11.8091L2.76748 10.2883C2.68971 10.2292 2.6267 10.153 2.58339 10.0656C2.54009 9.97818 2.51768 9.88191 2.51792 9.78437C2.51816 9.68683 2.54104 9.59067 2.58477 9.50346C2.6285 9.41624 2.69188 9.34034 2.76994 9.28172L4.2903 7.76329C4.34849 7.70275 4.4182 7.65442 4.49533 7.62112C4.57247 7.58782 4.65548 7.57023 4.7395 7.56938C4.82353 7.56853 4.90688 7.58443 4.98468 7.61615C5.06248 7.64787 5.13315 7.69477 5.19257 7.75412C5.25199 7.81346 5.29895 7.88405 5.33072 7.96175C5.36248 8.03944 5.3784 8.12269 5.37754 8.20661C5.37669 8.29053 5.35907 8.37343 5.32574 8.45047C5.2924 8.52751 5.244 8.59713 5.18339 8.65525L4.68257 9.15544L7.57895 9.15544C9.33031 9.15544 10.7368 7.75068 10.7368 6.00154C10.7368 5.31248 10.5159 4.68316 10.1404 4.1628C10.0904 4.09571 10.0542 4.01934 10.0339 3.93815C10.0137 3.85695 10.0099 3.77255 10.0226 3.68985C10.0354 3.60716 10.0645 3.52782 10.1082 3.45646C10.1519 3.3851 10.2095 3.32315 10.2774 3.2742C10.3454 3.22526 10.4224 3.1903 10.504 3.17137C10.5856 3.15244 10.6701 3.14991 10.7527 3.16392C10.8353 3.17794 10.9143 3.20823 10.9851 3.25302C11.0558 3.29782 11.1169 3.35622 11.1649 3.42483C11.6869 4.14837 12 5.04049 12 6.00154ZM9.48232 2.22611C9.48085 2.32195 9.45754 2.41619 9.41415 2.50169C9.37076 2.58718 9.30844 2.66168 9.23191 2.71952L7.7097 4.2398C7.65151 4.30034 7.5818 4.34867 7.50467 4.38196C7.42753 4.41526 7.34452 4.43285 7.2605 4.4337C7.17647 4.43456 7.09312 4.41866 7.01532 4.38694C6.93752 4.35522 6.86685 4.30831 6.80743 4.24897C6.74801 4.18962 6.70105 4.11904 6.66928 4.04134C6.63752 3.96364 6.6216 3.88039 6.62246 3.79647C6.62331 3.71256 6.64093 3.62965 6.67426 3.55261C6.7076 3.47558 6.756 3.40596 6.81661 3.34784L7.31743 2.84765L4.42105 2.84765C2.66969 2.84765 1.26316 4.2524 1.26316 6.00154C1.26316 6.69061 1.48414 7.31992 1.85958 7.84029C1.90964 7.90738 1.94583 7.98374 1.96606 8.06494C1.98629 8.14613 1.99014 8.23054 1.97739 8.31323C1.96464 8.39593 1.93555 8.47526 1.8918 8.54662C1.84806 8.61798 1.79054 8.67994 1.7226 8.72888C1.65465 8.77783 1.57763 8.81278 1.49603 8.83171C1.41443 8.85065 1.32987 8.85318 1.24727 8.83916C1.16468 8.82514 1.08571 8.79485 1.01495 8.75006C0.944188 8.70527 0.883058 8.64686 0.835115 8.57825C0.313084 7.85472 -2.20192e-07 6.9626 -2.62201e-07 6.00154C-3.68465e-07 3.57051 1.98694 1.58609 4.42105 1.58609L7.31743 1.58609L6.81661 1.0859C6.756 1.02778 6.7076 0.958161 6.67426 0.881124C6.64093 0.804088 6.62331 0.721182 6.62246 0.637263C6.6216 0.553343 6.63752 0.470096 6.66928 0.392398C6.70105 0.3147 6.74801 0.244112 6.80743 0.184769C6.86685 0.125427 6.93752 0.078521 7.01532 0.0467999C7.09312 0.0150788 7.17647 -0.000821856 7.2605 3.16784e-05C7.34452 0.000886167 7.42753 0.0184767 7.50467 0.0517733C7.5818 0.0850698 7.65151 0.133402 7.7097 0.19394L9.23438 1.71668C9.3126 1.77641 9.37576 1.85359 9.41881 1.94204C9.46186 2.03049 9.48361 2.12777 9.48232 2.22611Z" fill="#111111"/>
</g>
<defs>
<clipPath id="clip0_49_21">
<rect width="12" height="12" fill="white"/>
</clipPath>
</defs>
</svg>
