<svg width="12" height="12" viewBox="0 0 12 12" fill="none" xmlns="http://www.w3.org/2000/svg">
<path d="M7.1676 0.00246917C7.08956 -0.00288444 7.0103 0.000495485 6.9314 0.0123376L1.39917 0.851153C1.16979 0.88589 1 1.08497 1 1.31929V10.6807C1 10.9153 1.16979 11.1141 1.39917 11.1488L6.9314 11.9877C6.98546 11.9959 7.04 12 7.09375 12C7.35406 12 7.60725 11.9063 7.80725 11.7323C8.00855 11.5571 8.13277 11.3144 8.17041 11.0526H9.90625C10.5047 11.0526 11 10.5521 11 9.94737V2.05263C11 1.44791 10.5047 0.94737 9.90625 0.94737H8.17041C8.13277 0.685601 8.00855 0.4433 7.80725 0.2683C7.62608 0.1108 7.40173 0.01853 7.1676 0.00246917ZM8.1875 1.89474H9.90625C9.99845 1.89474 10.0625 1.95946 10.0625 2.05263V9.94737C10.0625 10.0405 9.99845 10.1053 9.90625 10.1053H8.1875V1.89474ZM6 5.68421C6.34531 5.68421 6.625 5.96684 6.625 6.31579C6.625 6.66474 6.34531 6.94737 6 6.94737C5.65469 6.94737 5.375 6.66474 5.375 6.31579C5.375 5.96684 5.65469 5.68421 6 5.68421Z" fill="#111111"/>
</svg>
