<svg width="12" height="12" viewBox="0 0 12 12" fill="none" xmlns="http://www.w3.org/2000/svg">
<path d="M5.85714 0C4.83659 0 4 0.836589 4 1.85714V6.99833C3.39622 7.52169 3 8.28253 3 9.14286C3 10.7157 4.28434 12 5.85714 12C7.42995 12 8.71429 10.7157 8.71429 9.14286C8.71429 8.28253 8.31807 7.52169 7.71429 6.99833V1.85714C7.71429 0.836589 6.8777 0 5.85714 0ZM5.85714 0.857143C6.4143 0.857143 6.85714 1.29998 6.85714 1.85714V7.18192C6.85716 7.24935 6.87309 7.31583 6.90363 7.37594C6.93418 7.43606 6.97847 7.48813 7.03292 7.5279C7.53249 7.89255 7.85714 8.47616 7.85714 9.14286C7.85714 10.2523 6.96662 11.1429 5.85714 11.1429C4.74766 11.1429 3.85714 10.2523 3.85714 9.14286C3.85714 8.47616 4.1818 7.89255 4.68136 7.5279C4.73581 7.48813 4.78011 7.43606 4.81065 7.37594C4.8412 7.31583 4.85712 7.24935 4.85714 7.18192V1.85714C4.85714 1.29998 5.29998 0.857143 5.85714 0.857143ZM5.85045 3.70815C5.73688 3.70992 5.62866 3.7567 5.54956 3.83821C5.47046 3.91972 5.42694 4.02929 5.42857 4.14286V7.78013C5.10302 7.88256 4.82489 8.09814 4.64452 8.38787C4.46416 8.6776 4.39347 9.02233 4.44527 9.35966C4.49706 9.69699 4.66791 10.0046 4.92689 10.2269C5.18586 10.4492 5.51586 10.5714 5.85714 10.5714C6.1975 10.5701 6.52621 10.4474 6.78409 10.2252C7.04197 10.0031 7.21206 9.69621 7.26375 9.35979C7.31543 9.02338 7.2453 8.67957 7.066 8.39028C6.88669 8.10098 6.60999 7.8852 6.28571 7.78181V4.14286C6.28654 4.0855 6.27584 4.02855 6.25425 3.9754C6.23266 3.92225 6.20062 3.87398 6.16003 3.83344C6.11943 3.7929 6.07112 3.76092 6.01794 3.7394C5.96476 3.71788 5.90781 3.70725 5.85045 3.70815Z" fill="#111111"/>
</svg>
