<svg width="12" height="12" viewBox="0 0 12 12" fill="none" xmlns="http://www.w3.org/2000/svg">
<path d="M7.03594 1.00015C6.85705 1.00362 6.68048 1.06657 6.54023 1.18464L4.00195 3.38711C3.91825 3.45962 3.80894 3.49943 3.69434 3.49943H1.35C0.6057 3.49943 0 4.06035 0 4.74962V7.24999C0 7.93926 0.6057 8.50017 1.35 8.50017H3.69434C3.80894 8.50017 3.91855 8.54025 4.00195 8.61304L6.54551 10.8193C6.68621 10.9379 6.86759 11 7.05059 11C7.15319 11 7.25632 10.9803 7.35352 10.9403C7.62472 10.8292 7.8 10.5802 7.8 10.3055V1.69415C7.8 1.41939 7.62502 1.17042 7.35352 1.0593C7.25159 1.01762 7.14327 0.998067 7.03594 1.00015ZM10.5744 2.54715C10.4925 2.54667 10.4121 2.56688 10.3417 2.6056C10.2713 2.64433 10.2137 2.70011 10.175 2.76692C10.1363 2.83374 10.118 2.90906 10.1221 2.98478C10.1262 3.06051 10.1525 3.13376 10.1982 3.19666C10.7674 4.00385 11.1 4.96359 11.1 5.9998C11.1 7.03602 10.7674 7.99576 10.1982 8.80295C10.1639 8.84874 10.1398 8.90045 10.1274 8.95502C10.115 9.00959 10.1145 9.06591 10.126 9.12064C10.1376 9.17537 10.1608 9.22741 10.1945 9.27367C10.2281 9.31992 10.2714 9.35946 10.3218 9.38993C10.3723 9.4204 10.4288 9.44118 10.4881 9.45106C10.5473 9.46093 10.6081 9.45969 10.6669 9.44741C10.7256 9.43513 10.7811 9.41205 10.83 9.37955C10.879 9.34705 10.9204 9.30579 10.9518 9.25821C11.612 8.32181 12 7.20169 12 5.9998C12 4.79791 11.612 3.6778 10.9518 2.7414C10.9115 2.68233 10.8558 2.63358 10.7899 2.59964C10.7239 2.56569 10.6499 2.54764 10.5744 2.54715ZM9.30352 3.84888C9.22548 3.84789 9.14851 3.86572 9.08016 3.9006C9.01182 3.93549 8.95444 3.98623 8.91366 4.04785C8.87289 4.10947 8.85011 4.17985 8.84758 4.25209C8.84505 4.32432 8.86284 4.39592 8.89922 4.45986C9.15438 4.92401 9.3 5.44484 9.3 5.9998C9.3 6.55477 9.15438 7.0756 8.89922 7.53975C8.87008 7.58868 8.85186 7.64254 8.84565 7.69812C8.83944 7.7537 8.84536 7.80988 8.86307 7.8633C8.88077 7.91672 8.9099 7.9663 8.94871 8.00908C8.98752 8.05187 9.03523 8.08699 9.089 8.11236C9.14276 8.13773 9.20149 8.15283 9.26168 8.15675C9.32187 8.16068 9.38231 8.15336 9.43938 8.13522C9.49646 8.11708 9.54901 8.0885 9.59392 8.05118C9.63882 8.01385 9.67516 7.96854 9.70078 7.91795C10.0168 7.34305 10.2 6.69058 10.2 5.9998C10.2 5.30903 10.0168 4.65656 9.70078 4.08166C9.66417 4.01272 9.60769 3.95449 9.53758 3.91341C9.46747 3.87234 9.38647 3.85 9.30352 3.84888Z" fill="#111111"/>
</svg>
