<svg width="12" height="12" viewBox="0 0 12 12" fill="none" xmlns="http://www.w3.org/2000/svg">
<path d="M9.46772 7.44543L8.85711 5.76543C8.69066 5.30771 8.24026 5 7.73646 5H4.54927C4.04547 5 3.59507 5.30771 3.42892 5.76514L2.8183 7.44514C2.49223 7.65171 2.28572 8.00857 2.28572 8.40114V10.4286C2.28572 10.7443 2.55127 11 2.87913 11C3.20698 11 3.47253 10.7443 3.47253 10.4286V10.0683C3.47253 10.0683 5.03942 10.1429 6.14286 10.1429C7.2463 10.1429 8.81319 10.0683 8.81319 10.0683V10.4286C8.81319 10.7443 9.07874 11 9.4066 11C9.73446 11 10 10.7443 10 10.4286V8.40114C10 8.00857 9.7932 7.65171 9.46772 7.44543ZM3.64907 6.88943L3.98909 5.954C4.07247 5.72486 4.29707 5.57143 4.54927 5.57143H7.73646C7.98865 5.57143 8.21326 5.72486 8.29663 5.954L8.63666 6.88943C8.69006 7.03657 8.56278 7.18486 8.40285 7.16C7.82102 7.06943 7.07303 7 6.14286 7C5.2127 7 4.46471 7.06943 3.88287 7.16C3.72295 7.18486 3.59567 7.03657 3.64907 6.88943ZM3.62089 9C3.37522 9 3.17583 8.808 3.17583 8.57143C3.17583 8.33486 3.37522 8.14286 3.62089 8.14286C3.86656 8.14286 4.06594 8.33486 4.06594 8.57143C4.06594 8.808 3.86656 9 3.62089 9ZM7.03297 8.71429H5.25275C5.08897 8.71429 4.95605 8.58629 4.95605 8.42857C4.95605 8.27086 5.08897 8.14286 5.25275 8.14286H7.03297C7.19675 8.14286 7.32968 8.27086 7.32968 8.42857C7.32968 8.58629 7.19675 8.71429 7.03297 8.71429ZM8.66484 9C8.41917 9 8.21979 8.808 8.21979 8.57143C8.21979 8.33486 8.41917 8.14286 8.66484 8.14286C8.91051 8.14286 9.1099 8.33486 9.1099 8.57143C9.1099 8.808 8.91051 9 8.66484 9Z" fill="#111111"/>
<path d="M10.5457 10.6094V1.97344L1.95433 3.18498V10.6094C1.95433 10.8783 1.74076 11.0962 1.47717 11.0962C1.21357 11.0962 1 10.8783 1 10.6094V2.69826C1 2.42939 1.21357 2.21154 1.47717 2.21154L11.0228 1C11.2864 1 11.5 1.21785 11.5 1.48672V10.6094C11.5 10.8783 11.2864 11.0962 11.0228 11.0962C10.7592 11.0962 10.5457 10.8783 10.5457 10.6094Z" fill="#111111"/>
</svg>
