<svg width="12" height="12" viewBox="0 0 12 12" fill="none" xmlns="http://www.w3.org/2000/svg">
<path d="M10.6959 2.88314C10.7754 2.69756 10.7987 2.49278 10.7594 2.29002C10.7079 2.02363 10.5561 1.79411 10.3326 1.64362L9.62869 1.16968C9.4639 1.05858 9.27211 1 9.07406 1C8.73198 1 8.41741 1.17347 8.23237 1.46384L7.4662 2.66751H0.875199C0.392589 2.66751 0 3.05636 0 3.53611V10.1314C0 10.6111 0.392589 11 0.875199 11H10.1248C10.6074 11 11 10.6111 11 10.1314V3.53611C11 3.27452 10.8807 3.04247 10.6959 2.88314ZM6.30868 7.16024C6.30343 7.16756 6.29643 7.17539 6.29093 7.18296C6.26993 7.21149 6.24742 7.24028 6.22341 7.26957C6.21241 7.28295 6.20166 7.29608 6.18991 7.30972C6.1609 7.3433 6.13014 7.37688 6.09764 7.41046C6.09063 7.41779 6.08438 7.42511 6.07713 7.43243C6.03862 7.47081 5.99736 7.50843 5.9546 7.54505C5.93935 7.55818 5.9236 7.5703 5.90784 7.58292C5.87684 7.60792 5.84483 7.63191 5.81207 7.65539C5.79407 7.66801 5.77631 7.68064 5.75781 7.69276C5.71655 7.71978 5.67379 7.74503 5.63003 7.76876C5.61853 7.77507 5.60752 7.78164 5.59577 7.7877C5.54501 7.81345 5.492 7.83593 5.43799 7.85587C5.41848 7.8632 5.39848 7.869 5.37847 7.87532C5.33746 7.88845 5.2957 7.8993 5.25319 7.90839C5.23269 7.91269 5.21218 7.91748 5.19118 7.92077C5.13167 7.93036 5.07115 7.93667 5.00914 7.93693C5.00639 7.93667 5.00389 7.93718 5.00114 7.93718C4.90737 7.93718 4.81935 7.92935 4.73633 7.91445C3.57581 7.70791 3.41828 6.14696 2.46631 5.93991C2.39855 5.92526 2.32703 5.91718 2.25051 5.91718C1.59036 5.91718 1.29029 6.42218 1.12526 6.42218C1.12501 6.42218 1.12476 6.42218 1.12451 6.42218C1.12451 6.42218 1.12451 6.42218 1.12426 6.42218C1.1005 6.42218 1.083 6.41763 1.06749 6.41183C1.06524 6.41107 1.06149 6.41132 1.05924 6.41031C1.01248 6.38961 1.00248 6.34517 1.00098 6.30553C1.00098 6.3025 1.00023 6.29896 1.00023 6.29593C1.00023 6.03788 1.5551 5.15968 2.49957 5.15968C2.59459 5.15968 2.68461 5.16751 2.76988 5.18241C4.04967 5.40385 4.31073 7.17842 5.25019 7.17968C5.34421 7.17968 5.42973 7.1716 5.5085 7.15847C5.53451 7.15392 5.55576 7.1461 5.58027 7.14054C5.62828 7.12943 5.67704 7.11883 5.7193 7.10393C5.75706 7.09055 5.78982 7.07439 5.82332 7.05873C5.84508 7.04863 5.86908 7.03954 5.88934 7.02868C5.93285 7.0052 5.97186 6.9802 6.00837 6.95495C6.20266 6.81987 6.30393 6.67468 6.37545 6.67468C6.43846 6.67468 6.50048 6.71129 6.50048 6.76356C6.50048 6.83628 6.43096 6.98879 6.30818 7.15998C6.30843 7.15998 6.30843 7.16024 6.30868 7.16024ZM9.98477 2.62585L7.75076 5.95001L6.72403 6.46839C6.63176 6.51485 6.52673 6.43531 6.54499 6.33279L6.75028 5.19251L8.86326 1.8734C8.90777 1.80345 8.98079 1.7676 9.05681 1.7623C9.04831 1.7628 9.0398 1.76103 9.03155 1.76255C9.04556 1.76002 9.05956 1.75725 9.07381 1.75725C9.08381 1.75725 9.09382 1.76053 9.10382 1.76154C9.14158 1.76608 9.17859 1.77694 9.21234 1.79967L9.91625 2.27361C10.032 2.35163 10.0628 2.5097 9.98477 2.62585Z" fill="#111111"/>
</svg>
