<svg width="12" height="12" viewBox="0 0 12 12" fill="none" xmlns="http://www.w3.org/2000/svg">
<path d="M6.39386 2.03848C6.58616 1.93268 6.86933 2.0559 6.89386 2.27481L6.61359 4.56876H8.01593C8.01593 4.56876 8.15099 4.6361 8.16632 4.65372C8.28871 4.75641 8.30982 4.95918 8.22589 5.08926C7.26443 6.31116 6.39356 7.60468 5.42511 8.81973C5.36224 8.89838 5.25022 9.06602 5.16632 9.11075C4.91458 9.24766 4.60698 9.02567 4.66632 8.74844L5.33038 6.14005H4.01593C3.80612 6.14005 3.61361 5.80048 3.76398 5.62247C4.59958 4.53404 5.34115 3.32953 6.19073 2.25821C6.24319 2.19659 6.32392 2.07614 6.39386 2.03848ZM2.24249 2.4252C2.44182 2.39097 2.61674 2.52499 2.58527 2.72696C2.56409 2.85701 2.3373 3.03836 2.2464 3.14786C1.15194 4.44861 1.05725 6.32102 2.0257 7.7211C2.17252 7.93327 2.35095 8.08759 2.50128 8.27579C2.73208 8.56676 2.41775 8.86445 2.138 8.68301C2.00861 8.59742 1.73551 8.24525 1.63409 8.10489C0.420776 6.43791 0.553806 4.0144 2.05011 2.55606C2.10251 2.50134 2.16218 2.43897 2.24249 2.4252ZM9.0755 2.77774C8.97114 2.50085 9.3027 2.29922 9.54034 2.50723C10.2676 3.14045 10.7718 4.37644 10.8314 5.31094L10.8275 5.30801V5.84512C10.754 6.76255 10.4186 7.62576 9.82062 8.34122C9.73667 8.44052 9.51668 8.70985 9.39777 8.73087C9.15998 8.77537 8.97743 8.57691 9.08234 8.35782C9.12777 8.25863 9.30985 8.10846 9.39386 8.00919C10.5793 6.59881 10.5793 4.55774 9.39386 3.15079C9.30979 3.04807 9.11393 2.88375 9.0755 2.77774ZM8.48468 3.1752C8.66996 3.13756 8.75369 3.24732 8.86554 3.36368C9.99154 4.531 10.0093 6.42428 8.98468 7.65665C8.83778 7.8347 8.57568 8.15919 8.34503 7.88223C8.15273 7.65291 8.42502 7.48158 8.55792 7.32071C9.41111 6.26984 9.39717 4.87015 8.55109 3.82266C8.42874 3.66868 8.19116 3.53476 8.31671 3.30899C8.34468 3.25766 8.42873 3.18551 8.48468 3.1752ZM3.00812 3.1752C3.21443 3.1307 3.38586 3.28817 3.35089 3.49356C3.33339 3.60302 3.15934 3.74001 3.08234 3.83243C2.22916 4.87986 2.24605 6.28348 3.0921 7.32755C3.21799 7.48501 3.47017 7.63237 3.31281 7.86172V7.86465C3.22894 7.98438 3.06812 8.02276 2.93878 7.94766C2.8059 7.86893 2.55371 7.53283 2.45929 7.3959C1.68666 6.26284 1.72563 4.75641 2.54034 3.65079C2.6175 3.54102 2.88911 3.19991 3.00812 3.1752Z" fill="#111111"/>
</svg>
