<svg width="72" height="72" viewBox="0 0 72 72" fill="none" xmlns="http://www.w3.org/2000/svg">
<path fill-rule="evenodd" clip-rule="evenodd" d="M14.6401 51H10.5151C9.20806 51 8.10631 50.5125 7.2098 49.5375C6.3133 48.5625 5.91505 47.425 6.01505 46.125L9.34005 19.125C9.44006 17.9749 9.91031 17 10.7508 16.2C11.5913 15.4001 12.5961 15 13.7651 15H57.5151C58.6841 15 59.6888 15.4001 60.5294 16.2C61.3698 17 61.8401 17.9749 61.9401 19.125L65.2651 46.125C65.365 47.425 64.9668 48.5625 64.0704 49.5375C63.1738 50.5125 62.0721 51 60.7651 51H56.6401H14.6401ZM60.7651 46.5H10.5151L13.7651 19.5H57.5151L60.7651 46.5Z" fill="#111111"/>
<line x1="11.8176" y1="54.825" x2="60.4676" y2="54.825" stroke="#111111" stroke-width="4.35" stroke-linecap="round"/>
</svg>
