<svg width="68" height="68" viewBox="0 0 68 68" fill="none" xmlns="http://www.w3.org/2000/svg">
<path d="M60.7411 43.3217C61.7618 40.378 62.3333 37.2708 62.3333 34C62.3333 30.7292 61.7618 27.581 60.7411 24.6782C60.7003 24.5964 60.7003 24.5146 60.6595 24.4329C56.7402 13.4757 46.2478 5.66663 34 5.66663C21.7522 5.66663 11.2599 13.5166 7.34054 24.4329C7.29972 24.5146 7.25889 24.5964 7.25889 24.6782C6.23824 27.6219 5.66667 30.7292 5.66667 34C5.66667 37.2708 6.23824 40.4189 7.25889 43.3217C7.29972 43.4035 7.29972 43.4853 7.34054 43.5671C11.2599 54.5243 21.7522 62.3333 34 62.3333C46.2478 62.3333 56.7402 54.4834 60.6595 43.5671C60.7003 43.4853 60.7411 43.4035 60.7411 43.3217ZM34 58.2857C32.9385 58.2857 31.183 56.3232 29.7133 51.9485C29.0192 49.8225 28.4476 47.4103 28.0394 44.7936H39.9198C39.5115 47.4103 38.94 49.8634 38.2459 51.9485C36.817 56.3641 35.1023 58.2857 34 58.2857ZM27.5495 40.746C27.3453 38.5791 27.2637 36.3304 27.2637 34C27.2637 31.6695 27.3862 29.4208 27.5495 27.2539H40.4097C40.6138 29.4208 40.6955 31.6695 40.6955 34C40.6955 36.3304 40.573 38.5791 40.4097 40.746H27.5495ZM9.74928 34C9.74928 31.6695 10.0759 29.38 10.6883 27.2539H23.5077C23.3036 29.4617 23.2219 31.7513 23.2219 34C23.2219 36.2486 23.3036 38.5382 23.5077 40.746H10.6883C10.0759 38.5791 9.74928 36.3304 9.74928 34ZM34 9.71425C35.0615 9.71425 36.817 11.6767 38.2867 16.0514C38.9808 18.1775 39.5524 20.5897 39.9606 23.2063H28.0802C28.4885 20.5488 29.06 18.1366 29.7541 16.0514C31.183 11.6359 32.9385 9.71425 34 9.71425ZM44.5331 27.2539H57.3525C57.9649 29.38 58.2915 31.6695 58.2915 34C58.2915 36.3304 57.9649 38.62 57.3525 40.746H44.5331C44.7373 38.5382 44.8189 36.2486 44.8189 34C44.8189 31.7513 44.6964 29.4617 44.5331 27.2539ZM55.7195 23.1654H44.0432C43.3084 18.1775 42.0836 13.721 40.3281 10.532C47.1052 12.3718 52.6575 17.0327 55.7195 23.1654ZM27.672 10.532C25.9164 13.721 24.6916 18.1775 23.9568 23.1654H12.2805C15.3425 17.0327 20.9356 12.3718 27.672 10.532ZM12.2805 44.7936H23.9568C24.6916 49.7816 25.9164 54.2381 27.672 57.4271C20.9356 55.6281 15.3425 50.9673 12.2805 44.7936ZM40.3689 57.468C42.1244 54.2789 43.3492 49.8225 44.084 44.8345H55.7603C52.6575 50.9673 47.1052 55.6281 40.3689 57.468Z" fill="#111111"/>
</svg>
