<svg width="67" height="67" viewBox="0 0 67 67" fill="none" xmlns="http://www.w3.org/2000/svg">
<path fill-rule="evenodd" clip-rule="evenodd" d="M31.0154 49.8461C31.0154 48.6226 32.0072 47.6307 33.2308 47.6307H33.2585C34.482 47.6307 35.4738 48.6226 35.4738 49.8461C35.4738 51.0696 34.482 52.0615 33.2585 52.0615H33.2308C32.0072 52.0615 31.0154 51.0696 31.0154 49.8461Z" fill="#111111"/>
<path fill-rule="evenodd" clip-rule="evenodd" d="M33.2308 40.987C30.881 40.987 28.6274 41.9202 26.9657 43.5815C26.1004 44.4465 24.6977 44.4463 23.8326 43.581C22.9676 42.7157 22.9678 41.313 23.8331 40.448C26.3258 37.9561 29.7061 36.5562 33.2308 36.5562C36.7554 36.5562 40.1357 37.9561 42.6284 40.448C43.4937 41.313 43.4939 42.7157 42.6289 43.581C41.7639 44.4463 40.3612 44.4465 39.4959 43.5815C37.8341 41.9202 35.5805 40.987 33.2308 40.987Z" fill="#111111"/>
<path fill-rule="evenodd" clip-rule="evenodd" d="M33.2308 29.907C30.6123 29.907 28.0195 30.4227 25.6004 31.4248C23.1813 32.4269 20.9833 33.8956 19.1318 35.7472C18.2667 36.6124 16.864 36.6124 15.9988 35.7473C15.1336 34.8821 15.1335 33.4794 15.9987 32.6142C18.2616 30.3512 20.9481 28.5561 23.9048 27.3313C26.8615 26.1066 30.0305 25.4762 33.2308 25.4762C36.4311 25.4762 39.6001 26.1066 42.5568 27.3313C45.5135 28.5561 48.2 30.3512 50.4629 32.6142C51.328 33.4794 51.328 34.8821 50.4628 35.7473C49.5976 36.6124 48.1949 36.6124 47.3298 35.7472C45.4783 33.8956 43.2802 32.4269 40.8611 31.4248C38.442 30.4227 35.8492 29.907 33.2308 29.907Z" fill="#111111"/>
<path fill-rule="evenodd" clip-rule="evenodd" d="M55.2491 27.9206C43.0507 15.7971 23.4092 15.8043 11.3005 27.9156C10.4355 28.7808 9.03276 28.781 8.1675 27.9159C7.30225 27.0508 7.3021 25.6481 8.16717 24.7829C22.0117 10.9353 44.4515 10.9425 58.3724 24.7779C59.2403 25.6404 59.2446 27.0431 58.3821 27.9109C57.5196 28.7787 56.1169 28.783 55.2491 27.9206Z" fill="#111111"/>
</svg>
