<svg width="24" height="24" viewBox="0 0 24 24" fill="none" xmlns="http://www.w3.org/2000/svg">
<path fill-rule="evenodd" clip-rule="evenodd" d="M6 3.80001C5.41652 3.80001 4.85694 4.0318 4.44436 4.44438C4.03178 4.85696 3.8 5.41654 3.8 6.00001V14.0686L7.43431 10.4343L7.44529 10.4236C8.02941 9.86147 8.7382 9.53026 9.5 9.53026C10.2618 9.53026 10.9706 9.86147 11.5547 10.4236L11.5657 10.4343L14 12.8686L14.4343 12.4343L14.4453 12.4236C15.0294 11.8615 15.7382 11.5303 16.5 11.5303C17.2618 11.5303 17.9706 11.8615 18.5547 12.4236C18.8731 12.7299 18.8828 13.2364 18.5764 13.5547C18.2701 13.8731 17.7637 13.8828 17.4453 13.5765C17.1014 13.2456 16.7742 13.1303 16.5 13.1303C16.2272 13.1303 15.9018 13.2444 15.5599 13.5715L14.5657 14.5657C14.2533 14.8781 13.7467 14.8781 13.4343 14.5657L10.4401 11.5715C10.0981 11.2444 9.77284 11.1303 9.5 11.1303C9.22716 11.1303 8.90185 11.2444 8.55985 11.5715L3.8 16.3314V18C3.8 18.5835 4.03178 19.1431 4.44436 19.5556C4.85694 19.9682 5.41652 20.2 6 20.2H13C13.4418 20.2 13.8 20.5582 13.8 21C13.8 21.4418 13.4418 21.8 13 21.8H6C4.99217 21.8 4.02563 21.3997 3.31299 20.687C2.60035 19.9744 2.2 19.0078 2.2 18V6.00001C2.2 4.99219 2.60035 4.02564 3.31299 3.31301C4.02563 2.60037 4.99217 2.20001 6 2.20001H18C19.0078 2.20001 19.9744 2.60037 20.687 3.31301C21.3996 4.02564 21.8 4.99219 21.8 6.00001V13C21.8 13.4418 21.4418 13.8 21 13.8C20.5582 13.8 20.2 13.4418 20.2 13V6.00001C20.2 5.41654 19.9682 4.85696 19.5556 4.44438C19.1431 4.0318 18.5835 3.80001 18 3.80001H6ZM18.2178 16C18.2178 15.5582 18.5759 15.2 19.0178 15.2C19.4596 15.2 19.8178 15.5582 19.8178 16V18.2178H22.0355C22.4774 18.2178 22.8355 18.576 22.8355 19.0178C22.8355 19.4596 22.4774 19.8178 22.0355 19.8178H19.8178V22.0356C19.8178 22.4774 19.4596 22.8356 19.0178 22.8356C18.5759 22.8356 18.2178 22.4774 18.2178 22.0356V19.8178H16C15.5582 19.8178 15.2 19.4596 15.2 19.0178C15.2 18.576 15.5582 18.2178 16 18.2178H18.2178V16Z" fill="#111111"/>
</svg>
