<svg width="24" height="24" viewBox="0 0 24 24" fill="none" xmlns="http://www.w3.org/2000/svg">
<path fill-rule="evenodd" clip-rule="evenodd" d="M12 4.20001C12.4418 4.20001 12.8 4.55818 12.8 5.00001V11.2H19C19.4418 11.2 19.8 11.5582 19.8 12C19.8 12.4418 19.4418 12.8 19 12.8H12.8V19C12.8 19.4418 12.4418 19.8 12 19.8C11.5582 19.8 11.2 19.4418 11.2 19V12.8H4.99998C4.55815 12.8 4.19998 12.4418 4.19998 12C4.19998 11.5582 4.55815 11.2 4.99998 11.2H11.2V5.00001C11.2 4.55818 11.5582 4.20001 12 4.20001Z" fill="#111111"/>
</svg>
