<svg width="10" height="10" viewBox="0 0 10 10" fill="none" xmlns="http://www.w3.org/2000/svg">
<path d="M5.5 2.08331C5.5 1.80717 5.27614 1.58331 5 1.58331C4.72386 1.58331 4.5 1.80717 4.5 2.08331V4.49997H2.08333C1.80719 4.49997 1.58333 4.72383 1.58333 4.99997C1.58333 5.27612 1.80719 5.49997 2.08333 5.49997H4.5V7.91665C4.5 8.19279 4.72386 8.41665 5 8.41665C5.27614 8.41665 5.5 8.19279 5.5 7.91665V5.49997H7.91666C8.1928 5.49997 8.41666 5.27612 8.41666 4.99997C8.41666 4.72383 8.1928 4.49997 7.91666 4.49997H5.5V2.08331Z" fill="#111111"/>
</svg>
