<svg width="24" height="24" viewBox="0 0 24 24" fill="none" xmlns="http://www.w3.org/2000/svg">
<path fill-rule="evenodd" clip-rule="evenodd" d="M17.4343 8.43433C17.7467 8.12191 18.2533 8.12191 18.5657 8.43433L21.5657 11.4343C21.8781 11.7467 21.8781 12.2533 21.5657 12.5657L18.5657 15.5657C18.2533 15.8781 17.7467 15.8781 17.4343 15.5657C17.1219 15.2533 17.1219 14.7467 17.4343 14.4343L19.8686 12L17.4343 9.5657C17.1219 9.25328 17.1219 8.74675 17.4343 8.43433Z" fill="#111111"/>
<path fill-rule="evenodd" clip-rule="evenodd" d="M14.2 12C14.2 11.5582 14.5582 11.2 15 11.2H21C21.4418 11.2 21.8 11.5582 21.8 12C21.8 12.4418 21.4418 12.8 21 12.8H15C14.5582 12.8 14.2 12.4418 14.2 12Z" fill="#111111"/>
<path fill-rule="evenodd" clip-rule="evenodd" d="M6.56568 8.43433C6.8781 8.74675 6.8781 9.25328 6.56568 9.5657L4.13137 12L6.56568 14.4343C6.8781 14.7467 6.8781 15.2533 6.56568 15.5657C6.25326 15.8781 5.74673 15.8781 5.43431 15.5657L2.43431 12.5657C2.12189 12.2533 2.12189 11.7467 2.43431 11.4343L5.43431 8.43433C5.74673 8.12191 6.25326 8.12191 6.56568 8.43433Z" fill="#111111"/>
<path fill-rule="evenodd" clip-rule="evenodd" d="M2.2 12C2.2 11.5582 2.55817 11.2 3 11.2H9C9.44182 11.2 9.8 11.5582 9.8 12C9.8 12.4418 9.44182 12.8 9 12.8H3C2.55817 12.8 2.2 12.4418 2.2 12Z" fill="#111111"/>
<path fill-rule="evenodd" clip-rule="evenodd" d="M8.43431 17.4343C8.74673 17.1219 9.25326 17.1219 9.56568 17.4343L12 19.8686L14.4343 17.4343C14.7467 17.1219 15.2533 17.1219 15.5657 17.4343C15.8781 17.7467 15.8781 18.2533 15.5657 18.5657L12.5657 21.5657C12.2533 21.8781 11.7467 21.8781 11.4343 21.5657L8.43431 18.5657C8.12189 18.2533 8.12189 17.7467 8.43431 17.4343Z" fill="#111111"/>
<path fill-rule="evenodd" clip-rule="evenodd" d="M12 14.2C12.4418 14.2 12.8 14.5582 12.8 15V21C12.8 21.4418 12.4418 21.8 12 21.8C11.5582 21.8 11.2 21.4418 11.2 21V15C11.2 14.5582 11.5582 14.2 12 14.2Z" fill="#111111"/>
<path fill-rule="evenodd" clip-rule="evenodd" d="M11.4343 2.43433C11.7467 2.12191 12.2533 2.12191 12.5657 2.43433L15.5657 5.43433C15.8781 5.74675 15.8781 6.25328 15.5657 6.5657C15.2533 6.87812 14.7467 6.87812 14.4343 6.5657L12 4.13138L9.56568 6.5657C9.25326 6.87812 8.74673 6.87812 8.43431 6.5657C8.12189 6.25328 8.12189 5.74675 8.43431 5.43433L11.4343 2.43433Z" fill="#111111"/>
<path fill-rule="evenodd" clip-rule="evenodd" d="M12 2.20001C12.4418 2.20001 12.8 2.55818 12.8 3.00001V9.00001C12.8 9.44184 12.4418 9.80001 12 9.80001C11.5582 9.80001 11.2 9.44184 11.2 9.00001V3.00001C11.2 2.55818 11.5582 2.20001 12 2.20001Z" fill="#111111"/>
</svg>
