<svg width="24" height="24" viewBox="0 0 24 24" fill="none" xmlns="http://www.w3.org/2000/svg">
<path fill-rule="evenodd" clip-rule="evenodd" d="M15.2 4.00001C15.2 3.55818 15.5582 3.20001 16 3.20001H20C20.4418 3.20001 20.8 3.55818 20.8 4.00001V8.00001C20.8 8.44184 20.4418 8.80001 20 8.80001C19.5582 8.80001 19.2 8.44184 19.2 8.00001V4.80001H16C15.5582 4.80001 15.2 4.44184 15.2 4.00001Z" fill="#111111"/>
<path fill-rule="evenodd" clip-rule="evenodd" d="M20.5657 3.43433C20.8781 3.74675 20.8781 4.25328 20.5657 4.5657L14.5657 10.5657C14.2533 10.8781 13.7467 10.8781 13.4343 10.5657C13.1219 10.2533 13.1219 9.74675 13.4343 9.43433L19.4343 3.43433C19.7467 3.12191 20.2533 3.12191 20.5657 3.43433Z" fill="#111111"/>
<path fill-rule="evenodd" clip-rule="evenodd" d="M4.00001 15.2C4.44184 15.2 4.80001 15.5582 4.80001 16V19.2H8.00001C8.44184 19.2 8.80001 19.5582 8.80001 20C8.80001 20.4418 8.44184 20.8 8.00001 20.8H4.00001C3.55818 20.8 3.20001 20.4418 3.20001 20V16C3.20001 15.5582 3.55818 15.2 4.00001 15.2Z" fill="#111111"/>
<path fill-rule="evenodd" clip-rule="evenodd" d="M10.5657 13.4343C10.8781 13.7467 10.8781 14.2533 10.5657 14.5657L4.5657 20.5657C4.25328 20.8781 3.74675 20.8781 3.43433 20.5657C3.12191 20.2533 3.12191 19.7467 3.43433 19.4343L9.43433 13.4343C9.74675 13.1219 10.2533 13.1219 10.5657 13.4343Z" fill="#111111"/>
<path fill-rule="evenodd" clip-rule="evenodd" d="M20 15.2C20.4418 15.2 20.8 15.5582 20.8 16V20C20.8 20.4418 20.4418 20.8 20 20.8H16C15.5582 20.8 15.2 20.4418 15.2 20C15.2 19.5582 15.5582 19.2 16 19.2H19.2V16C19.2 15.5582 19.5582 15.2 20 15.2Z" fill="#111111"/>
<path fill-rule="evenodd" clip-rule="evenodd" d="M13.4343 13.4343C13.7467 13.1219 14.2533 13.1219 14.5657 13.4343L20.5657 19.4343C20.8781 19.7467 20.8781 20.2533 20.5657 20.5657C20.2533 20.8781 19.7467 20.8781 19.4343 20.5657L13.4343 14.5657C13.1219 14.2533 13.1219 13.7467 13.4343 13.4343Z" fill="#111111"/>
<path fill-rule="evenodd" clip-rule="evenodd" d="M3.20001 4.00001C3.20001 3.55818 3.55818 3.20001 4.00001 3.20001H8.00001C8.44184 3.20001 8.80001 3.55818 8.80001 4.00001C8.80001 4.44184 8.44184 4.80001 8.00001 4.80001H4.80001V8.00001C4.80001 8.44184 4.44184 8.80001 4.00001 8.80001C3.55818 8.80001 3.20001 8.44184 3.20001 8.00001V4.00001Z" fill="#111111"/>
<path fill-rule="evenodd" clip-rule="evenodd" d="M3.43433 3.43433C3.74675 3.12191 4.25328 3.12191 4.5657 3.43433L10.5657 9.43433C10.8781 9.74675 10.8781 10.2533 10.5657 10.5657C10.2533 10.8781 9.74675 10.8781 9.43433 10.5657L3.43433 4.5657C3.12191 4.25328 3.12191 3.74675 3.43433 3.43433Z" fill="#111111"/>
</svg>
