<svg width="24" height="24" viewBox="0 0 24 24" fill="none" xmlns="http://www.w3.org/2000/svg">
<path d="M4.19727 11.9989L4.20117 11.9169C4.20329 11.8961 4.20725 11.8757 4.21094 11.8553C4.21182 11.8505 4.21192 11.8455 4.21289 11.8407C4.21534 11.8285 4.21868 11.8166 4.22168 11.8046C4.22461 11.7929 4.22701 11.781 4.23047 11.7694C4.24314 11.727 4.2601 11.6865 4.2793 11.6473C4.28346 11.6389 4.28751 11.6303 4.29199 11.6219C4.30656 11.5948 4.32331 11.569 4.34082 11.5438C4.36762 11.5053 4.39729 11.4678 4.43164 11.4335L10.4316 5.43347C10.7441 5.12115 11.2501 5.12111 11.5625 5.43347C11.8749 5.74586 11.8748 6.2519 11.5625 6.56433L6.92773 11.1991L18.9971 11.1991C19.4389 11.1991 19.7968 11.5571 19.7969 11.9989C19.7969 12.4407 19.4389 12.7987 18.9971 12.7987L6.92773 12.7987L11.5625 17.4335C11.8749 17.7459 11.8748 18.2519 11.5625 18.5643C11.2501 18.8768 10.7441 18.8768 10.4316 18.5643L4.43164 12.5643C4.3677 12.5004 4.31706 12.4283 4.2793 12.3514C4.26007 12.3123 4.24318 12.2717 4.23047 12.2294C4.227 12.2178 4.22462 12.2059 4.22168 12.1942C4.21867 12.1822 4.21535 12.1703 4.21289 12.1581C4.21192 12.1533 4.21182 12.1483 4.21094 12.1434C4.20238 12.0965 4.19727 12.0483 4.19727 11.9989Z" fill="#111111"/>
</svg>
