<svg width="24" height="24" viewBox="0 0 24 24" fill="none" xmlns="http://www.w3.org/2000/svg">
<path d="M11.9991 4.19922L12.0811 4.20312C12.1019 4.20524 12.1223 4.20921 12.1426 4.21289C12.1475 4.21377 12.1525 4.21387 12.1573 4.21484C12.1695 4.21729 12.1814 4.22064 12.1934 4.22363C12.2051 4.22656 12.217 4.22896 12.2286 4.23242C12.271 4.2451 12.3115 4.26205 12.3506 4.28125C12.3591 4.28541 12.3677 4.28947 12.376 4.29395C12.4032 4.30851 12.429 4.32527 12.4542 4.34277C12.4927 4.36957 12.5302 4.39924 12.5645 4.43359L18.5645 10.4336C18.8768 10.746 18.8769 11.2521 18.5645 11.5645C18.2521 11.8768 17.7461 11.8768 17.4337 11.5645L12.7989 6.92969V18.999C12.7989 19.4408 12.4409 19.7988 11.9991 19.7988C11.5573 19.7988 11.1993 19.4409 11.1993 18.999V6.92969L6.56451 11.5645C6.25212 11.8768 5.74608 11.8768 5.43365 11.5645C5.12124 11.252 5.12124 10.746 5.43365 10.4336L11.4337 4.43359C11.4976 4.36966 11.5697 4.31901 11.6465 4.28125C11.6856 4.26202 11.7262 4.24513 11.7686 4.23242C11.7802 4.22895 11.7921 4.22657 11.8038 4.22363C11.8158 4.22063 11.8277 4.2173 11.8399 4.21484C11.8447 4.21387 11.8497 4.21378 11.8546 4.21289C11.9014 4.20433 11.9497 4.19922 11.9991 4.19922Z" fill="#111111"/>
</svg>
