<svg width="24" height="24" viewBox="0 0 24 24" fill="none" xmlns="http://www.w3.org/2000/svg">
<path d="M11.9989 19.7988L11.9168 19.7949C11.896 19.7928 11.8756 19.7888 11.8553 19.7852C11.8505 19.7843 11.8455 19.7842 11.8407 19.7832C11.8285 19.7808 11.8165 19.7774 11.8045 19.7744C11.7928 19.7715 11.781 19.7691 11.7694 19.7656C11.727 19.753 11.6864 19.736 11.6473 19.7168C11.6388 19.7126 11.6303 19.7086 11.6219 19.7041C11.5947 19.6895 11.569 19.6728 11.5438 19.6553C11.5053 19.6285 11.4678 19.5988 11.4334 19.5645L5.43344 13.5645C5.12112 13.252 5.12108 12.746 5.43344 12.4336C5.74583 12.1212 6.25187 12.1213 6.5643 12.4336L11.1991 17.0684L11.1991 4.99902C11.1991 4.55722 11.5571 4.19925 11.9989 4.19922C12.4407 4.19922 12.7987 4.5572 12.7987 4.99902L12.7987 17.0684L17.4334 12.4336C17.7458 12.1212 18.2519 12.1213 18.5643 12.4336C18.8767 12.746 18.8767 13.252 18.5643 13.5645L12.5643 19.5645C12.5004 19.6284 12.4283 19.679 12.3514 19.7168C12.3123 19.736 12.2717 19.7529 12.2293 19.7656C12.2178 19.7691 12.2059 19.7715 12.1942 19.7744C12.1822 19.7774 12.1702 19.7807 12.1581 19.7832C12.1532 19.7842 12.1482 19.7843 12.1434 19.7852C12.0965 19.7937 12.0482 19.7988 11.9989 19.7988Z" fill="#111111"/>
</svg>
