<svg width="24" height="24" viewBox="0 0 24 24" fill="none" xmlns="http://www.w3.org/2000/svg">
<path d="M19.7969 11.9971L19.793 12.0792C19.7909 12.1 19.7869 12.1204 19.7833 12.1407C19.7824 12.1455 19.7823 12.1505 19.7813 12.1553C19.7789 12.1675 19.7755 12.1795 19.7725 12.1915C19.7696 12.2032 19.7672 12.215 19.7637 12.2266C19.7511 12.269 19.7341 12.3096 19.7149 12.3487C19.7107 12.3572 19.7067 12.3657 19.7022 12.3741C19.6876 12.4013 19.6709 12.427 19.6534 12.4522C19.6266 12.4907 19.5969 12.5282 19.5626 12.5626L13.5626 18.5626C13.2501 18.8749 12.7441 18.8749 12.4317 18.5626C12.1193 18.2502 12.1194 17.7441 12.4317 17.4317L17.0665 12.7969L4.99713 12.7969C4.55532 12.7969 4.19736 12.4389 4.19733 11.9971C4.19733 11.5553 4.5553 11.1973 4.99713 11.1973L17.0665 11.1973L12.4317 6.56256C12.1193 6.25017 12.1194 5.74413 12.4317 5.4317C12.7441 5.11928 13.2501 5.11928 13.5626 5.4317L19.5626 11.4317C19.6265 11.4956 19.6771 11.5678 19.7149 11.6446C19.7341 11.6837 19.751 11.7243 19.7637 11.7667C19.7672 11.7782 19.7696 11.7901 19.7725 11.8018C19.7755 11.8138 19.7789 11.8258 19.7813 11.838C19.7823 11.8428 19.7824 11.8478 19.7833 11.8526C19.7918 11.8995 19.7969 11.9478 19.7969 11.9971Z" fill="#111111"/>
</svg>
