<svg width="24" height="24" viewBox="0 0 24 24" fill="none" xmlns="http://www.w3.org/2000/svg">
<path fill-rule="evenodd" clip-rule="evenodd" d="M19.0761 4.92392C20.8202 6.66801 21.8 9.0335 21.8 11.5C21.8 13.9665 20.8202 16.332 19.0761 18.0761C17.332 19.8202 14.9665 20.8 12.5 20.8C11.2787 20.8 10.0694 20.5595 8.94103 20.0921C7.8127 19.6247 6.78748 18.9397 5.9239 18.0761C5.06031 17.2125 4.37528 16.1873 3.90791 15.059C3.44054 13.9306 3.19999 12.7213 3.19999 11.5C3.19999 10.2787 3.44054 9.06938 3.90791 7.94106C4.37528 6.81273 5.06031 5.7875 5.9239 4.92392C6.78748 4.06033 7.8127 3.3753 8.94103 2.90793C10.0694 2.44056 11.2787 2.20001 12.5 2.20001C14.9665 2.20001 17.332 3.17983 19.0761 4.92392ZM20.2 11.5C20.2 9.45785 19.3887 7.49932 17.9447 6.05529C16.5007 4.61126 14.5422 3.80001 12.5 3.80001C11.4888 3.80001 10.4875 3.99918 9.55333 4.38614C8.61912 4.7731 7.77028 5.34028 7.05527 6.05529C6.34025 6.7703 5.77308 7.61914 5.38612 8.55335C4.99915 9.48756 4.79999 10.4888 4.79999 11.5C4.79999 12.5112 4.99915 13.5125 5.38612 14.4467C5.77308 15.3809 6.34025 16.2297 7.05527 16.9447C7.77028 17.6597 8.61912 18.2269 9.55332 18.6139C10.4875 19.0008 11.4888 19.2 12.5 19.2C14.5422 19.2 16.5007 18.3888 17.9447 16.9447C19.3887 15.5007 20.2 13.5422 20.2 11.5Z" fill="#111111"/>
<path fill-rule="evenodd" clip-rule="evenodd" d="M21.5657 2.43433C21.8781 2.74675 21.8781 3.25328 21.5657 3.5657L4.56567 20.5657C4.25326 20.8781 3.74672 20.8781 3.4343 20.5657C3.12188 20.2533 3.12188 19.7467 3.4343 19.4343L20.4343 2.43433C20.7467 2.12191 21.2533 2.12191 21.5657 2.43433Z" fill="#111111"/>
</svg>
