<svg width="24" height="24" viewBox="0 0 24 24" fill="none" xmlns="http://www.w3.org/2000/svg">
<path d="M14.4788 13.1011C14.764 12.7906 14.9302 12.3954 14.9673 11.9865L14.9754 11.811V8.8022L15.2665 8.96159C15.7253 9.21139 16.2997 9.04254 16.5497 8.58391C16.7995 8.12516 16.6305 7.55075 16.172 7.3007L14.4822 6.38016C14.1893 6.22064 13.8336 6.22728 13.5467 6.39749C13.2597 6.568 13.0835 6.87795 13.0835 7.21176V9.94912C12.6206 9.97624 12.1966 10.1864 11.8904 10.5197C11.5645 10.8746 11.3938 11.3408 11.3938 11.811C11.3938 12.281 11.5646 12.7463 11.8904 13.1011C12.2189 13.4588 12.6829 13.6763 13.1852 13.6763C13.6872 13.6762 14.1505 13.4586 14.4788 13.1011Z" fill="#111111"/>
<path d="M9.4834 3.80859C9.30118 3.8266 9.12193 3.87206 8.95215 3.94238C8.7258 4.0362 8.51994 4.17342 8.34668 4.34668C8.17342 4.51994 8.0362 4.7258 7.94238 4.95215C7.87206 5.12193 7.8266 5.30118 7.80859 5.4834L7.7998 5.66699L7.7998 14.333C7.79981 14.8282 7.99655 15.3032 8.34668 15.6533C8.69681 16.0034 9.17184 16.2002 9.66699 16.2002L18.333 16.2002C18.5782 16.2002 18.8213 16.1514 19.0479 16.0576C19.2742 15.9638 19.4801 15.8266 19.6533 15.6533C19.8266 15.4801 19.9638 15.2742 20.0576 15.0479C20.1514 14.8213 20.2002 14.5782 20.2002 14.333L20.2002 5.66699L20.1914 5.4834C20.1734 5.30118 20.1279 5.12193 20.0576 4.95215C19.9638 4.7258 19.8266 4.51994 19.6533 4.34668C19.4801 4.17342 19.2742 4.0362 19.0479 3.94238C18.8781 3.87206 18.6988 3.82659 18.5166 3.80859L18.333 3.7998L9.66699 3.7998L9.4834 3.80859ZM18.333 2.20019L18.5039 2.2041C18.9008 2.22369 19.2922 2.31147 19.6602 2.46387C20.0807 2.6381 20.4623 2.89396 20.7842 3.21582C21.106 3.53768 21.3619 3.91933 21.5361 4.33984C21.6885 4.70777 21.7763 5.09919 21.7959 5.49609L21.7998 5.66699L21.7998 14.333C21.7998 14.7883 21.7104 15.2395 21.5361 15.6602C21.3619 16.0807 21.106 16.4623 20.7842 16.7842C20.4623 17.106 20.0807 17.3619 19.6602 17.5361C19.2395 17.7104 18.7883 17.7998 18.333 17.7998L9.66699 17.7998C8.74749 17.7998 7.86601 17.4344 7.21582 16.7842C6.56563 16.134 6.2002 15.2525 6.2002 14.333L6.20019 5.66699L6.2041 5.49609C6.22369 5.09918 6.31147 4.70777 6.46387 4.33984C6.6381 3.91933 6.89396 3.53768 7.21582 3.21582C7.53768 2.89396 7.91933 2.6381 8.33984 2.46387C8.76048 2.28963 9.2117 2.2002 9.66699 2.2002L18.333 2.20019Z" fill="#111111"/>
<path d="M5 21.7998C3.45817 21.7998 2.2002 20.5418 2.2002 19L2.20019 9C2.20019 8.47508 2.33921 8.01662 2.62207 7.62695C2.8248 7.3477 3.07981 7.13385 3.34473 6.96094L3.61133 6.80078L3.68457 6.76465C4.05706 6.60434 4.49789 6.7493 4.69922 7.11133C4.90051 7.47345 4.79092 7.9245 4.45801 8.15625L4.38867 8.19922L4.2168 8.30273C4.0652 8.40201 3.97401 8.48883 3.91699 8.56738C3.85366 8.6547 3.7998 8.77508 3.7998 9L3.7998 19C3.7998 19.6582 4.34183 20.2002 5 20.2002L14.998 20.2002L15.1562 20.1895C15.3128 20.1683 15.4641 20.1162 15.6016 20.0361C15.7849 19.9293 15.9369 19.7761 16.042 19.5918C16.2608 19.2081 16.749 19.0744 17.1328 19.293C17.5166 19.5118 17.6503 20 17.4316 20.3838C17.1871 20.8128 16.8339 21.1703 16.4072 21.4189C16.0339 21.6364 15.616 21.7646 15.1865 21.7939L15.002 21.7998L5 21.7998Z" fill="#111111"/>
</svg>
