<svg width="24" height="24" viewBox="0 0 24 24" fill="none" xmlns="http://www.w3.org/2000/svg">
<path d="M4 15.2002C4.44183 15.2002 4.7998 15.5582 4.7998 16V18L4.80566 18.1182C4.83285 18.393 4.95434 18.6516 5.15137 18.8486C5.37641 19.0737 5.68174 19.2002 6 19.2002H8C8.44183 19.2002 8.7998 19.5582 8.7998 20C8.7998 20.4418 8.44183 20.7998 8 20.7998H6C5.25739 20.7998 4.54561 20.5046 4.02051 19.9795C3.49541 19.4544 3.2002 18.7426 3.2002 18V16C3.2002 15.5582 3.55817 15.2002 4 15.2002ZM20 15.2002C20.4418 15.2002 20.7998 15.5582 20.7998 16V18C20.7998 18.7426 20.5046 19.4544 19.9795 19.9795C19.4544 20.5046 18.7426 20.7998 18 20.7998H16C15.5582 20.7998 15.2002 20.4418 15.2002 20C15.2002 19.5582 15.5582 19.2002 16 19.2002H18C18.3183 19.2002 18.6236 19.0737 18.8486 18.8486C19.0737 18.6236 19.2002 18.3183 19.2002 18V16C19.2002 15.5582 19.5582 15.2002 20 15.2002ZM12 8.2002C13.0078 8.2002 13.9739 8.60084 14.6865 9.31348C15.3992 10.0261 15.7998 10.9922 15.7998 12C15.7998 12.499 15.7017 12.9931 15.5107 13.4541C15.3198 13.9151 15.0394 14.3337 14.6865 14.6865C14.3337 15.0394 13.9151 15.3198 13.4541 15.5107C12.9931 15.7017 12.499 15.7998 12 15.7998C11.501 15.7998 11.0069 15.7017 10.5459 15.5107C10.0849 15.3198 9.66634 15.0394 9.31348 14.6865C8.96061 14.3337 8.68023 13.9151 8.48926 13.4541C8.29831 12.9931 8.2002 12.499 8.2002 12C8.2002 10.9922 8.60084 10.0261 9.31348 9.31348C10.0261 8.60084 10.9922 8.2002 12 8.2002ZM8 3.2002C8.44183 3.2002 8.7998 3.55817 8.7998 4C8.7998 4.44183 8.44183 4.7998 8 4.7998H6C5.68174 4.7998 5.37641 4.92632 5.15137 5.15137C4.92632 5.37641 4.7998 5.68174 4.7998 6V8C4.7998 8.44183 4.44183 8.7998 4 8.7998C3.55817 8.7998 3.2002 8.44183 3.2002 8V6C3.2002 5.25739 3.49541 4.54561 4.02051 4.02051C4.54561 3.49541 5.25739 3.2002 6 3.2002H8ZM18 3.2002C18.7426 3.2002 19.4544 3.49541 19.9795 4.02051C20.5046 4.54561 20.7998 5.25739 20.7998 6V8C20.7998 8.44183 20.4418 8.7998 20 8.7998C19.5582 8.7998 19.2002 8.44183 19.2002 8V6C19.2002 5.68174 19.0737 5.37641 18.8486 5.15137C18.6516 4.95434 18.393 4.83285 18.1182 4.80566L18 4.7998H16C15.5582 4.7998 15.2002 4.44183 15.2002 4C15.2002 3.55817 15.5582 3.2002 16 3.2002H18Z" fill="#111111"/>
</svg>
