<svg width="24" height="24" viewBox="0 0 24 24" fill="none" xmlns="http://www.w3.org/2000/svg">
<path fill-rule="evenodd" clip-rule="evenodd" d="M5.9239 4.92392C7.66799 3.17983 10.0335 2.20001 12.5 2.20001C14.9665 2.20001 17.332 3.17983 19.0761 4.92392C20.8202 6.66801 21.8 9.0335 21.8 11.5C21.8 12.7213 21.5594 13.9306 21.0921 15.059C20.6247 16.1873 19.9397 17.2125 19.0761 18.0761C18.2125 18.9397 17.1873 19.6247 16.059 20.0921C14.9306 20.5595 13.7213 20.8 12.5 20.8C11.2787 20.8 10.0694 20.5595 8.94104 20.0921C7.81271 19.6247 6.78749 18.9397 5.9239 18.0761C5.06032 17.2125 4.37529 16.1873 3.90792 15.059C3.44055 13.9306 3.2 12.7213 3.2 11.5C3.2 9.0335 4.17982 6.66801 5.9239 4.92392ZM12.5 3.80001C10.4578 3.80001 8.4993 4.61126 7.05527 6.05529C5.61124 7.49932 4.8 9.45785 4.8 11.5C4.8 12.5112 4.99916 13.5125 5.38612 14.4467C5.77309 15.3809 6.34026 16.2297 7.05527 16.9447C7.77029 17.6597 8.61913 18.2269 9.55333 18.6139C10.4875 19.0008 11.4888 19.2 12.5 19.2C13.5112 19.2 14.5125 19.0008 15.4467 18.6139C16.3809 18.2269 17.2297 17.6597 17.9447 16.9447C18.6597 16.2297 19.2269 15.3809 19.6139 14.4467C20.0008 13.5125 20.2 12.5112 20.2 11.5C20.2 9.45785 19.3887 7.49932 17.9447 6.05529C16.5007 4.61126 14.5422 3.80001 12.5 3.80001Z" fill="#111111"/>
<path fill-rule="evenodd" clip-rule="evenodd" d="M3.43431 2.43433C3.74673 2.12191 4.25326 2.12191 4.56568 2.43433L21.5657 19.4343C21.8781 19.7467 21.8781 20.2533 21.5657 20.5657C21.2533 20.8781 20.7467 20.8781 20.4343 20.5657L3.43431 3.5657C3.12189 3.25328 3.12189 2.74675 3.43431 2.43433Z" fill="#111111"/>
</svg>
