<svg width="24" height="24" viewBox="0 0 24 24" fill="none" xmlns="http://www.w3.org/2000/svg">
<path fill-rule="evenodd" clip-rule="evenodd" d="M2.2 21C2.2 20.5582 2.55817 20.2 3 20.2H21C21.4418 20.2 21.8 20.5582 21.8 21C21.8 21.4418 21.4418 21.8 21 21.8H3C2.55817 21.8 2.2 21.4418 2.2 21Z" fill="#111111"/>
<path fill-rule="evenodd" clip-rule="evenodd" d="M8.2 8.00001C8.2 7.55818 8.55817 7.20001 9 7.20001H10C10.4418 7.20001 10.8 7.55818 10.8 8.00001C10.8 8.44184 10.4418 8.80001 10 8.80001H9C8.55817 8.80001 8.2 8.44184 8.2 8.00001Z" fill="#111111"/>
<path fill-rule="evenodd" clip-rule="evenodd" d="M8.2 12C8.2 11.5582 8.55817 11.2 9 11.2H10C10.4418 11.2 10.8 11.5582 10.8 12C10.8 12.4418 10.4418 12.8 10 12.8H9C8.55817 12.8 8.2 12.4418 8.2 12Z" fill="#111111"/>
<path fill-rule="evenodd" clip-rule="evenodd" d="M8.2 16C8.2 15.5582 8.55817 15.2 9 15.2H10C10.4418 15.2 10.8 15.5582 10.8 16C10.8 16.4418 10.4418 16.8 10 16.8H9C8.55817 16.8 8.2 16.4418 8.2 16Z" fill="#111111"/>
<path fill-rule="evenodd" clip-rule="evenodd" d="M13.2 8.00001C13.2 7.55818 13.5582 7.20001 14 7.20001H15C15.4418 7.20001 15.8 7.55818 15.8 8.00001C15.8 8.44184 15.4418 8.80001 15 8.80001H14C13.5582 8.80001 13.2 8.44184 13.2 8.00001Z" fill="#111111"/>
<path fill-rule="evenodd" clip-rule="evenodd" d="M13.2 12C13.2 11.5582 13.5582 11.2 14 11.2H15C15.4418 11.2 15.8 11.5582 15.8 12C15.8 12.4418 15.4418 12.8 15 12.8H14C13.5582 12.8 13.2 12.4418 13.2 12Z" fill="#111111"/>
<path fill-rule="evenodd" clip-rule="evenodd" d="M13.2 16C13.2 15.5582 13.5582 15.2 14 15.2H15C15.4418 15.2 15.8 15.5582 15.8 16C15.8 16.4418 15.4418 16.8 15 16.8H14C13.5582 16.8 13.2 16.4418 13.2 16Z" fill="#111111"/>
<path fill-rule="evenodd" clip-rule="evenodd" d="M7 3.80001C6.68174 3.80001 6.37651 3.92644 6.15147 4.15148C5.92642 4.37653 5.8 4.68175 5.8 5.00001V21C5.8 21.4418 5.44182 21.8 5 21.8C4.55817 21.8 4.2 21.4418 4.2 21V5.00001C4.2 4.25741 4.495 3.54522 5.0201 3.02011C5.5452 2.49501 6.25739 2.20001 7 2.20001H17C17.7426 2.20001 18.4548 2.49501 18.9799 3.02011C19.505 3.54521 19.8 4.25741 19.8 5.00001V21C19.8 21.4418 19.4418 21.8 19 21.8C18.5582 21.8 18.2 21.4418 18.2 21V5.00001C18.2 4.68175 18.0736 4.37653 17.8485 4.15148C17.6235 3.92644 17.3183 3.80001 17 3.80001H7Z" fill="#111111"/>
</svg>
