<svg width="24" height="24" viewBox="0 0 24 24" fill="none" xmlns="http://www.w3.org/2000/svg">
<path fill-rule="evenodd" clip-rule="evenodd" d="M5 4.80001C4.68174 4.80001 4.37652 4.92644 4.15147 5.15148C3.92643 5.37653 3.8 5.68175 3.8 6.00001V18C3.8 18.3183 3.92643 18.6235 4.15147 18.8485C4.37652 19.0736 4.68174 19.2 5 19.2H11.5C11.9418 19.2 12.3 19.5582 12.3 20C12.3 20.4418 11.9418 20.8 11.5 20.8H5C4.25739 20.8 3.5452 20.505 3.0201 19.9799C2.495 19.4548 2.2 18.7426 2.2 18V6.00001C2.2 5.25741 2.495 4.54521 3.0201 4.02011C3.5452 3.49501 4.25739 3.20001 5 3.20001H17C17.7426 3.20001 18.4548 3.49501 18.9799 4.02011C19.505 4.54521 19.8 5.25741 19.8 6.00001V11C19.8 11.4418 19.4418 11.8 19 11.8C18.5582 11.8 18.2 11.4418 18.2 11V6.00001C18.2 5.68175 18.0736 5.37653 17.8485 5.15148C17.6235 4.92644 17.3183 4.80001 17 4.80001H5Z" fill="#111111"/>
<path fill-rule="evenodd" clip-rule="evenodd" d="M15 1.20001C15.4418 1.20001 15.8 1.55818 15.8 2.00001V6.00001C15.8 6.44184 15.4418 6.80001 15 6.80001C14.5582 6.80001 14.2 6.44184 14.2 6.00001V2.00001C14.2 1.55818 14.5582 1.20001 15 1.20001Z" fill="#111111"/>
<path fill-rule="evenodd" clip-rule="evenodd" d="M7 1.20001C7.44183 1.20001 7.8 1.55818 7.8 2.00001V6.00001C7.8 6.44184 7.44183 6.80001 7 6.80001C6.55817 6.80001 6.2 6.44184 6.2 6.00001V2.00001C6.2 1.55818 6.55817 1.20001 7 1.20001Z" fill="#111111"/>
<path fill-rule="evenodd" clip-rule="evenodd" d="M2.2 10C2.2 9.55818 2.55817 9.20001 3 9.20001H19C19.4418 9.20001 19.8 9.55818 19.8 10C19.8 10.4418 19.4418 10.8 19 10.8H3C2.55817 10.8 2.2 10.4418 2.2 10Z" fill="#111111"/>
<path fill-rule="evenodd" clip-rule="evenodd" d="M14.2 18C14.2 17.5582 14.5582 17.2 15 17.2H21C21.4418 17.2 21.8 17.5582 21.8 18C21.8 18.4418 21.4418 18.8 21 18.8H15C14.5582 18.8 14.2 18.4418 14.2 18Z" fill="#111111"/>
<path fill-rule="evenodd" clip-rule="evenodd" d="M18 14.2C18.4418 14.2 18.8 14.5582 18.8 15V21C18.8 21.4418 18.4418 21.8 18 21.8C17.5582 21.8 17.2 21.4418 17.2 21V15C17.2 14.5582 17.5582 14.2 18 14.2Z" fill="#111111"/>
</svg>
