<svg width="24" height="24" viewBox="0 0 24 24" fill="none" xmlns="http://www.w3.org/2000/svg">
<path fill-rule="evenodd" clip-rule="evenodd" d="M6 5.80001C5.68174 5.80001 5.37651 5.92644 5.15147 6.15148C4.92643 6.37653 4.8 6.68175 4.8 7.00001V19C4.8 19.3183 4.92643 19.6235 5.15147 19.8485C5.37651 20.0736 5.68174 20.2 6 20.2H18C18.3183 20.2 18.6235 20.0736 18.8485 19.8485C19.0736 19.6235 19.2 19.3183 19.2 19V7.00001C19.2 6.68175 19.0736 6.37653 18.8485 6.15148C18.6235 5.92644 18.3183 5.80001 18 5.80001H6ZM4.0201 5.02011C4.5452 4.49501 5.25739 4.20001 6 4.20001H18C18.7426 4.20001 19.4548 4.49501 19.9799 5.02011C20.505 5.54521 20.8 6.25741 20.8 7.00001V19C20.8 19.7426 20.505 20.4548 19.9799 20.9799C19.4548 21.505 18.7426 21.8 18 21.8H6C5.25739 21.8 4.5452 21.505 4.0201 20.9799C3.495 20.4548 3.2 19.7426 3.2 19V7.00001C3.2 6.25741 3.495 5.54521 4.0201 5.02011Z" fill="#111111"/>
<path fill-rule="evenodd" clip-rule="evenodd" d="M16 2.20001C16.4418 2.20001 16.8 2.55818 16.8 3.00001V7.00001C16.8 7.44184 16.4418 7.80001 16 7.80001C15.5582 7.80001 15.2 7.44184 15.2 7.00001V3.00001C15.2 2.55818 15.5582 2.20001 16 2.20001Z" fill="#111111"/>
<path fill-rule="evenodd" clip-rule="evenodd" d="M8 2.20001C8.44182 2.20001 8.8 2.55818 8.8 3.00001V7.00001C8.8 7.44184 8.44182 7.80001 8 7.80001C7.55817 7.80001 7.2 7.44184 7.2 7.00001V3.00001C7.2 2.55818 7.55817 2.20001 8 2.20001Z" fill="#111111"/>
<path fill-rule="evenodd" clip-rule="evenodd" d="M3.2 11C3.2 10.5582 3.55817 10.2 4 10.2H20C20.4418 10.2 20.8 10.5582 20.8 11C20.8 11.4418 20.4418 11.8 20 11.8H4C3.55817 11.8 3.2 11.4418 3.2 11Z" fill="#111111"/>
</svg>
