<svg width="24" height="24" viewBox="0 0 24 24" fill="none" xmlns="http://www.w3.org/2000/svg">
<path fill-rule="evenodd" clip-rule="evenodd" d="M8.2497 2.94599C9.43869 2.4535 10.713 2.20001 12 2.20001C13.287 2.20001 14.5613 2.4535 15.7503 2.94599C16.9393 3.43849 18.0196 4.16035 18.9296 5.07037C19.8397 5.98038 20.5615 7.06072 21.054 8.24971C21.5465 9.43871 21.8 10.7131 21.8 12C21.8 13.287 21.5465 14.5613 21.054 15.7503C20.5615 16.9393 19.8397 18.0196 18.9296 18.9297C18.0196 19.8397 16.9393 20.5615 15.7503 21.054C14.5613 21.5465 13.287 21.8 12 21.8C10.713 21.8 9.43869 21.5465 8.2497 21.054C7.06071 20.5615 5.98036 19.8397 5.07035 18.9297C4.16034 18.0196 3.43847 16.9393 2.94598 15.7503C2.45348 14.5613 2.2 13.287 2.2 12C2.2 10.7131 2.45348 9.43871 2.94598 8.24971C3.43847 7.06072 4.16034 5.98038 5.07035 5.07037C5.98036 4.16035 7.06071 3.43849 8.2497 2.94599ZM12 3.80001C10.9232 3.80001 9.85686 4.01211 8.86199 4.4242C7.86712 4.83629 6.96316 5.4403 6.20172 6.20174C5.44028 6.96318 4.83627 7.86714 4.42418 8.86201C4.0121 9.85688 3.8 10.9232 3.8 12C3.8 13.0769 4.0121 14.1431 4.42418 15.138C4.83627 16.1329 5.44028 17.0368 6.20172 17.7983C6.96316 18.5597 7.86712 19.1637 8.86199 19.5758C9.85686 19.9879 10.9232 20.2 12 20.2C13.0768 20.2 14.1431 19.9879 15.138 19.5758C16.1329 19.1637 17.0368 18.5597 17.7983 17.7983C18.5597 17.0368 19.1637 16.1329 19.5758 15.138C19.9879 14.1431 20.2 13.0769 20.2 12C20.2 10.9232 19.9879 9.85688 19.5758 8.86201C19.1637 7.86714 18.5597 6.96318 17.7983 6.20174C17.0368 5.4403 16.1329 4.83629 15.138 4.4242C14.1431 4.01211 13.0768 3.80001 12 3.80001Z" fill="#111111"/>
<path fill-rule="evenodd" clip-rule="evenodd" d="M15.5657 9.43433C15.8781 9.74675 15.8781 10.2533 15.5657 10.5657L11.5657 14.5657C11.2533 14.8781 10.7467 14.8781 10.4343 14.5657L8.43431 12.5657C8.12189 12.2533 8.12189 11.7467 8.43431 11.4343C8.74673 11.1219 9.25326 11.1219 9.56568 11.4343L11 12.8686L14.4343 9.43433C14.7467 9.12191 15.2533 9.12191 15.5657 9.43433Z" fill="#111111"/>
</svg>
