<svg width="24" height="24" viewBox="0 0 24 24" fill="none" xmlns="http://www.w3.org/2000/svg">
<path d="M12 2C13.3132 2 14.6139 2.25819 15.8271 2.76074C17.0404 3.2633 18.1427 4.00013 19.0713 4.92871C19.9999 5.85729 20.7367 6.95962 21.2393 8.17285C21.7418 9.38613 22 10.6868 22 12C22 13.3132 21.7418 14.6139 21.2393 15.8271C20.7367 17.0404 19.9999 18.1427 19.0713 19.0713C18.1427 19.9999 17.0404 20.7367 15.8271 21.2393C14.6139 21.7418 13.3132 22 12 22C10.6868 22 9.38613 21.7418 8.17285 21.2393C6.95961 20.7367 5.85729 19.9999 4.92871 19.0713C4.00013 18.1427 3.2633 17.0404 2.76074 15.8271C2.25819 14.6139 2 13.3132 2 12C2 10.6868 2.25819 9.38613 2.76074 8.17285C3.2633 6.95962 4.00014 5.85729 4.92871 4.92871C5.85729 4.00014 6.95961 3.2633 8.17285 2.76074C9.38613 2.25819 10.6868 2 12 2ZM12 3.63281C10.9012 3.63281 9.81305 3.84902 8.79785 4.26953C7.78269 4.69004 6.85999 5.30603 6.08301 6.08301C5.30603 6.85998 4.69004 7.78269 4.26953 8.79785C3.84903 9.81304 3.63281 10.9012 3.63281 12C3.63281 13.0988 3.84902 14.187 4.26953 15.2021C4.69004 16.2173 5.30603 17.14 6.08301 17.917C6.85998 18.694 7.78269 19.31 8.79785 19.7305C9.81305 20.151 10.9012 20.3672 12 20.3672C13.0988 20.3672 14.187 20.151 15.2021 19.7305C16.2173 19.31 17.14 18.694 17.917 17.917C18.694 17.14 19.31 16.2173 19.7305 15.2021C20.151 14.187 20.3672 13.0988 20.3672 12C20.3672 10.9012 20.151 9.81304 19.7305 8.79785C19.31 7.78269 18.694 6.85998 17.917 6.08301C17.14 5.30603 16.2173 4.69004 15.2021 4.26953C14.187 3.84902 13.0988 3.63281 12 3.63281ZM16.082 10.9795C16.6455 10.9797 17.1025 11.4365 17.1025 12C17.1025 12.5635 16.6455 13.0203 16.082 13.0205H7.91797C7.35455 13.0203 6.89746 12.5635 6.89746 12C6.89746 11.4365 7.35455 10.9797 7.91797 10.9795H16.082Z" fill="#111111"/>
</svg>
