<svg width="24" height="24" viewBox="0 0 24 24" fill="none" xmlns="http://www.w3.org/2000/svg">
<path fill-rule="evenodd" clip-rule="evenodd" d="M6.82652 19.4092C7.04679 19.0262 7.53584 18.8942 7.91885 19.1145C8.62331 19.5197 9.38445 19.8171 10.177 19.9968C10.6079 20.0945 10.8779 20.5231 10.7802 20.954C10.6825 21.3848 10.2539 21.6549 9.82305 21.5572C8.87478 21.3421 7.96407 20.9862 7.12117 20.5015C6.73817 20.2812 6.60625 19.7922 6.82652 19.4092Z" fill="#111111"/>
<path fill-rule="evenodd" clip-rule="evenodd" d="M13.2201 3.04487C13.3185 2.61414 13.7474 2.3447 14.1781 2.44308C16.343 2.9375 18.2758 4.15225 19.6602 5.88845C21.0445 7.62466 21.7984 9.77943 21.7984 12C21.7984 14.2206 21.0445 16.3753 19.6602 18.1115C18.2758 19.8477 16.343 21.0625 14.1781 21.5569C13.7474 21.6553 13.3185 21.3859 13.2201 20.9551C13.1217 20.5244 13.3911 20.0955 13.8219 19.9971C15.6334 19.5834 17.2507 18.5669 18.4092 17.114C19.5676 15.6612 20.1984 13.8581 20.1984 12C20.1984 10.1419 19.5676 8.33878 18.4092 6.88595C17.2507 5.43312 15.6334 4.41664 13.8219 4.00291C13.3911 3.90454 13.1217 3.47561 13.2201 3.04487Z" fill="#111111"/>
<path fill-rule="evenodd" clip-rule="evenodd" d="M3.12983 13.7325C3.55428 13.6098 3.99783 13.8544 4.12054 14.2788C4.36388 15.1206 4.7412 15.9176 5.238 16.6394C5.4885 17.0034 5.39654 17.5015 5.03259 17.752C4.66864 18.0025 4.17053 17.9105 3.92002 17.5466C3.32583 16.6833 2.87454 15.73 2.58348 14.7232C2.46078 14.2987 2.70539 13.8552 3.12983 13.7325Z" fill="#111111"/>
<path fill-rule="evenodd" clip-rule="evenodd" d="M4.58074 6.82024C4.96721 7.03438 5.10691 7.52127 4.89277 7.90773L4.72845 8.20428C4.33718 8.95355 4.05815 9.77046 3.9129 10.6329C3.83952 11.0686 3.42684 11.3623 2.99114 11.2889C2.55545 11.2155 2.26174 10.8028 2.33512 10.3671C2.50934 9.33267 2.84481 8.35239 3.31529 7.45389L3.32425 7.43726L3.49325 7.13226C3.70739 6.7458 4.19428 6.6061 4.58074 6.82024Z" fill="#111111"/>
<path fill-rule="evenodd" clip-rule="evenodd" d="M10.7801 3.04572C10.878 3.47656 10.6081 3.9052 10.1773 4.00311C9.16857 4.23233 8.21269 4.6514 7.36063 5.23795C6.9967 5.48848 6.49858 5.39655 6.24805 5.03262C5.99752 4.66869 6.08945 4.17057 6.45339 3.92004C7.47264 3.21839 8.61609 2.71709 9.82273 2.44289C10.2536 2.34498 10.6822 2.61488 10.7801 3.04572Z" fill="#111111"/>
<path fill-rule="evenodd" clip-rule="evenodd" d="M12.4226 7.19999C12.8645 7.19999 13.2226 7.55817 13.2226 8L13.2226 12.9414C13.2226 13.3832 12.8644 13.7414 12.4226 13.7414H10C9.55817 13.7414 9.2 13.3832 9.2 12.9414C9.2 12.4995 9.55817 12.1414 10 12.1414H11.6226L11.6226 7.99999C11.6226 7.55816 11.9808 7.19999 12.4226 7.19999Z" fill="#111111"/>
</svg>
