<svg width="24" height="24" viewBox="0 0 24 24" fill="none" xmlns="http://www.w3.org/2000/svg">
<path fill-rule="evenodd" clip-rule="evenodd" d="M17.5154 6.48456C17.8278 6.79698 17.8278 7.30351 17.5154 7.61593L7.61593 17.5154C7.30351 17.8278 6.79698 17.8278 6.48456 17.5154C6.17214 17.203 6.17214 16.6965 6.48456 16.3841L16.3841 6.48456C16.6965 6.17214 17.203 6.17214 17.5154 6.48456Z" fill="#111111"/>
<path fill-rule="evenodd" clip-rule="evenodd" d="M6.48456 6.48456C6.79698 6.17214 7.30351 6.17214 7.61593 6.48456L17.5154 16.3841C17.8278 16.6965 17.8278 17.203 17.5154 17.5154C17.203 17.8278 16.6965 17.8278 16.3841 17.5154L6.48456 7.61593C6.17214 7.30351 6.17214 6.79698 6.48456 6.48456Z" fill="#111111"/>
</svg>
