<svg width="24" height="24" viewBox="0 0 24 24" fill="none" xmlns="http://www.w3.org/2000/svg">
<path fill-rule="evenodd" clip-rule="evenodd" d="M10.5651 6.02727C12.2026 5.52915 14.002 5.8651 15.2756 6.88616L10.5651 6.02727ZM16.2759 5.63741C14.5736 4.27286 12.2214 3.85094 10.0991 4.49664C8.17963 5.08137 6.66132 6.47746 6.04392 8.26815C3.34119 8.5621 1.20001 10.7759 1.20001 13.517C1.20001 16.4635 3.67212 18.7994 6.65577 18.804L13 18.804C13.4418 18.804 13.8 18.4458 13.8 18.004C13.8 17.5622 13.4418 17.204 13 17.204L6.65826 17.204C6.65806 17.204 6.65845 17.204 6.65826 17.204C4.49818 17.2003 2.80001 15.5223 2.80001 13.517C2.80001 11.5124 4.49773 9.83499 6.65701 9.83499C7.03174 9.83499 7.35625 9.57489 7.43783 9.20915C7.76149 7.75802 8.92983 6.52552 10.5651 6.02727M16.2759 5.63741C17.7188 6.79144 18.5167 8.48132 18.4524 10.231H18.536C20.2259 10.231 21.6849 11.2185 22.3737 12.6477C22.5655 13.0457 22.3984 13.5238 22.0003 13.7157C21.6023 13.9075 21.1242 13.7403 20.9323 13.3423C20.4991 12.4435 19.5861 11.831 18.536 11.831H17.546C17.3033 11.831 17.0738 11.7208 16.9219 11.5315C16.7701 11.3422 16.7124 11.0942 16.7651 10.8573C17.0863 9.41349 16.5417 7.89874 15.2756 6.88616" fill="#111111"/>
<path d="M22 22L17 17" stroke="#111111" stroke-width="1.6" stroke-linecap="round" stroke-linejoin="round"/>
<path d="M17 22L22 17" stroke="#111111" stroke-width="1.6" stroke-linecap="round" stroke-linejoin="round"/>
<circle cx="12" cy="12" r="3" fill="#FF0000"/>
</svg>
