<svg width="24" height="24" viewBox="0 0 24 24" fill="none" xmlns="http://www.w3.org/2000/svg">
<path fill-rule="evenodd" clip-rule="evenodd" d="M10.5651 6.02727C12.2026 5.52915 14.002 5.8651 15.2756 6.88616L10.5651 6.02727ZM16.2759 5.63741C14.5736 4.27286 12.2214 3.85094 10.0991 4.49664C8.17963 5.08137 6.66132 6.47746 6.04392 8.26815C3.34119 8.5621 1.20001 10.7759 1.20001 13.517C1.20001 16.4346 3.62438 18.7545 6.57016 18.7993C6.59869 18.8024 6.62767 18.804 6.65701 18.804H18.535C20.8955 18.804 22.8 16.8812 22.8 14.517C22.8 12.1538 20.8955 10.231 18.536 10.231H18.4524C18.5167 8.48132 17.7188 6.79144 16.2759 5.63741ZM6.73751 17.204H18.535C20.0025 17.204 21.2 16.0068 21.2 14.517C21.2 13.0282 20.0025 11.831 18.536 11.831H17.546C17.3033 11.831 17.0738 11.7208 16.9219 11.5315C16.7701 11.3422 16.7124 11.0942 16.7651 10.8573C17.0863 9.41349 16.5417 7.89874 15.2756 6.88616M6.73751 17.204C6.73751 17.204 6.68418 17.2 6.65701 17.2C4.49784 17.2 2.80001 15.5227 2.80001 13.517C2.80001 11.5124 4.49773 9.83499 6.65701 9.83499C7.03174 9.83499 7.35625 9.57489 7.43783 9.20915C7.76149 7.75802 8.92983 6.52552 10.5651 6.02727" fill="#111111"/>
<circle cx="12" cy="12" r="3" fill="#FF0000"/>
</svg>
