<svg width="24" height="24" viewBox="0 0 24 24" fill="none" xmlns="http://www.w3.org/2000/svg">
<path fill-rule="evenodd" clip-rule="evenodd" d="M18 4.20001C18.4418 4.20001 18.8 4.55818 18.8 5.00001L18.8 19C18.8 19.4418 18.4418 19.8 18 19.8C17.5582 19.8 17.2 19.4418 17.2 19L17.2 5.00001C17.2 4.55818 17.5582 4.20001 18 4.20001Z" fill="#111111"/>
<path fill-rule="evenodd" clip-rule="evenodd" d="M12 4.20001C12.4418 4.20001 12.8 4.55818 12.8 5.00001L12.8 19C12.8 19.4418 12.4418 19.8 12 19.8C11.5582 19.8 11.2 19.4418 11.2 19L11.2 5.00001C11.2 4.55818 11.5582 4.20001 12 4.20001Z" fill="#111111"/>
<path fill-rule="evenodd" clip-rule="evenodd" d="M6.00001 4.20001C6.44184 4.20001 6.80001 4.55818 6.80001 5.00001L6.80001 19C6.80001 19.4418 6.44184 19.8 6.00001 19.8C5.55819 19.8 5.20001 19.4418 5.20001 19L5.20001 5.00001C5.20001 4.55818 5.55818 4.20001 6.00001 4.20001Z" fill="#111111"/>
</svg>
