<svg width="24" height="24" viewBox="0 0 24 24" fill="none" xmlns="http://www.w3.org/2000/svg">
<path d="M18.5039 6.2041C18.9008 6.22369 19.2922 6.31147 19.6602 6.46387C20.0807 6.6381 20.4623 6.89396 20.7842 7.21582C21.106 7.53768 21.3619 7.91933 21.5361 8.33984C21.7104 8.76048 21.7998 9.2117 21.7998 9.66699V18.333L21.7959 18.5039C21.7763 18.9008 21.6885 19.2922 21.5361 19.6602C21.3619 20.0807 21.106 20.4623 20.7842 20.7842C20.4623 21.106 20.0807 21.3619 19.6602 21.5361C19.2922 21.6885 18.9008 21.7763 18.5039 21.7959L18.333 21.7998H9.66699C9.2117 21.7998 8.76048 21.7104 8.33984 21.5361C7.91933 21.3619 7.53768 21.106 7.21582 20.7842C6.89396 20.4623 6.6381 20.0807 6.46387 19.6602C6.28964 19.2395 6.2002 18.7883 6.2002 18.333V9.66699C6.2002 8.74749 6.56563 7.86601 7.21582 7.21582C7.86601 6.56563 8.74749 6.2002 9.66699 6.2002H18.333L18.5039 6.2041ZM9.66699 7.7998C9.17184 7.79981 8.69681 7.99655 8.34668 8.34668C7.99655 8.69681 7.79981 9.17184 7.7998 9.66699V18.333C7.79981 18.5782 7.84856 18.8213 7.94238 19.0479C8.0362 19.2742 8.17342 19.4801 8.34668 19.6533C8.51994 19.8266 8.7258 19.9638 8.95215 20.0576C9.17866 20.1514 9.42182 20.2002 9.66699 20.2002H18.333L18.5166 20.1914C18.6988 20.1734 18.8781 20.1279 19.0479 20.0576C19.2742 19.9638 19.4801 19.8266 19.6533 19.6533C19.8266 19.4801 19.9638 19.2742 20.0576 19.0479C20.1279 18.8781 20.1734 18.6988 20.1914 18.5166L20.2002 18.333V9.66699L20.1914 9.4834C20.1734 9.30118 20.1279 9.12193 20.0576 8.95215C19.9638 8.7258 19.8266 8.51994 19.6533 8.34668C19.4801 8.17342 19.2742 8.0362 19.0479 7.94238C18.8781 7.87206 18.6988 7.8266 18.5166 7.80859L18.333 7.7998H9.66699ZM15 2.2002C15.5249 2.2002 15.9834 2.33921 16.373 2.62207C16.6523 2.8248 16.8661 3.07981 17.0391 3.34473L17.1992 3.61133L17.2354 3.68457C17.3957 4.05706 17.2507 4.49789 16.8887 4.69922C16.5265 4.90051 16.0755 4.79093 15.8438 4.45801L15.8008 4.38867L15.6973 4.2168C15.598 4.0652 15.5112 3.97401 15.4326 3.91699C15.3453 3.85366 15.2249 3.7998 15 3.7998H5C4.34183 3.7998 3.7998 4.34183 3.7998 5V14.998L3.81055 15.1562C3.83166 15.3128 3.88383 15.4641 3.96387 15.6016C4.07066 15.7849 4.22391 15.9369 4.4082 16.042C4.79193 16.2608 4.9256 16.749 4.70703 17.1328C4.48824 17.5166 4.00002 17.6503 3.61621 17.4316C3.1872 17.1871 2.82965 16.8339 2.58105 16.4072C2.36355 16.0339 2.23541 15.616 2.20605 15.1865L2.2002 15.002V5C2.2002 3.45817 3.45817 2.2002 5 2.2002H15Z" fill="#111111"/>
</svg>
