<svg width="24" height="24" viewBox="0 0 24 24" fill="none" xmlns="http://www.w3.org/2000/svg">
<path d="M14 2.2002C14.4774 2.2002 14.9349 2.38998 15.2725 2.72754C15.61 3.0651 15.7998 3.52261 15.7998 4V6.2002H20C20.4418 6.2002 20.7998 6.55818 20.7998 7C20.7998 7.44183 20.4418 7.7998 20 7.7998H19.7354L18.7998 19.0361C18.7904 19.7657 18.4961 20.4629 17.9795 20.9795C17.4544 21.5046 16.7426 21.7998 16 21.7998H8C7.2574 21.7998 6.54561 21.5046 6.02051 20.9795C5.50393 20.4629 5.2096 19.7657 5.2002 19.0361L4.26465 7.7998H4C3.55818 7.7998 3.2002 7.44182 3.2002 7C3.2002 6.55818 3.55818 6.2002 4 6.2002H8.2002V4C8.2002 3.52261 8.38998 3.0651 8.72754 2.72754C9.0651 2.38998 9.52261 2.2002 10 2.2002H14ZM6.79688 18.9336C6.79872 18.9557 6.7998 18.9778 6.7998 19C6.7998 19.3183 6.92633 19.6236 7.15137 19.8486C7.37641 20.0737 7.68175 20.2002 8 20.2002H16C16.3183 20.2002 16.6236 20.0737 16.8486 19.8486C17.0737 19.6236 17.2002 19.3183 17.2002 19C17.2002 18.9778 17.2013 18.9557 17.2031 18.9336L18.1309 7.7998H5.86914L6.79688 18.9336ZM10 10.2002C10.4418 10.2002 10.7998 10.5582 10.7998 11V17C10.7998 17.4418 10.4418 17.7998 10 17.7998C9.55818 17.7998 9.2002 17.4418 9.2002 17V11C9.2002 10.5582 9.55818 10.2002 10 10.2002ZM14 10.2002C14.4418 10.2002 14.7998 10.5582 14.7998 11V17C14.7998 17.4418 14.4418 17.7998 14 17.7998C13.5582 17.7998 13.2002 17.4418 13.2002 17V11C13.2002 10.5582 13.5582 10.2002 14 10.2002ZM10 3.7998C9.94696 3.79981 9.8959 3.82089 9.8584 3.8584C9.82089 3.8959 9.79981 3.94696 9.7998 4V6.2002H14.2002V4C14.2002 3.94696 14.1791 3.8959 14.1416 3.8584C14.1041 3.8209 14.053 3.7998 14 3.7998H10Z" fill="#111111"/>
</svg>
