<svg width="24" height="24" viewBox="0 0 24 24" fill="none" xmlns="http://www.w3.org/2000/svg">
<path fill-rule="evenodd" clip-rule="evenodd" d="M2.20001 6.00001C2.20001 5.55818 2.55818 5.20001 3.00001 5.20001H21C21.4418 5.20001 21.8 5.55818 21.8 6.00001C21.8 6.44184 21.4418 6.80001 21 6.80001H3.00001C2.55818 6.80001 2.20001 6.44184 2.20001 6.00001Z" fill="#111111"/>
<path fill-rule="evenodd" clip-rule="evenodd" d="M4.00001 9.20001C4.44184 9.20001 4.80001 9.55818 4.80001 10L4.80001 19C4.80001 19.4418 4.44184 19.8 4.00001 19.8C3.55818 19.8 3.20001 19.4418 3.20001 19L3.20001 10C3.20001 9.55818 3.55818 9.20001 4.00001 9.20001Z" fill="#111111"/>
<path fill-rule="evenodd" clip-rule="evenodd" d="M20 9.20001C20.4418 9.20001 20.8 9.55818 20.8 10V19C20.8 19.4418 20.4418 19.8 20 19.8C19.5582 19.8 19.2 19.4418 19.2 19L19.2 10C19.2 9.55818 19.5582 9.20001 20 9.20001Z" fill="#111111"/>
<path fill-rule="evenodd" clip-rule="evenodd" d="M3.20001 10C3.20001 9.55818 3.55818 9.20001 4.00001 9.20001H20C20.4418 9.20001 20.8 9.55818 20.8 10C20.8 10.4418 20.4418 10.8 20 10.8H4.00001C3.55818 10.8 3.20001 10.4418 3.20001 10Z" fill="#111111"/>
</svg>
