<svg width="24" height="24" viewBox="0 0 24 24" fill="none" xmlns="http://www.w3.org/2000/svg">
<path fill-rule="evenodd" clip-rule="evenodd" d="M14 11.2C14.4418 11.2 14.8 11.5582 14.8 12V12.01C14.8 12.4518 14.4418 12.81 14 12.81C13.5582 12.81 13.2 12.4518 13.2 12.01V12C13.2 11.5582 13.5582 11.2 14 11.2Z" fill="#111111"/>
<path fill-rule="evenodd" clip-rule="evenodd" d="M2.20001 21C2.20001 20.5582 2.55818 20.2 3.00001 20.2H21C21.4418 20.2 21.8 20.5582 21.8 21C21.8 21.4418 21.4418 21.8 21 21.8H3.00001C2.55818 21.8 2.20001 21.4418 2.20001 21Z" fill="#111111"/>
<path fill-rule="evenodd" clip-rule="evenodd" d="M8.00001 3.80001C7.68175 3.80001 7.37653 3.92644 7.15148 4.15148C6.92644 4.37653 6.80001 4.68175 6.80001 5.00001V21C6.80001 21.4418 6.44184 21.8 6.00001 21.8C5.55818 21.8 5.20001 21.4418 5.20001 21V5.00001C5.20001 4.25741 5.49501 3.54522 6.02011 3.02011C6.54522 2.49501 7.25741 2.20001 8.00001 2.20001H16C16.7426 2.20001 17.4548 2.49501 17.9799 3.02011C18.505 3.54521 18.8 4.25741 18.8 5.00001V21C18.8 21.4418 18.4418 21.8 18 21.8C17.5582 21.8 17.2 21.4418 17.2 21V5.00001C17.2 4.68175 17.0736 4.37653 16.8485 4.15148C16.6235 3.92644 16.3183 3.80001 16 3.80001H8.00001Z" fill="#111111"/>
</svg>
