<svg width="24" height="24" viewBox="0 0 24 24" fill="none" xmlns="http://www.w3.org/2000/svg">
<path fill-rule="evenodd" clip-rule="evenodd" d="M4.00001 16.2C4.44184 16.2 4.80001 16.5582 4.80001 17V19C4.80001 19.3183 4.92644 19.6235 5.15148 19.8485C5.37653 20.0736 5.68175 20.2 6.00001 20.2H18C18.3183 20.2 18.6235 20.0736 18.8485 19.8485C19.0736 19.6235 19.2 19.3183 19.2 19V17C19.2 16.5582 19.5582 16.2 20 16.2C20.4418 16.2 20.8 16.5582 20.8 17V19C20.8 19.7426 20.505 20.4548 19.9799 20.9799C19.4548 21.505 18.7426 21.8 18 21.8H6.00001C5.25741 21.8 4.54521 21.505 4.02011 20.9799C3.49501 20.4548 3.20001 19.7426 3.20001 19V17C3.20001 16.5582 3.55818 16.2 4.00001 16.2Z" fill="#111111"/>
<path fill-rule="evenodd" clip-rule="evenodd" d="M6.43433 10.4343C6.74675 10.1219 7.25328 10.1219 7.5657 10.4343L12 14.8686L16.4343 10.4343C16.7467 10.1219 17.2533 10.1219 17.5657 10.4343C17.8781 10.7467 17.8781 11.2533 17.5657 11.5657L12.5657 16.5657C12.2533 16.8781 11.7467 16.8781 11.4343 16.5657L6.43433 11.5657C6.12191 11.2533 6.12191 10.7467 6.43433 10.4343Z" fill="#111111"/>
<path fill-rule="evenodd" clip-rule="evenodd" d="M12 3.20001C12.4418 3.20001 12.8 3.55818 12.8 4.00001V16C12.8 16.4418 12.4418 16.8 12 16.8C11.5582 16.8 11.2 16.4418 11.2 16V4.00001C11.2 3.55818 11.5582 3.20001 12 3.20001Z" fill="#111111"/>
</svg>
