<svg width="24" height="24" viewBox="0 0 24 24" fill="none" xmlns="http://www.w3.org/2000/svg">
<path fill-rule="evenodd" clip-rule="evenodd" d="M15.1115 4.14778C15.5517 3.96543 16.0235 3.87158 16.5 3.87158C16.9765 3.87158 17.4483 3.96543 17.8885 4.14778C18.3288 4.33013 18.7288 4.59739 19.0657 4.93432C19.4026 5.27125 19.6699 5.67125 19.8522 6.11147C20.0346 6.55169 20.1284 7.02352 20.1284 7.50001C20.1284 7.9765 20.0346 8.44833 19.8522 8.88855C19.6699 9.32877 19.4026 9.72877 19.0657 10.0657L8.56568 20.5657C8.41565 20.7157 8.21217 20.8 8 20.8H4C3.55817 20.8 3.2 20.4418 3.2 20V16C3.2 15.7878 3.28428 15.5844 3.43431 15.4343L13.9343 4.93432C14.2712 4.59739 14.6712 4.33013 15.1115 4.14778ZM16.5 5.47158C16.2336 5.47158 15.9699 5.52405 15.7238 5.62599C15.4777 5.72793 15.254 5.87734 15.0657 6.06569L4.8 16.3314V19.2H7.66863L17.9343 8.93432C18.1227 8.74597 18.2721 8.52235 18.374 8.27625C18.476 8.03016 18.5284 7.76639 18.5284 7.50001C18.5284 7.23363 18.476 6.96986 18.374 6.72376C18.2721 6.47766 18.1227 6.25405 17.9343 6.06569C17.746 5.87734 17.5223 5.72793 17.2762 5.62599C17.0301 5.52405 16.7664 5.47158 16.5 5.47158Z" fill="#111111"/>
<path fill-rule="evenodd" clip-rule="evenodd" d="M12.9343 5.93432C13.2467 5.6219 13.7533 5.6219 14.0657 5.93432L18.0657 9.93432C18.3781 10.2467 18.3781 10.7533 18.0657 11.0657C17.7533 11.3781 17.2467 11.3781 16.9343 11.0657L12.9343 7.06569C12.6219 6.75328 12.6219 6.24674 12.9343 5.93432Z" fill="#111111"/>
</svg>
