<svg width="24" height="24" viewBox="0 0 24 24" fill="none" xmlns="http://www.w3.org/2000/svg">
<path fill-rule="evenodd" clip-rule="evenodd" d="M5.00001 5.80001C4.68175 5.80001 4.37652 5.92644 4.15148 6.15148C3.92643 6.37653 3.80001 6.68175 3.80001 7.00001V17C3.80001 17.3183 3.92643 17.6235 4.15148 17.8485C4.37652 18.0736 4.68175 18.2 5.00001 18.2H19C19.3183 18.2 19.6235 18.0736 19.8485 17.8485C20.0736 17.6235 20.2 17.3183 20.2 17V7.00001C20.2 6.68175 20.0736 6.37653 19.8485 6.15148C19.6235 5.92644 19.3183 5.80001 19 5.80001H5.00001ZM3.02011 5.02011C3.54521 4.49501 4.2574 4.20001 5.00001 4.20001H19C19.7426 4.20001 20.4548 4.49501 20.9799 5.02011C21.505 5.54521 21.8 6.25741 21.8 7.00001V17C21.8 17.7426 21.505 18.4548 20.9799 18.9799C20.4548 19.505 19.7426 19.8 19 19.8H5.00001C4.2574 19.8 3.54521 19.505 3.02011 18.9799C2.495 18.4548 2.20001 17.7426 2.20001 17V7.00001C2.20001 6.25741 2.495 5.54522 3.02011 5.02011Z" fill="#111111"/>
<path fill-rule="evenodd" clip-rule="evenodd" d="M2.33437 6.55625C2.57945 6.18863 3.07614 6.08929 3.44377 6.33437L12 12.0385L20.5562 6.33437C20.9239 6.08929 21.4206 6.18863 21.6656 6.55625C21.9107 6.92388 21.8114 7.42057 21.4438 7.66565L12.4438 13.6657C12.175 13.8448 11.825 13.8448 11.5562 13.6657L2.55625 7.66565C2.18862 7.42057 2.08928 6.92388 2.33437 6.55625Z" fill="#111111"/>
</svg>
