<svg width="24" height="24" viewBox="0 0 24 24" fill="none" xmlns="http://www.w3.org/2000/svg">
<path fill-rule="evenodd" clip-rule="evenodd" d="M5.07035 5.07037C6.90821 3.23251 9.40088 2.20001 12 2.20001C14.5991 2.20001 17.0918 3.23251 18.9296 5.07037C20.7675 6.90822 21.8 9.40089 21.8 12C21.8 13.287 21.5465 14.5613 21.054 15.7503C20.5615 16.9393 19.8397 18.0196 18.9296 18.9297C18.0196 19.8397 16.9393 20.5615 15.7503 21.054C14.5613 21.5465 13.287 21.8 12 21.8C10.713 21.8 9.43869 21.5465 8.2497 21.054C7.06071 20.5615 5.98036 19.8397 5.07035 18.9297C4.16034 18.0196 3.43847 16.9393 2.94598 15.7503C2.45348 14.5613 2.2 13.287 2.2 12C2.2 9.40089 3.23249 6.90822 5.07035 5.07037ZM12 3.80001C9.82522 3.80001 7.73952 4.66394 6.20172 6.20174C4.66392 7.73953 3.8 9.82524 3.8 12C3.8 13.0769 4.0121 14.1431 4.42418 15.138C4.83627 16.1329 5.44028 17.0368 6.20172 17.7983C6.96316 18.5597 7.86712 19.1637 8.86199 19.5758C9.85686 19.9879 10.9232 20.2 12 20.2C13.0768 20.2 14.1431 19.9879 15.138 19.5758C16.1329 19.1637 17.0368 18.5597 17.7983 17.7983C18.5597 17.0368 19.1637 16.1329 19.5758 15.138C19.9879 14.1431 20.2 13.0769 20.2 12C20.2 9.82524 19.3361 7.73954 17.7983 6.20174C16.2605 4.66394 14.1748 3.80001 12 3.80001Z" fill="#111111"/>
<path fill-rule="evenodd" clip-rule="evenodd" d="M12.81 16C12.81 16.4418 12.4518 16.8 12.01 16.8H12C11.5582 16.8 11.2 16.4418 11.2 16C11.2 15.5582 11.5582 15.2 12 15.2H12.01C12.4518 15.2 12.81 15.5582 12.81 16Z" fill="#111111"/>
<path fill-rule="evenodd" clip-rule="evenodd" d="M12.01 13.8C11.5682 13.8 11.21 13.4418 11.21 13L11.21 9.00001C11.21 8.55818 11.5682 8.20001 12.01 8.20001C12.4518 8.20001 12.81 8.55818 12.81 9.00001V13C12.81 13.4418 12.4518 13.8 12.01 13.8Z" fill="#111111"/>
</svg>
