<svg width="24" height="24" viewBox="0 0 24 24" fill="none" xmlns="http://www.w3.org/2000/svg">
<path fill-rule="evenodd" clip-rule="evenodd" d="M4 16.2C4.44182 16.2 4.8 16.5582 4.8 17V19C4.8 19.3183 4.92643 19.6235 5.15147 19.8485C5.37651 20.0736 5.68174 20.2 6 20.2H18C18.3183 20.2 18.6235 20.0736 18.8485 19.8485C19.0736 19.6235 19.2 19.3183 19.2 19V17C19.2 16.5582 19.5582 16.2 20 16.2C20.4418 16.2 20.8 16.5582 20.8 17V19C20.8 19.7426 20.505 20.4548 19.9799 20.9799C19.4548 21.505 18.7426 21.8 18 21.8H6C5.25739 21.8 4.5452 21.505 4.0201 20.9799C3.495 20.4548 3.2 19.7426 3.2 19V17C3.2 16.5582 3.55817 16.2 4 16.2Z" fill="#111111"/>
<path fill-rule="evenodd" clip-rule="evenodd" d="M17.8657 9.56573C17.5533 9.87815 17.0467 9.87815 16.7343 9.56573L12.3 5.13142L7.86569 9.56573C7.55327 9.87815 7.04674 9.87815 6.73432 9.56573C6.4219 9.25331 6.4219 8.74678 6.73432 8.43436L11.7343 3.43436C12.0467 3.12194 12.5533 3.12194 12.8657 3.43436L17.8657 8.43436C18.1781 8.74678 18.1781 9.25331 17.8657 9.56573Z" fill="#111111"/>
<path fill-rule="evenodd" clip-rule="evenodd" d="M12.3 16.8C11.8582 16.8 11.5 16.4419 11.5 16L11.5 4.00005C11.5 3.55822 11.8582 3.20005 12.3 3.20005C12.7418 3.20005 13.1 3.55822 13.1 4.00005L13.1 16C13.1 16.4419 12.7418 16.8 12.3 16.8Z" fill="#111111"/>
</svg>
