<svg width="24" height="24" viewBox="0 0 24 24" fill="none" xmlns="http://www.w3.org/2000/svg">
<path d="M10.585 10.587C10.21 10.9622 9.99936 11.4709 9.99945 12.0014C9.99954 12.5318 10.2104 13.0405 10.5855 13.4155C10.9606 13.7905 11.4694 14.0012 11.9999 14.0011C12.5303 14.001 13.039 13.7902 13.414 13.415" fill="#111111"/>
<path fill-rule="evenodd" clip-rule="evenodd" d="M11.1506 10.0212C11.4631 10.3336 11.4632 10.8401 11.1508 11.1526C10.9258 11.3777 10.7994 11.683 10.7994 12.0012C10.7995 12.3195 10.926 12.6247 11.1511 12.8497C11.3762 13.0747 11.6814 13.2011 11.9997 13.2011C12.318 13.201 12.6232 13.0745 12.8482 12.8494C13.1606 12.537 13.6671 12.5369 13.9796 12.8492C14.2921 13.1616 14.2922 13.6681 13.9798 13.9806C13.4548 14.5058 12.7426 14.8009 12 14.8011C11.2574 14.8012 10.5451 14.5063 10.0199 13.9813C9.49471 13.4563 9.19958 12.7441 9.19945 12.0015C9.19932 11.2589 9.4942 10.5466 10.0192 10.0214C10.3316 9.70895 10.8381 9.70886 11.1506 10.0212Z" fill="#111111"/>
<path fill-rule="evenodd" clip-rule="evenodd" d="M11.9979 6.80001C11.4407 6.79857 10.8848 6.85355 10.3387 6.96411C9.90569 7.05177 9.48357 6.77179 9.39591 6.33874C9.30824 5.9057 9.58823 5.48358 10.0213 5.39592C10.6729 5.264 11.3362 5.19837 12.001 5.20001L12.0021 5.20001L12 5.20001H12.001C15.965 5.20039 19.1905 7.42919 21.686 11.5884C21.838 11.8418 21.838 12.1583 21.686 12.4116C20.9951 13.5631 20.2482 14.5681 19.4434 15.4195C19.1399 15.7406 18.6336 15.7549 18.3125 15.4514C17.9914 15.1479 17.9771 14.6416 18.2806 14.3205C18.9004 13.6647 19.4945 12.8924 20.0602 12C20.1454 12.1344 20.23 12.2717 20.314 12.4116L20.0602 12L20.314 11.5884C20.2301 11.7283 20.1455 11.8655 20.0602 12C17.8069 8.44445 15.1176 6.80001 12 6.80001L11.9979 6.80001ZM8.0001 6.90475C8.23276 7.28036 8.11687 7.77346 7.74126 8.00612C6.37055 8.85514 5.09842 10.1723 3.93978 12C6.19306 15.5556 8.88236 17.2 12 17.2H12.0053C13.5081 17.2099 14.9827 16.7919 16.2567 15.9948C16.6312 15.7605 17.1249 15.8741 17.3592 16.2487C17.5935 16.6233 17.4799 17.1169 17.1053 17.3512C15.5746 18.3089 13.8029 18.8114 11.9973 18.8C8.0341 18.799 4.80919 16.5703 2.31401 12.4116C2.162 12.1583 2.162 11.8418 2.31401 11.5884C3.63217 9.39148 5.15426 7.72644 6.89874 6.64591C7.27435 6.41325 7.76745 6.52914 8.0001 6.90475Z" fill="#111111"/>
<path fill-rule="evenodd" clip-rule="evenodd" d="M2.43432 2.43433C2.74673 2.12191 3.25327 2.12191 3.56569 2.43433L21.5657 20.4343C21.8781 20.7467 21.8781 21.2533 21.5657 21.5657C21.2533 21.8781 20.7467 21.8781 20.4343 21.5657L2.43432 3.5657C2.1219 3.25328 2.1219 2.74675 2.43432 2.43433Z" fill="#111111"/>
</svg>
