<svg width="24" height="24" viewBox="0 0 24 24" fill="none" xmlns="http://www.w3.org/2000/svg">
<path fill-rule="evenodd" clip-rule="evenodd" d="M10.0201 10.0201C10.5452 9.49501 11.2574 9.20001 12 9.20001C12.7426 9.20001 13.4548 9.49501 13.9799 10.0201C14.505 10.5452 14.8 11.2574 14.8 12C14.8 12.7426 14.505 13.4548 13.9799 13.9799C13.4548 14.505 12.7426 14.8 12 14.8C11.2574 14.8 10.5452 14.505 10.0201 13.9799C9.495 13.4548 9.2 12.7426 9.2 12C9.2 11.2574 9.495 10.5452 10.0201 10.0201ZM12 10.8C11.6817 10.8 11.3765 10.9264 11.1515 11.1515C10.9264 11.3765 10.8 11.6818 10.8 12C10.8 12.3183 10.9264 12.6235 11.1515 12.8485C11.3765 13.0736 11.6817 13.2 12 13.2C12.3183 13.2 12.6235 13.0736 12.8485 12.8485C13.0736 12.6235 13.2 12.3183 13.2 12C13.2 11.6818 13.0736 11.3765 12.8485 11.1515C12.6235 10.9264 12.3183 10.8 12 10.8Z" fill="#111111"/>
<path fill-rule="evenodd" clip-rule="evenodd" d="M3.93976 12C6.19304 15.5556 8.88235 17.2 12 17.2C15.1176 17.2 17.807 15.5556 20.0602 12C17.807 8.44446 15.1176 6.80001 12 6.80001C8.88235 6.80001 6.19304 8.44446 3.93976 12ZM2.314 11.5884C4.80975 7.42884 8.03555 5.20001 12 5.20001C15.9644 5.20001 19.1902 7.42884 21.686 11.5884C21.838 11.8418 21.838 12.1583 21.686 12.4116C19.1902 16.5712 15.9644 18.8 12 18.8C8.03555 18.8 4.80975 16.5712 2.314 12.4116C2.162 12.1583 2.162 11.8418 2.314 11.5884Z" fill="#111111"/>
</svg>
