<svg width="24" height="24" viewBox="0 0 24 24" fill="none" xmlns="http://www.w3.org/2000/svg">
<path fill-rule="evenodd" clip-rule="evenodd" d="M14 2.20001C14.4418 2.20001 14.8 2.55818 14.8 3.00001V7.00001C14.8 7.05306 14.8211 7.10393 14.8586 7.14143C14.8961 7.17894 14.947 7.20001 15 7.20001H19C19.4418 7.20001 19.8 7.55818 19.8 8.00001C19.8 8.44184 19.4418 8.80001 19 8.80001H15C14.5226 8.80001 14.0648 8.61037 13.7272 8.2728C13.3896 7.93524 13.2 7.4774 13.2 7.00001V3.00001C13.2 2.55818 13.5582 2.20001 14 2.20001Z" fill="#111111"/>
<path fill-rule="evenodd" clip-rule="evenodd" d="M7 3.80001C6.68174 3.80001 6.37651 3.92644 6.15147 4.15148C5.92643 4.37653 5.8 4.68175 5.8 5.00001V12C5.8 12.4418 5.44182 12.8 5 12.8C4.55817 12.8 4.2 12.4418 4.2 12V5.00001C4.2 4.25741 4.495 3.54522 5.0201 3.02011C5.5452 2.49501 6.25739 2.20001 7 2.20001H14C14.2122 2.20001 14.4157 2.2843 14.5657 2.43433L19.5657 7.43433C19.7157 7.58436 19.8 7.78784 19.8 8.00001V12C19.8 12.4418 19.4418 12.8 19 12.8C18.5582 12.8 18.2 12.4418 18.2 12V8.33138L13.6686 3.80001H7Z" fill="#111111"/>
<path fill-rule="evenodd" clip-rule="evenodd" d="M17.0201 15.0201C17.5452 14.495 18.2574 14.2 19 14.2H20C20.4418 14.2 20.8 14.5582 20.8 15C20.8 15.4418 20.4418 15.8 20 15.8H19C18.6817 15.8 18.3765 15.9264 18.1515 16.1515C17.9264 16.3765 17.8 16.6818 17.8 17V19C17.8 19.3183 17.9264 19.6235 18.1515 19.8485C18.3765 20.0736 18.6817 20.2 19 20.2H19.2V18C19.2 17.5582 19.5582 17.2 20 17.2C20.4418 17.2 20.8 17.5582 20.8 18V21C20.8 21.4418 20.4418 21.8 20 21.8H19C18.2574 21.8 17.5452 21.505 17.0201 20.9799C16.495 20.4548 16.2 19.7426 16.2 19V17C16.2 16.2574 16.495 15.5452 17.0201 15.0201Z" fill="#111111"/>
<path fill-rule="evenodd" clip-rule="evenodd" d="M12.5 15.8C12.3143 15.8 12.1363 15.8738 12.005 16.005C11.8737 16.1363 11.8 16.3144 11.8 16.5V19.5C11.8 19.6857 11.8737 19.8637 12.005 19.995C12.1363 20.1263 12.3143 20.2 12.5 20.2C12.6856 20.2 12.8637 20.1263 12.995 19.995C13.1262 19.8637 13.2 19.6857 13.2 19.5V16.5C13.2 16.3144 13.1262 16.1363 12.995 16.005C12.8637 15.8738 12.6856 15.8 12.5 15.8ZM10.8737 14.8737C11.305 14.4423 11.89 14.2 12.5 14.2C13.11 14.2 13.695 14.4423 14.1263 14.8737C14.5577 15.305 14.8 15.89 14.8 16.5V19.5C14.8 20.11 14.5577 20.695 14.1263 21.1264C13.695 21.5577 13.11 21.8 12.5 21.8C11.89 21.8 11.305 21.5577 10.8737 21.1264C10.4423 20.695 10.2 20.11 10.2 19.5V16.5C10.2 15.89 10.4423 15.305 10.8737 14.8737Z" fill="#111111"/>
<path fill-rule="evenodd" clip-rule="evenodd" d="M6 14.2C6.44182 14.2 6.8 14.5582 6.8 15V20.2H8C8.44182 20.2 8.8 20.5582 8.8 21C8.8 21.4418 8.44182 21.8 8 21.8H6C5.55817 21.8 5.2 21.4418 5.2 21V15C5.2 14.5582 5.55817 14.2 6 14.2Z" fill="#111111"/>
</svg>
