<svg width="24" height="24" viewBox="0 0 24 24" fill="none" xmlns="http://www.w3.org/2000/svg">
<path fill-rule="evenodd" clip-rule="evenodd" d="M13.6059 13.6059C14.5061 12.7057 15.727 12.2 17 12.2C18.273 12.2 19.4939 12.7057 20.3941 13.6059C21.2943 14.5061 21.8 15.727 21.8 17C21.8 18.2731 21.2943 19.4939 20.3941 20.3941C19.4939 21.2943 18.273 21.8 17 21.8C15.727 21.8 14.5061 21.2943 13.6059 20.3941C12.7057 19.4939 12.2 18.2731 12.2 17C12.2 15.727 12.7057 14.5061 13.6059 13.6059ZM17 13.8C16.1513 13.8 15.3374 14.1372 14.7373 14.7373C14.1371 15.3374 13.8 16.1513 13.8 17C13.8 17.8487 14.1371 18.6626 14.7373 19.2628C15.3374 19.8629 16.1513 20.2 17 20.2C17.8487 20.2 18.6626 19.8629 19.2627 19.2628C19.8629 18.6626 20.2 17.8487 20.2 17C20.2 16.1513 19.8629 15.3374 19.2627 14.7373C18.6626 14.1372 17.8487 13.8 17 13.8Z" fill="#111111"/>
<path fill-rule="evenodd" clip-rule="evenodd" d="M17 12.2C17.4418 12.2 17.8 12.5582 17.8 13V16.2H21C21.4418 16.2 21.8 16.5582 21.8 17C21.8 17.4418 21.4418 17.8 21 17.8H17C16.5582 17.8 16.2 17.4418 16.2 17V13C16.2 12.5582 16.5582 12.2 17 12.2Z" fill="#111111"/>
<path fill-rule="evenodd" clip-rule="evenodd" d="M12 2.20001C12.4418 2.20001 12.8 2.55818 12.8 3.00001V7.00001C12.8 7.05306 12.8211 7.10393 12.8586 7.14143C12.8961 7.17894 12.947 7.20001 13 7.20001H17C17.4418 7.20001 17.8 7.55818 17.8 8.00001C17.8 8.44184 17.4418 8.80001 17 8.80001H13C12.5226 8.80001 12.0648 8.61037 11.7272 8.2728C11.3896 7.93524 11.2 7.4774 11.2 7.00001V3.00001C11.2 2.55818 11.5582 2.20001 12 2.20001Z" fill="#111111"/>
<path fill-rule="evenodd" clip-rule="evenodd" d="M5 3.80001C4.68174 3.80001 4.37652 3.92644 4.15147 4.15148C3.92643 4.37653 3.8 4.68175 3.8 5.00001V19C3.8 19.3183 3.92643 19.6235 4.15147 19.8485C4.37652 20.0736 4.68174 20.2 5 20.2H11.5C11.9418 20.2 12.3 20.5582 12.3 21C12.3 21.4418 11.9418 21.8 11.5 21.8H5C4.25739 21.8 3.5452 21.505 3.0201 20.9799C2.495 20.4548 2.2 19.7426 2.2 19V5.00001C2.2 4.25741 2.495 3.54522 3.0201 3.02011C3.5452 2.49501 4.25739 2.20001 5 2.20001H12C12.2122 2.20001 12.4157 2.2843 12.5657 2.43433L17.5657 7.43433C17.7157 7.58436 17.8 7.78784 17.8 8.00001V10C17.8 10.4418 17.4418 10.8 17 10.8C16.5582 10.8 16.2 10.4418 16.2 10V8.33138L11.6686 3.80001H5ZM16.2 17V13C16.2 12.5582 16.5582 12.2 17 12.2C17.4418 12.2 17.8 12.5582 17.8 13V17C17.8 17.4418 17.4418 17.8 17 17.8C16.5582 17.8 16.2 17.4418 16.2 17Z" fill="#111111"/>
</svg>
