<svg width="24" height="24" viewBox="0 0 24 24" fill="none" xmlns="http://www.w3.org/2000/svg">
<path fill-rule="evenodd" clip-rule="evenodd" d="M3.2 8.00001C3.2 7.55818 3.55817 7.20001 4 7.20001H20C20.4418 7.20001 20.8 7.55818 20.8 8.00001C20.8 8.44184 20.4418 8.80001 20 8.80001H4C3.55817 8.80001 3.2 8.44184 3.2 8.00001Z" fill="#111111"/>
<path fill-rule="evenodd" clip-rule="evenodd" d="M7.2 12C7.2 11.5582 7.55817 11.2 8 11.2H16C16.4418 11.2 16.8 11.5582 16.8 12C16.8 12.4418 16.4418 12.8 16 12.8H8C7.55817 12.8 7.2 12.4418 7.2 12Z" fill="#111111"/>
<path fill-rule="evenodd" clip-rule="evenodd" d="M9.2 16C9.2 15.5582 9.55817 15.2 10 15.2H14C14.4418 15.2 14.8 15.5582 14.8 16C14.8 16.4418 14.4418 16.8 14 16.8H10C9.55817 16.8 9.2 16.4418 9.2 16Z" fill="#111111"/>
</svg>
