<svg width="24" height="24" viewBox="0 0 24 24" fill="none" xmlns="http://www.w3.org/2000/svg">
<path fill-rule="evenodd" clip-rule="evenodd" d="M7 3.80001C6.68174 3.80001 6.37651 3.92644 6.15147 4.15148C5.92643 4.37653 5.8 4.68175 5.8 5.00001V19C5.8 19.3183 5.92643 19.6235 6.15147 19.8485C6.37651 20.0736 6.68174 20.2 7 20.2H10C10.4418 20.2 10.8 20.5582 10.8 21C10.8 21.4418 10.4418 21.8 10 21.8H7C6.25739 21.8 5.5452 21.505 5.0201 20.9799C4.495 20.4548 4.2 19.7426 4.2 19V5.00001C4.2 4.25741 4.495 3.54522 5.0201 3.02011C5.5452 2.49501 6.25739 2.20001 7 2.20001H14C14.2122 2.20001 14.4157 2.2843 14.5657 2.43433L19.5657 7.43433C19.7157 7.58436 19.8 7.78784 19.8 8.00001V10C19.8 10.4418 19.4418 10.8 19 10.8C18.5582 10.8 18.2 10.4418 18.2 10V8.33138L13.6686 3.80001H7Z" fill="#111111"/>
<path fill-rule="evenodd" clip-rule="evenodd" d="M18.861 17.219C19.2179 16.151 18.7293 14.4346 17.1503 13.7776C16.5617 13.5333 15.9188 13.4535 15.2906 13.5463C14.6623 13.639 14.0723 13.9009 13.5838 14.3034C13.0953 14.7059 12.7262 15.234 12.5162 15.8313C12.3062 16.4286 12.263 17.0729 12.3918 17.6952C12.5206 18.3175 12.8166 18.8942 13.2482 19.3632C13.6799 19.8323 14.2308 20.1756 14.8417 20.3564C15.4525 20.5373 16.0999 20.5487 16.7143 20.39C17.3288 20.2313 17.8872 19.9085 18.3301 19.4565C18.6393 19.1409 19.1458 19.1357 19.4614 19.4449C19.777 19.7541 19.7822 20.2606 19.4729 20.5762C18.8259 21.2367 18.0104 21.7077 17.1144 21.9391C16.2185 22.1705 15.2758 22.1536 14.3875 21.8906C13.4992 21.6277 12.6985 21.1285 12.071 20.4468C11.4435 19.765 11.0126 18.926 10.825 18.0195C10.6374 17.1129 10.7 16.173 11.0068 15.3006C11.3136 14.4281 11.8527 13.6565 12.5664 13.0685C13.2801 12.4805 14.1411 12.0986 15.0568 11.9634C15.9725 11.8282 16.9083 11.9447 17.764 12.3C20.1868 13.3078 20.9771 15.9346 20.3786 17.726C20.2386 18.1451 19.7853 18.3713 19.3663 18.2313C18.9472 18.0913 18.721 17.6381 18.861 17.219Z" fill="#111111"/>
<path fill-rule="evenodd" clip-rule="evenodd" d="M22.1991 14.8322C22.5523 15.0976 22.6236 15.5991 22.3583 15.9524L20.6406 18.2393C20.3753 18.5925 19.8738 18.6638 19.5205 18.3985L17.2336 16.6808C16.8803 16.4155 16.8091 15.914 17.0744 15.5607C17.3397 15.2074 17.8412 15.1361 18.1945 15.4015L19.8417 16.6387L21.079 14.9915C21.3443 14.6382 21.8458 14.5669 22.1991 14.8322Z" fill="#111111"/>
</svg>
