<svg width="24" height="24" viewBox="0 0 24 24" fill="none" xmlns="http://www.w3.org/2000/svg">
<path fill-rule="evenodd" clip-rule="evenodd" d="M3.25 5C3.25 4.0335 4.0335 3.25 5 3.25H19C19.9665 3.25 20.75 4.0335 20.75 5V19C20.75 19.9665 19.9665 20.75 19 20.75H5C4.0335 20.75 3.25 19.9665 3.25 19V13C3.25 12.5858 3.58579 12.25 4 12.25C4.41421 12.25 4.75 12.5858 4.75 13V13.9167H10.9922V10C10.9922 9.58579 11.328 9.25 11.7422 9.25C12.1564 9.25 12.4922 9.58579 12.4922 10V13.9167H14C14.4142 13.9167 14.75 14.2525 14.75 14.6667C14.75 15.0809 14.4142 15.4167 14 15.4167H4.75V19C4.75 19.1381 4.86193 19.25 5 19.25H19C19.1381 19.25 19.25 19.1381 19.25 19V15.4167H17.5C17.0858 15.4167 16.75 15.0809 16.75 14.6667C16.75 14.2525 17.0858 13.9167 17.5 13.9167H19.25V5C19.25 4.86193 19.1381 4.75 19 4.75H12.4922V7C12.4922 7.41421 12.1564 7.75 11.7422 7.75C11.328 7.75 10.9922 7.41421 10.9922 7V4.75H5C4.86193 4.75 4.75 4.86193 4.75 5V9.5C4.75 9.91421 4.41421 10.25 4 10.25C3.58579 10.25 3.25 9.91421 3.25 9.5V5Z" fill="#111111"/>
</svg>
