<svg width="24" height="24" viewBox="0 0 24 24" fill="none" xmlns="http://www.w3.org/2000/svg">
<path d="M4 15.2002C4.44183 15.2002 4.7998 15.5582 4.7998 16V18L4.80566 18.1182C4.83285 18.393 4.95434 18.6516 5.15137 18.8486C5.37641 19.0737 5.68174 19.2002 6 19.2002H8C8.44183 19.2002 8.7998 19.5582 8.7998 20C8.7998 20.4418 8.44183 20.7998 8 20.7998H6C5.25739 20.7998 4.54561 20.5046 4.02051 19.9795C3.49541 19.4544 3.2002 18.7426 3.2002 18V16C3.2002 15.5582 3.55817 15.2002 4 15.2002ZM20 15.2002C20.4418 15.2002 20.7998 15.5582 20.7998 16V18C20.7998 18.7426 20.5046 19.4544 19.9795 19.9795C19.4544 20.5046 18.7426 20.7998 18 20.7998H16C15.5582 20.7998 15.2002 20.4418 15.2002 20C15.2002 19.5582 15.5582 19.2002 16 19.2002H18C18.3183 19.2002 18.6236 19.0737 18.8486 18.8486C19.0737 18.6236 19.2002 18.3183 19.2002 18V16C19.2002 15.5582 19.5582 15.2002 20 15.2002ZM14.2041 8.01074C15.2128 8.113 16 8.96435 16 10V14L15.9893 14.2041C15.887 15.2128 15.0357 16 14 16H10C8.89543 16 8 15.1046 8 14V10C8 8.89543 8.89543 8 10 8H14L14.2041 8.01074ZM10 9.59961C9.77909 9.59961 9.59961 9.77909 9.59961 10V14C9.59961 14.2209 9.77909 14.4004 10 14.4004H14C14.2209 14.4004 14.4004 14.2209 14.4004 14V10C14.4004 9.77909 14.2209 9.59961 14 9.59961H10ZM8 3.2002C8.44183 3.2002 8.7998 3.55817 8.7998 4C8.7998 4.44183 8.44183 4.7998 8 4.7998H6C5.68174 4.7998 5.37641 4.92632 5.15137 5.15137C4.92632 5.37641 4.7998 5.68174 4.7998 6V8C4.7998 8.44183 4.44183 8.7998 4 8.7998C3.55817 8.7998 3.2002 8.44183 3.2002 8V6C3.2002 5.25739 3.49541 4.54561 4.02051 4.02051C4.54561 3.49541 5.25739 3.2002 6 3.2002H8ZM18 3.2002C18.7426 3.2002 19.4544 3.49541 19.9795 4.02051C20.5046 4.54561 20.7998 5.25739 20.7998 6V8C20.7998 8.44183 20.4418 8.7998 20 8.7998C19.5582 8.7998 19.2002 8.44183 19.2002 8V6C19.2002 5.68174 19.0737 5.37641 18.8486 5.15137C18.6516 4.95434 18.393 4.83285 18.1182 4.80566L18 4.7998H16C15.5582 4.7998 15.2002 4.44183 15.2002 4C15.2002 3.55817 15.5582 3.2002 16 3.2002H18Z" fill="#111111"/>
</svg>
