<svg width="12" height="14" viewBox="0 0 12 14" fill="none" xmlns="http://www.w3.org/2000/svg">
<path d="M3.0882e-08 0.777973V13.222C-3.89608e-05 13.3604 0.0368459 13.4963 0.106849 13.6157C0.176852 13.7351 0.277438 13.8336 0.398229 13.9011C0.51902 13.9686 0.655641 14.0027 0.793996 13.9998C0.932352 13.9969 1.06743 13.9572 1.1853 13.8847L11.2961 7.66265C11.4093 7.59306 11.5029 7.49562 11.5677 7.37961C11.6326 7.26361 11.6667 7.13291 11.6667 7C11.6667 6.86709 11.6326 6.73639 11.5677 6.62039C11.5029 6.50438 11.4093 6.40694 11.2961 6.33735L1.1853 0.115327C1.06743 0.0428126 0.932352 0.00305978 0.793996 0.000169672C0.655641 -0.00272043 0.51902 0.0313569 0.398229 0.0988856C0.277438 0.166414 0.176852 0.264949 0.106849 0.384323C0.0368459 0.503697 -3.89608e-05 0.639587 3.0882e-08 0.777973Z" fill="#111111"/>
</svg>
