<svg width="14" height="16" viewBox="0 0 14 16" fill="none" xmlns="http://www.w3.org/2000/svg">
<path d="M8.63464 0.00329223C8.52538 -0.00384592 8.41442 0.000660647 8.30396 0.0164501L0.558838 1.13487C0.237713 1.18119 0 1.44663 0 1.75905V14.241C0 14.5538 0.237713 14.8188 0.558838 14.8651L8.30396 15.9836C8.37964 15.9945 8.456 16 8.53125 16C8.89569 16 9.25015 15.8751 9.53015 15.6431C9.81197 15.4094 9.98588 15.0859 10.0386 14.7368H12.4688C13.3065 14.7368 14 14.0695 14 13.2632V2.73684C14 1.93055 13.3065 1.26316 12.4688 1.26316H10.0386C9.98588 0.914135 9.81197 0.591066 9.53015 0.357733C9.27651 0.147733 8.96242 0.0247067 8.63464 0.00329223ZM10.0625 2.52632H12.4688C12.5978 2.52632 12.6875 2.61261 12.6875 2.73684V13.2632C12.6875 13.3874 12.5978 13.4737 12.4688 13.4737H10.0625V2.52632ZM7 7.57895C7.48344 7.57895 7.875 7.95579 7.875 8.42105C7.875 8.88632 7.48344 9.26316 7 9.26316C6.51656 9.26316 6.125 8.88632 6.125 8.42105C6.125 7.95579 6.51656 7.57895 7 7.57895Z" fill="#111111"/>
</svg>
