<svg width="14" height="16" viewBox="0 0 14 16" fill="none" xmlns="http://www.w3.org/2000/svg">
<path d="M4.16544 0C3.12194 0 2.27573 0.894713 2.27573 1.99802V7C2.27573 8.10331 3.12194 7.99802 4.16544 7.99802H9.83457C10.8781 7.99802 11.7243 8.10331 11.7243 7V1.99802C11.7243 0.894713 10.8781 0 9.83457 0H4.16544ZM1.66969 9.1823C1.63556 9.18191 1.60147 9.18478 1.56782 9.19088H0.574987C0.499864 9.18976 0.42528 9.20443 0.355568 9.23405C0.285855 9.26367 0.222406 9.30764 0.168906 9.36341C0.115407 9.41919 0.0729247 9.48564 0.0439284 9.55892C0.0149321 9.63221 0 9.71085 0 9.79029C0 9.86972 0.0149321 9.94837 0.0439284 10.0216C0.0729247 10.0949 0.115407 10.1614 0.168906 10.2172C0.222406 10.2729 0.285855 10.3169 0.355568 10.3465C0.753681 10.5157 0.829325 10.9727 1.01124 11.3897L0.391183 15.3051C0.379132 15.3842 0.382178 15.465 0.400143 15.5427C0.418107 15.6205 0.450625 15.6937 0.495778 15.758C0.540931 15.8223 0.597804 15.8763 0.66304 15.917C0.728276 15.9576 0.800554 15.984 0.875607 15.9947C0.95066 16.0053 1.02697 16 1.10003 15.9789C1.17309 15.9578 1.24141 15.9215 1.30098 15.8721C1.36055 15.8227 1.41015 15.7611 1.44685 15.6911C1.48355 15.621 1.50661 15.544 1.51467 15.4643L3.15467 11.3897H10.8453L12.4853 15.4643C12.4934 15.544 12.5164 15.6211 12.5532 15.6911C12.5899 15.7611 12.6395 15.8227 12.699 15.8721C12.7586 15.9215 12.8269 15.9578 12.9 15.9789C12.973 16 13.0493 16.0053 13.1244 15.9947C13.1994 15.984 13.2717 15.9576 13.337 15.917C13.4022 15.8763 13.4591 15.8223 13.5042 15.758C13.5494 15.6937 13.5819 15.6205 13.5999 15.5427C13.6178 15.465 13.6209 15.3842 13.6088 15.3051L12.9888 11.3897C13.1707 10.9727 13.2463 10.5157 13.6444 10.3465C13.7141 10.3169 13.7776 10.2729 13.8311 10.2172C13.8846 10.1614 13.9271 10.0949 13.9561 10.0216C13.9851 9.94837 14 9.86972 14 9.79029C14 9.71085 13.9851 9.63221 13.9561 9.55892C13.9271 9.48564 13.8846 9.41919 13.8311 9.36341C13.7776 9.30764 13.7141 9.26367 13.6444 9.23405C13.5747 9.20443 13.5001 9.18976 13.425 9.19088H12.4337C12.3728 9.18031 12.3107 9.18031 12.2499 9.19088H1.75163C1.72455 9.18592 1.69716 9.18306 1.66969 9.1823Z" fill="#111111"/>
</svg>
