<svg width="24" height="24" viewBox="0 0 24 24" fill="none" xmlns="http://www.w3.org/2000/svg">
<path fill-rule="evenodd" clip-rule="evenodd" d="M5.07037 5.07037C6.90822 3.23251 9.40089 2.20001 12 2.20001C14.5991 2.20001 17.0918 3.23251 18.9297 5.07037C20.7675 6.90822 21.8 9.40089 21.8 12C21.8 13.287 21.5465 14.5613 21.054 15.7503C20.5615 16.9393 19.8397 18.0196 18.9297 18.9297C18.0196 19.8397 16.9393 20.5615 15.7503 21.054C14.5613 21.5465 13.287 21.8 12 21.8C10.7131 21.8 9.43871 21.5465 8.24971 21.054C7.06072 20.5615 5.98038 19.8397 5.07037 18.9297C4.16035 18.0196 3.43849 16.9393 2.94599 15.7503C2.4535 14.5613 2.20001 13.287 2.20001 12C2.20001 9.40089 3.23251 6.90822 5.07037 5.07037ZM12 3.80001C9.82524 3.80001 7.73953 4.66394 6.20174 6.20174C4.66394 7.73953 3.80001 9.82524 3.80001 12C3.80001 13.0769 4.01211 14.1431 4.4242 15.138C4.83629 16.1329 5.4403 17.0368 6.20174 17.7983C6.96318 18.5597 7.86714 19.1637 8.86201 19.5758C9.85688 19.9879 10.9232 20.2 12 20.2C13.0769 20.2 14.1431 19.9879 15.138 19.5758C16.1329 19.1637 17.0368 18.5597 17.7983 17.7983C18.5597 17.0368 19.1637 16.1329 19.5758 15.138C19.9879 14.1431 20.2 13.0769 20.2 12C20.2 9.82524 19.3361 7.73954 17.7983 6.20174C16.2605 4.66394 14.1748 3.80001 12 3.80001Z" fill="#111111"/>
<path fill-rule="evenodd" clip-rule="evenodd" d="M11.2 9.00001C11.2 8.55818 11.5582 8.20001 12 8.20001H12.01C12.4518 8.20001 12.81 8.55818 12.81 9.00001C12.81 9.44184 12.4518 9.80001 12.01 9.80001H12C11.5582 9.80001 11.2 9.44184 11.2 9.00001Z" fill="#111111"/>
<path fill-rule="evenodd" clip-rule="evenodd" d="M12 11.2C12.4418 11.2 12.8 11.5582 12.8 12V16C12.8 16.4418 12.4418 16.8 12 16.8C11.5582 16.8 11.2 16.4418 11.2 16V12C11.2 11.5582 11.5582 11.2 12 11.2Z" fill="#111111"/>
</svg>
