<svg width="24" height="24" viewBox="0 0 24 24" fill="none" xmlns="http://www.w3.org/2000/svg">
<path fill-rule="evenodd" clip-rule="evenodd" d="M13.838 3.17081C13.838 3.17073 13.8381 3.17088 13.838 3.17081L18.7275 10.4301C18.7356 10.4421 18.7433 10.4542 18.7507 10.4666C19.392 11.5397 19.7325 12.7099 19.791 13.8798C19.7969 13.919 19.8 13.9591 19.8 14C19.8 14.0201 19.7993 14.04 19.7978 14.0597C19.8547 16.3028 18.8781 18.5265 17.0012 20.045C14.1066 22.3874 9.89419 22.3873 6.99884 20.045C5.12112 18.5259 4.14453 16.3009 4.202 14.057C4.20067 14.0382 4.2 14.0192 4.2 14C4.2 13.9602 4.20292 13.921 4.20854 13.8827C4.26649 12.7119 4.60675 11.5408 5.24817 10.4668C5.25565 10.4543 5.26346 10.442 5.2716 10.4299L10.1644 3.17019C10.1643 3.17029 10.1645 3.1701 10.1644 3.17019C10.3343 2.91803 10.5553 2.70398 10.8128 2.54238L10.8137 2.54179C11.8188 1.91301 13.1708 2.17825 13.838 3.17081ZM5.8268 14.8C5.9734 16.3112 6.719 17.7606 8.00516 18.8011C10.3138 20.6687 13.6873 20.6686 15.9947 18.8011C17.2809 17.7606 18.0266 16.3112 18.173 14.8H5.8268ZM18.103 13.2H5.89654C6.01789 12.548 6.25448 11.9072 6.611 11.3054L11.4914 4.06412C11.5363 3.99749 11.5948 3.9407 11.6628 3.89794C11.9555 3.71516 12.3372 3.80611 12.51 4.06322L17.388 11.3054C17.7448 11.9072 17.9815 12.548 18.103 13.2Z" fill="#111111"/>
<path d="M5 14H19V15C19 18.3137 16.3137 21 13 21H11C7.68629 21 5 18.3137 5 15V14Z" fill="#111111"/>
</svg>
