<svg width="24" height="24" viewBox="0 0 24 24" fill="none" xmlns="http://www.w3.org/2000/svg">
<path d="M6 20.7998C5.25739 20.7998 4.54561 20.5046 4.02051 19.9795C3.49541 19.4544 3.2002 18.7426 3.2002 18L3.2002 6C3.2002 5.25739 3.49541 4.54561 4.02051 4.02051C4.54561 3.49541 5.25739 3.2002 6 3.2002L18 3.2002C18.7426 3.2002 19.4544 3.49541 19.9795 4.02051C20.5046 4.54561 20.7998 5.2574 20.7998 6L20.7998 18C20.7998 18.7426 20.5046 19.4544 19.9795 19.9795C19.4544 20.5046 18.7426 20.7998 18 20.7998L6 20.7998ZM8.2002 4.79981L6 4.79981C5.68174 4.79981 5.37641 4.92632 5.15137 5.15137C4.92632 5.37641 4.79981 5.68174 4.79981 6L4.7998 18C4.7998 18.3183 4.92632 18.6236 5.15137 18.8486C5.37641 19.0737 5.68174 19.2002 6 19.2002L8.2002 19.2002L8.2002 4.79981ZM18 19.2002C18.3183 19.2002 18.6236 19.0737 18.8486 18.8486C19.0737 18.6236 19.2002 18.3183 19.2002 18L19.2002 6C19.2002 5.68174 19.0737 5.37641 18.8486 5.15137C18.6236 4.92633 18.3183 4.79981 18 4.79981L9.79981 4.79981L9.7998 19.2002L18 19.2002Z" fill="#111111"/>
</svg>
