<svg width="24" height="24" viewBox="0 0 24 24" fill="none" xmlns="http://www.w3.org/2000/svg">
<path fill-rule="evenodd" clip-rule="evenodd" d="M12 3.05001C11.7913 3.05001 11.5846 3.09127 11.3919 3.17141C11.1992 3.25156 11.0242 3.36901 10.877 3.51701L10.8754 3.5186L10.117 4.27704L10.1154 4.27863C9.51933 4.87137 8.71301 5.2043 7.87238 5.20478H6.78843C6.36842 5.20478 5.96561 5.37163 5.66861 5.66863C5.37162 5.96562 5.20477 6.36844 5.20477 6.78845V7.87193C5.20429 8.71257 4.87135 9.51935 4.27861 10.1154L4.27702 10.117L3.51858 10.8755L3.51699 10.877C3.36899 11.0242 3.25154 11.1992 3.1714 11.3919C3.09126 11.5846 3.05 11.7913 3.05 12C3.05 12.2087 3.09125 12.4154 3.1714 12.6081C3.25154 12.8008 3.36899 12.9758 3.51699 13.123L3.51859 13.1246L4.27861 13.8846C4.87135 14.4807 5.20429 15.287 5.20477 16.1276V17.2116C5.20477 17.6316 5.37162 18.0344 5.66861 18.3314C5.96561 18.6284 6.36842 18.7952 6.78843 18.7952H7.87192C8.71255 18.7957 9.51933 19.1287 10.1154 19.7214L10.117 19.723L10.877 20.483C11.0242 20.631 11.1992 20.7485 11.3919 20.8286C11.5846 20.9088 11.7913 20.95 12 20.95C12.2087 20.95 12.4154 20.9088 12.6081 20.8286C12.8008 20.7485 12.9758 20.631 13.123 20.483L13.1245 20.4814L13.883 19.723L13.8846 19.7214C14.4807 19.1287 15.287 18.7957 16.1276 18.7952H17.2116C17.6316 18.7952 18.0344 18.6284 18.3314 18.3314C18.6284 18.0344 18.7952 17.6316 18.7952 17.2116V16.1281C18.7957 15.2875 19.1286 14.4807 19.7214 13.8846L19.723 13.883L20.4814 13.1246L20.483 13.123C20.631 12.9758 20.7484 12.8008 20.8286 12.6081C20.9087 12.4154 20.95 12.2087 20.95 12C20.95 11.7913 20.9087 11.5846 20.8286 11.3919C20.7484 11.1992 20.631 11.0242 20.483 10.877L20.4814 10.8755L19.723 10.117L19.7216 10.1156C19.1281 9.51928 18.7952 8.71178 18.7952 7.87193V6.78845C18.7952 6.36844 18.6284 5.96562 18.3314 5.66863C18.0344 5.37163 17.6316 5.20478 17.2116 5.20478H16.1281C15.2882 5.20478 14.4807 4.87188 13.8844 4.27841L13.883 4.27704L13.1245 3.5186L13.123 3.51701C12.9758 3.36901 12.8008 3.25156 12.6081 3.17141C12.4154 3.09127 12.2087 3.05001 12 3.05001ZM10.7775 1.69407C11.165 1.53295 11.5804 1.45001 12 1.45001C12.4196 1.45001 12.835 1.53295 13.2225 1.69407C13.6095 1.85504 13.961 2.09087 14.2567 2.38802L14.2575 2.38882L15.013 3.14429C15.3094 3.43896 15.7113 3.60478 16.1281 3.60478H17.2116C18.0559 3.60478 18.8657 3.94021 19.4627 4.53726C20.0598 5.13431 20.3952 5.94409 20.3952 6.78845V7.87193C20.3952 8.28864 20.5605 8.69004 20.8551 8.98641L21.6112 9.7425L21.6119 9.74322C21.9091 10.0389 22.145 10.3904 22.3059 10.7775C22.4671 11.165 22.55 11.5804 22.55 12C22.55 12.4196 22.4671 12.8351 22.3059 13.2225C22.145 13.6095 21.9092 13.9609 21.6121 14.2566L21.6112 14.2575L20.8559 15.0128L20.8552 15.0135C20.5608 15.31 20.3955 15.7107 20.3952 16.1285V17.2116C20.3952 18.0559 20.0598 18.8657 19.4627 19.4628C18.8657 20.0598 18.0559 20.3952 17.2116 20.3952H16.1285C15.7107 20.3955 15.31 20.5608 15.0135 20.8552L15.0128 20.8559L14.2575 21.6112L14.2566 21.6121C13.9609 21.9092 13.6095 22.145 13.2225 22.306C12.835 22.4671 12.4196 22.55 12 22.55C11.5804 22.55 11.165 22.4671 10.7775 22.306C10.3904 22.145 10.0389 21.9091 9.74321 21.6119L9.74249 21.6112L8.98723 20.8559C8.69077 20.5614 8.28936 20.3955 7.87146 20.3952H6.78843C5.94407 20.3952 5.1343 20.0598 4.53724 19.4628C3.94019 18.8657 3.60477 18.0559 3.60477 17.2116L3.60477 16.1285C3.60448 15.7108 3.43911 15.3098 3.14469 15.0134L2.38881 14.2575L2.38801 14.2567C2.09086 13.961 1.85502 13.6096 1.69405 13.2225C1.53294 12.8351 1.45 12.4196 1.45 12C1.45 11.5804 1.53294 11.165 1.69405 10.7775C1.855 10.3905 2.09079 10.0391 2.38789 9.74341L2.38881 9.7425L3.14407 8.98724L3.14484 8.98647C3.43916 8.69007 3.60448 8.28939 3.60477 7.87167V6.78845C3.60477 5.94409 3.94019 5.13431 4.53724 4.53726C5.1343 3.94021 5.94407 3.60478 6.78843 3.60478L7.87146 3.60478C8.28919 3.6045 8.69006 3.43918 8.98645 3.14485L8.98723 3.14408L9.74249 2.38882L9.7434 2.38791C10.0391 2.09081 10.3905 1.85502 10.7775 1.69407Z" fill="#111111"/>
<path fill-rule="evenodd" clip-rule="evenodd" d="M16.3446 9.21484C16.6402 9.54325 16.6136 10.0491 16.2852 10.3446L11.2852 14.8446C10.9809 15.1185 10.5191 15.1185 10.2148 14.8446L7.71483 12.5946C7.38642 12.2991 7.35979 11.7932 7.65536 11.4648C7.95093 11.1364 8.45676 11.1098 8.78517 11.4054L10.75 13.1737L15.2148 9.15538C15.5432 8.85981 16.0491 8.88643 16.3446 9.21484Z" fill="#111111"/>
</svg>
