<svg width="24" height="24" viewBox="0 0 24 24" fill="none" xmlns="http://www.w3.org/2000/svg">
<path fill-rule="evenodd" clip-rule="evenodd" d="M12.0485 6.01005L11.6054 6.52298C11.3166 6.85734 10.8114 6.89425 10.4771 6.60543C10.1427 6.31661 10.1058 5.81143 10.3946 5.47707L10.8576 4.94107C10.8703 4.92633 10.8836 4.91207 10.8974 4.8983C11.9852 3.81061 13.4606 3.19961 14.9989 3.19972C16.5373 3.19983 18.0125 3.81103 19.1002 4.89888C20.1879 5.98672 20.7989 7.4621 20.7988 9.00044C20.7987 10.5388 20.1875 12.0141 19.0997 13.1018C19.0865 13.1149 19.0728 13.1277 19.0587 13.1399L18.5247 13.6039C18.1912 13.8937 17.6859 13.8583 17.3961 13.5247C17.1063 13.1912 17.1418 12.6859 17.4753 12.3961L17.9872 11.9513C18.7632 11.1655 19.1987 10.1054 19.1988 9.00032C19.1989 7.88633 18.7564 6.81794 17.9688 6.03017C17.1811 5.2424 16.1128 4.7998 14.9988 4.79972C13.8941 4.79964 12.8343 5.23472 12.0485 6.01005Z" fill="#111111"/>
<path fill-rule="evenodd" clip-rule="evenodd" d="M11.9423 17.8338L12.3724 17.3099C12.6528 16.9685 13.1569 16.9189 13.4984 17.1993C13.8399 17.4797 13.8894 17.9838 13.609 18.3252L13.1596 18.8727C13.1472 18.8877 13.1343 18.9023 13.1209 18.9164C12.0606 20.0309 10.6009 20.6786 9.06307 20.717C7.52521 20.7553 6.03511 20.1812 4.92056 19.1209C3.80602 18.0606 3.15833 16.6009 3.11999 15.0631C3.08164 13.5252 3.65578 12.0351 4.7161 10.9205C4.72896 10.907 4.74228 10.894 4.75606 10.8814L5.27829 10.4042C5.60446 10.1061 6.11048 10.1289 6.40852 10.4551C6.70656 10.7813 6.68376 11.2873 6.35759 11.5853L5.85692 12.0428C5.10085 12.8478 4.69194 13.9185 4.71949 15.0232C4.74726 16.1368 5.21628 17.1938 6.02338 17.9616C6.83048 18.7295 7.90954 19.1452 9.02319 19.1175C10.1275 19.0899 11.1761 18.6285 11.9423 17.8338Z" fill="#111111"/>
<path fill-rule="evenodd" clip-rule="evenodd" d="M15.5657 8.43433C15.8781 8.74675 15.8781 9.25328 15.5657 9.5657L14.5657 10.5657C14.2533 10.8781 13.7467 10.8781 13.4343 10.5657C13.1219 10.2533 13.1219 9.74675 13.4343 9.43433L14.4343 8.43433C14.7467 8.12191 15.2533 8.12191 15.5657 8.43433ZM12.5657 11.4343C12.8781 11.7467 12.8781 12.2533 12.5657 12.5657L9.5657 15.5657C9.25328 15.8781 8.74675 15.8781 8.43433 15.5657C8.12191 15.2533 8.12191 14.7467 8.43433 14.4343L11.4343 11.4343C11.7467 11.1219 12.2533 11.1219 12.5657 11.4343Z" fill="#111111"/>
<path fill-rule="evenodd" clip-rule="evenodd" d="M2.43433 2.43433C2.74675 2.12191 3.25328 2.12191 3.5657 2.43433L21.5657 20.4343C21.8781 20.7467 21.8781 21.2533 21.5657 21.5657C21.2533 21.8781 20.7467 21.8781 20.4343 21.5657L2.43433 3.5657C2.12191 3.25328 2.12191 2.74675 2.43433 2.43433Z" fill="#111111"/>
</svg>
