<svg width="24" height="24" viewBox="0 0 24 24" fill="none" xmlns="http://www.w3.org/2000/svg">
<path fill-rule="evenodd" clip-rule="evenodd" d="M15.5657 8.43431C15.8781 8.74673 15.8781 9.25326 15.5657 9.56568L9.56568 15.5657C9.25326 15.8781 8.74673 15.8781 8.43431 15.5657C8.12189 15.2533 8.12189 14.7467 8.43431 14.4343L14.4343 8.43431C14.7467 8.12189 15.2533 8.12189 15.5657 8.43431Z" fill="#111111"/>
<path fill-rule="evenodd" clip-rule="evenodd" d="M12.0485 6.01004L11.6054 6.52297C11.3166 6.85732 10.8114 6.89424 10.477 6.60542C10.1427 6.3166 10.1058 5.81141 10.3946 5.47706L10.8576 4.94106C10.8703 4.92632 10.8836 4.91206 10.8973 4.89829C11.9852 3.8106 13.4606 3.1996 14.9989 3.19971C16.5372 3.19982 18.0125 3.81102 19.1002 4.89887C20.1879 5.98671 20.7989 7.46209 20.7988 9.00042C20.7987 10.5388 20.1875 12.014 19.0996 13.1017C19.0864 13.1149 19.0728 13.1277 19.0587 13.1399L18.5247 13.6039C18.1912 13.8937 17.6859 13.8582 17.3961 13.5247C17.1063 13.1912 17.1418 12.6859 17.4753 12.3961L17.9872 11.9513C18.7632 11.1655 19.1987 10.1054 19.1988 9.00031C19.1989 7.88632 18.7564 6.81792 17.9688 6.03016C17.1811 5.24239 16.1128 4.79979 14.9988 4.79971C13.8941 4.79963 12.8343 5.23471 12.0485 6.01004Z" fill="#111111"/>
<path fill-rule="evenodd" clip-rule="evenodd" d="M11.9736 18.0581L12.4205 17.5485C12.7118 17.2164 13.2173 17.1833 13.5495 17.4746C13.8816 17.7659 13.9147 18.2714 13.6234 18.6036L13.1563 19.136C13.1435 19.1507 13.1301 19.1648 13.1163 19.1785C12.0202 20.2579 10.5403 20.8578 9.00198 20.8461C7.46369 20.8343 5.99306 20.212 4.91362 19.116C3.83418 18.0199 3.23435 16.54 3.24608 15.0017C3.25781 13.4634 3.88015 11.9928 4.97618 10.9133C4.98947 10.9002 5.00322 10.8876 5.01739 10.8755L5.55488 10.4155C5.89058 10.1283 6.39559 10.1675 6.68285 10.5032C6.97012 10.8389 6.93086 11.3439 6.59517 11.6312L6.07987 12.0721C5.298 12.852 4.85446 13.9089 4.84603 15.0139C4.83754 16.1278 5.27191 17.1995 6.05359 17.9932C6.83527 18.7869 7.90023 19.2376 9.01419 19.2461C10.1188 19.2545 11.1819 18.8275 11.9736 18.0581Z" fill="#111111"/>
</svg>
