<svg width="24" height="24" viewBox="0 0 24 24" fill="none" xmlns="http://www.w3.org/2000/svg">
<path fill-rule="evenodd" clip-rule="evenodd" d="M8.20001 6.00001C8.20001 5.55818 8.55818 5.20001 9.00001 5.20001H20C20.4418 5.20001 20.8 5.55818 20.8 6.00001C20.8 6.44184 20.4418 6.80001 20 6.80001H9.00001C8.55818 6.80001 8.20001 6.44184 8.20001 6.00001Z" fill="#111111"/>
<path fill-rule="evenodd" clip-rule="evenodd" d="M8.20001 12C8.20001 11.5582 8.55818 11.2 9.00001 11.2H20C20.4418 11.2 20.8 11.5582 20.8 12C20.8 12.4418 20.4418 12.8 20 12.8H9.00001C8.55818 12.8 8.20001 12.4418 8.20001 12Z" fill="#111111"/>
<path fill-rule="evenodd" clip-rule="evenodd" d="M8.20001 18C8.20001 17.5582 8.55818 17.2 9.00001 17.2H20C20.4418 17.2 20.8 17.5582 20.8 18C20.8 18.4418 20.4418 18.8 20 18.8H9.00001C8.55818 18.8 8.20001 18.4418 8.20001 18Z" fill="#111111"/>
<path fill-rule="evenodd" clip-rule="evenodd" d="M5.00001 5.20001C5.44184 5.20001 5.80001 5.55818 5.80001 6.00001V6.01001C5.80001 6.45184 5.44184 6.81001 5.00001 6.81001C4.55818 6.81001 4.20001 6.45184 4.20001 6.01001V6.00001C4.20001 5.55818 4.55818 5.20001 5.00001 5.20001Z" fill="#111111"/>
<path fill-rule="evenodd" clip-rule="evenodd" d="M5.00001 11.2C5.44184 11.2 5.80001 11.5582 5.80001 12V12.01C5.80001 12.4518 5.44184 12.81 5.00001 12.81C4.55818 12.81 4.20001 12.4518 4.20001 12.01V12C4.20001 11.5582 4.55818 11.2 5.00001 11.2Z" fill="#111111"/>
<path fill-rule="evenodd" clip-rule="evenodd" d="M5.00001 17.2C5.44184 17.2 5.80001 17.5582 5.80001 18V18.01C5.80001 18.4518 5.44184 18.81 5.00001 18.81C4.55818 18.81 4.20001 18.4518 4.20001 18.01V18C4.20001 17.5582 4.55818 17.2 5.00001 17.2Z" fill="#111111"/>
</svg>
