<svg width="24" height="24" viewBox="0 0 24 24" fill="none" xmlns="http://www.w3.org/2000/svg">
<path fill-rule="evenodd" clip-rule="evenodd" d="M7.00001 11.8C6.68175 11.8 6.37653 11.9264 6.15148 12.1515C5.92644 12.3765 5.80001 12.6818 5.80001 13V19C5.80001 19.3183 5.92644 19.6235 6.15148 19.8485C6.37653 20.0736 6.68175 20.2 7.00001 20.2H17C17.3183 20.2 17.6235 20.0736 17.8485 19.8485C18.0736 19.6235 18.2 19.3183 18.2 19V13C18.2 12.6818 18.0736 12.3765 17.8485 12.1515C17.6235 11.9264 17.3183 11.8 17 11.8H7.00001ZM5.02011 11.0201C5.54521 10.495 6.25741 10.2 7.00001 10.2H17C17.7426 10.2 18.4548 10.495 18.9799 11.0201C19.505 11.5452 19.8 12.2574 19.8 13V19C19.8 19.7426 19.505 20.4548 18.9799 20.9799C18.4548 21.505 17.7426 21.8 17 21.8H7.00001C6.25741 21.8 5.54521 21.505 5.02011 20.9799C4.49501 20.4548 4.20001 19.7426 4.20001 19V13C4.20001 12.2574 4.49501 11.5452 5.02011 11.0201Z" fill="#111111"/>
<path fill-rule="evenodd" clip-rule="evenodd" d="M12 3.80001C11.1513 3.80001 10.3374 4.13715 9.73727 4.73727C9.13715 5.33739 8.80001 6.15132 8.80001 7.00001V11C8.80001 11.4418 8.44184 11.8 8.00001 11.8C7.55818 11.8 7.20001 11.4418 7.20001 11V7.00001C7.20001 5.72697 7.70572 4.50607 8.6059 3.6059C9.50607 2.70572 10.727 2.20001 12 2.20001C13.2731 2.20001 14.4939 2.70572 15.3941 3.6059C16.2943 4.50607 16.8 5.72697 16.8 7.00001V11C16.8 11.4418 16.4418 11.8 16 11.8C15.5582 11.8 15.2 11.4418 15.2 11V7.00001C15.2 6.15132 14.8629 5.33739 14.2628 4.73727C13.6626 4.13715 12.8487 3.80001 12 3.80001Z" fill="#111111"/>
</svg>
