<svg width="24" height="24" viewBox="0 0 24 24" fill="none" xmlns="http://www.w3.org/2000/svg">
<path fill-rule="evenodd" clip-rule="evenodd" d="M12 19.2C12.3183 19.2 12.6235 19.0736 12.8485 18.8485C13.0736 18.6235 13.2 18.3183 13.2 18L13.2 16C13.2 15.5582 13.5582 15.2 14 15.2C14.4418 15.2 14.8 15.5582 14.8 16V18C14.8 18.7426 14.505 19.4548 13.9799 19.9799C13.4548 20.505 12.7426 20.8 12 20.8H5.00001C4.25741 20.8 3.54522 20.505 3.02011 19.9799C2.49501 19.4548 2.20001 18.7426 2.20001 18L2.20001 6.00001C2.20001 5.2574 2.49501 4.54521 3.02012 4.02011C3.54522 3.49501 4.25741 3.20001 5.00001 3.20001L12 3.20001C12.7426 3.20001 13.4548 3.49501 13.9799 4.02011C14.505 4.54522 14.8 5.2574 14.8 6.00001V8.00001C14.8 8.44184 14.4418 8.80001 14 8.80001C13.5582 8.80001 13.2 8.44184 13.2 8.00001V6.00001C13.2 5.68175 13.0736 5.37653 12.8485 5.15148C12.6235 4.92644 12.3183 4.80001 12 4.80001L5.00001 4.80001C4.68175 4.80001 4.37653 4.92644 4.15149 5.15148C3.92644 5.37653 3.80001 5.68175 3.80001 6.00001L3.80001 18C3.80001 18.3183 3.92644 18.6235 4.15148 18.8485C4.37653 19.0736 4.68175 19.2 5.00001 19.2L12 19.2Z" fill="#111111"/>
<path fill-rule="evenodd" clip-rule="evenodd" d="M17.4343 15.5657C17.1219 15.2533 17.1219 14.7467 17.4343 14.4343L19.0686 12.8L9.00001 12.8C8.55819 12.8 8.20001 12.4418 8.20001 12C8.20001 11.5582 8.55819 11.2 9.00001 11.2L21 11.2C21.3236 11.2 21.6153 11.3949 21.7391 11.6939C21.8629 11.9928 21.7945 12.3369 21.5657 12.5657L18.5657 15.5657C18.2533 15.8781 17.7467 15.8781 17.4343 15.5657Z" fill="#111111"/>
<path fill-rule="evenodd" clip-rule="evenodd" d="M21.5657 12.5657C21.2533 12.8781 20.7467 12.8781 20.4343 12.5657L17.4343 9.5657C17.1219 9.25328 17.1219 8.74675 17.4343 8.43433C17.7467 8.12191 18.2533 8.12191 18.5657 8.43433L21.5657 11.4343C21.8781 11.7467 21.8781 12.2533 21.5657 12.5657Z" fill="#111111"/>
</svg>
