<svg width="24" height="24" viewBox="0 0 24 24" fill="none" xmlns="http://www.w3.org/2000/svg">
<path fill-rule="evenodd" clip-rule="evenodd" d="M12 4.80001C11.6817 4.80001 11.3765 4.92644 11.1515 5.15148C10.9264 5.37653 10.8 5.68175 10.8 6.00001V8.00001C10.8 8.44184 10.4418 8.80001 10 8.80001C9.55818 8.80001 9.20001 8.44184 9.20001 8.00001V6.00001C9.20001 5.25741 9.495 4.54521 10.0201 4.02011C10.5452 3.49501 11.2574 3.20001 12 3.20001H19C19.7426 3.20001 20.4548 3.49501 20.9799 4.02011C21.505 4.54521 21.8 5.25741 21.8 6.00001V18C21.8 18.7426 21.505 19.4548 20.9799 19.9799C20.4548 20.505 19.7426 20.8 19 20.8H12C11.2574 20.8 10.5452 20.505 10.0201 19.9799C9.495 19.4548 9.20001 18.7426 9.20001 18V16C9.20001 15.5582 9.55818 15.2 10 15.2C10.4418 15.2 10.8 15.5582 10.8 16V18C10.8 18.3183 10.9264 18.6235 11.1515 18.8485C11.3765 19.0736 11.6817 19.2 12 19.2H19C19.3183 19.2 19.6235 19.0736 19.8485 18.8485C20.0736 18.6235 20.2 18.3183 20.2 18V6.00001C20.2 5.68175 20.0736 5.37653 19.8485 5.15148C19.6235 4.92644 19.3183 4.80001 19 4.80001H12Z" fill="#111111"/>
<path fill-rule="evenodd" clip-rule="evenodd" d="M6.56569 8.43433C6.87811 8.74675 6.87811 9.25328 6.56569 9.5657L4.93138 11.2H15C15.4418 11.2 15.8 11.5582 15.8 12C15.8 12.4418 15.4418 12.8 15 12.8H3.00001C2.67644 12.8 2.38473 12.6051 2.2609 12.3062C2.13708 12.0072 2.20552 11.6631 2.43432 11.4343L5.43432 8.43433C5.74674 8.12191 6.25327 8.12191 6.56569 8.43433Z" fill="#111111"/>
<path fill-rule="evenodd" clip-rule="evenodd" d="M2.43432 11.4343C2.74674 11.1219 3.25327 11.1219 3.56569 11.4343L6.56569 14.4343C6.87811 14.7467 6.87811 15.2533 6.56569 15.5657C6.25327 15.8781 5.74674 15.8781 5.43432 15.5657L2.43432 12.5657C2.1219 12.2533 2.1219 11.7467 2.43432 11.4343Z" fill="#111111"/>
</svg>
