<svg width="24" height="24" viewBox="0 0 24 24" fill="none" xmlns="http://www.w3.org/2000/svg">
<path fill-rule="evenodd" clip-rule="evenodd" d="M6 4.80001C5.68174 4.80001 5.37651 4.92644 5.15147 5.15148C4.92643 5.37653 4.8 5.68175 4.8 6.00001V8.00001C4.8 8.44184 4.44182 8.80001 4 8.80001C3.55817 8.80001 3.2 8.44184 3.2 8.00001V6.00001C3.2 5.25741 3.495 4.54522 4.0201 4.02011C4.5452 3.49501 5.25739 3.20001 6 3.20001H8C8.44182 3.20001 8.8 3.55818 8.8 4.00001C8.8 4.44184 8.44182 4.80001 8 4.80001H6Z" fill="#111111"/>
<path fill-rule="evenodd" clip-rule="evenodd" d="M4 15.2C4.44182 15.2 4.8 15.5582 4.8 16V18C4.8 18.3183 4.92643 18.6235 5.15147 18.8485C5.37651 19.0736 5.68174 19.2 6 19.2H8C8.44182 19.2 8.8 19.5582 8.8 20C8.8 20.4418 8.44182 20.8 8 20.8H6C5.25739 20.8 4.5452 20.505 4.0201 19.9799C3.495 19.4548 3.2 18.7426 3.2 18V16C3.2 15.5582 3.55817 15.2 4 15.2Z" fill="#111111"/>
<path fill-rule="evenodd" clip-rule="evenodd" d="M15.2 4.00001C15.2 3.55818 15.5582 3.20001 16 3.20001H18C18.7426 3.20001 19.4548 3.49501 19.9799 4.02011C20.505 4.54521 20.8 5.25741 20.8 6.00001V8.00001C20.8 8.44184 20.4418 8.80001 20 8.80001C19.5582 8.80001 19.2 8.44184 19.2 8.00001V6.00001C19.2 5.68175 19.0736 5.37653 18.8485 5.15148C18.6235 4.92644 18.3183 4.80001 18 4.80001H16C15.5582 4.80001 15.2 4.44184 15.2 4.00001Z" fill="#111111"/>
<path fill-rule="evenodd" clip-rule="evenodd" d="M20 15.2C20.4418 15.2 20.8 15.5582 20.8 16V18C20.8 18.7426 20.505 19.4548 19.9799 19.9799C19.4548 20.505 18.7426 20.8 18 20.8H16C15.5582 20.8 15.2 20.4418 15.2 20C15.2 19.5582 15.5582 19.2 16 19.2H18C18.3183 19.2 18.6235 19.0736 18.8485 18.8485C19.0736 18.6235 19.2 18.3183 19.2 18V16C19.2 15.5582 19.5582 15.2 20 15.2Z" fill="#111111"/>
</svg>
