<svg width="24" height="24" viewBox="0 0 24 24" fill="none" xmlns="http://www.w3.org/2000/svg">
<path fill-rule="evenodd" clip-rule="evenodd" d="M21.4206 3.31949C21.6564 3.46526 21.8 3.72275 21.8 4.00001V17C21.8 17.303 21.6288 17.58 21.3578 17.7156L15.3578 20.7156C15.1325 20.8282 14.8674 20.8282 14.6422 20.7156L9 17.8944L3.35777 20.7156C3.10978 20.8396 2.81527 20.8263 2.57941 20.6805C2.34356 20.5348 2.2 20.2773 2.2 20V7.00001C2.2 6.697 2.3712 6.41999 2.64223 6.28447L8.64223 3.28447C8.86745 3.17186 9.13255 3.17186 9.35777 3.28447L15 6.10559L20.6422 3.28447C20.8902 3.16048 21.1847 3.17373 21.4206 3.31949ZM3.8 7.49444V18.7056L8.64223 16.2845C8.86745 16.1719 9.13255 16.1719 9.35777 16.2845L15 19.1056L20.2 16.5056V5.29444L15.3578 7.71555C15.1325 7.82817 14.8674 7.82817 14.6422 7.71555L9 4.89444L3.8 7.49444Z" fill="#111111"/>
<path fill-rule="evenodd" clip-rule="evenodd" d="M9 3.20001C9.44182 3.20001 9.8 3.55819 9.8 4.00001V17C9.8 17.4418 9.44182 17.8 9 17.8C8.55817 17.8 8.2 17.4418 8.2 17V4.00001C8.2 3.55819 8.55817 3.20001 9 3.20001Z" fill="#111111"/>
<path fill-rule="evenodd" clip-rule="evenodd" d="M15 6.20001C15.4418 6.20001 15.8 6.55819 15.8 7.00001V20C15.8 20.4418 15.4418 20.8 15 20.8C14.5582 20.8 14.2 20.4418 14.2 20V7.00001C14.2 6.55819 14.5582 6.20001 15 6.20001Z" fill="#111111"/>
</svg>
