<svg width="24" height="24" viewBox="0 0 24 24" fill="none" xmlns="http://www.w3.org/2000/svg">
<path d="M19 9.2002C19.4418 9.2002 19.7998 9.55817 19.7998 10C19.7998 12.0687 18.9784 14.0528 17.5156 15.5156C16.2426 16.7886 14.5746 17.574 12.7998 17.7568V20.2002H16C16.4418 20.2002 16.7998 20.5582 16.7998 21C16.7998 21.4418 16.4418 21.7998 16 21.7998H8C7.55817 21.7998 7.2002 21.4418 7.2002 21C7.2002 20.5582 7.55817 20.2002 8 20.2002H11.2002V17.7578C9.42537 17.575 7.75739 16.7886 6.48438 15.5156C5.02159 14.0528 4.2002 12.0687 4.2002 10C4.2002 9.55817 4.55817 9.2002 5 9.2002C5.44183 9.2002 5.7998 9.55817 5.7998 10C5.7998 11.6443 6.45349 13.2211 7.61621 14.3838C8.77894 15.5465 10.3557 16.2002 12 16.2002L12.3076 16.1924C13.84 16.1163 15.2938 15.4738 16.3838 14.3838C17.5465 13.2211 18.2002 11.6443 18.2002 10C18.2002 9.55817 18.5582 9.2002 19 9.2002ZM12.1885 1.20508C13.1277 1.25169 14.0184 1.64539 14.6865 2.31348C15.3992 3.02611 15.7998 3.99218 15.7998 5V10C15.7998 11.0078 15.3992 11.9739 14.6865 12.6865C13.9739 13.3992 13.0078 13.7998 12 13.7998C10.9922 13.7998 10.0261 13.3992 9.31348 12.6865C8.60084 11.9739 8.2002 11.0078 8.2002 10V5C8.2002 3.99218 8.60084 3.02611 9.31348 2.31348C10.0261 1.60084 10.9922 1.2002 12 1.2002L12.1885 1.20508ZM12 2.7998C11.4165 2.7998 10.8569 3.03176 10.4443 3.44434C10.0318 3.85692 9.7998 4.41652 9.7998 5V10C9.7998 10.5835 10.0318 11.1431 10.4443 11.5557C10.8569 11.9682 11.4165 12.2002 12 12.2002C12.5835 12.2002 13.1431 11.9682 13.5557 11.5557C13.9682 11.1431 14.2002 10.5835 14.2002 10V5C14.2002 4.41652 13.9682 3.85692 13.5557 3.44434C13.1947 3.0834 12.7213 2.86061 12.2178 2.81055L12 2.7998Z" fill="#111111"/>
</svg>
