<svg width="24" height="24" viewBox="0 0 24 24" fill="none" xmlns="http://www.w3.org/2000/svg">
<path d="M2.43463 2.43457C2.74705 2.12218 3.25308 2.12216 3.56549 2.43457L21.5655 20.4346C21.8779 20.747 21.8779 21.253 21.5655 21.5654C21.2531 21.8778 20.7471 21.8778 20.4346 21.5654L15.7227 16.8535C14.8182 17.3449 13.8251 17.653 12.7999 17.7588V20.2002H16.0001C16.4419 20.2002 16.7999 20.5582 16.7999 21C16.7999 21.4418 16.4419 21.7998 16.0001 21.7998H8.00006C7.55823 21.7998 7.20026 21.4418 7.20026 21C7.20026 20.5582 7.55823 20.2002 8.00006 20.2002H11.2003V17.7588C10.187 17.6543 9.1999 17.3532 8.29694 16.8662C7.05807 16.1979 6.0231 15.2068 5.30182 13.998C4.58051 12.7892 4.20004 11.4077 4.20026 10C4.20033 9.55822 4.5583 9.20019 5.00006 9.2002C5.44181 9.2003 5.79987 9.55826 5.79987 10C5.79967 11.1188 6.1026 12.2169 6.67584 13.1777C7.24919 14.1386 8.07192 14.9268 9.0567 15.458C10.0415 15.9892 11.1518 16.244 12.2696 16.1953C13.0525 16.1612 13.8173 15.9755 14.5274 15.6582L12.6192 13.75C12.1998 13.8194 11.7708 13.8202 11.3497 13.7471C10.7651 13.6455 10.2119 13.4083 9.73541 13.0547C9.25892 12.7011 8.87216 12.2401 8.60553 11.71C8.37228 11.2461 8.23618 10.7404 8.20612 10.2236L8.20026 10.002V9.33105L2.43463 3.56543C2.12221 3.25301 2.12221 2.74699 2.43463 2.43457ZM18.9962 9.2002C19.438 9.19942 19.7971 9.55722 19.7979 9.99902C19.8006 11.5246 19.354 13.0177 18.5137 14.291C18.2703 14.6595 17.774 14.7608 17.4053 14.5176C17.0367 14.2742 16.9354 13.7779 17.1788 13.4092C17.8459 12.3981 18.2005 11.2123 18.1983 10.001C18.1978 9.55952 18.5547 9.20124 18.9962 9.2002ZM12.0001 1.2002C13.0079 1.20021 13.974 1.60085 14.6866 2.31348C15.3992 3.02611 15.7999 3.99219 15.7999 5V10L15.7901 10.2803C15.7694 10.5604 15.7178 10.8381 15.6358 11.1074C15.507 11.5299 15.0593 11.7682 14.6368 11.6396C14.2142 11.5109 13.9759 11.0632 14.1046 10.6406C14.1677 10.433 14.2003 10.2171 14.2003 10V5C14.2003 4.41654 13.9683 3.85691 13.5557 3.44434C13.1432 3.03177 12.5835 2.79982 12.0001 2.7998C11.4166 2.7998 10.857 3.03178 10.4444 3.44434C10.0318 3.85692 9.79987 4.41652 9.79987 5C9.79987 5.44181 9.44186 5.79977 9.00006 5.7998C8.55823 5.7998 8.20026 5.44183 8.20026 5C8.20026 3.99218 8.6009 3.02611 9.31354 2.31348C10.0262 1.60086 10.9923 1.2002 12.0001 1.2002Z" fill="#111111"/>
</svg>
