<svg width="24" height="24" viewBox="0 0 24 24" fill="none" xmlns="http://www.w3.org/2000/svg">
<path d="M12.75 3.56543C12.578 3.56543 12.4096 3.58328 12.2461 3.61328C12.2371 3.61478 12.2277 3.61569 12.2187 3.61719C12.0582 3.64869 11.9049 3.69493 11.7559 3.75293C11.7469 3.75643 11.737 3.7592 11.7275 3.7627C11.578 3.8227 11.4358 3.89647 11.3008 3.98047C11.2943 3.98447 11.2877 3.98769 11.2812 3.99219C11.1447 4.07869 11.0174 4.17763 10.8984 4.28613C10.8954 4.28913 10.8922 4.29192 10.8887 4.29492C10.7682 4.40592 10.6576 4.5272 10.5586 4.6582C10.5581 4.6587 10.5571 4.65966 10.5566 4.66016C10.2086 5.12116 10 5.69343 10 6.31543C10 6.76619 10.1106 7.19003 10.3027 7.56543H3.5C2.6715 7.56543 2 8.23693 2 9.06543V16.0654C2 16.8939 2.6715 17.5654 3.5 17.5654H10.5C11.3285 17.5654 12 16.8939 12 16.0654V9.06543C12 9.02804 11.9919 8.99276 11.9893 8.95605C12.2312 9.02564 12.4857 9.06543 12.75 9.06543C13.6375 9.06543 14.4247 8.64226 14.9277 7.98926C14.9312 7.98476 14.936 7.97961 14.9395 7.97461C15.107 7.75411 15.2409 7.50769 15.3359 7.24219C15.3419 7.22519 15.3495 7.20793 15.3555 7.19043C15.3975 7.06543 15.4301 6.93621 15.4541 6.80371C15.4586 6.77971 15.4613 6.75642 15.4648 6.73242C15.4858 6.59592 15.5 6.45743 15.5 6.31543C15.5 4.79643 14.269 3.56543 12.75 3.56543ZM18.75 4.56543C18.4545 4.56534 18.1618 4.62347 17.8888 4.73651C17.6157 4.84954 17.3676 5.01526 17.1586 5.2242C16.9496 5.43314 16.7838 5.68121 16.6707 5.95424C16.5575 6.22726 16.4993 6.5199 16.4993 6.81543C16.4993 7.11096 16.5575 7.4036 16.6707 7.67662C16.7838 7.94965 16.9496 8.19772 17.1586 8.40666C17.3676 8.6156 17.6157 8.78132 17.8888 8.89435C18.1618 9.00738 18.4545 9.06552 18.75 9.06543C19.3466 9.06525 19.9187 8.82812 20.3406 8.40618C20.7624 7.98424 20.9993 7.41205 20.9993 6.81543C20.9993 6.21881 20.7624 5.64661 20.3406 5.22468C19.9187 4.80274 19.3466 4.56561 18.75 4.56543ZM13.5 10.0654V16.8154C13.5 18.0554 12.49 19.0654 11.25 19.0654H8.28027C9.20027 20.5754 10.865 21.5654 12.75 21.5654C15.645 21.5654 18 19.2104 18 16.3154V10.8154C18 10.4004 17.665 10.0654 17.25 10.0654H13.5ZM19.3701 10.0654C19.4551 10.3004 19.5 10.5504 19.5 10.8154V16.3154C19.5 17.2904 19.29 18.2147 18.915 19.0547C20.63 18.9747 22 17.5504 22 15.8154V10.8154C22 10.4004 21.665 10.0654 21.25 10.0654H19.3701Z" fill="#111111"/>
</svg>
