<svg width="24" height="24" viewBox="0 0 24 24" fill="none" xmlns="http://www.w3.org/2000/svg">
<path d="M19.827 10.706L18.4814 6.786C18.1146 5.718 17.122 5 16.0118 5H8.98819C7.87796 5 6.88542 5.718 6.51927 6.78533L5.17365 10.7053C4.45508 11.1873 4 12.02 4 12.936V17.6667C4 18.4033 4.58519 19 5.30769 19C6.03019 19 6.61538 18.4033 6.61538 17.6667V16.826C6.61538 16.826 10.0683 17 12.5 17C14.9317 17 18.3846 16.826 18.3846 16.826V17.6667C18.3846 18.4033 18.9698 19 19.6923 19C20.4148 19 21 18.4033 21 17.6667V12.936C21 12.02 20.5443 11.1873 19.827 10.706ZM7.00442 9.40867L7.75373 7.226C7.93746 6.69133 8.43242 6.33333 8.98819 6.33333H16.0118C16.5676 6.33333 17.0625 6.69133 17.2463 7.226L17.9956 9.40867C18.1133 9.752 17.8328 10.098 17.4803 10.04C16.1982 9.82867 14.5498 9.66667 12.5 9.66667C10.4502 9.66667 8.80185 9.82867 7.51965 10.04C7.16723 10.098 6.88673 9.752 7.00442 9.40867ZM6.94231 14.3333C6.40092 14.3333 5.96154 13.8853 5.96154 13.3333C5.96154 12.7813 6.40092 12.3333 6.94231 12.3333C7.48369 12.3333 7.92308 12.7813 7.92308 13.3333C7.92308 13.8853 7.48369 14.3333 6.94231 14.3333ZM14.4615 13.6667H10.5385C10.1775 13.6667 9.88462 13.368 9.88462 13C9.88462 12.632 10.1775 12.3333 10.5385 12.3333H14.4615C14.8225 12.3333 15.1154 12.632 15.1154 13C15.1154 13.368 14.8225 13.6667 14.4615 13.6667ZM18.0577 14.3333C17.5163 14.3333 17.0769 13.8853 17.0769 13.3333C17.0769 12.7813 17.5163 12.3333 18.0577 12.3333C18.5991 12.3333 19.0385 12.7813 19.0385 13.3333C19.0385 13.8853 18.5991 14.3333 18.0577 14.3333Z" fill="#111111"/>
</svg>
