<svg width="24" height="24" viewBox="0 0 24 24" fill="none" xmlns="http://www.w3.org/2000/svg">
<path fill-rule="evenodd" clip-rule="evenodd" d="M7.82679 4.80001C7.21219 4.80001 6.64816 5.17966 6.42939 5.77264L5.03924 9.54069L5.80749 9.40706C9.90414 8.6945 14.0959 8.6945 18.1925 9.40706L18.9608 9.54069L17.5706 5.77265C17.3518 5.17967 16.7878 4.80001 16.1732 4.80001H7.82679ZM20.8497 9.88545L19.1346 5.23655C18.6868 4.02295 17.5089 3.20001 16.1732 3.20001H7.82679C6.49108 3.20001 5.31316 4.02295 4.86542 5.23655L3.15029 9.88545C2.06265 10.201 1.31429 11.1834 1.31429 12.2954V18.5714C1.31429 19.7853 2.31742 20.8 3.59362 20.8C4.86537 20.8 5.86596 19.7924 5.87292 18.5841C9.9515 18.8964 14.0485 18.8964 18.1271 18.5841C18.1341 19.7924 19.1346 20.8 20.4064 20.8C21.6826 20.8 22.6857 19.7853 22.6857 18.5714V12.2954C22.6857 11.1834 21.9374 10.201 20.8497 9.88545ZM17.8977 10.9816C13.996 10.303 10.004 10.303 6.10226 10.9816L3.72863 11.3945C3.3054 11.4681 2.9742 11.838 2.9742 12.2954V18.5714C2.9742 18.9355 3.26888 19.2 3.59362 19.2C3.91836 19.2 4.21304 18.9355 4.21304 18.5714V17.7143C4.21304 17.4903 4.31045 17.2766 4.48159 17.1251C4.65274 16.9736 4.88193 16.8982 5.11346 16.9172L5.57081 16.9548C9.84953 17.3062 14.1505 17.3062 18.4292 16.9548L18.8865 16.9172C19.1181 16.8982 19.3473 16.9736 19.5184 17.1251C19.6896 17.2766 19.787 17.4903 19.787 17.7143V18.5714C19.787 18.9355 20.0816 19.2 20.4064 19.2C20.7311 19.2 21.0258 18.9355 21.0258 18.5714V12.2954C21.0258 11.838 20.6946 11.4681 20.2714 11.3945L17.8977 10.9816ZM14.5509 14.7429L9.4491 14.7429C8.99073 14.7429 8.61914 14.3847 8.61914 13.9429C8.61914 13.501 8.99073 13.1429 9.4491 13.1429L14.5509 13.1429C15.0093 13.1429 15.3809 13.501 15.3809 13.9429C15.3809 14.3847 15.0093 14.7429 14.5509 14.7429ZM5.14064 13.9429C5.14064 13.501 5.51222 13.1429 5.9706 13.1429H6.4344C6.89277 13.1429 7.26436 13.501 7.26436 13.9429C7.26436 14.3847 6.89277 14.7429 6.4344 14.7429H5.9706C5.51222 14.7429 5.14064 14.3847 5.14064 13.9429ZM16.7356 13.9429C16.7356 13.501 17.1072 13.1429 17.5656 13.1429H18.0294C18.4878 13.1429 18.8594 13.501 18.8594 13.9429C18.8594 14.3847 18.4878 14.7429 18.0294 14.7429H17.5656C17.1072 14.7429 16.7356 14.3847 16.7356 13.9429Z" fill="#111111"/>
</svg>
