<svg width="24" height="24" viewBox="0 0 24 24" fill="none" xmlns="http://www.w3.org/2000/svg">
<path d="M8.46954 4.24049C9.27327 3.44622 10.3634 3 11.5 3C12.6366 3 13.7267 3.44622 14.5305 4.24049C15.3342 5.03476 15.7857 6.11202 15.7857 7.23529C15.7857 8.35856 15.3342 9.43583 14.5305 10.2301C13.7267 11.0244 12.6366 11.4706 11.5 11.4706C10.3634 11.4706 9.27327 11.0244 8.46954 10.2301C7.66582 9.43583 7.21429 8.35856 7.21429 7.23529C7.21429 6.11202 7.66582 5.03476 8.46954 4.24049Z" fill="#111111"/>
<path d="M4 15.1206C4 14.2736 4.6935 13.5882 5.55064 13.5882H17.4494C18.3065 13.5882 19 14.2736 19 15.1206V16.5021C19 18.8558 15.9604 21 11.5 21C7.03964 21 4 18.8558 4 16.5021V15.1206Z" fill="#111111"/>
</svg>
