<svg width="24" height="24" viewBox="0 0 24 24" fill="none" xmlns="http://www.w3.org/2000/svg">
<path fill-rule="evenodd" clip-rule="evenodd" d="M6 3.80001C5.41652 3.80001 4.85694 4.0318 4.44436 4.44438C4.03178 4.85696 3.8 5.41654 3.8 6.00001V18C3.8 18.5835 4.03178 19.1431 4.44436 19.5556C4.85694 19.9682 5.41652 20.2 6 20.2H18C18.5835 20.2 19.1431 19.9682 19.5556 19.5556C19.9682 19.1431 20.2 18.5835 20.2 18V6.00001C20.2 5.41654 19.9682 4.85696 19.5556 4.44438C19.1431 4.0318 18.5835 3.80001 18 3.80001H6ZM3.31299 3.31301C4.02563 2.60037 4.99217 2.20001 6 2.20001H18C19.0078 2.20001 19.9744 2.60037 20.687 3.31301C21.3996 4.02564 21.8 4.99219 21.8 6.00001V18C21.8 19.0078 21.3996 19.9744 20.687 20.687C19.9744 21.3997 19.0078 21.8 18 21.8H6C4.99217 21.8 4.02563 21.3997 3.31299 20.687C2.60035 19.9744 2.2 19.0078 2.2 18V6.00001C2.2 4.99219 2.60035 4.02564 3.31299 3.31301Z" fill="#111111"/>
<path fill-rule="evenodd" clip-rule="evenodd" d="M8.55985 11.5715L3.56568 16.5657C3.25326 16.8781 2.74673 16.8781 2.43431 16.5657C2.12189 16.2533 2.12189 15.7467 2.43431 15.4343L7.43431 10.4343L7.44529 10.4236C8.02941 9.86147 8.7382 9.53026 9.5 9.53026C10.2618 9.53026 10.9706 9.86147 11.5547 10.4236L11.5657 10.4343L16.5657 15.4343C16.8781 15.7467 16.8781 16.2533 16.5657 16.5657C16.2533 16.8781 15.7467 16.8781 15.4343 16.5657L10.4401 11.5715C10.0981 11.2444 9.77284 11.1303 9.5 11.1303C9.22716 11.1303 8.90185 11.2444 8.55985 11.5715Z" fill="#111111"/>
<path fill-rule="evenodd" clip-rule="evenodd" d="M15.5599 13.5715L14.5657 14.5657C14.2533 14.8781 13.7467 14.8781 13.4343 14.5657C13.1219 14.2533 13.1219 13.7467 13.4343 13.4343L14.4343 12.4343L14.4453 12.4236C15.0294 11.8615 15.7382 11.5303 16.5 11.5303C17.2618 11.5303 17.9706 11.8615 18.5547 12.4236L18.5657 12.4343L21.5657 15.4343C21.8781 15.7467 21.8781 16.2533 21.5657 16.5657C21.2533 16.8781 20.7467 16.8781 20.4343 16.5657L17.4401 13.5715C17.0981 13.2444 16.7728 13.1303 16.5 13.1303C16.2272 13.1303 15.9019 13.2444 15.5599 13.5715Z" fill="#111111"/>
</svg>
