<svg width="24" height="24" viewBox="0 0 24 24" fill="none" xmlns="http://www.w3.org/2000/svg">
<path fill-rule="evenodd" clip-rule="evenodd" d="M9.31299 8.31299C10.0256 7.60035 10.9922 7.2 12 7.2C13.0078 7.2 13.9744 7.60035 14.687 8.31299C15.3996 9.02563 15.8 9.99217 15.8 11C15.8 12.0078 15.3996 12.9744 14.687 13.687C13.9744 14.3996 13.0078 14.8 12 14.8C10.9922 14.8 10.0256 14.3996 9.31299 13.687C8.60036 12.9744 8.2 12.0078 8.2 11C8.2 9.99217 8.60036 9.02563 9.31299 8.31299ZM12 8.79999C11.4165 8.79999 10.8569 9.03178 10.4444 9.44436C10.0318 9.85694 9.8 10.4165 9.8 11C9.8 11.5835 10.0318 12.1431 10.4444 12.5556C10.8569 12.9682 11.4165 13.2 12 13.2C12.5835 13.2 13.1431 12.9682 13.5556 12.5556C13.9682 12.1431 14.2 11.5835 14.2 11C14.2 10.4165 13.9682 9.85694 13.5556 9.44436C13.1431 9.03178 12.5835 8.79999 12 8.79999Z" fill="#111111"/>
<path fill-rule="evenodd" clip-rule="evenodd" d="M12 3.80029C10.576 3.80029 9.18396 4.22255 7.99993 5.01368C6.81591 5.80481 5.89307 6.92927 5.3481 8.24488C4.80314 9.56049 4.66054 11.0081 4.93832 12.4048C5.2161 13.8014 5.90176 15.0843 6.90862 16.0912L11.1524 20.334C11.3774 20.5588 11.6825 20.6851 12.0005 20.6851C12.3186 20.6851 12.6236 20.5588 12.8486 20.334L17.0913 16.0913C18.0982 15.0844 18.7839 13.8014 19.0617 12.4048C19.3395 11.0081 19.1969 9.56049 18.6519 8.24488C18.1069 6.92927 17.1841 5.80481 16.0001 5.01368C14.816 4.22255 13.424 3.80029 12 3.80029ZM7.11103 3.68332C8.55817 2.71639 10.2595 2.20029 12 2.20029C13.7405 2.20029 15.4418 2.71639 16.889 3.68332C18.3361 4.65026 19.464 6.02461 20.1301 7.63257C20.7962 9.24053 20.9705 11.0099 20.6309 12.7169C20.2914 14.4239 19.4534 15.9919 18.2227 17.2227L13.9797 21.4657C13.4547 21.9902 12.7426 22.2851 12.0005 22.2851C11.2584 22.2851 10.5466 21.9905 10.0216 21.466L5.77738 17.2227C4.54673 15.992 3.70857 14.4239 3.36906 12.7169C3.02954 11.0099 3.20384 9.24053 3.8699 7.63257C4.53597 6.0246 5.66389 4.65026 7.11103 3.68332Z" fill="#111111"/>
</svg>
