<svg width="24" height="24" viewBox="0 0 24 24" fill="none" xmlns="http://www.w3.org/2000/svg">
<path fill-rule="evenodd" clip-rule="evenodd" d="M8.2 7.6C7.86863 7.6 7.6 7.86863 7.6 8.2V8.8C7.6 9.13137 7.86863 9.4 8.2 9.4H8.8C9.13137 9.4 9.4 9.13137 9.4 8.8V8.2C9.4 7.86863 9.13137 7.6 8.8 7.6H8.2ZM6.6 6C6.26863 6 6 6.26863 6 6.6V10.4C6 10.7314 6.26863 11 6.6 11H10.4C10.7314 11 11 10.7314 11 10.4V6.6C11 6.26863 10.7314 6 10.4 6H6.6Z" fill="#111111"/>
<path fill-rule="evenodd" clip-rule="evenodd" d="M15.2 7.6C14.8686 7.6 14.6 7.86863 14.6 8.2V8.8C14.6 9.13137 14.8686 9.4 15.2 9.4H15.8C16.1314 9.4 16.4 9.13137 16.4 8.8V8.2C16.4 7.86863 16.1314 7.6 15.8 7.6H15.2ZM13.6 6C13.2686 6 13 6.26863 13 6.6V10.4C13 10.7314 13.2686 11 13.6 11H17.4C17.7314 11 18 10.7314 18 10.4V6.6C18 6.26863 17.7314 6 17.4 6H13.6Z" fill="#111111"/>
<path fill-rule="evenodd" clip-rule="evenodd" d="M8.2 14.6C7.86863 14.6 7.6 14.8686 7.6 15.2V15.8C7.6 16.1314 7.86863 16.4 8.2 16.4H8.8C9.13137 16.4 9.4 16.1314 9.4 15.8V15.2C9.4 14.8686 9.13137 14.6 8.8 14.6H8.2ZM6.6 13C6.26863 13 6 13.2686 6 13.6V17.4C6 17.7314 6.26863 18 6.6 18H10.4C10.7314 18 11 17.7314 11 17.4V13.6C11 13.2686 10.7314 13 10.4 13H6.6Z" fill="#111111"/>
<path d="M13 13.6C13 13.2686 13.2686 13 13.6 13H14.4C14.7314 13 15 13.2686 15 13.6V14.4C15 14.7314 14.7314 15 14.4 15H13.6C13.2686 15 13 14.7314 13 14.4V13.6Z" fill="#111111"/>
<path fill-rule="evenodd" clip-rule="evenodd" d="M14.4 13.2509C14.3272 13.2002 14.2494 13.1561 14.1674 13.1198C14.0609 13.0725 13.9391 13.0725 13.8326 13.1198C13.7506 13.1561 13.6728 13.2002 13.6 13.2509C13.4641 13.3458 13.3458 13.4641 13.2509 13.6C13.2002 13.6728 13.1561 13.7506 13.1198 13.8326C13.0725 13.9391 13.0725 14.0609 13.1198 14.1674C13.1561 14.2494 13.2002 14.3272 13.2509 14.4C13.3458 14.5359 13.4641 14.6542 13.6 14.7491C13.6728 14.7998 13.7506 14.8439 13.8326 14.8802C13.9391 14.9275 14.0609 14.9275 14.1674 14.8802C14.2494 14.8439 14.3272 14.7998 14.4 14.7491C14.5359 14.6542 14.6542 14.5359 14.7491 14.4C14.7998 14.3272 14.8439 14.2494 14.8802 14.1674C14.9275 14.0609 14.9275 13.9391 14.8802 13.8326C14.8439 13.7506 14.7998 13.6728 14.7491 13.6C14.6542 13.4641 14.5359 13.3458 14.4 13.2509ZM15 13.6V14.4C15 14.7314 14.7314 15 14.4 15H13.6C13.2686 15 13 14.7314 13 14.4V13.6C13 13.2686 13.2686 13 13.6 13H14.4C14.7314 13 15 13.2686 15 13.6Z" fill="#111111"/>
<path d="M13 16.6C13 16.2686 13.2686 16 13.6 16H14.4C14.7314 16 15 16.2686 15 16.6V17.4C15 17.7314 14.7314 18 14.4 18H13.6C13.2686 18 13 17.7314 13 17.4V16.6Z" fill="#111111"/>
<path fill-rule="evenodd" clip-rule="evenodd" d="M14.4 16.2509C14.3272 16.2002 14.2494 16.1561 14.1674 16.1198C14.0609 16.0725 13.9391 16.0725 13.8326 16.1198C13.7506 16.1561 13.6728 16.2002 13.6 16.2509C13.4641 16.3458 13.3458 16.4641 13.2509 16.6C13.2002 16.6728 13.1561 16.7506 13.1198 16.8326C13.0725 16.9391 13.0725 17.0609 13.1198 17.1674C13.1561 17.2494 13.2002 17.3272 13.2509 17.4C13.3458 17.5359 13.4641 17.6542 13.6 17.7491C13.6728 17.7998 13.7506 17.8439 13.8326 17.8802C13.9391 17.9275 14.0609 17.9275 14.1674 17.8802C14.2494 17.8439 14.3272 17.7998 14.4 17.7491C14.5359 17.6542 14.6542 17.5359 14.7491 17.4C14.7998 17.3272 14.8439 17.2494 14.8802 17.1674C14.9275 17.0609 14.9275 16.9391 14.8802 16.8326C14.8439 16.7506 14.7998 16.6728 14.7491 16.6C14.6542 16.4641 14.5359 16.3458 14.4 16.2509ZM15 16.6V17.4C15 17.7314 14.7314 18 14.4 18H13.6C13.2686 18 13 17.7314 13 17.4V16.6C13 16.2686 13.2686 16 13.6 16H14.4C14.7314 16 15 16.2686 15 16.6Z" fill="#111111"/>
<path d="M16 13.6C16 13.2686 16.2686 13 16.6 13H17.4C17.7314 13 18 13.2686 18 13.6V14.4C18 14.7314 17.7314 15 17.4 15H16.6C16.2686 15 16 14.7314 16 14.4V13.6Z" fill="#111111"/>
<path fill-rule="evenodd" clip-rule="evenodd" d="M17.4 13.2509C17.3272 13.2002 17.2494 13.1561 17.1674 13.1198C17.0609 13.0725 16.9391 13.0725 16.8326 13.1198C16.7506 13.1561 16.6728 13.2002 16.6 13.2509C16.4641 13.3458 16.3458 13.4641 16.2509 13.6C16.2002 13.6728 16.1561 13.7506 16.1198 13.8326C16.0725 13.9391 16.0725 14.0609 16.1198 14.1674C16.1561 14.2494 16.2002 14.3272 16.2509 14.4C16.3458 14.5359 16.4641 14.6542 16.6 14.7491C16.6728 14.7998 16.7506 14.8439 16.8326 14.8802C16.9391 14.9275 17.0609 14.9275 17.1674 14.8802C17.2494 14.8439 17.3272 14.7998 17.4 14.7491C17.5359 14.6542 17.6542 14.5359 17.7491 14.4C17.7998 14.3272 17.8439 14.2494 17.8802 14.1674C17.9275 14.0609 17.9275 13.9391 17.8802 13.8326C17.8439 13.7506 17.7998 13.6728 17.7491 13.6C17.6542 13.4641 17.5359 13.3458 17.4 13.2509ZM18 13.6V14.4C18 14.7314 17.7314 15 17.4 15H16.6C16.2686 15 16 14.7314 16 14.4V13.6C16 13.2686 16.2686 13 16.6 13H17.4C17.7314 13 18 13.2686 18 13.6Z" fill="#111111"/>
<path d="M8 3.6C8 3.26863 7.73137 3 7.4 3H4.44C3.64471 3 3 3.64471 3 4.44V7.4C3 7.73137 3.26863 8 3.6 8L3.84 8C4.17137 8 4.44 7.73137 4.44 7.4V5.04C4.44 4.70863 4.70863 4.44 5.04 4.44H7.4C7.73137 4.44 8 4.17137 8 3.84V3.6Z" fill="#111111"/>
<path d="M16.6 4.44C16.2686 4.44 16 4.17137 16 3.84V3.6C16 3.26863 16.2686 3 16.6 3H19.56C20.3553 3 21 3.64471 21 4.44V7.4C21 7.73137 20.7314 8 20.4 8L20.16 8C19.8286 8 19.56 7.73137 19.56 7.4V5.04C19.56 4.70863 19.2914 4.44 18.96 4.44H16.6Z" fill="#111111"/>
<path d="M16 20.16C16 19.8286 16.2686 19.56 16.6 19.56H18.96C19.2914 19.56 19.56 19.2914 19.56 18.96V16.6C19.56 16.2686 19.8286 16 20.16 16H20.4C20.7314 16 21 16.2686 21 16.6V19.56C21 20.3553 20.3553 21 19.56 21H16.6C16.2686 21 16 20.7314 16 20.4V20.16Z" fill="#111111"/>
<path d="M3.84 16C4.17137 16 4.44 16.2686 4.44 16.6V18.96C4.44 19.2914 4.70863 19.56 5.04 19.56H7.4C7.73137 19.56 8 19.8286 8 20.16V20.4C8 20.7314 7.73137 21 7.4 21H4.44C3.64471 21 3 20.3553 3 19.56V16.6C3 16.2686 3.26863 16 3.6 16H3.84Z" fill="#111111"/>
</svg>
