<svg width="24" height="24" viewBox="0 0 24 24" fill="none" xmlns="http://www.w3.org/2000/svg">
<path fill-rule="evenodd" clip-rule="evenodd" d="M7.52501 4.40853C9.21538 3.43198 11.1799 3.0383 13.116 3.28812C15.0522 3.53795 16.8524 4.41741 18.2396 5.79105C19.6267 7.16469 20.5237 8.95629 20.7924 10.8899C20.8532 11.3275 20.5477 11.7316 20.1101 11.7924C19.6725 11.8532 19.2684 11.5477 19.2076 11.1101C18.9872 9.52414 18.2515 8.05462 17.1137 6.92793C15.976 5.80124 14.4993 5.07988 12.9113 4.87497C11.3232 4.67006 9.71187 4.99297 8.32539 5.79395C7.30197 6.38519 6.443 7.2127 5.81567 8.19999H8C8.44183 8.19999 8.8 8.55817 8.8 8.99999C8.8 9.44182 8.44183 9.79999 8 9.79999H4.51788C4.50577 9.80027 4.49363 9.80027 4.48147 9.79999H4C3.55817 9.79999 3.2 9.44182 3.2 8.99999V4.99999C3.2 4.55817 3.55817 4.19999 4 4.19999C4.44183 4.19999 4.8 4.55817 4.8 4.99999V6.85194C5.5248 5.86356 6.45057 5.02925 7.52501 4.40853Z" fill="#111111"/>
<path fill-rule="evenodd" clip-rule="evenodd" d="M3.88988 12.2076C4.3275 12.1468 4.73157 12.4523 4.79238 12.8899C5.01279 14.4759 5.74853 15.9454 6.88628 17.0721C8.02402 18.1987 9.50065 18.9201 11.0887 19.125C12.6768 19.3299 14.2881 19.007 15.6746 18.206C16.698 17.6148 17.557 16.7873 18.1843 15.8H16C15.5582 15.8 15.2 15.4418 15.2 15C15.2 14.5582 15.5582 14.2 16 14.2H19.4821C19.4942 14.1997 19.5064 14.1997 19.5185 14.2H20C20.4418 14.2 20.8 14.5582 20.8 15V19C20.8 19.4418 20.4418 19.8 20 19.8C19.5582 19.8 19.2 19.4418 19.2 19V17.1481C18.4752 18.1364 17.5494 18.9707 16.475 19.5915C14.7846 20.568 12.8201 20.9617 10.884 20.7119C8.94783 20.462 7.14756 19.5826 5.76044 18.2089C4.37333 16.8353 3.47633 15.0437 3.20761 13.1101C3.1468 12.6725 3.45226 12.2684 3.88988 12.2076Z" fill="#111111"/>
</svg>
