<svg width="24" height="24" viewBox="0 0 24 24" fill="none" xmlns="http://www.w3.org/2000/svg">
<path fill-rule="evenodd" clip-rule="evenodd" d="M16.9564 3.2012C16.9709 3.20041 16.9855 3.20001 17 3.20001C18.0078 3.20001 18.9744 3.60037 19.687 4.31301C20.3996 5.02564 20.8 5.99219 20.8 7.00001C20.8 7.01454 20.7996 7.02906 20.7988 7.04357C20.6933 8.97889 20.0163 10.8395 18.8533 12.39C17.7966 13.799 16.3817 14.8945 14.7603 15.5654C14.6512 16.5308 14.3362 17.4639 13.8342 18.3005C13.2393 19.2921 12.4013 20.1155 11.3996 20.6931C11.1666 20.8274 10.8818 20.8357 10.6414 20.7152C10.4011 20.5946 10.2373 20.3614 10.2056 20.0944C10.0149 18.4896 9.28981 16.9957 8.14707 15.8529C7.00433 14.7102 5.51037 13.9851 3.90559 13.7944C3.63858 13.7627 3.40538 13.5989 3.28486 13.3586C3.16434 13.1182 3.17263 12.8334 3.30693 12.6004C3.88446 11.5987 4.70792 10.7607 5.69947 10.1658C6.53614 9.66379 7.46917 9.34881 8.43457 9.23974C9.10548 7.61827 10.201 6.20342 11.61 5.14666C13.1605 3.98375 15.0211 3.30672 16.9564 3.2012ZM17.0206 4.80011C15.4095 4.89248 13.8613 5.4582 12.57 6.42666C11.2726 7.39972 10.2928 8.73564 9.75466 10.2655C9.64521 10.5766 9.35604 10.7887 9.0264 10.7996C8.14263 10.8288 7.2809 11.0828 6.52266 11.5378C6.10108 11.7907 5.71924 12.1011 5.38736 12.4586C6.85143 12.8608 8.19427 13.6374 9.27844 14.7216C10.3626 15.8057 11.1392 17.1486 11.5414 18.6126C11.8989 18.2808 12.2093 17.8989 12.4622 17.4774C12.9172 16.7191 13.1712 15.8574 13.2004 14.9736C13.2113 14.644 13.4234 14.3548 13.7345 14.2453C15.2644 13.7072 16.6003 12.7274 17.5733 11.43C18.5418 10.1387 19.1075 8.59051 19.1999 6.9794C19.1945 6.40337 18.9634 5.8521 18.5556 5.44438C18.1479 5.03666 17.5966 4.8055 17.0206 4.80011Z" fill="#111111"/>
<path fill-rule="evenodd" clip-rule="evenodd" d="M7.69665 13.6067C7.91386 13.9915 7.77804 14.4794 7.39329 14.6967C6.49129 15.2059 5.76193 15.9729 5.2987 16.8994C4.9325 17.6318 4.74581 18.4374 4.74977 19.2502C5.5626 19.2542 6.36826 19.0675 7.10065 18.7013C8.02711 18.2381 8.79412 17.5087 9.30335 16.6067C9.52056 16.222 10.0085 16.0862 10.3933 16.3034C10.778 16.5206 10.9139 17.0086 10.6966 17.3933C10.0307 18.5728 9.02772 19.5266 7.81619 20.1324C6.60466 20.7382 5.23983 20.9683 3.89665 20.7933C3.5368 20.7464 3.25358 20.4632 3.2067 20.1034C3.03171 18.7602 3.26185 17.3953 3.86761 16.1838C4.47338 14.9723 5.42716 13.9693 6.6067 13.3034C6.99145 13.0862 7.47943 13.222 7.69665 13.6067Z" fill="#111111"/>
<path fill-rule="evenodd" clip-rule="evenodd" d="M13.5858 7.5858C13.9609 7.21073 14.4696 7.00001 15 7.00001C15.5304 7.00001 16.0391 7.21073 16.4142 7.5858C16.7893 7.96087 17 8.46958 17 9.00001C17 9.53045 16.7893 10.0392 16.4142 10.4142C16.0391 10.7893 15.5304 11 15 11C14.4696 11 13.9609 10.7893 13.5858 10.4142C13.2107 10.0392 13 9.53045 13 9.00001C13 8.46958 13.2107 7.96087 13.5858 7.5858Z" fill="#111111"/>
</svg>
