<svg width="24" height="24" viewBox="0 0 24 24" fill="none" xmlns="http://www.w3.org/2000/svg">
<path d="M13.6346 4.00329C13.5254 3.99615 13.4144 4.00066 13.304 4.01645L5.55884 5.13487C5.23771 5.18119 5 5.44663 5 5.75905V18.241C5 18.5538 5.23771 18.8188 5.55884 18.8651L13.304 19.9836C13.3796 19.9945 13.456 20 13.5312 20C13.8957 20 14.2502 19.8751 14.5302 19.6431C14.812 19.4094 14.9859 19.0859 15.0386 18.7368H17.4688C18.3065 18.7368 19 18.0695 19 17.2632V6.73684C19 5.93055 18.3065 5.26316 17.4688 5.26316H15.0386C14.9859 4.91414 14.812 4.59107 14.5302 4.35773C14.2765 4.14773 13.9624 4.02471 13.6346 4.00329ZM15.0625 6.52632H17.4688C17.5978 6.52632 17.6875 6.61261 17.6875 6.73684V17.2632C17.6875 17.3874 17.5978 17.4737 17.4688 17.4737H15.0625V6.52632ZM12 11.5789C12.4834 11.5789 12.875 11.9558 12.875 12.4211C12.875 12.8863 12.4834 13.2632 12 13.2632C11.5166 13.2632 11.125 12.8863 11.125 12.4211C11.125 11.9558 11.5166 11.5789 12 11.5789Z" fill="#111111"/>
</svg>
