<svg width="24" height="24" viewBox="0 0 24 24" fill="none" xmlns="http://www.w3.org/2000/svg">
<path fill-rule="evenodd" clip-rule="evenodd" d="M7.39775 3.71763C8.22276 3.3759 9.10701 3.20001 10 3.20001C10.893 3.20001 11.7772 3.3759 12.6022 3.71763C13.4273 4.05936 14.1769 4.56025 14.8083 5.19169C15.4398 5.82312 15.9406 6.57275 16.2824 7.39777C16.6241 8.22278 16.8 9.10702 16.8 10C16.8 10.893 16.6241 11.7772 16.2824 12.6023C15.9406 13.4273 15.4398 14.1769 14.8083 14.8083C14.1769 15.4398 13.4273 15.9407 12.6022 16.2824C11.7772 16.6241 10.893 16.8 10 16.8C9.10701 16.8 8.22276 16.6241 7.39775 16.2824C6.57274 15.9407 5.82311 15.4398 5.19167 14.8083C4.56023 14.1769 4.05935 13.4273 3.71762 12.6023C3.37588 11.7772 3.2 10.893 3.2 10C3.2 9.10702 3.37588 8.22278 3.71762 7.39777C4.05935 6.57275 4.56023 5.82312 5.19167 5.19169C5.82311 4.56025 6.57274 4.05936 7.39775 3.71763ZM10 4.80001C9.31712 4.80001 8.64094 4.93451 8.01004 5.19584C7.37915 5.45716 6.80591 5.84019 6.32304 6.32306C5.84018 6.80592 5.45715 7.37917 5.19582 8.01006C4.9345 8.64095 4.8 9.31714 4.8 10C4.8 10.6829 4.9345 11.3591 5.19582 11.99C5.45715 12.6209 5.84018 13.1941 6.32304 13.677C6.80591 14.1598 7.37915 14.5429 8.01004 14.8042C8.64094 15.0655 9.31712 15.2 10 15.2C10.6829 15.2 11.3591 15.0655 11.99 14.8042C12.6208 14.5429 13.1941 14.1598 13.677 13.677C14.1598 13.1941 14.5428 12.6209 14.8042 11.99C15.0655 11.3591 15.2 10.6829 15.2 10C15.2 9.31714 15.0655 8.64095 14.8042 8.01006C14.5428 7.37917 14.1598 6.80592 13.677 6.32306C13.1941 5.84019 12.6208 5.45716 11.99 5.19584C11.3591 4.93451 10.6829 4.80001 10 4.80001Z" fill="#111111"/>
<path fill-rule="evenodd" clip-rule="evenodd" d="M13.9343 13.9343C14.2467 13.6219 14.7533 13.6219 15.0657 13.9343L19.5657 18.4343C19.8781 18.7467 19.8781 19.2533 19.5657 19.5657C19.2533 19.8781 18.7467 19.8781 18.4343 19.5657L13.9343 15.0657C13.6219 14.7533 13.6219 14.2467 13.9343 13.9343Z" fill="#111111"/>
</svg>
