<svg width="24" height="24" viewBox="0 0 24 24" fill="none" xmlns="http://www.w3.org/2000/svg">
<path fill-rule="evenodd" clip-rule="evenodd" d="M5.0201 9.02011C5.5452 8.49501 6.25739 8.20001 7 8.20001H8C8.44182 8.20001 8.8 8.55818 8.8 9.00001C8.8 9.44184 8.44182 9.80001 8 9.80001H7C6.68174 9.80001 6.37651 9.92644 6.15147 10.1515C5.92643 10.3765 5.8 10.6818 5.8 11V19C5.8 19.3183 5.92643 19.6235 6.15147 19.8485C6.37651 20.0736 6.68174 20.2 7 20.2H17C17.3183 20.2 17.6235 20.0736 17.8485 19.8485C18.0736 19.6235 18.2 19.3183 18.2 19V11C18.2 10.6818 18.0736 10.3765 17.8485 10.1515C17.6235 9.92644 17.3183 9.80001 17 9.80001H16C15.5582 9.80001 15.2 9.44184 15.2 9.00001C15.2 8.55818 15.5582 8.20001 16 8.20001H17C17.7426 8.20001 18.4548 8.49501 18.9799 9.02011C19.505 9.54522 19.8 10.2574 19.8 11V19C19.8 19.7426 19.505 20.4548 18.9799 20.9799C18.4548 21.505 17.7426 21.8 17 21.8H7C6.25739 21.8 5.5452 21.505 5.0201 20.9799C4.495 20.4548 4.2 19.7426 4.2 19V11C4.2 10.2574 4.495 9.54522 5.0201 9.02011Z" fill="#111111"/>
<path fill-rule="evenodd" clip-rule="evenodd" d="M12 2.20001C12.4418 2.20001 12.8 2.55818 12.8 3.00001V14C12.8 14.4418 12.4418 14.8 12 14.8C11.5582 14.8 11.2 14.4418 11.2 14V3.00001C11.2 2.55818 11.5582 2.20001 12 2.20001Z" fill="#111111"/>
<path fill-rule="evenodd" clip-rule="evenodd" d="M11.4343 2.43433C11.7467 2.12191 12.2533 2.12191 12.5657 2.43433L15.5657 5.43433C15.8781 5.74675 15.8781 6.25328 15.5657 6.5657C15.2533 6.87812 14.7467 6.87812 14.4343 6.5657L12 4.13138L9.56568 6.5657C9.25326 6.87812 8.74673 6.87812 8.43431 6.5657C8.12189 6.25328 8.12189 5.74675 8.43431 5.43433L11.4343 2.43433Z" fill="#111111"/>
</svg>
