<svg width="10" height="10" viewBox="0 0 10 10" fill="none" xmlns="http://www.w3.org/2000/svg">
<path d="M5.00012 1.37512C5.27626 1.37512 5.50012 1.59898 5.50012 1.87512V7.50012C5.50012 7.77626 5.27626 8.00012 5.00012 8.00012C4.72398 8.00012 4.50012 7.77626 4.50012 7.50012V1.87512C4.50012 1.59898 4.72398 1.37512 5.00012 1.37512ZM3.12512 2.62512C3.40126 2.62512 3.62512 2.84898 3.62512 3.12512V6.87512C3.62512 7.15126 3.40126 7.37512 3.12512 7.37512C2.84898 7.37512 2.62512 7.15126 2.62512 6.87512V3.12512C2.62512 2.84898 2.84898 2.62512 3.12512 2.62512ZM6.87512 2.62512C7.15126 2.62512 7.37512 2.84898 7.37512 3.12512V6.87512C7.37512 7.15126 7.15126 7.37512 6.87512 7.37512C6.59898 7.37512 6.37512 7.15126 6.37512 6.87512V3.12512C6.37512 2.84898 6.59898 2.62512 6.87512 2.62512ZM1.25012 3.56262C1.52626 3.56262 1.75012 3.78648 1.75012 4.06262V5.31262C1.75012 5.58876 1.52626 5.81262 1.25012 5.81262C0.97398 5.81262 0.750122 5.58876 0.750122 5.31262V4.06262C0.750122 3.78648 0.97398 3.56262 1.25012 3.56262ZM8.75012 3.56262C9.02626 3.56262 9.25012 3.78648 9.25012 4.06262V5.31262C9.25012 5.58876 9.02626 5.81262 8.75012 5.81262C8.47398 5.81262 8.25012 5.58876 8.25012 5.31262V4.06262C8.25012 3.78648 8.47398 3.56262 8.75012 3.56262Z" fill="#111111"/>
</svg>
