<svg width="24" height="24" viewBox="0 0 24 24" fill="none" xmlns="http://www.w3.org/2000/svg">
<path d="M18.7998 4C20.3462 4 21.5996 5.25341 21.5996 6.7998V17.7998C21.5996 19.3462 20.3462 20.5996 18.7998 20.5996H4.7998C3.25341 20.5996 2 19.3462 2 17.7998V15.5498C2 15.108 2.35798 14.75 2.7998 14.75C3.24163 14.75 3.59961 15.108 3.59961 15.5498V17.7998C3.59961 18.4625 4.13706 19 4.7998 19H18.7998C19.4625 19 20 18.4625 20 17.7998V6.7998C20 6.13706 19.4625 5.59961 18.7998 5.59961H4.7998C4.13706 5.59961 3.59961 6.13706 3.59961 6.7998V9.2998C3.59961 9.74163 3.24163 10.0996 2.7998 10.0996C2.35798 10.0996 2 9.74163 2 9.2998V6.7998C2 5.25341 3.25341 4 4.7998 4H18.7998ZM7.73438 8.93457C8.0468 8.62216 8.55282 8.62216 8.86523 8.93457L11.8652 11.9346C11.8797 11.949 11.8931 11.9642 11.9062 11.9795C11.9099 11.9837 11.9135 11.9879 11.917 11.9922C11.9406 12.0209 11.9614 12.0511 11.9805 12.082C11.9831 12.0863 11.9858 12.0904 11.9883 12.0947C12.004 12.1214 12.0179 12.1488 12.0303 12.1768C12.0328 12.1825 12.0367 12.1876 12.0391 12.1934C12.0397 12.1948 12.0394 12.1968 12.04 12.1982C12.0528 12.2295 12.0627 12.2616 12.0713 12.2939C12.0736 12.3024 12.0761 12.3108 12.0781 12.3193C12.0825 12.3384 12.0849 12.3577 12.0879 12.377C12.0928 12.4082 12.0955 12.4393 12.0967 12.4707C12.0972 12.4857 12.098 12.5006 12.0977 12.5156C12.0968 12.5564 12.0929 12.5967 12.0859 12.6367C12.0792 12.6754 12.07 12.7135 12.0576 12.751C12.0545 12.7605 12.0514 12.7699 12.0479 12.7793C12.0234 12.8448 11.9904 12.9073 11.9482 12.9658C11.9442 12.9715 11.9398 12.9769 11.9355 12.9824C11.9138 13.011 11.8913 13.0394 11.8652 13.0654L8.86523 16.0654C8.55288 16.3778 8.04681 16.3776 7.73438 16.0654C7.42196 15.753 7.42196 15.247 7.73438 14.9346L9.36816 13.2998H2.7998C2.35804 13.2998 2.00011 12.9417 2 12.5C2 12.0582 2.35798 11.7002 2.7998 11.7002H9.36914L7.73438 10.0654C7.42196 9.75301 7.42196 9.24699 7.73438 8.93457Z" fill="black"/>
</svg>
