<svg width="24" height="24" viewBox="0 0 24 24" fill="none" xmlns="http://www.w3.org/2000/svg">
<path d="M12.1533 4.20306C12.397 4.18645 12.6369 4.23335 12.8545 4.33392L12.9619 4.38861L13.0625 4.45111C13.29 4.60416 13.4682 4.81254 13.5908 5.04486C13.7309 5.31036 13.7999 5.60794 13.7998 5.90326V18.0966L13.7871 18.3173C13.7611 18.5381 13.696 18.7557 13.5908 18.955C13.4506 19.2206 13.2382 19.4553 12.9619 19.6113C12.6824 19.769 12.357 19.8336 12.0312 19.7831C11.7311 19.7365 11.4647 19.5972 11.2529 19.4023L6.88184 15.8095H3.83301C3.34704 15.8094 2.91879 15.5754 2.62891 15.2265C2.34255 14.8818 2.2002 14.441 2.2002 14.0058V9.99408C2.20021 9.55892 2.34254 9.11808 2.62891 8.77338C2.91879 8.42447 3.34705 8.19047 3.83301 8.19037H6.88184L11.2568 4.59467C11.468 4.40149 11.7328 4.26309 12.0312 4.21674L12.1533 4.20306ZM17 6.70013C18.338 6.70013 19.5738 7.36568 20.4531 8.46478C21.3287 9.55925 21.7998 11.0124 21.7998 12.4999C21.7998 13.9875 21.3287 15.4406 20.4531 16.5351C19.5738 17.6342 18.338 18.2997 17 18.2997C16.5582 18.2997 16.2002 17.9418 16.2002 17.4999C16.2002 17.0581 16.5582 16.7001 17 16.7001C17.7837 16.7001 18.5831 16.3123 19.2041 15.5361C19.8288 14.7552 20.2002 13.6645 20.2002 12.4999C20.2002 11.3354 19.8288 10.2447 19.2041 9.46381C18.5831 8.68763 17.7837 8.29974 17 8.29974C16.5582 8.29974 16.2002 7.94177 16.2002 7.49994C16.2002 7.05815 16.5582 6.70013 17 6.70013ZM7.6748 9.60931C7.53178 9.7268 7.35208 9.79088 7.16699 9.79095H3.86426C3.8629 9.79242 3.86097 9.79393 3.85938 9.79584C3.83322 9.8274 3.79982 9.89734 3.7998 9.99408V14.0058C3.7998 14.1025 3.83321 14.1725 3.85938 14.204C3.86096 14.206 3.8629 14.2075 3.86426 14.2089H7.16699L7.30371 14.2206C7.43915 14.2442 7.56738 14.3023 7.6748 14.3906L12.1982 18.1074C12.1984 18.104 12.2002 18.1001 12.2002 18.0966V5.90326C12.2002 5.89943 12.1984 5.89525 12.1982 5.89154L7.6748 9.60931ZM15.5 9.20013C16.3075 9.20013 17.0348 9.6021 17.5391 10.2324C18.0396 10.858 18.2998 11.6754 18.2998 12.4999L18.2881 12.8085C18.2314 13.5259 17.977 14.2201 17.5391 14.7675C17.0348 15.3978 16.3076 15.7997 15.5 15.7997C15.0582 15.7997 14.7002 15.4418 14.7002 14.9999C14.7002 14.5581 15.0582 14.2001 15.5 14.2001C15.7533 14.2001 16.0431 14.0749 16.2891 13.7675C16.5075 13.4945 16.6582 13.1127 16.6924 12.6855L16.7002 12.4999C16.7002 11.9985 16.5387 11.5444 16.2891 11.2324C16.0432 10.925 15.7533 10.7997 15.5 10.7997C15.0582 10.7997 14.7002 10.4418 14.7002 9.99994C14.7002 9.55815 15.0582 9.20013 15.5 9.20013Z" fill="#111111"/>
</svg>
