<svg width="24" height="24" viewBox="0 0 24 24" fill="none" xmlns="http://www.w3.org/2000/svg">
<path d="M1.42909 4.58527C1.73845 4.26982 2.2445 4.26517 2.55995 4.57452L17.7055 19.4271C18.0204 19.7364 18.0263 20.2426 17.7172 20.5579C17.408 20.8732 16.9018 20.8776 16.5863 20.5687L13.3685 17.4124V18.9153C13.3682 19.2035 13.2132 19.4699 12.9623 19.6116C12.6829 19.7693 12.3572 19.8339 12.0316 19.7835C11.7317 19.7369 11.465 19.5974 11.2533 19.4026L6.88222 15.8099H3.83339C3.34764 15.8098 2.91916 15.5755 2.62929 15.2269C2.34304 14.8823 2.20067 14.4412 2.20058 14.0062V10.4954C2.20063 9.77673 2.78367 9.19358 3.50233 9.19464L4.99062 9.19659L1.44081 5.71613C1.12546 5.40687 1.12004 4.90074 1.42909 4.58527ZM17.0004 6.7005C18.3382 6.70064 19.5743 7.36618 20.4535 8.46515C21.3288 9.55956 21.8002 11.013 21.8002 12.5003L21.7953 12.7786C21.7403 14.1679 21.2743 15.5095 20.4535 16.5355C19.9595 17.153 19.3539 17.6335 18.6771 17.9368C18.2741 18.1174 17.8004 17.9373 17.6195 17.5345C17.4389 17.1313 17.6197 16.6575 18.0228 16.4769C18.4476 16.2865 18.8552 15.973 19.2045 15.5364C19.79 14.8046 20.1524 13.8 20.1957 12.7181L20.2006 12.5003C20.2006 11.336 19.8289 10.245 19.2045 9.46417C18.5836 8.68816 17.784 8.30025 17.0004 8.30011C16.5587 8.30009 16.2008 7.94192 16.2006 7.50031C16.2006 7.05854 16.5586 6.70052 17.0004 6.7005ZM15.5004 9.2005C16.3077 9.20064 17.0353 9.60259 17.5394 10.2327C18.0397 10.8583 18.3002 11.676 18.3002 12.5003L18.2885 12.8089C18.2317 13.5261 17.9773 14.2206 17.5394 14.7679C17.1974 15.1954 16.7537 15.5181 16.2465 15.6819C15.8262 15.8176 15.3746 15.5865 15.2387 15.1663C15.1034 14.7461 15.3342 14.2953 15.7543 14.1595C15.9327 14.1018 16.1222 13.9769 16.2894 13.7679C16.5078 13.4949 16.6585 13.1129 16.6928 12.6859L16.7006 12.5003C16.7006 11.9991 16.5388 11.5447 16.2894 11.2327C16.0437 10.9256 15.7536 10.8002 15.5004 10.8001C15.0587 10.8001 14.7008 10.4419 14.7006 10.0003C14.7006 9.55854 15.0586 9.20052 15.5004 9.2005ZM12.1537 4.20343C12.3972 4.18689 12.6374 4.23378 12.8549 4.33429L12.9623 4.38898L13.0629 4.45148C13.2902 4.60448 13.4686 4.81309 13.5912 5.04523C13.7311 5.31059 13.8003 5.60851 13.8002 5.90363V12.0003C13.8 12.4418 13.4419 12.7999 13.0004 12.8001C12.7547 12.8001 12.5367 12.6872 12.39 12.513C12.2999 12.4745 12.2128 12.4196 12.1351 12.3421L7.94081 8.14777C7.55514 7.76161 7.6606 7.11064 8.14882 6.86652L8.20253 6.83917L11.2631 4.58917C11.4733 4.39894 11.736 4.26301 12.0316 4.2171L12.1537 4.20343Z" fill="black"/>
</svg>
