<svg width="24" height="24" viewBox="0 0 24 24" fill="none" xmlns="http://www.w3.org/2000/svg">
<path d="M15.9531 4.20331C16.1967 4.1867 16.4367 4.23361 16.6543 4.33417L16.7617 4.38885L16.8623 4.45135C17.0897 4.60436 17.268 4.8129 17.3906 5.0451C17.5306 5.31047 17.5997 5.60836 17.5996 5.9035V18.0969L17.5869 18.3176C17.5609 18.5382 17.4957 18.7561 17.3906 18.9553C17.2504 19.2207 17.0379 19.4556 16.7617 19.6115C16.4823 19.7692 16.1567 19.8338 15.8311 19.7834C15.531 19.7368 15.2645 19.5973 15.0527 19.4025L10.6816 15.8098H7.63281C7.14696 15.8096 6.71859 15.5755 6.42871 15.2267C6.1425 14.8822 6.0001 14.441 6 14.006V9.99432C6.00005 9.55932 6.14252 9.11824 6.42871 8.77362C6.71859 8.42477 7.1469 8.19072 7.63281 8.19061H10.6816L15.0566 4.59491C15.2678 4.40178 15.5326 4.26334 15.8311 4.21698L15.9531 4.20331Z" fill="#111111"/>
</svg>
