<svg width="24" height="24" viewBox="0 0 24 24" fill="none" xmlns="http://www.w3.org/2000/svg">
<path d="M12.1533 4.20245C12.3969 4.18585 12.6369 4.23282 12.8545 4.33331L12.9619 4.388L13.0625 4.4505C13.2899 4.60344 13.4682 4.81212 13.5908 5.04425C13.7308 5.30957 13.7998 5.60753 13.7998 5.90265V18.097L13.7871 18.3177C13.7611 18.5383 13.6959 18.7562 13.5908 18.9554C13.4506 19.2208 13.2381 19.4557 12.9619 19.6116C12.6825 19.7693 12.3569 19.834 12.0312 19.7835C11.7312 19.7369 11.4647 19.5975 11.2529 19.4026L6.88184 15.8099H3.83301C3.34717 15.8098 2.91879 15.5756 2.62891 15.2269C2.34269 14.8823 2.2003 14.4411 2.2002 14.0062V9.99347C2.20034 9.5585 2.34267 9.11731 2.62891 8.77277C2.91879 8.42406 3.34722 8.18986 3.83301 8.18976H6.88184L11.2568 4.59406C11.468 4.40102 11.7329 4.26246 12.0312 4.21613L12.1533 4.20245ZM17 6.7005C18.3379 6.7005 19.5738 7.36608 20.4531 8.46515C21.3285 9.55956 21.7998 11.0129 21.7998 12.5003C21.7997 13.9877 21.3285 15.4411 20.4531 16.5355C19.5738 17.6344 18.3379 18.3001 17 18.3001C16.5583 18.3001 16.2005 17.9419 16.2002 17.5003C16.2003 17.0586 16.5582 16.7005 17 16.7005C17.7836 16.7005 18.5832 16.3125 19.2041 15.5364C19.8287 14.7557 20.2001 13.6646 20.2002 12.5003C20.2002 11.3359 19.8286 10.245 19.2041 9.46417C18.5831 8.68804 17.7837 8.30011 17 8.30011C16.5583 8.30011 16.2005 7.94191 16.2002 7.50031C16.2003 7.05856 16.5582 6.7005 17 6.7005ZM15.5 9.2005C16.3075 9.2005 17.0348 9.6025 17.5391 10.2327C18.0394 10.8583 18.2998 11.676 18.2998 12.5003L18.2881 12.8089C18.2313 13.526 17.9768 14.2206 17.5391 14.7679C17.0348 15.398 16.3074 15.8001 15.5 15.8001C15.0583 15.8001 14.7005 15.4419 14.7002 15.0003C14.7003 14.5586 15.0582 14.2005 15.5 14.2005C15.7532 14.2005 16.0432 14.0751 16.2891 13.7679C16.5074 13.4949 16.6581 13.1129 16.6924 12.6859L16.7002 12.5003C16.7002 11.999 16.5385 11.5447 16.2891 11.2327C16.0432 10.9254 15.7533 10.8001 15.5 10.8001C15.0583 10.8001 14.7005 10.4419 14.7002 10.0003C14.7003 9.55856 15.0582 9.2005 15.5 9.2005Z" fill="#111111"/>
</svg>
