<svg width="24" height="24" viewBox="0 0 24 24" fill="none" xmlns="http://www.w3.org/2000/svg">
<path fill-rule="evenodd" clip-rule="evenodd" d="M5.36568 5.3657C4.27009 6.46129 3.8 8.3943 3.8 12C3.8 15.6057 4.27009 17.5387 5.36568 18.6343C6.46128 19.7299 8.39428 20.2 12 20.2C15.6057 20.2 17.5387 19.7299 18.6343 18.6343C19.7299 17.5387 20.2 15.6057 20.2 12C20.2 8.3943 19.7299 6.46129 18.6343 5.3657C17.5387 4.2701 15.6057 3.80001 12 3.80001C8.39428 3.80001 6.46128 4.2701 5.36568 5.3657ZM4.23431 4.23433C5.83872 2.62992 8.40571 2.20001 12 2.20001C15.5943 2.20001 18.1613 2.62992 19.7657 4.23433C21.3701 5.83873 21.8 8.40573 21.8 12C21.8 15.5943 21.3701 18.1613 19.7657 19.7657C18.1613 21.3701 15.5943 21.8 12 21.8C8.40571 21.8 5.83872 21.3701 4.23431 19.7657C2.62991 18.1613 2.2 15.5943 2.2 12C2.2 8.40573 2.62991 5.83873 4.23431 4.23433Z" fill="#111111"/>
<path fill-rule="evenodd" clip-rule="evenodd" d="M8.2 12C8.2 11.5582 8.55817 11.2 9 11.2H15C15.4418 11.2 15.8 11.5582 15.8 12C15.8 12.4418 15.4418 12.8 15 12.8H9C8.55817 12.8 8.2 12.4418 8.2 12Z" fill="#111111"/>
<path fill-rule="evenodd" clip-rule="evenodd" d="M12 8.20001C12.4418 8.20001 12.8 8.55818 12.8 9.00001V15C12.8 15.4418 12.4418 15.8 12 15.8C11.5582 15.8 11.2 15.4418 11.2 15V9.00001C11.2 8.55818 11.5582 8.20001 12 8.20001Z" fill="#111111"/>
</svg>
