<svg width="24" height="24" viewBox="0 0 24 24" fill="none" xmlns="http://www.w3.org/2000/svg">
<path fill-rule="evenodd" clip-rule="evenodd" d="M20 8.79998C19.5582 8.79998 19.2 8.44181 19.2 7.99998L19.2 5.99998C19.2 5.68172 19.0736 5.3765 18.8486 5.15146C18.6235 4.92641 18.3183 4.79998 18 4.79998L6.00004 4.79998C5.68178 4.79998 5.37656 4.92641 5.15151 5.15145C4.92647 5.3765 4.80004 5.68172 4.80004 5.99998L4.80004 7.99998C4.80004 8.44181 4.44187 8.79998 4.00004 8.79998C3.55821 8.79998 3.20004 8.44181 3.20004 7.99998L3.20004 5.99998C3.20004 5.25738 3.49504 4.54518 4.02014 4.02008C4.54525 3.49498 5.25743 3.19998 6.00004 3.19998L18 3.19998C18.7426 3.19998 19.4548 3.49498 19.9799 4.02008C20.505 4.54519 20.8 5.25738 20.8 5.99998V7.99998C20.8 8.44181 20.4419 8.79998 20 8.79998Z" fill="#111111"/>
<path fill-rule="evenodd" clip-rule="evenodd" d="M17.5657 14.5657C17.2533 14.8781 16.7468 14.8781 16.4344 14.5657L12 10.1314L7.56573 14.5657C7.25331 14.8781 6.74677 14.8781 6.43436 14.5657C6.12194 14.2532 6.12194 13.7467 6.43436 13.4343L11.4344 8.4343C11.7468 8.12188 12.2533 8.12188 12.5657 8.4343L17.5657 13.4343C17.8781 13.7467 17.8781 14.2533 17.5657 14.5657Z" fill="#111111"/>
<path fill-rule="evenodd" clip-rule="evenodd" d="M12.0001 21.8C11.5582 21.8 11.2001 21.4418 11.2001 21L11.2001 9.00001C11.2001 8.55818 11.5582 8.20001 12.0001 8.20001C12.4419 8.20001 12.8001 8.55819 12.8001 9.00001L12.8001 21C12.8001 21.4418 12.4419 21.8 12.0001 21.8Z" fill="#111111"/>
</svg>
