<svg width="24" height="24" viewBox="0 0 24 24" fill="none" xmlns="http://www.w3.org/2000/svg">
<path fill-rule="evenodd" clip-rule="evenodd" d="M5.6059 3.6059C6.50607 2.70572 7.72697 2.20001 9.00001 2.20001C10.2731 2.20001 11.4939 2.70572 12.3941 3.6059C13.2943 4.50607 13.8 5.72697 13.8 7.00001C13.8 8.27305 13.2943 9.49395 12.3941 10.3941C11.4939 11.2943 10.2731 11.8 9.00001 11.8C7.72697 11.8 6.50607 11.2943 5.6059 10.3941C4.70572 9.49395 4.20001 8.27305 4.20001 7.00001C4.20001 5.72697 4.70572 4.50607 5.6059 3.6059ZM9.00001 3.80001C8.15132 3.80001 7.33739 4.13715 6.73727 4.73727C6.13715 5.33739 5.80001 6.15132 5.80001 7.00001C5.80001 7.84871 6.13715 8.66264 6.73727 9.26275C7.33739 9.86287 8.15132 10.2 9.00001 10.2C9.84871 10.2 10.6626 9.86287 11.2628 9.26275C11.8629 8.66264 12.2 7.84871 12.2 7.00001C12.2 6.15132 11.8629 5.33739 11.2628 4.73727C10.6626 4.13715 9.84871 3.80001 9.00001 3.80001Z" fill="#111111"/>
<path fill-rule="evenodd" clip-rule="evenodd" d="M7.00001 15.8C6.15132 15.8 5.33739 16.1372 4.73727 16.7373C4.13715 17.3374 3.80001 18.1513 3.80001 19V21C3.80001 21.4418 3.44184 21.8 3.00001 21.8C2.55818 21.8 2.20001 21.4418 2.20001 21V19C2.20001 17.727 2.70572 16.5061 3.6059 15.6059C4.50607 14.7057 5.72697 14.2 7.00001 14.2H11C12.1514 14.2 13.2086 14.6062 14.0358 15.2812C14.3781 15.5605 14.4292 16.0644 14.1499 16.4068C13.8705 16.7491 13.3666 16.8002 13.0243 16.5209C12.4715 16.0698 11.7686 15.8 11 15.8H7.00001Z" fill="#111111"/>
<path fill-rule="evenodd" clip-rule="evenodd" d="M15.225 2.93158C15.3346 2.50356 15.7704 2.24542 16.1984 2.35501C17.2309 2.61937 18.1461 3.21985 18.7996 4.06178C19.4531 4.90372 19.8079 5.93921 19.8079 7.00501C19.8079 8.07082 19.4531 9.10631 18.7996 9.94824C18.1461 10.7902 17.2309 11.3907 16.1984 11.655C15.7704 11.7646 15.3346 11.5065 15.225 11.0784C15.1154 10.6504 15.3736 10.2146 15.8016 10.105C16.4899 9.92877 17.1 9.52845 17.5357 8.96716C17.9714 8.40588 18.2079 7.71555 18.2079 7.00501C18.2079 6.29448 17.9714 5.60415 17.5357 5.04286C17.1 4.48157 16.4899 4.08125 15.8016 3.90501C15.3736 3.79542 15.1154 3.3596 15.225 2.93158Z" fill="#111111"/>
<path fill-rule="evenodd" clip-rule="evenodd" d="M15.2 19C15.2 18.5582 15.5582 18.2 16 18.2H22C22.4418 18.2 22.8 18.5582 22.8 19C22.8 19.4418 22.4418 19.8 22 19.8H16C15.5582 19.8 15.2 19.4418 15.2 19Z" fill="#111111"/>
<path fill-rule="evenodd" clip-rule="evenodd" d="M19 15.2C19.4418 15.2 19.8 15.5582 19.8 16V22C19.8 22.4418 19.4418 22.8 19 22.8C18.5582 22.8 18.2 22.4418 18.2 22V16C18.2 15.5582 18.5582 15.2 19 15.2Z" fill="#111111"/>
</svg>
