<svg width="16" height="16" viewBox="0 0 16 16" fill="none" xmlns="http://www.w3.org/2000/svg">
<path d="M2.7998 15.1C1.25798 15.1 -5.49879e-08 13.842 -1.22383e-07 12.3002L-5.59497e-07 2.30017C-5.82442e-07 1.77525 0.139017 1.31679 0.421874 0.927124C0.624609 0.647871 0.879616 0.434024 1.14453 0.261108L1.41113 0.100952L1.48437 0.0648193C1.85686 -0.0954915 2.2977 0.049467 2.49902 0.411499C2.70032 0.773625 2.59073 1.22467 2.25781 1.45642L2.18848 1.49939L2.0166 1.60291C1.865 1.70218 1.77381 1.78901 1.7168 1.86755C1.65346 1.95487 1.59961 2.07525 1.59961 2.30017L1.59961 12.3002C1.59961 12.9583 2.14163 13.5004 2.7998 13.5004L12.7979 13.5004L12.9561 13.4896C13.1126 13.4685 13.264 13.4163 13.4014 13.3363C13.5847 13.2295 13.7367 13.0763 13.8418 12.892C14.0606 12.5082 14.5488 12.3746 14.9326 12.5931C15.3164 12.8119 15.4501 13.3001 15.2314 13.684C14.9869 14.113 14.6337 14.4705 14.207 14.7191C13.8337 14.9366 13.4158 15.0648 12.9863 15.0941L12.8018 15.1L2.7998 15.1Z" fill="#111111"/>
</svg>
