<svg width="16" height="16" viewBox="0 0 16 16" fill="none" xmlns="http://www.w3.org/2000/svg">
<path d="M3.2832 1.6084C3.10099 1.6264 2.92173 1.67186 2.75195 1.74219C2.52561 1.83601 2.31974 1.97322 2.14648 2.14648C1.97322 2.31974 1.83601 2.5256 1.74219 2.75195C1.67186 2.92173 1.6264 3.10099 1.6084 3.2832L1.59961 3.4668L1.59961 12.1328C1.59961 12.628 1.79636 13.103 2.14648 13.4531C2.49661 13.8033 2.97164 14 3.4668 14L12.1328 14C12.378 14 12.6211 13.9512 12.8477 13.8574C13.074 13.7636 13.2799 13.6264 13.4531 13.4531C13.6264 13.2799 13.7636 13.074 13.8574 12.8477C13.9512 12.6211 14 12.378 14 12.1328L14 3.4668L13.9912 3.2832C13.9732 3.10099 13.9277 2.92173 13.8574 2.75195C13.7636 2.52561 13.6264 2.31975 13.4531 2.14648C13.2799 1.97322 13.074 1.83601 12.8477 1.74219C12.6779 1.67186 12.4986 1.6264 12.3164 1.6084L12.1328 1.59961L3.4668 1.59961L3.2832 1.6084ZM12.1328 -5.30342e-07L12.3037 0.00390571C12.7006 0.0234942 13.092 0.111271 13.46 0.263671C13.8805 0.437903 14.2621 0.693767 14.584 1.01562C14.9058 1.33748 15.1617 1.71914 15.3359 2.13965C15.4883 2.50757 15.5761 2.89899 15.5957 3.2959L15.5996 3.4668L15.5996 12.1328C15.5996 12.5881 15.5102 13.0393 15.3359 13.46C15.1617 13.8805 14.9058 14.2621 14.584 14.584C14.2621 14.9058 13.8805 15.1617 13.46 15.3359C13.0393 15.5102 12.5881 15.5996 12.1328 15.5996L3.4668 15.5996C2.54729 15.5996 1.66581 15.2342 1.01562 14.584C0.365438 13.9338 1.90927e-06 13.0523 -1.51539e-07 12.1328L-5.30342e-07 3.4668L0.00390571 3.2959C0.0234941 2.89899 0.111272 2.50757 0.263671 2.13965C0.437901 1.71914 0.693766 1.33748 1.01562 1.01562C1.33748 0.693767 1.71914 0.437902 2.13965 0.263672C2.56028 0.0894393 3.01151 8.22037e-07 3.4668 -1.51539e-07L12.1328 -5.30342e-07Z" fill="#111111"/>
</svg>
