<svg width="24" height="24" viewBox="0 0 24 24" fill="none" xmlns="http://www.w3.org/2000/svg">
<g clip-path="url(#clip0_1559_12)">
<path d="M12.999 5.19922C13.7416 5.19922 14.4534 5.49443 14.9785 6.01953C15.5036 6.54463 15.7988 7.25642 15.7988 7.99902V8.70703L19.1943 7.00977L19.4053 6.9209C19.6212 6.84546 19.8502 6.81191 20.0801 6.82227C20.3864 6.83608 20.6844 6.92768 20.9453 7.08887C21.2061 7.25006 21.4219 7.47541 21.5713 7.74316C21.7206 8.01091 21.7987 8.31258 21.7988 8.61914V15.3838L21.7842 15.6123C21.7551 15.839 21.6833 16.059 21.5713 16.2598C21.4219 16.5275 21.2061 16.7529 20.9453 16.9141C20.6844 17.0752 20.3864 17.1678 20.0801 17.1816C19.8502 17.192 19.6212 17.1575 19.4053 17.082L19.1943 16.9932L15.7988 15.2949V15.999C15.7988 16.7416 15.5036 17.4534 14.9785 17.9785C14.4534 18.5036 13.7416 18.7988 12.999 18.7988H4.99902C4.25642 18.7988 3.54463 18.5036 3.01953 17.9785C2.49443 17.4534 2.19922 16.7416 2.19922 15.999V7.99902C2.19922 7.25642 2.49443 6.54463 3.01953 6.01953C3.54463 5.49443 4.25642 5.19922 4.99902 5.19922H12.999ZM4.99902 6.79883C4.68076 6.79883 4.37543 6.92535 4.15039 7.15039C3.92535 7.37543 3.79883 7.68076 3.79883 7.99902V15.999C3.79883 16.3173 3.92535 16.6226 4.15039 16.8477C4.37543 17.0727 4.68076 17.1992 4.99902 17.1992H12.999C13.3173 17.1992 13.6226 17.0727 13.8477 16.8477C14.0727 16.6226 14.1992 16.3173 14.1992 15.999V7.99902C14.1992 7.68076 14.0727 7.37543 13.8477 7.15039C13.6506 6.95337 13.3921 6.83187 13.1172 6.80469L12.999 6.79883H4.99902ZM20.0078 8.41992C19.9738 8.41843 19.9396 8.42523 19.9092 8.44043L15.7988 10.4951V13.5068L19.9102 15.5615C19.9405 15.5766 19.974 15.5845 20.0078 15.583C20.0418 15.5815 20.0755 15.5706 20.1045 15.5527C20.1332 15.5349 20.1573 15.51 20.1738 15.4805C20.1903 15.451 20.1991 15.4176 20.1992 15.3838V8.62012L20.1924 8.56934C20.1881 8.55315 20.182 8.53719 20.1738 8.52246C20.1573 8.49288 20.1333 8.46807 20.1045 8.4502C20.0755 8.43228 20.0419 8.42146 20.0078 8.41992Z" fill="#111111"/>
</g>
<defs>
<clipPath id="clip0_1559_12">
<rect width="24" height="24" fill="white"/>
</clipPath>
</defs>
</svg>
