<svg width="24" height="24" viewBox="0 0 24 24" fill="none" xmlns="http://www.w3.org/2000/svg">
<path fill-rule="evenodd" clip-rule="evenodd" d="M10.6679 2.21718C11.0745 1.98811 11.5333 1.86777 12 1.86777C12.4667 1.86777 12.9255 1.98811 13.3321 2.21718C13.7387 2.44625 14.0794 2.7763 14.3212 3.17545L14.3233 3.17897L22.4361 16.7263C22.6727 17.1366 22.7977 17.6017 22.7989 18.0754C22.8001 18.549 22.6773 19.0147 22.4427 19.4262C22.2082 19.8376 21.87 20.1806 21.4619 20.4209C21.0537 20.6612 20.5898 20.7905 20.1162 20.7959L20.107 20.796L3.88401 20.796C3.4102 20.7907 2.94604 20.6613 2.5377 20.421C2.12936 20.1806 1.79107 19.8375 1.55647 19.4258C1.32188 19.0141 1.19915 18.5482 1.20051 18.0743C1.20187 17.6005 1.32726 17.1353 1.56421 16.7249L1.57059 16.7139L9.66239 3.20379C9.66765 3.19425 9.67311 3.1848 9.67878 3.17545C9.9206 2.7763 10.2613 2.44625 10.6679 2.21718ZM12 3.46777C11.8084 3.46777 11.6201 3.51716 11.4532 3.61119C11.2926 3.7017 11.157 3.83061 11.0585 3.98626C11.0555 3.99156 11.0524 3.99682 11.0493 4.00205L2.94704 17.5298C2.85156 17.6971 2.80106 17.8863 2.80051 18.0789C2.79995 18.2734 2.85032 18.4647 2.94661 18.6336C3.04291 18.8026 3.18177 18.9435 3.34937 19.0421C3.51588 19.1401 3.705 19.1932 3.89816 19.196H20.1017C20.2947 19.1931 20.4837 19.1401 20.6501 19.0421C20.8176 18.9435 20.9564 18.8027 21.0527 18.6338C21.149 18.4649 21.1994 18.2737 21.1989 18.0793C21.1984 17.8868 21.1481 17.6977 21.0528 17.5305L12.9528 4.00452L12.9518 4.00296C12.8526 3.83983 12.7132 3.70491 12.5468 3.61119C12.3799 3.51716 12.1916 3.46777 12 3.46777Z" fill="#111111"/>
<path fill-rule="evenodd" clip-rule="evenodd" d="M12.8097 16C12.8097 16.4418 12.4515 16.8 12.0097 16.8H11.9997C11.5578 16.8 11.1997 16.4418 11.1997 16C11.1997 15.5582 11.5578 15.2 11.9997 15.2H12.0097C12.4515 15.2 12.8097 15.5582 12.8097 16Z" fill="#111111"/>
<path fill-rule="evenodd" clip-rule="evenodd" d="M12.0097 13.8C11.5678 13.8 11.2097 13.4419 11.2097 13V9.00003C11.2097 8.5582 11.5678 8.20003 12.0097 8.20003C12.4515 8.20003 12.8097 8.5582 12.8097 9.00003V13C12.8097 13.4419 12.4515 13.8 12.0097 13.8Z" fill="#111111"/>
</svg>
