<svg width="24" height="24" viewBox="0 0 24 24" fill="none" xmlns="http://www.w3.org/2000/svg">
<path fill-rule="evenodd" clip-rule="evenodd" d="M11.2 18C11.2 17.5582 11.5582 17.2 12 17.2H12.01C12.4518 17.2 12.81 17.5582 12.81 18C12.81 18.4418 12.4518 18.8 12.01 18.8H12C11.5582 18.8 11.2 18.4418 11.2 18Z" fill="#111111"/>
<path fill-rule="evenodd" clip-rule="evenodd" d="M12 14.8009C11.1515 14.8009 10.3377 15.1379 9.73759 15.7378C9.42513 16.0502 8.9186 16.0501 8.60622 15.7376C8.29385 15.4251 8.29393 14.9186 8.60639 14.6062C9.50653 13.7064 10.7272 13.2009 12 13.2009C13.2728 13.2009 14.4935 13.7064 15.3936 14.6062C15.7061 14.9186 15.7061 15.4251 15.3938 15.7376C15.0814 16.0501 14.5749 16.0502 14.2624 15.7378C13.6623 15.1379 12.8485 14.8009 12 14.8009Z" fill="#111111"/>
<path fill-rule="evenodd" clip-rule="evenodd" d="M12 10.7998C11.0545 10.7998 10.1182 10.986 9.24459 11.3479C8.37102 11.7097 7.57729 12.2401 6.9087 12.9087C6.59629 13.2212 6.08976 13.2212 5.77733 12.9088C5.4649 12.5963 5.46489 12.0898 5.7773 11.7774C6.59446 10.9602 7.56459 10.3119 8.63228 9.86967C9.69998 9.4274 10.8443 9.19977 12 9.19977C13.1557 9.19977 14.3 9.4274 15.3677 9.86967C16.4354 10.3119 17.4055 10.9602 18.2227 11.7774C18.5351 12.0898 18.5351 12.5963 18.2227 12.9088C17.9102 13.2212 17.4037 13.2212 17.0913 12.9087C16.4227 12.2401 15.629 11.7097 14.7554 11.3479C13.8818 10.986 12.9455 10.7998 12 10.7998Z" fill="#111111"/>
<path fill-rule="evenodd" clip-rule="evenodd" d="M19.9511 10.0824C15.5461 5.70455 8.45332 5.70714 4.08074 10.0806C3.76836 10.3931 3.26182 10.3931 2.94937 10.0808C2.63692 9.76838 2.63686 9.26185 2.94925 8.94939C7.94868 3.9489 16.0519 3.95149 21.0789 8.94759C21.3923 9.25904 21.3939 9.76557 21.0824 10.079C20.771 10.3923 20.2644 10.3939 19.9511 10.0824Z" fill="#111111"/>
</svg>
