<svg xmlns="http://www.w3.org/2000/svg" viewBox="0 0 96 96" width="96" height="96" fill="none">
  <rect width="96" height="96" fill="#161616" rx="12"/>
  <path fill="#fff" fill-rule="evenodd" d="M46.0262 73.2824c10.3468 0 18.6444-8.5364 18.6444-19.5872v.0126c0-10.8874-8.2976-19.5118-18.6444-19.5118-4.2367 0-7.7569 1.1063-10.661 2.9795V16.8843l-10.8874 6.1854v49.4332h10.8874v-2.2001c2.9041 1.8858 6.4368 2.9796 10.661 2.9796ZM44.2159 43.449c5.6448 0 9.7181 4.7774 9.7181 10.2588 0 5.5568-4.0733 10.4222-9.7181 10.4222-3.2059 0-6.4243-1.0938-8.8507-4.3877V47.7612c2.4264-3.2184 5.6448-4.3122 8.8507-4.3122Zm25.9737 29.8334c2.879 0 5.2048-2.3258 5.2048-5.2048 0-2.879-2.3258-5.2049-5.2048-5.2049-2.879 0-5.2048 2.3259-5.2048 5.2049 0 2.879 2.3258 5.2048 5.2048 5.2048ZM20.4925 70.441h-.1383v2.0367h.1508V70.705l.8046 1.1692.8046-1.1692v1.7727h.1509V70.441h-.1383l-.8172 1.2069-.8171-1.2069Zm-2.175.1512h.704v1.8984h.1509v-1.8984h.7166v-.1383h-1.5715v.1383Z" clip-rule="evenodd"/>
</svg>
