<svg width="16" height="16" viewBox="0 0 16 16" fill="none" xmlns="http://www.w3.org/2000/svg">
<path d="M10.4788 9.10113C10.764 8.79056 10.9302 8.39545 10.9673 7.98655L10.9754 7.81099V4.8022L11.2665 4.96159C11.7253 5.21139 12.2997 5.04254 12.5497 4.58391C12.7995 4.12516 12.6305 3.55075 12.172 3.3007L10.4822 2.38016C10.1893 2.22064 9.83358 2.22728 9.54669 2.39749C9.25972 2.568 9.08354 2.87795 9.08354 3.21176V5.94912C8.62064 5.97624 8.19664 6.1864 7.89042 6.51969C7.56447 6.87462 7.39377 7.34085 7.39377 7.81099C7.39383 8.28102 7.56455 8.74627 7.89042 9.10113C8.21885 9.45876 8.68292 9.67632 9.18518 9.67632C9.68722 9.67618 10.1505 9.45862 10.4788 9.10113Z" fill="#111111"/>
</svg>
