<svg width="40" height="40" viewBox="0 0 40 40" fill="none" xmlns="http://www.w3.org/2000/svg">
<path d="M19.9998 32.665L19.8973 32.6602C19.8739 32.6578 19.8509 32.6534 19.8279 32.6494C19.8208 32.6482 19.8135 32.6479 19.8065 32.6465C19.7906 32.6434 19.7752 32.6386 19.7596 32.6348C19.7427 32.6306 19.7255 32.6271 19.7088 32.6221C19.6618 32.6078 19.6168 32.5891 19.5731 32.5684C19.5295 32.5478 19.4869 32.5243 19.4461 32.4971C19.391 32.4603 19.3394 32.4187 19.2928 32.3721L9.29279 22.3721C8.90239 21.9815 8.90234 21.3485 9.29279 20.958C9.68327 20.5675 10.3163 20.5676 10.7068 20.958L18.9998 29.251L18.9998 8.33203C18.9998 7.77977 19.4476 7.33207 19.9998 7.33203C20.5521 7.33203 20.9998 7.77974 20.9998 8.33203L20.9998 29.251L29.2928 20.958C29.6833 20.5675 30.3163 20.5676 30.7068 20.958C31.0974 21.3485 31.0974 21.9815 30.7068 22.3721L20.7068 32.3721C20.6606 32.4184 20.6101 32.4605 20.5555 32.4971C20.5163 32.5233 20.4751 32.5453 20.4334 32.5654C20.3881 32.5873 20.3415 32.6072 20.2928 32.6221C20.2725 32.6283 20.2518 32.6328 20.2313 32.6377C20.2199 32.6404 20.2086 32.6432 20.1971 32.6455C20.1951 32.6459 20.1932 32.6461 20.1912 32.6465L20.1024 32.6602C20.0687 32.6636 20.0344 32.665 19.9998 32.665Z" fill="#111111"/>
</svg>
