<svg width="40" height="40" viewBox="0 0 40 40" fill="none" xmlns="http://www.w3.org/2000/svg">
<path d="M32.6666 19.9977L32.6617 20.1002C32.6593 20.1236 32.6549 20.1466 32.651 20.1696C32.6497 20.1767 32.6494 20.184 32.648 20.191C32.6449 20.2069 32.6402 20.2223 32.6363 20.2379C32.6321 20.2548 32.6287 20.272 32.6236 20.2887C32.6094 20.3357 32.5906 20.3807 32.5699 20.4244C32.5493 20.468 32.5259 20.5106 32.4986 20.5514C32.4619 20.6065 32.4203 20.6581 32.3736 20.7047L22.3736 30.7047C21.9831 31.0951 21.3501 31.0952 20.9596 30.7047C20.5691 30.3142 20.5692 29.6812 20.9596 29.2906L29.2525 20.9977L8.33359 20.9977C7.78133 20.9977 7.33363 20.5499 7.33359 19.9977C7.33359 19.4454 7.7813 18.9977 8.33359 18.9977L29.2525 18.9977L20.9596 10.7047C20.5691 10.3142 20.5692 9.68118 20.9596 9.29065C21.3501 8.90012 21.9831 8.90012 22.3736 9.29065L32.3736 19.2906C32.4199 19.3369 32.4621 19.3874 32.4986 19.442C32.5248 19.4812 32.5469 19.5224 32.567 19.5641C32.5888 19.6094 32.6087 19.656 32.6236 19.7047C32.6298 19.725 32.6344 19.7457 32.6393 19.7662C32.6419 19.7776 32.6448 19.7889 32.6471 19.8004C32.6475 19.8024 32.6477 19.8043 32.648 19.8063L32.6617 19.8951C32.6651 19.9288 32.6666 19.9631 32.6666 19.9977Z" fill="#111111"/>
</svg>
