<svg width="40" height="40" viewBox="0 0 40 40" fill="none" xmlns="http://www.w3.org/2000/svg">
<path d="M7.33496 19.9958L7.33984 19.8933C7.34223 19.8699 7.34661 19.8469 7.35059 19.824C7.35182 19.8169 7.35212 19.8096 7.35352 19.8025C7.35662 19.7866 7.36138 19.7712 7.36523 19.7556C7.36941 19.7387 7.37286 19.7216 7.37793 19.7048C7.3922 19.6579 7.41092 19.6129 7.43164 19.5691C7.45224 19.5255 7.47568 19.483 7.50293 19.4421C7.53968 19.387 7.58127 19.3355 7.62793 19.2888L17.6279 9.28882C18.0185 8.89842 18.6515 8.89837 19.042 9.28882C19.4325 9.6793 19.4324 10.3123 19.042 10.7029L10.749 18.9958L31.668 18.9958C32.2202 18.9958 32.6679 19.4436 32.668 19.9958C32.668 20.5481 32.2203 20.9958 31.668 20.9958L10.749 20.9958L19.042 29.2888C19.4325 29.6793 19.4324 30.3123 19.042 30.7029C18.6515 31.0934 18.0185 31.0934 17.6279 30.7029L7.62793 20.7029C7.58165 20.6566 7.53946 20.6061 7.50293 20.5515C7.47671 20.5123 7.45466 20.4712 7.43457 20.4294C7.41273 20.3842 7.39283 20.3376 7.37793 20.2888C7.37174 20.2685 7.36717 20.2478 7.3623 20.2273C7.35962 20.2159 7.35679 20.2046 7.35449 20.1931C7.3541 20.1912 7.35389 20.1892 7.35352 20.1873L7.33984 20.0984C7.33642 20.0647 7.33496 20.0304 7.33496 19.9958Z" fill="#111111"/>
</svg>
