<svg width="40" height="40" viewBox="0 0 40 40" fill="none" xmlns="http://www.w3.org/2000/svg">
<path d="M20.0001 7.33203L20.1026 7.33691C20.126 7.3393 20.149 7.34368 20.1719 7.34766C20.179 7.34889 20.1863 7.34919 20.1934 7.35059C20.2093 7.35369 20.2247 7.35845 20.2403 7.3623C20.2572 7.36648 20.2744 7.36993 20.2911 7.375C20.3381 7.38927 20.3831 7.40799 20.4268 7.42871C20.4704 7.44931 20.5129 7.47275 20.5538 7.5C20.6089 7.53675 20.6604 7.57834 20.7071 7.625L30.7071 17.625C31.0975 18.0155 31.0975 18.6486 30.7071 19.0391C30.3166 19.4295 29.6836 19.4295 29.293 19.0391L21.0001 10.7461V31.665C21.0001 32.2173 20.5523 32.665 20.0001 32.665C19.4478 32.665 19.0001 32.2173 19.0001 31.665V10.7461L10.7071 19.0391C10.3166 19.4295 9.68356 19.4295 9.29303 19.0391C8.90251 18.6485 8.90251 18.0155 9.29303 17.625L19.293 7.625C19.3393 7.57872 19.3898 7.53653 19.4444 7.5C19.4836 7.47378 19.5248 7.45173 19.5665 7.43164C19.6117 7.4098 19.6583 7.3899 19.7071 7.375C19.7274 7.36881 19.7481 7.36424 19.7686 7.35938C19.78 7.35669 19.7913 7.35386 19.8028 7.35156C19.8047 7.35117 19.8067 7.35096 19.8087 7.35059L19.8975 7.33691C19.9312 7.33349 19.9655 7.33203 20.0001 7.33203Z" fill="#111111"/>
</svg>
