<svg width="32" height="32" viewBox="0 0 32 32" fill="none" xmlns="http://www.w3.org/2000/svg">
<path fill-rule="evenodd" clip-rule="evenodd" d="M4.26666 10.6666C4.26666 10.0775 4.74423 9.59998 5.33333 9.59998H26.6667C27.2558 9.59998 27.7333 10.0775 27.7333 10.6666C27.7333 11.2557 27.2558 11.7333 26.6667 11.7333H5.33333C4.74423 11.7333 4.26666 11.2557 4.26666 10.6666Z" fill="#111111"/>
<path fill-rule="evenodd" clip-rule="evenodd" d="M9.6 16C9.6 15.4109 10.0776 14.9333 10.6667 14.9333H21.3333C21.9224 14.9333 22.4 15.4109 22.4 16C22.4 16.5891 21.9224 17.0666 21.3333 17.0666H10.6667C10.0776 17.0666 9.6 16.5891 9.6 16Z" fill="#111111"/>
<path fill-rule="evenodd" clip-rule="evenodd" d="M12.2667 21.3333C12.2667 20.7442 12.7442 20.2666 13.3333 20.2666H18.6667C19.2558 20.2666 19.7333 20.7442 19.7333 21.3333C19.7333 21.9224 19.2558 22.4 18.6667 22.4H13.3333C12.7442 22.4 12.2667 21.9224 12.2667 21.3333Z" fill="#111111"/>
</svg>
