<svg width="32" height="32" viewBox="0 0 32 32" fill="none" xmlns="http://www.w3.org/2000/svg">
<path d="M16.0569 3.00452C16.0139 3.01233 15.9709 3.02405 15.9319 3.03577C15.467 3.14124 15.1389 3.55921 15.1506 4.03577V7.03577C15.1467 7.39514 15.3342 7.73108 15.6467 7.91467C15.9592 8.09436 16.342 8.09436 16.6545 7.91467C16.967 7.73108 17.1545 7.39514 17.1506 7.03577V4.03577C17.1623 3.74671 17.0452 3.46936 16.8381 3.27405C16.6272 3.07483 16.342 2.97717 16.0569 3.00452ZM7.46313 6.53577C7.08813 6.60217 6.78735 6.87561 6.68188 7.23889C6.57641 7.60608 6.68578 7.99671 6.96313 8.25452L9.08813 10.3795C9.33032 10.6764 9.71703 10.8131 10.092 10.7272C10.4631 10.6412 10.7561 10.3483 10.842 9.97717C10.928 9.60217 10.7913 9.21546 10.4944 8.97327L8.36938 6.84827C8.16235 6.62561 7.86157 6.51233 7.55688 6.53577C7.52563 6.53577 7.49438 6.53577 7.46313 6.53577ZM24.5256 6.53577C24.2991 6.56702 24.0881 6.6803 23.9319 6.84827L21.8069 8.97327C21.51 9.21546 21.3733 9.60217 21.4592 9.97717C21.5452 10.3483 21.8381 10.6412 22.2092 10.7272C22.5842 10.8131 22.9709 10.6764 23.2131 10.3795L25.3381 8.25452C25.6506 7.95764 25.7405 7.4928 25.5569 7.10217C25.3694 6.70764 24.9553 6.48108 24.5256 6.53577ZM3.86938 15.0358C3.3186 15.1139 2.93188 15.6256 3.01 16.1764C3.08813 16.7272 3.59985 17.1139 4.15063 17.0358H7.15063C7.51 17.0397 7.84594 16.8522 8.02953 16.5397C8.20922 16.2272 8.20922 15.8444 8.02953 15.5319C7.84594 15.2194 7.51 15.0319 7.15063 15.0358H4.15063C4.11938 15.0358 4.08813 15.0358 4.05688 15.0358C4.02563 15.0358 3.99438 15.0358 3.96313 15.0358C3.93188 15.0358 3.90063 15.0358 3.86938 15.0358ZM24.8694 15.0358C24.3186 15.1139 23.9319 15.6256 24.01 16.1764C24.0881 16.7272 24.5998 17.1139 25.1506 17.0358H28.1506C28.51 17.0397 28.8459 16.8522 29.0295 16.5397C29.2092 16.2272 29.2092 15.8444 29.0295 15.5319C28.8459 15.2194 28.51 15.0319 28.1506 15.0358H25.1506C25.1194 15.0358 25.0881 15.0358 25.0569 15.0358C25.0256 15.0358 24.9944 15.0358 24.9631 15.0358C24.9319 15.0358 24.9006 15.0358 24.8694 15.0358ZM9.68188 21.3795C9.45532 21.4108 9.24438 21.524 9.08813 21.692L6.96313 23.817C6.66625 24.0592 6.52953 24.4459 6.61547 24.8209C6.70141 25.192 6.99438 25.485 7.36547 25.5709C7.74047 25.6569 8.12719 25.5201 8.36938 25.2233L10.4944 23.0983C10.7913 22.8131 10.8811 22.3717 10.7209 21.9928C10.5647 21.6139 10.1858 21.3717 9.77563 21.3795C9.74438 21.3795 9.71313 21.3795 9.68188 21.3795ZM22.3069 21.3795C21.9319 21.4459 21.6311 21.7194 21.5256 22.0826C21.4202 22.4498 21.5295 22.8405 21.8069 23.0983L23.9319 25.2233C24.1741 25.5201 24.5608 25.6569 24.9358 25.5709C25.3069 25.485 25.5998 25.192 25.6858 24.8209C25.7717 24.4459 25.635 24.0592 25.3381 23.817L23.2131 21.692C23.0256 21.4928 22.7678 21.3834 22.4944 21.3795C22.4631 21.3795 22.4319 21.3795 22.4006 21.3795C22.3694 21.3795 22.3381 21.3795 22.3069 21.3795Z" fill="#111111"/>
<path fill-rule="evenodd" clip-rule="evenodd" d="M19.1506 27.2858C19.1506 27.6998 18.8108 28.0358 18.4006 28.0358H17.7756C17.4475 28.61 16.8577 29.0045 16.1506 29.0045C15.4436 29.0045 14.8538 28.61 14.5256 28.0358H13.9006C13.4905 28.0358 13.1506 27.6998 13.1506 27.2858V25.7858C13.1506 25.3717 13.4905 25.0358 13.9006 25.0358H18.4006C18.8108 25.0358 19.1506 25.3717 19.1506 25.7858V27.2858ZM13.1819 23.2858C13.1819 23.6854 13.5082 24.0182 13.9006 24.0351C13.911 24.0355 13.9214 24.0358 13.9319 24.0358H18.3694C18.3798 24.0358 18.3903 24.0355 18.4006 24.0351C18.7931 24.0182 19.1194 23.6854 19.1194 23.2858V22.8795C19.1194 22.1749 19.6106 21.442 20.1847 20.5853C20.992 19.3809 21.9631 17.9319 21.9631 15.9733C21.9631 12.7623 19.3616 10.1608 16.1506 10.1608C12.9397 10.1608 10.3381 12.7623 10.3381 15.9733C10.3381 17.8942 11.3036 19.3471 12.1094 20.5597C12.6866 21.4283 13.1819 22.1736 13.1819 22.8795V23.2858ZM17.2185 22.0358C17.3559 21.4439 17.6116 20.9404 17.8286 20.5619C18.04 20.193 18.3284 19.7622 18.5781 19.3891C18.6829 19.2326 18.7808 19.0863 18.8635 18.9589C19.5205 17.9462 19.9631 17.051 19.9631 15.9733C19.9631 13.8669 18.257 12.1608 16.1506 12.1608C14.0443 12.1608 12.3381 13.8669 12.3381 15.9733C12.3381 17.021 12.7773 17.9151 13.4411 18.9449C13.5235 19.0728 13.62 19.2182 13.7229 19.3732C13.974 19.7515 14.2629 20.1866 14.4764 20.5624C14.6917 20.9412 14.9459 21.4452 15.0827 22.0358H17.2185Z" fill="#111111"/>
</svg>
