<svg width="32" height="32" viewBox="0 0 32 32" fill="none" xmlns="http://www.w3.org/2000/svg">
<path d="M12.3635 6.51615C13.3279 5.54538 14.636 5 16 5C17.364 5 18.6721 5.54538 19.6365 6.51615C20.601 7.48693 21.1429 8.80359 21.1429 10.1765C21.1429 11.5494 20.601 12.866 19.6365 13.8368C18.6721 14.8076 17.364 15.3529 16 15.3529C14.636 15.3529 13.3279 14.8076 12.3635 13.8368C11.399 12.866 10.8571 11.5494 10.8571 10.1765C10.8571 8.80359 11.399 7.48693 12.3635 6.51615Z" fill="#111111"/>
<path d="M7 19.8141C7 18.7788 7.8322 17.9412 8.86077 17.9412H23.1392C24.1678 17.9412 25 18.7788 25 19.8141V21.5025C25 24.3794 21.3524 27 16 27C10.6476 27 7 24.3794 7 21.5025V19.8141Z" fill="#111111"/>
</svg>
