<svg width="32" height="32" viewBox="0 0 32 32" fill="none" xmlns="http://www.w3.org/2000/svg">
<path fill-rule="evenodd" clip-rule="evenodd" d="M26.1387 21.6369L25.209 20.8362C23.6621 19.5119 22.0879 18.7073 20.5606 20.0315L19.6465 20.8284C19.5738 20.8917 19.4944 20.9802 19.4043 21.0805C18.6662 21.9027 17.2141 23.5201 12.9355 18.594C8.64933 13.6695 10.4661 12.4567 11.3829 11.8446C11.493 11.7711 11.5901 11.7063 11.6621 11.6448L12.5801 10.844C14.0996 9.51976 13.5254 7.85179 12.4277 6.13304L11.7676 5.09398C10.666 3.38304 9.46289 2.25804 7.93946 3.57836L7.11524 4.30101C6.43946 4.78929 4.55664 6.38695 4.09961 9.4182C3.54883 13.0549 5.28711 17.2229 9.25977 21.7932C13.2285 26.3674 17.1191 28.6643 20.7988 28.6252C23.8574 28.5901 25.709 26.9494 26.2871 26.3518L27.1113 25.6291C28.6348 24.3088 27.6895 22.9612 26.1387 21.6369ZM20.7764 26.6254C17.9715 26.6546 14.594 24.8894 10.7704 20.4825L10.7692 20.4811C6.93869 16.0743 5.65745 12.4883 6.07706 9.71768L6.07726 9.71638C6.422 7.42992 7.83315 6.24973 8.28656 5.92212L8.36292 5.86695L9.24362 5.09477C9.29437 5.14107 9.35634 5.20277 9.4292 5.2841C9.6228 5.50024 9.83932 5.79392 10.0828 6.17175L10.7396 7.20556L10.7422 7.20952C11.2534 8.01005 11.4611 8.53702 11.4982 8.8628C11.5128 8.99062 11.4955 9.04575 11.486 9.07032C11.4765 9.09493 11.4367 9.1875 11.2661 9.33619L10.381 10.1083C10.3731 10.113 10.3315 10.1415 10.2128 10.2211C10.0679 10.3183 9.8364 10.4757 9.59684 10.6822C9.09713 11.1129 8.50108 11.8096 8.28641 12.8692C8.07726 13.9015 8.28972 14.986 8.79893 16.096C9.30512 17.1993 10.1585 18.4497 11.4267 19.9067M20.7764 26.6254C23.0847 26.5986 24.4593 25.3648 24.8496 24.9613L24.9068 24.9022L25.7899 24.1279C25.7519 24.0733 25.7013 24.0068 25.6345 23.9282C25.4465 23.7067 25.1837 23.4514 24.8399 23.1579L24.8334 23.1523L23.9084 22.3555C23.9076 22.3549 23.9069 22.3542 23.9061 22.3536C23.1867 21.738 22.6945 21.4592 22.3767 21.3769C22.2517 21.3446 22.1941 21.354 22.1677 21.3601C22.1412 21.3663 22.0435 21.3932 21.8724 21.5411C21.8719 21.5416 21.8713 21.5421 21.8707 21.5426L20.9825 22.317C20.9798 22.321 20.9474 22.3558 20.849 22.465C20.7334 22.5933 20.5453 22.7999 20.308 23.0075C19.8125 23.4408 19.0398 23.9339 17.9605 23.9986C16.909 24.0616 15.8647 23.6998 14.8363 23.0406C13.8142 22.3855 12.6942 21.3658 11.4267 19.9067" fill="#111111"/>
</svg>
