<svg width="32" height="32" viewBox="0 0 32 32" fill="none" xmlns="http://www.w3.org/2000/svg">
<path fill-rule="evenodd" clip-rule="evenodd" d="M22 18C23.6569 18 25 16.6569 25 15C25 13.3431 23.6569 12 22 12C20.3431 12 19 13.3431 19 15C19 16.6569 20.3431 18 22 18ZM22 16C22.5523 16 23 15.5523 23 15C23 14.4477 22.5523 14 22 14C21.4477 14 21 14.4477 21 15C21 15.5523 21.4477 16 22 16Z" fill="#111111"/>
<path d="M7 14.5H15V13.5H7V14.5Z" fill="#111111"/>
<path d="M15 16.5H7V15.5H15V16.5Z" fill="#111111"/>
<path fill-rule="evenodd" clip-rule="evenodd" d="M3 11C3 9.34315 4.34315 8 6 8H26C27.6569 8 29 9.34315 29 11V19C29 20.6569 27.6569 22 26 22H6C4.34315 22 3 20.6569 3 19V11ZM5 11C5 10.4477 5.44772 10 6 10H26C26.5523 10 27 10.4477 27 13V19C27 19.5523 26.5523 20 26 20H6C5.44772 20 5 19.5523 5 19V11Z" fill="#111111"/>
<path d="M6 24V23H10V24C10 24.5508 9.55078 25 9 25H7C6.44922 25 6 24.5508 6 24Z" fill="#111111"/>
<path d="M22 24V23H26V24C26 24.5508 25.5508 25 25 25H23C22.4492 25 22 24.5508 22 24Z" fill="#111111"/>
</svg>
