<svg width="32" height="32" viewBox="0 0 32 32" fill="none" xmlns="http://www.w3.org/2000/svg">
<path fill-rule="evenodd" clip-rule="evenodd" d="M18 10H9C7.89543 10 7 10.8954 7 12V20C7 21.1046 7.89543 22 9 22H18C19.1046 22 20 21.1046 20 20V12C20 10.8954 19.1046 10 18 10ZM9 8C6.79086 8 5 9.79086 5 12V20C5 22.2091 6.79086 24 9 24H18C20.2091 24 22 22.2091 22 20V12C22 9.79086 20.2091 8 18 8H9Z" fill="#111111"/>
<path fill-rule="evenodd" clip-rule="evenodd" d="M25 14.668V17.332L26 18.0624V13.9376L25 14.668ZM23 18.3478V13.6522L26.4102 11.1613C27.0709 10.6786 28 11.1506 28 11.9688V20.0312C28 20.8494 27.0709 21.3214 26.4102 20.8387L23 18.3478Z" fill="#111111"/>
</svg>
