<svg width="32" height="32" viewBox="0 0 32 32" fill="none" xmlns="http://www.w3.org/2000/svg">
<path d="M22.6465 6.00268C22.268 5.97488 21.8896 6.1646 21.6953 6.51635L19.9316 9.71362H6C5.73479 9.71364 5.48045 9.81901 5.29292 10.0065C5.10539 10.1941 5.00003 10.4484 5 10.7136V24.7136C5.00003 24.9788 5.10539 25.2332 5.29292 25.4207C5.48045 25.6082 5.73479 25.7136 6 25.7136H26C26.2652 25.7136 26.5195 25.6082 26.7071 25.4207C26.8946 25.2332 27 24.9788 27 24.7136V10.7136C27 10.4484 26.8946 10.1941 26.7071 10.0065C26.5195 9.81901 26.2652 9.71364 26 9.71362H24.041L24.877 8.19799C25.008 7.95899 25.0361 7.67674 24.9551 7.41674C24.8741 7.15674 24.6903 6.94109 24.4473 6.81909L23.0176 6.10424C22.8978 6.04474 22.7726 6.01194 22.6465 6.00268ZM7 11.7136H18.8281L17.125 14.8015C17.043 14.9505 17 15.1149 17 15.2839V16.7058C16.8018 16.7081 16.6087 16.7693 16.4453 16.8816C15.93 17.2251 15.7008 17.1973 15.2617 17.03C14.8226 16.8627 14.25 16.4324 13.625 15.9324C13 15.4324 12.3226 14.8627 11.4492 14.53C11.0125 14.3637 10.5091 14.2871 9.99023 14.3347C9.47138 14.3824 8.93765 14.5534 8.44531 14.8816C8.3338 14.9534 8.23769 15.0467 8.16258 15.1561C8.08747 15.2654 8.03487 15.3886 8.00783 15.5185C7.9808 15.6484 7.97987 15.7823 8.0051 15.9126C8.03034 16.0428 8.08123 16.1667 8.15481 16.2771C8.22839 16.3875 8.3232 16.4821 8.43371 16.5555C8.54422 16.6288 8.66823 16.6795 8.79851 16.7045C8.92879 16.7295 9.06274 16.7283 9.19256 16.7011C9.32238 16.6738 9.44548 16.621 9.55469 16.5456C10.07 16.2021 10.2992 16.2299 10.7383 16.3972C11.1774 16.5645 11.75 16.9949 12.375 17.4949C13 17.9949 13.6774 18.5645 14.5508 18.8972C15.4242 19.2299 16.57 19.2021 17.5547 18.5456C17.6945 18.4557 17.8096 18.3324 17.8898 18.1868C17.9699 18.0412 18.0125 17.8779 18.0137 17.7117C18.1621 17.7096 18.3105 17.676 18.4473 17.6081L19.877 16.8953C20.059 16.8043 20.2067 16.6601 20.3047 16.4831L22.9375 11.7136H25V23.7136H7V11.7136Z" fill="#111111"/>
</svg>
