<svg width="32" height="32" viewBox="0 0 32 32" fill="none" xmlns="http://www.w3.org/2000/svg">
<path d="M16.2052 7C11.6232 7 7.51769 8.76562 4.45519 11.7188C3.86144 12.2969 3.84582 13.25 4.42394 13.8438C5.00207 14.4375 5.95519 14.4531 6.54894 13.875C9.08801 11.4297 12.3849 10 16.2052 10C20.0255 10 23.3224 11.4297 25.8614 13.875C26.4552 14.4531 27.4083 14.4375 27.9864 13.8438C28.5646 13.25 28.5489 12.2969 27.9552 11.7188C24.8927 8.76562 20.7872 7 16.2052 7ZM16.2052 12C12.8927 12 9.8966 13.3711 7.73644 15.5312C7.15051 16.1172 7.15051 17.0703 7.73644 17.6562C8.32238 18.2422 9.27551 18.2422 9.86144 17.6562C11.5021 16.0156 13.7208 15 16.2052 15C18.6896 15 20.9083 16.0156 22.5489 17.6562C23.1349 18.2422 24.088 18.2422 24.6739 17.6562C25.2599 17.0703 25.2599 16.1172 24.6739 15.5312C22.5138 13.3711 19.5177 12 16.2052 12ZM16.2052 17C14.1661 17 12.2755 17.8633 10.9864 19.2812C10.4239 19.8945 10.4669 20.8438 11.0802 21.4062C11.6935 21.9688 12.6427 21.9258 13.2052 21.3125C13.9161 20.5312 15.0411 20 16.2052 20C17.3693 20 18.4943 20.5312 19.2052 21.3125C19.7677 21.9258 20.7169 21.9688 21.3302 21.4062C21.9435 20.8438 21.9864 19.8945 21.4239 19.2812C20.1349 17.8633 18.2443 17 16.2052 17ZM16.2052 22.1875C15.213 22.1875 14.3927 23.0078 14.3927 24C14.3927 24.9922 15.213 25.8125 16.2052 25.8125C17.1974 25.8125 18.0177 24.9922 18.0177 24C18.0177 23.0078 17.1974 22.1875 16.2052 22.1875Z" fill="#111111"/>
</svg>
