<svg width="16" height="16" viewBox="0 0 16 16" fill="none" xmlns="http://www.w3.org/2000/svg">
<path d="M4.26671 6.48047C4.50946 6.33899 4.81969 6.41435 4.9669 6.65039C5.11015 6.89044 5.0348 7.19717 4.79601 7.34277C3.98019 7.83463 3.46685 8.69241 3.42296 9.63281C3.35132 11.1951 4.57333 12.5258 6.15343 12.5967C7.35528 12.6517 8.47004 11.9513 8.93175 10.8574C9.03921 10.6016 9.33711 10.4797 9.59581 10.5859V10.582C9.85452 10.6883 9.97769 10.9835 9.87022 11.2393C9.26512 12.6675 7.84031 13.5957 6.28429 13.5957C6.22472 13.5957 6.16515 13.5918 6.10558 13.5918C5.07082 13.5446 4.11563 13.1041 3.41515 12.3447C2.71465 11.5891 2.35664 10.6052 2.4044 9.58203C2.46411 8.30698 3.16024 7.14554 4.26671 6.48047ZM6.56749 2.40039C7.21199 2.40057 7.74111 2.9233 7.74132 3.56055C7.74132 4.19804 7.21995 4.71375 6.57921 4.72168L6.70226 6.45703H9.11046C9.38902 6.45704 9.62015 6.68159 9.62022 6.96094C9.62022 7.24034 9.38906 7.46484 9.11046 7.46484H6.77452L6.82237 8.10254H9.93858C10.1335 8.10264 10.312 8.21271 10.3956 8.38965L11.8683 11.5146L12.9073 11.1172C13.17 11.0149 13.465 11.1446 13.5685 11.4043C13.6717 11.66 13.54 11.9514 13.2775 12.0537L11.7931 12.6201C11.7334 12.6437 11.6732 12.6553 11.6095 12.6553C11.4186 12.6551 11.236 12.5451 11.1485 12.3643L9.61241 9.10938H6.34874C6.11195 9.10938 5.91454 8.95307 5.85558 8.7373L5.38878 3.56055C5.38899 2.91926 5.92284 2.40039 6.56749 2.40039Z" fill="#111111"/>
</svg>
