<svg width="16" height="16" viewBox="0 0 16 16" fill="none" xmlns="http://www.w3.org/2000/svg">
<path d="M5.72571 5.59961C6.07899 5.59975 6.36527 5.88596 6.36536 6.23926V11.4834L7.15833 10.6895C7.40823 10.4395 7.81366 10.4396 8.0636 10.6895C8.31353 10.9394 8.31353 11.3448 8.0636 11.5947L6.17786 13.4805C6.14846 13.5098 6.11581 13.5364 6.08118 13.5596C6.06075 13.5732 6.03825 13.5827 6.01672 13.5938C6.00205 13.6013 5.98807 13.6107 5.97278 13.6172C5.94843 13.6274 5.92279 13.6346 5.89758 13.6416C5.88248 13.6458 5.86722 13.6512 5.85168 13.6543C5.81011 13.6626 5.76795 13.6669 5.72571 13.667L5.5968 13.6553C5.57764 13.6514 5.55962 13.6433 5.54114 13.6377C5.5208 13.6316 5.49938 13.6264 5.47961 13.6182C5.46682 13.6128 5.45488 13.6048 5.4425 13.5986C5.38174 13.5686 5.32317 13.5311 5.27258 13.4805L3.38782 11.5947C3.13808 11.3448 3.13811 10.9394 3.38782 10.6895C3.63773 10.4399 4.04326 10.4398 4.29309 10.6895L5.08606 11.4824V6.24023C5.08606 5.88685 5.37235 5.59973 5.72571 5.59961ZM10.6534 1.6123C10.6727 1.61623 10.6915 1.62329 10.7101 1.62891C10.7304 1.635 10.7509 1.64028 10.7706 1.64844C10.7835 1.65381 10.7953 1.66177 10.8077 1.66797C10.8686 1.69806 10.927 1.73641 10.9777 1.78711L12.8634 3.67188C13.1131 3.92178 13.1131 4.32823 12.8634 4.57812C12.6135 4.82766 12.208 4.8268 11.9581 4.57715L11.1652 3.78418V9.02734C11.165 9.38068 10.8779 9.66699 10.5245 9.66699C10.1714 9.66671 9.88497 9.38056 9.88489 9.02734V3.78418L9.09192 4.57715C8.84202 4.82704 8.43757 4.82696 8.18762 4.57715C7.93769 4.32721 7.93769 3.92279 8.18762 3.67285L10.0734 1.78711C10.1028 1.75776 10.1344 1.73024 10.1691 1.70703C10.1896 1.69329 10.2129 1.68398 10.2345 1.67285C10.2492 1.66526 10.2631 1.65583 10.2784 1.64941C10.3029 1.63921 10.3283 1.63205 10.3536 1.625C10.3687 1.6208 10.384 1.61638 10.3995 1.61328C10.4412 1.60494 10.4832 1.59963 10.5255 1.59961L10.6534 1.6123Z" fill="#111111"/>
</svg>
