<svg width="16" height="16" viewBox="0 0 16 16" fill="none" xmlns="http://www.w3.org/2000/svg">
<path fill-rule="evenodd" clip-rule="evenodd" d="M7.43433 1.43433C7.74675 1.12191 8.25328 1.12191 8.5657 1.43433L10.5657 3.43433C10.8781 3.74675 10.8781 4.25328 10.5657 4.5657C10.2533 4.87812 9.74675 4.87812 9.43433 4.5657L8.80001 3.93138V6.00001C8.80001 6.44184 8.44184 6.80001 8.00001 6.80001C7.55818 6.80001 7.20001 6.44184 7.20001 6.00001V3.93138L6.5657 4.5657C6.25328 4.87812 5.74675 4.87812 5.43433 4.5657C5.12191 4.25328 5.12191 3.74675 5.43433 3.43433L7.43433 1.43433ZM4.5657 5.43433C4.87812 5.74675 4.87812 6.25328 4.5657 6.5657L3.93138 7.20001H6.00001C6.44184 7.20001 6.80001 7.55818 6.80001 8.00001C6.80001 8.44184 6.44184 8.80001 6.00001 8.80001H3.93138L4.5657 9.43433C4.87812 9.74675 4.87812 10.2533 4.5657 10.5657C4.25328 10.8781 3.74675 10.8781 3.43433 10.5657L1.43433 8.5657C1.12191 8.25328 1.12191 7.74675 1.43433 7.43433L3.43433 5.43433C3.74675 5.12191 4.25328 5.12191 4.5657 5.43433ZM11.4343 5.43433C11.7467 5.12191 12.2533 5.12191 12.5657 5.43433L14.5657 7.43433C14.8781 7.74675 14.8781 8.25328 14.5657 8.5657L12.5657 10.5657C12.2533 10.8781 11.7467 10.8781 11.4343 10.5657C11.1219 10.2533 11.1219 9.74675 11.4343 9.43433L12.0686 8.80001H10C9.55818 8.80001 9.20001 8.44184 9.20001 8.00001C9.20001 7.55818 9.55818 7.20001 10 7.20001H12.0686L11.4343 6.5657C11.1219 6.25328 11.1219 5.74675 11.4343 5.43433ZM7.20001 12.0686V10C7.20001 9.55818 7.55818 9.20001 8.00001 9.20001C8.44184 9.20001 8.80001 9.55818 8.80001 10V12.0686L9.43433 11.4343C9.74675 11.1219 10.2533 11.1219 10.5657 11.4343C10.8781 11.7467 10.8781 12.2533 10.5657 12.5657L8.5657 14.5657C8.25328 14.8781 7.74675 14.8781 7.43433 14.5657L5.43433 12.5657C5.12191 12.2533 5.12191 11.7467 5.43433 11.4343C5.74675 11.1219 6.25328 11.1219 6.5657 11.4343L7.20001 12.0686Z" fill="#111111"/>
</svg>
