<svg width="16" height="16" viewBox="0 0 16 16" fill="none" xmlns="http://www.w3.org/2000/svg">
<path d="M2.72067 8.56604C2.66837 8.51374 2.62426 8.45613 2.58947 8.39479C2.58682 8.39012 2.58373 8.38569 2.58118 8.38097C2.57145 8.36297 2.56319 8.34428 2.55494 8.32573C2.55238 8.32 2.54977 8.31427 2.54735 8.30847C2.53087 8.26894 2.51852 8.22815 2.50868 8.18693C2.49433 8.12699 2.48589 8.06412 2.48589 7.9998C2.48597 7.90465 2.50367 7.81373 2.53422 7.72911C2.57288 7.62188 2.63471 7.5209 2.72067 7.43494L6.96331 3.1923C7.27575 2.88011 7.78206 2.87996 8.0944 3.1923C8.40656 3.50466 8.40653 4.01102 8.0944 4.3234L5.21764 7.20016L12.7141 7.20016C13.1556 7.20028 13.5133 7.55838 13.5137 7.9998C13.5137 8.44163 13.1552 8.80013 12.7134 8.80013L5.21695 8.80013L8.0944 11.6776C8.40656 11.9899 8.40654 12.4963 8.0944 12.8087C7.78205 13.121 7.27574 13.1209 6.96331 12.8087L2.72067 8.56604Z" fill="#111111"/>
</svg>
