<svg width="16" height="16" viewBox="0 0 16 16" fill="none" xmlns="http://www.w3.org/2000/svg">
<path d="M11.3331 3.86719C11.407 3.86719 11.479 3.87673 11.5469 3.89551C11.5521 3.89693 11.5574 3.89788 11.5626 3.89941C11.5822 3.90526 11.6012 3.91264 11.6202 3.91992C11.626 3.92217 11.6319 3.92437 11.6378 3.92676C11.6774 3.94306 11.7149 3.96317 11.751 3.98535C11.8036 4.01759 11.854 4.05608 11.8995 4.10156C11.9667 4.16891 12.0185 4.2457 12.0567 4.32715C12.1052 4.4303 12.1329 4.54543 12.1329 4.66699V10.667C12.1327 11.1087 11.7748 11.4668 11.3331 11.4668C10.8915 11.4667 10.5334 11.1086 10.5333 10.667V6.59863L5.23248 11.8994C4.92022 12.2115 4.41403 12.2113 4.10162 11.8994C3.7892 11.587 3.7892 11.08 4.10162 10.7676L9.4024 5.4668H5.33307C4.89147 5.46665 4.53344 5.10858 4.53326 4.66699C4.53326 4.22525 4.89136 3.86733 5.33307 3.86719H11.3331Z" fill="#111111"/>
</svg>
