<svg width="16" height="16" viewBox="0 0 16 16" fill="none" xmlns="http://www.w3.org/2000/svg">
<path d="M2.36044 1.92737C2.26609 1.96641 2.17768 2.02428 2.10098 2.10098C1.94538 2.25658 1.86728 2.46033 1.86667 2.66427L1.86667 2.66667V5.33334C1.86667 5.77516 2.22484 6.13334 2.66667 6.13334C3.1085 6.13334 3.46667 5.77516 3.46667 5.33334V4.59804L6.10098 7.23235C6.4134 7.54477 6.91994 7.54477 7.23235 7.23235C7.54477 6.91994 7.54477 6.4134 7.23235 6.10098L4.59804 3.46667H5.33334C5.77516 3.46667 6.13334 3.1085 6.13334 2.66667C6.13334 2.22484 5.77516 1.86667 5.33334 1.86667H2.66698L2.66427 1.86667C2.55667 1.86699 2.45407 1.88855 2.36044 1.92737Z" fill="#111111"/>
<path d="M14.0825 2.38538C14.0436 2.28167 13.9825 2.18441 13.899 2.10098C13.8199 2.02184 13.7283 1.96274 13.6305 1.9237C13.5394 1.88719 13.4399 1.86698 13.3358 1.86667L13.3333 1.86667H10.6667C10.2248 1.86667 9.86667 2.22484 9.86667 2.66667C9.86667 3.1085 10.2248 3.46667 10.6667 3.46667H11.402L8.76767 6.10098C8.45525 6.4134 8.45525 6.91994 8.76767 7.23235C9.08009 7.54477 9.58662 7.54477 9.89904 7.23235L12.5333 4.59806V5.33334C12.5333 5.77516 12.8915 6.13334 13.3333 6.13334C13.7752 6.13334 14.1333 5.77516 14.1333 5.33334V2.66667C14.1333 2.6475 14.1327 2.62849 14.1313 2.60966L14.0825 2.38538Z" fill="#111111"/>
<path d="M13.6396 14.5393C13.7339 14.5003 13.8223 14.4424 13.899 14.3657C14.0546 14.2101 14.1327 14.0063 14.1333 13.8024L14.1333 13.8V11.1333C14.1333 10.6915 13.7752 10.3333 13.3333 10.3333C12.8915 10.3333 12.5333 10.6915 12.5333 11.1333V11.8686L9.89903 9.23432C9.58661 8.9219 9.08008 8.9219 8.76766 9.23432C8.45524 9.54674 8.45524 10.0533 8.76766 10.3657L11.402 13H10.6667C10.2248 13 9.86668 13.3582 9.86668 13.8C9.86668 14.2418 10.2248 14.6 10.6667 14.6L13.333 14.6L13.3357 14.6C13.4433 14.5997 13.5459 14.5781 13.6396 14.5393Z" fill="#111111"/>
<path d="M1.91753 14.0813C1.9564 14.185 2.01755 14.2823 2.10097 14.3657C2.18012 14.4448 2.27172 14.5039 2.36947 14.543C2.46065 14.5795 2.56011 14.5997 2.66426 14.6L2.66668 14.6H5.33334C5.77517 14.6 6.13334 14.2418 6.13334 13.8C6.13334 13.3582 5.77517 13 5.33334 13H4.59803L7.23234 10.3657C7.54476 10.0533 7.54476 9.54674 7.23234 9.23432C6.91992 8.9219 6.41339 8.9219 6.10097 9.23432L3.46668 11.8686L3.46668 11.1333C3.46668 10.6915 3.1085 10.3333 2.66668 10.3333C2.22485 10.3333 1.86668 10.6915 1.86668 11.1333L1.86668 13.8C1.86668 13.8192 1.86735 13.8382 1.86868 13.857L1.91753 14.0813Z" fill="#111111"/>
</svg>
