<svg width="16" height="16" viewBox="0 0 16 16" fill="none" xmlns="http://www.w3.org/2000/svg">
<path fill-rule="evenodd" clip-rule="evenodd" d="M14.5657 1.43431C14.8781 1.74673 14.8781 2.25326 14.5657 2.56568L13.4365 3.69483C14.3156 4.82419 14.8 6.22045 14.8 7.66666C14.8 9.38173 14.1187 11.0266 12.906 12.2393C11.6932 13.452 10.0484 14.1333 8.33334 14.1333C7.48412 14.1333 6.64322 13.9661 5.85865 13.6411C5.32167 13.4187 4.81828 13.1253 4.36152 12.7698L3.23235 13.899C2.91994 14.2114 2.4134 14.2114 2.10098 13.899C1.78856 13.5866 1.78856 13.0801 2.10098 12.7676L3.23015 11.6385C2.87466 11.1817 2.58134 10.6783 2.35891 10.1413C2.03393 9.35678 1.86667 8.51588 1.86667 7.66666C1.86667 6.81745 2.03393 5.97655 2.35892 5.19198C2.6839 4.4074 3.16023 3.69452 3.76071 3.09404C4.3612 2.49355 5.07408 2.01722 5.85865 1.69224C6.64322 1.36726 7.48412 1.2 8.33334 1.2C9.77955 1.2 11.1758 1.68444 12.3052 2.56346L13.4343 1.43431C13.7467 1.12189 14.2533 1.12189 14.5657 1.43431ZM11.1621 3.70652C10.3421 3.12078 9.35425 2.8 8.33334 2.8C7.69424 2.8 7.06139 2.92588 6.47094 3.17045C5.88049 3.41502 5.344 3.7735 4.89208 4.22541C4.44017 4.67732 4.08169 5.21382 3.83712 5.80427C3.59255 6.39472 3.46667 7.02756 3.46667 7.66666C3.46667 8.30576 3.59255 8.93861 3.83712 9.52906C3.97888 9.87129 4.1589 10.1954 4.37321 10.4954L11.1621 3.70652ZM5.50458 11.6268C5.8046 11.8411 6.12871 12.0211 6.47094 12.1629C7.06139 12.4075 7.69424 12.5333 8.33334 12.5333C9.62406 12.5333 10.8619 12.0206 11.7746 11.1079C12.6873 10.1952 13.2 8.95738 13.2 7.66666C13.2 6.64575 12.8792 5.65791 12.2935 4.83789L5.50458 11.6268Z" fill="#111111"/>
</svg>
