<svg width="16" height="16" viewBox="0 0 16 16" fill="none" xmlns="http://www.w3.org/2000/svg">
<path d="M9.69623 9.31382C9.93738 9.05123 10.0779 8.71716 10.1093 8.37144L10.1161 8.223V5.67905L10.3622 5.81382C10.7502 6.02502 11.2358 5.88226 11.4472 5.49448C11.6584 5.10661 11.5155 4.62094 11.1279 4.40952L9.69916 3.6312C9.45143 3.49633 9.1507 3.50194 8.90814 3.64585C8.6655 3.79002 8.51654 4.05209 8.51654 4.33433V6.64878C8.12516 6.67171 7.76667 6.8494 7.50775 7.1312C7.23216 7.43129 7.08783 7.82549 7.08783 8.223C7.08788 8.62042 7.23223 9.01378 7.50775 9.31382C7.78545 9.6162 8.17782 9.80015 8.60248 9.80015C9.02696 9.80003 9.41863 9.61608 9.69623 9.31382Z" fill="#111111"/>
<path d="M6.3483 2.80566C6.25292 2.81511 6.15884 2.83819 6.06998 2.875C5.95159 2.92409 5.84424 2.99633 5.75357 3.08691C5.66275 3.17773 5.58983 3.28564 5.54068 3.4043C5.50384 3.49325 5.48076 3.58715 5.47134 3.68262L5.46646 3.77832L5.46646 9.55566C5.46646 9.81505 5.57016 10.0637 5.75357 10.2471C5.93698 10.4305 6.18559 10.5342 6.44498 10.5342L12.2223 10.5342L12.318 10.5293C12.4135 10.5199 12.5074 10.4968 12.5963 10.46C12.715 10.4108 12.8229 10.3379 12.9137 10.2471C13.0043 10.1564 13.0766 10.0491 13.1256 9.93066C13.1748 9.81201 13.1999 9.6841 13.1999 9.55566L13.1999 3.77832L13.195 3.68262C13.1856 3.58713 13.1625 3.49326 13.1256 3.4043C13.0765 3.28566 13.0045 3.17772 12.9137 3.08691C12.8229 2.99611 12.715 2.92415 12.5963 2.875C12.5074 2.83815 12.4135 2.81509 12.318 2.80566L12.2223 2.80078L6.44498 2.80078L6.3483 2.80566ZM12.2223 1.20019L12.4752 1.21289C12.7269 1.23773 12.9742 1.29936 13.2086 1.39648C13.5214 1.52604 13.8052 1.71667 14.0446 1.95605C14.284 2.19544 14.4746 2.47921 14.6042 2.79199C14.7013 3.02648 14.7629 3.27373 14.7877 3.52539L14.8004 3.77832L14.8004 9.55566C14.8004 9.89421 14.7337 10.2302 14.6042 10.543C14.4746 10.8557 14.2839 11.1396 14.0446 11.3789C13.8053 11.6182 13.5213 11.808 13.2086 11.9375C12.9742 12.0346 12.7269 12.0962 12.4753 12.1211L12.2223 12.1338L6.44498 12.1338C5.76125 12.1338 5.1052 11.8624 4.62173 11.3789C4.13827 10.8954 3.86685 10.2394 3.86685 9.55566L3.86685 3.77832L3.87955 3.52539C3.90439 3.27373 3.96601 3.02648 4.06314 2.79199C4.19267 2.47935 4.38247 2.19537 4.62173 1.95605C4.86107 1.71672 5.14498 1.52604 5.45767 1.39648C5.77045 1.26693 6.10643 1.2002 6.44498 1.2002L12.2223 1.20019Z" fill="#111111"/>
<path d="M3.33301 14.8004C2.1581 14.8003 1.20037 13.8425 1.2002 12.6676L1.20019 6.00064C1.20019 5.60072 1.30708 5.23855 1.53223 4.92838C1.69155 4.70896 1.88863 4.54513 2.08398 4.41763L2.27832 4.30142L2.35156 4.26529C2.72399 4.10517 3.16493 4.25003 3.36621 4.61197C3.56736 4.97399 3.4577 5.42512 3.125 5.65689L3.05566 5.69986L2.95605 5.75943C2.8741 5.81323 2.84084 5.84994 2.82715 5.8688C2.81997 5.8787 2.81542 5.88735 2.81152 5.90005C2.80722 5.91408 2.7998 5.9447 2.7998 6.00064L2.7998 12.6676C2.79998 12.9589 3.04176 13.2007 3.33301 13.2008L9.99805 13.2008L10.0684 13.196C10.1381 13.1866 10.2054 13.1632 10.2666 13.1276C10.3277 13.092 10.3813 13.0448 10.4238 12.9889L10.4629 12.9294L10.5068 12.861C10.7422 12.5306 11.1947 12.4253 11.5547 12.6305C11.9144 12.8357 12.0539 13.2784 11.8896 13.6491L11.8525 13.7223L11.7793 13.8424C11.5985 14.1159 11.3566 14.3448 11.0723 14.5104C10.7473 14.6997 10.378 14.7995 10.002 14.8004L3.33301 14.8004Z" fill="#111111"/>
</svg>
