<svg width="16" height="16" viewBox="0 0 16 16" fill="none" xmlns="http://www.w3.org/2000/svg">
<path d="M8.40234 6.53613C8.6999 6.53626 8.94336 6.77443 8.94336 7.06543V13.0713C8.94327 13.3622 8.69984 13.5995 8.40234 13.5996C8.10473 13.5996 7.86142 13.3623 7.86133 13.0713V7.06543C7.86133 6.77435 8.10468 6.53613 8.40234 6.53613ZM12.335 1.5957C12.5947 1.59587 12.8086 1.80139 12.8086 2.05957C12.8084 2.31756 12.5946 2.52229 12.335 2.52246H8.86719C8.87138 2.54706 8.87207 2.57208 8.87207 2.59668V3.55566C9.11504 3.7033 9.27441 3.9702 9.27441 4.27344C9.27428 4.57651 9.11494 4.83876 8.87207 4.98633V5.4375C9.58458 5.63852 10.1084 6.28252 10.1084 7.04492V7.95508H11.6426C11.9067 7.95508 12.1162 8.15968 12.1162 8.41797C12.1162 8.67622 11.9067 8.88086 11.6426 8.88086H10.083C9.57593 8.88071 9.16128 8.47535 9.16113 7.97949V7.04492C9.16113 6.63085 8.81671 6.29785 8.39746 6.29785C7.97841 6.29809 7.63477 6.63099 7.63477 7.04492V10.5664C7.63464 11.0665 7.21941 11.4727 6.70801 11.4727H5.14844C4.88445 11.4725 4.6748 11.267 4.6748 11.0088C4.67489 10.7507 4.88451 10.5461 5.14844 10.5459H6.68359V7.04883C6.68359 6.28628 7.20721 5.6423 7.91992 5.44141V4.97852C7.68939 4.82686 7.53815 4.57244 7.53809 4.27734C7.53809 3.98223 7.68942 3.72397 7.91992 3.57227V2.60059C7.91992 2.57189 7.92383 2.55097 7.92383 2.52637H4.47363C4.21382 2.5263 4.00011 2.31753 4 2.06348C4 1.80933 4.21375 1.59967 4.47363 1.59961H12.3262L12.335 1.5957ZM8.40234 3.8916C8.18434 3.8916 8.01172 4.06025 8.01172 4.27344C8.01193 4.48644 8.18447 4.6543 8.40234 4.6543C8.61591 4.65416 8.79177 4.48227 8.79199 4.27344C8.79199 4.06443 8.62023 3.89173 8.40234 3.8916Z" fill="black"/>
</svg>
