<svg width="16" height="16" viewBox="0 0 16 16" fill="none" xmlns="http://www.w3.org/2000/svg">
<path fill-rule="evenodd" clip-rule="evenodd" d="M2.10098 1.43433C2.4134 1.12191 2.91993 1.12191 3.23235 1.43433L4.36151 2.56348C5.49086 1.68446 6.88713 1.20001 8.33334 1.20001C10.0484 1.20001 11.6932 1.88132 12.906 3.09405C14.1187 4.30679 14.8 5.95161 14.8 7.66668C14.8 8.51589 14.6327 9.35679 14.3078 10.1414C14.0853 10.6783 13.792 11.1817 13.4365 11.6385L14.5657 12.7677C14.8781 13.0801 14.8781 13.5866 14.5657 13.899C14.2533 14.2115 13.7467 14.2115 13.4343 13.899L12.3051 12.7699C11.8484 13.1254 11.345 13.4187 10.808 13.6411C10.0234 13.9661 9.18255 14.1333 8.33334 14.1333C7.48412 14.1333 6.64322 13.9661 5.85865 13.6411C5.07408 13.3161 4.3612 12.8398 3.76071 12.2393C3.16023 11.6388 2.68389 10.9259 2.35891 10.1414C2.03393 9.35679 1.86667 8.51589 1.86667 7.66668C1.86667 6.22047 2.35111 4.82421 3.23013 3.69485L2.10098 2.5657C1.78856 2.25328 1.78856 1.74675 2.10098 1.43433ZM4.3732 4.83791C3.78745 5.65792 3.46667 6.64576 3.46667 7.66668C3.46667 8.30578 3.59255 8.93862 3.83712 9.52907C4.08169 10.1195 4.44017 10.656 4.89208 11.1079C5.34399 11.5598 5.88049 11.9183 6.47094 12.1629C7.06139 12.4075 7.69424 12.5333 8.33334 12.5333C8.97244 12.5333 9.60528 12.4075 10.1957 12.1629C10.538 12.0211 10.8621 11.8411 11.1621 11.6268L4.3732 4.83791ZM12.2935 10.4954C12.5078 10.1954 12.6878 9.87131 12.8295 9.52907C13.0741 8.93862 13.2 8.30578 13.2 7.66668C13.2 6.37596 12.6873 5.1381 11.7746 4.22543C10.8619 3.31275 9.62406 2.80001 8.33334 2.80001C7.31242 2.80001 6.32458 3.12079 5.50457 3.70654L12.2935 10.4954Z" fill="#111111"/>
</svg>
