<svg width="16" height="16" viewBox="0 0 16 16" fill="none" xmlns="http://www.w3.org/2000/svg">
<path d="M8.09961 1.5C11.7447 1.5 14.6992 4.45453 14.6992 8.09961C14.6992 11.7447 11.7447 14.6992 8.09961 14.6992C4.45453 14.6992 1.5 11.7447 1.5 8.09961C1.5 4.45453 4.45453 1.5 8.09961 1.5ZM4.04395 5.1748C3.44981 5.99722 3.09961 7.0075 3.09961 8.09961C3.09961 10.861 5.33819 13.0996 8.09961 13.0996C9.19164 13.0996 10.2011 12.7484 11.0234 12.1543L4.04395 5.1748ZM8.09961 3.09961C7.0075 3.09961 5.99722 3.44981 5.1748 4.04395L12.1543 11.0234C12.7484 10.2011 13.0996 9.19164 13.0996 8.09961C13.0996 5.33819 10.861 3.09961 8.09961 3.09961Z" fill="#111111"/>
</svg>
