<svg width="16" height="16" viewBox="0 0 16 16" fill="none" xmlns="http://www.w3.org/2000/svg">
<path fill-rule="evenodd" clip-rule="evenodd" d="M4.66666 2.80001C4.52521 2.80001 4.38956 2.8562 4.28954 2.95622C4.18952 3.05624 4.13333 3.1919 4.13333 3.33335V13.2H11.8667V3.33335C11.8667 3.1919 11.8105 3.05624 11.7105 2.95622C11.6104 2.8562 11.4748 2.80001 11.3333 2.80001H4.66666ZM13.4667 13.2V3.33335C13.4667 2.76755 13.2419 2.22493 12.8418 1.82485C12.4417 1.42477 11.8991 1.20001 11.3333 1.20001H4.66666C4.10087 1.20001 3.55825 1.42477 3.15817 1.82485C2.75809 2.22493 2.53333 2.76755 2.53333 3.33335V13.2H2C1.55817 13.2 1.2 13.5582 1.2 14C1.2 14.4418 1.55817 14.8 2 14.8H14C14.4418 14.8 14.8 14.4418 14.8 14C14.8 13.5582 14.4418 13.2 14 13.2H13.4667ZM5.2 5.33335C5.2 4.89152 5.55817 4.53335 6 4.53335H6.66666C7.10849 4.53335 7.46666 4.89152 7.46666 5.33335C7.46666 5.77517 7.10849 6.13335 6.66666 6.13335H6C5.55817 6.13335 5.2 5.77517 5.2 5.33335ZM8.53333 5.33335C8.53333 4.89152 8.8915 4.53335 9.33333 4.53335H10C10.4418 4.53335 10.8 4.89152 10.8 5.33335C10.8 5.77517 10.4418 6.13335 10 6.13335H9.33333C8.8915 6.13335 8.53333 5.77517 8.53333 5.33335ZM5.2 8.00001C5.2 7.55818 5.55817 7.20001 6 7.20001H6.66666C7.10849 7.20001 7.46666 7.55818 7.46666 8.00001C7.46666 8.44184 7.10849 8.80001 6.66666 8.80001H6C5.55817 8.80001 5.2 8.44184 5.2 8.00001ZM8.53333 8.00001C8.53333 7.55818 8.8915 7.20001 9.33333 7.20001H10C10.4418 7.20001 10.8 7.55818 10.8 8.00001C10.8 8.44184 10.4418 8.80001 10 8.80001H9.33333C8.8915 8.80001 8.53333 8.44184 8.53333 8.00001ZM5.2 10.6667C5.2 10.2249 5.55817 9.86668 6 9.86668H6.66666C7.10849 9.86668 7.46666 10.2249 7.46666 10.6667C7.46666 11.1085 7.10849 11.4667 6.66666 11.4667H6C5.55817 11.4667 5.2 11.1085 5.2 10.6667ZM8.53333 10.6667C8.53333 10.2249 8.8915 9.86668 9.33333 9.86668H10C10.4418 9.86668 10.8 10.2249 10.8 10.6667C10.8 11.1085 10.4418 11.4667 10 11.4667H9.33333C8.8915 11.4667 8.53333 11.1085 8.53333 10.6667Z" fill="#111111"/>
</svg>
