<svg width="16" height="16" viewBox="0 0 16 16" fill="none" xmlns="http://www.w3.org/2000/svg">
<path fill-rule="evenodd" clip-rule="evenodd" d="M5.33334 1.20001C5.77516 1.20001 6.13334 1.55818 6.13334 2.00001V2.53335H9.86667V2.00001C9.86667 1.55818 10.2248 1.20001 10.6667 1.20001C11.1085 1.20001 11.4667 1.55818 11.4667 2.00001V2.53335H12C12.5658 2.53335 13.1084 2.75811 13.5085 3.15818C13.9086 3.55826 14.1333 4.10088 14.1333 4.66668V12.6667C14.1333 13.2325 13.9086 13.7751 13.5085 14.1752C13.1084 14.5753 12.5658 14.8 12 14.8H4C3.43421 14.8 2.89159 14.5753 2.49151 14.1752C2.09143 13.7751 1.86667 13.2325 1.86667 12.6667V4.66668C1.86667 4.10088 2.09143 3.55826 2.49151 3.15818C2.89159 2.75811 3.43421 2.53335 4 2.53335H4.53334V2.00001C4.53334 1.55818 4.89151 1.20001 5.33334 1.20001ZM4.53334 4.13335H4C3.85855 4.13335 3.7229 4.18954 3.62288 4.28956C3.52286 4.38957 3.46667 4.52523 3.46667 4.66668V6.53335H12.5333V4.66668C12.5333 4.52523 12.4771 4.38958 12.3771 4.28956C12.2771 4.18954 12.1415 4.13335 12 4.13335H11.4667V4.66668C11.4667 5.10851 11.1085 5.46668 10.6667 5.46668C10.2248 5.46668 9.86667 5.10851 9.86667 4.66668V4.13335H6.13334V4.66668C6.13334 5.10851 5.77516 5.46668 5.33334 5.46668C4.89151 5.46668 4.53334 5.10851 4.53334 4.66668V4.13335ZM12.5333 8.13335H3.46667V12.6667C3.46667 12.8081 3.52286 12.9438 3.62288 13.0438C3.7229 13.1438 3.85855 13.2 4 13.2H12C12.1415 13.2 12.2771 13.1438 12.3771 13.0438C12.4771 12.9438 12.5333 12.8081 12.5333 12.6667V8.13335Z" fill="#111111"/>
</svg>
