<svg width="16" height="16" viewBox="0 0 16 16" fill="none" xmlns="http://www.w3.org/2000/svg">
<path fill-rule="evenodd" clip-rule="evenodd" d="M3.43432 3.43433C3.74674 3.12191 4.25327 3.12191 4.56569 3.43433L8.56569 7.43433C8.71572 7.58436 8.8 7.78784 8.8 8.00001C8.8 8.21219 8.71572 8.41567 8.56569 8.5657L4.56569 12.5657C4.25327 12.8781 3.74673 12.8781 3.43432 12.5657C3.1219 12.2533 3.1219 11.7467 3.43432 11.4343L6.86863 8.00001L3.43432 4.5657C3.1219 4.25328 3.1219 3.74675 3.43432 3.43433ZM11.5 3.20001C11.9418 3.20001 12.3 3.55819 12.3 4.00001L12.3 12C12.3 12.4418 11.9418 12.8 11.5 12.8C11.0582 12.8 10.7 12.4418 10.7 12L10.7 4.00001C10.7 3.55818 11.0582 3.20001 11.5 3.20001Z" fill="#111111"/>
</svg>
