<svg width="16" height="16" viewBox="0 0 16 16" fill="none" xmlns="http://www.w3.org/2000/svg">
<path fill-rule="evenodd" clip-rule="evenodd" d="M10.9343 3.43433C11.2467 3.12191 11.7533 3.12191 12.0657 3.43433C12.3781 3.74675 12.3781 4.25328 12.0657 4.5657L8.63137 8.00001L12.0657 11.4343C12.3781 11.7467 12.3781 12.2533 12.0657 12.5657C11.7533 12.8781 11.2467 12.8781 10.9343 12.5657L6.93431 8.5657C6.6219 8.25328 6.6219 7.74675 6.93431 7.43433L10.9343 3.43433ZM4 3.20001C4.44183 3.20001 4.8 3.55818 4.8 4.00001L4.8 12C4.8 12.4418 4.44183 12.8 4 12.8C3.55817 12.8 3.2 12.4418 3.2 12L3.2 4.00001C3.2 3.55818 3.55817 3.20001 4 3.20001Z" fill="#111111"/>
</svg>
