<svg width="16" height="16" viewBox="0 0 16 16" fill="none" xmlns="http://www.w3.org/2000/svg">
<path fill-rule="evenodd" clip-rule="evenodd" d="M5.39775 1.71763C6.22276 1.3759 7.10701 1.20001 8 1.20001C8.89299 1.20001 9.77723 1.3759 10.6022 1.71763C11.4273 2.05936 12.1769 2.56025 12.8083 3.19169C13.4398 3.82312 13.9406 4.57275 14.2824 5.39777C14.6241 6.22278 14.8 7.10702 14.8 8.00001C14.8 8.893 14.6241 9.77725 14.2824 10.6023C13.9406 11.4273 13.4398 12.1769 12.8083 12.8083C12.1769 13.4398 11.4273 13.9407 10.6022 14.2824C9.77723 14.6241 8.89299 14.8 8 14.8C7.10701 14.8 6.22276 14.6241 5.39775 14.2824C4.57274 13.9407 3.82311 13.4398 3.19167 12.8083C2.56023 12.1769 2.05935 11.4273 1.71762 10.6023C1.37588 9.77725 1.2 8.893 1.2 8.00001C1.2 7.10702 1.37588 6.22278 1.71762 5.39777C2.05935 4.57275 2.56023 3.82312 3.19167 3.19169C3.82311 2.56025 4.57274 2.05936 5.39775 1.71763ZM8 2.80001C7.31712 2.80001 6.64094 2.93451 6.01004 3.19584C5.37915 3.45716 4.80591 3.84019 4.32304 4.32306C3.84018 4.80592 3.45715 5.37917 3.19582 6.01006C2.9345 6.64095 2.8 7.31714 2.8 8.00001C2.8 8.68289 2.9345 9.35907 3.19582 9.98997C3.45715 10.6209 3.84018 11.1941 4.32304 11.677C4.80591 12.1598 5.37915 12.5429 6.01004 12.8042C6.64094 13.0655 7.31712 13.2 8 13.2C8.68287 13.2 9.35906 13.0655 9.98995 12.8042C10.6208 12.5429 11.1941 12.1598 11.677 11.677C12.1598 11.1941 12.5428 10.6209 12.8042 9.98997C13.0655 9.35907 13.2 8.68289 13.2 8.00001C13.2 7.31714 13.0655 6.64095 12.8042 6.01006C12.5428 5.37917 12.1598 4.80592 11.677 4.32306C11.1941 3.84019 10.6208 3.45716 9.98995 3.19584C9.35906 2.93451 8.68287 2.80001 8 2.80001ZM10.5657 6.10099C10.8781 6.41341 10.8781 6.91994 10.5657 7.23236L7.89902 9.89903C7.74899 10.0491 7.5455 10.1333 7.33333 10.1333C7.12116 10.1333 6.91767 10.0491 6.76765 9.89903L5.43431 8.5657C5.12189 8.25328 5.12189 7.74675 5.43431 7.43433C5.74673 7.12191 6.25326 7.12191 6.56568 7.43433L7.33333 8.20198L9.43431 6.10099C9.74673 5.78857 10.2533 5.78857 10.5657 6.10099Z" fill="#111111"/>
</svg>
