<svg width="16" height="16" viewBox="0 0 16 16" fill="none" xmlns="http://www.w3.org/2000/svg">
<path d="M8.33398 1.20801C9.11288 1.24631 9.88053 1.41871 10.6025 1.71777C11.4274 2.0595 12.1772 2.56005 12.8086 3.19141C13.44 3.82277 13.9405 4.57257 14.2822 5.39746C14.624 6.22248 14.7998 7.10701 14.7998 8L14.792 8.33398C14.7537 9.11288 14.5813 9.88053 14.2822 10.6025C13.9405 11.4274 13.44 12.1772 12.8086 12.8086C12.1772 13.44 11.4274 13.9405 10.6025 14.2822C9.88053 14.5813 9.11288 14.7537 8.33398 14.792L8 14.7998C7.10701 14.7998 6.22248 14.624 5.39746 14.2822C4.57257 13.9405 3.82277 13.44 3.19141 12.8086C2.56005 12.1772 2.0595 11.4274 1.71777 10.6025C1.41871 9.88053 1.24631 9.11288 1.20801 8.33398L1.2002 8C1.2002 7.10701 1.37604 6.22248 1.71777 5.39746C2.0595 4.57257 2.56005 3.82277 3.19141 3.19141C3.82277 2.56005 4.57257 2.0595 5.39746 1.71777C6.22248 1.37604 7.10701 1.2002 8 1.2002L8.33398 1.20801ZM8 2.7998C7.31713 2.7998 6.64066 2.93496 6.00977 3.19629C5.37903 3.45761 4.806 3.84048 4.32324 4.32324C3.84048 4.806 3.45761 5.37903 3.19629 6.00977C2.93496 6.64066 2.7998 7.31713 2.7998 8L2.80664 8.25586C2.83598 8.85132 2.96765 9.43826 3.19629 9.99023C3.45761 10.621 3.84048 11.194 4.32324 11.6768C4.806 12.1595 5.37903 12.5424 6.00977 12.8037C6.64066 13.065 7.31713 13.2002 8 13.2002L8.25586 13.1934C8.85132 13.164 9.43826 13.0323 9.99023 12.8037C10.621 12.5424 11.194 12.1595 11.6768 11.6768C12.1595 11.194 12.5424 10.621 12.8037 9.99023C13.065 9.35934 13.2002 8.68287 13.2002 8L13.1934 7.74414C13.164 7.14868 13.0323 6.56174 12.8037 6.00977C12.5424 5.37903 12.1595 4.806 11.6768 4.32324C11.194 3.84048 10.621 3.45761 9.99023 3.19629C9.43826 2.96765 8.85132 2.83598 8.25586 2.80664L8 2.7998Z" fill="#111111"/>
</svg>
