<svg width="16" height="16" viewBox="0 0 16 16" fill="none" xmlns="http://www.w3.org/2000/svg">
<path fill-rule="evenodd" clip-rule="evenodd" d="M8.55341 1.97053C8.65179 1.5398 9.08072 1.27036 9.51146 1.36874C11.0136 1.7118 12.3547 2.55468 13.3153 3.75938C14.2758 4.96408 14.799 6.45921 14.799 7.99999C14.799 9.54077 14.2758 11.0359 13.3153 12.2406C12.3547 13.4453 11.0136 14.2882 9.51146 14.6312C9.08072 14.7296 8.65179 14.4602 8.55341 14.0294C8.45504 13.5987 8.72447 13.1698 9.15521 13.0714C10.304 12.809 11.3296 12.1644 12.0643 11.2431C12.7989 10.3218 13.199 9.17834 13.199 7.99999C13.199 6.82164 12.7989 5.6782 12.0643 4.75688C11.3296 3.83555 10.304 3.19094 9.15521 2.92857C8.72447 2.8302 8.45504 2.40127 8.55341 1.97053ZM7.44678 1.97138C7.54468 2.40222 7.27479 2.83086 6.84394 2.92877C6.20446 3.07409 5.59846 3.33976 5.05829 3.71161C4.69436 3.96214 4.19624 3.87021 3.94571 3.50628C3.69518 3.14235 3.78711 2.64423 4.15104 2.3937C4.85841 1.90675 5.65197 1.55885 6.48939 1.36855C6.92023 1.27064 7.34887 1.54054 7.44678 1.97138ZM3.18307 4.31356C3.56953 4.5277 3.70923 5.01459 3.49509 5.40106L3.38716 5.59584C3.13986 6.07013 2.96348 6.58708 2.87156 7.13285C2.79818 7.56855 2.38549 7.86226 1.9498 7.78888C1.51411 7.7155 1.2204 7.30282 1.29378 6.86712C1.41467 6.14933 1.64746 5.46905 1.97395 4.84555L1.98291 4.82892L2.09557 4.62559C2.30971 4.23912 2.7966 4.09942 3.18307 4.31356ZM8.28174 4.53332C8.72357 4.53332 9.08174 4.89149 9.08174 5.33332L9.08173 8.62757C9.08173 9.0694 8.72356 9.42757 8.28173 9.42757H6.66666C6.22483 9.42757 5.86666 9.0694 5.86666 8.62757C5.86666 8.18574 6.22483 7.82757 6.66666 7.82757H7.48173L7.48174 5.33332C7.48174 4.89149 7.83992 4.53332 8.28174 4.53332ZM2.01249 8.89879C2.43694 8.77609 2.88049 9.0207 3.0032 9.44515C3.15747 9.97881 3.39669 10.4841 3.71165 10.9417C3.96216 11.3057 3.87019 11.8038 3.50625 12.0543C3.1423 12.3048 2.64418 12.2129 2.39368 11.8489C1.98131 11.2498 1.66812 10.5882 1.46614 9.8895C1.34343 9.46505 1.58804 9.0215 2.01249 8.89879ZM4.31984 12.8065C4.54011 12.4235 5.02917 12.2916 5.41217 12.5118C5.85874 12.7687 6.34124 12.9572 6.84363 13.0711C7.27451 13.1689 7.54458 13.5974 7.44685 14.0283C7.34911 14.4592 6.92059 14.7292 6.4897 14.6315C5.83157 14.4822 5.1995 14.2353 4.61449 13.8988C4.23149 13.6785 4.09957 13.1895 4.31984 12.8065Z" fill="#111111"/>
</svg>
