<svg width="16" height="16" viewBox="0 0 16 16" fill="none" xmlns="http://www.w3.org/2000/svg">
<path fill-rule="evenodd" clip-rule="evenodd" d="M4.13448 4.13449C4.4469 3.82207 4.95343 3.82207 5.26585 4.13449L7.99999 6.86864L10.7341 4.13449C11.0466 3.82207 11.5531 3.82207 11.8655 4.13449C12.1779 4.44691 12.1779 4.95344 11.8655 5.26586L9.13136 8.00001L11.8655 10.7342C12.1779 11.0466 12.1779 11.5531 11.8655 11.8655C11.5531 12.1779 11.0466 12.1779 10.7341 11.8655L7.99999 9.13138L5.26585 11.8655C4.95343 12.1779 4.4469 12.1779 4.13448 11.8655C3.82206 11.5531 3.82206 11.0466 4.13448 10.7342L6.86862 8.00001L4.13448 5.26586C3.82206 4.95344 3.82206 4.44691 4.13448 4.13449Z" fill="#111111"/>
</svg>
