<svg width="16" height="16" viewBox="0 0 16 16" fill="none" xmlns="http://www.w3.org/2000/svg">
<path fill-rule="evenodd" clip-rule="evenodd" d="M12.5405 6.568L12.772 6.60657C14.3654 6.87214 15.5332 8.25074 15.5332 9.86611C15.5332 11.3453 14.3341 12.5445 12.8548 12.5445H4.28251C2.48677 12.5445 0.659664 11.2233 0.701811 9.1918C0.725847 8.03327 0.994425 7.07217 1.6839 6.33837C2.29087 5.69239 3.13695 5.3187 4.13453 5.06357C5.10007 2.75435 7.19066 1.88199 9.0826 2.30141C10.8927 2.70267 12.4217 4.26615 12.5405 6.568ZM8.73632 3.86349C7.55772 3.60221 6.15999 4.1225 5.52462 5.90336C5.41176 6.21968 5.14159 6.47171 4.79711 6.54968C3.76804 6.78262 3.18941 7.07268 2.84994 7.43398C2.53116 7.77325 2.32093 8.28703 2.30147 9.22498C2.28263 10.1329 3.13824 10.9445 4.28251 10.9445H12.8548C13.4504 10.9445 13.9332 10.4617 13.9332 9.86611C13.9332 9.03288 13.3308 8.32178 12.5089 8.1848L11.7552 8.05919C11.2411 7.97349 10.9226 7.51407 10.9436 7.05055C11.026 5.22889 9.93526 4.12928 8.73632 3.86349Z" fill="black"/>
</svg>
