<svg width="16" height="16" viewBox="0 0 16 16" fill="none" xmlns="http://www.w3.org/2000/svg">
<path d="M8.66668 12.0027H4.43801C2.72334 12 1.33334 10.662 1.33334 9.01133C1.33334 7.36133 2.72334 6.02333 4.43801 6.02333C4.70001 4.84866 5.63401 3.88999 6.88801 3.50799C8.14134 3.12666 9.52534 3.37933 10.5173 4.17466C11.5093 4.96799 11.9587 6.17933 11.6973 7.35399H12.3573C13.2707 7.35399 14.0613 7.88733 14.4353 8.66333" stroke="#111111" stroke-width="1.6" stroke-linecap="round" stroke-linejoin="round"/>
<path fill-rule="evenodd" clip-rule="evenodd" d="M10.7677 10.7676C11.0801 10.4552 11.5866 10.4552 11.899 10.7676L15.2324 14.101C15.5448 14.4134 15.5448 14.9199 15.2324 15.2323C14.92 15.5448 14.4134 15.5448 14.101 15.2323L10.7677 11.899C10.4553 11.5866 10.4553 11.0801 10.7677 10.7676Z" fill="#111111"/>
<path fill-rule="evenodd" clip-rule="evenodd" d="M15.2324 10.7676C15.5448 11.0801 15.5448 11.5866 15.2324 11.899L11.899 15.2323C11.5866 15.5448 11.0801 15.5448 10.7677 15.2323C10.4553 14.9199 10.4553 14.4134 10.7677 14.101L14.101 10.7676C14.4134 10.4552 14.92 10.4552 15.2324 10.7676Z" fill="#111111"/>
<circle cx="5" cy="5" r="3" fill="#FF0000"/>
</svg>
