<svg width="16" height="16" viewBox="0 0 16 16" fill="none" xmlns="http://www.w3.org/2000/svg">
<path d="M12.2109 1.87695C12.6993 1.92546 13.1587 2.14214 13.5088 2.49219C13.9085 2.89214 14.1337 3.43455 14.1338 4V12C14.1337 12.5657 13.9088 13.1088 13.5088 13.5088C13.1088 13.9088 12.5657 14.1337 12 14.1338H4C3.43455 14.1337 2.89214 13.9085 2.49219 13.5088C2.14213 13.1587 1.92546 12.6993 1.87695 12.2109L1.86719 12V4C1.86727 3.43432 2.09219 2.89219 2.49219 2.49219C2.89219 2.09219 3.43432 1.86727 4 1.86719H12L12.2109 1.87695ZM4 3.4668C3.85867 3.46688 3.72299 3.52311 3.62305 3.62305C3.5231 3.72299 3.46688 3.85867 3.4668 4V12L3.47754 12.1045C3.49804 12.207 3.54805 12.3029 3.62305 12.3779C3.72294 12.4776 3.8589 12.5331 4 12.5332H5.86719V3.4668H4ZM7.4668 12.5332H12C12.1413 12.5331 12.278 12.4779 12.3779 12.3779C12.4779 12.278 12.5331 12.1413 12.5332 12V4C12.5331 3.8589 12.4776 3.72294 12.3779 3.62305C12.3029 3.54805 12.207 3.49804 12.1045 3.47754L12 3.4668H7.4668V12.5332ZM10 8.9668C10.1491 8.96686 10.292 9.02473 10.3975 9.12695L11.335 10.0352C11.5546 10.2482 11.5546 10.5946 11.335 10.8076C11.1154 11.0199 10.7596 11.02 10.54 10.8076L10 10.2832L9.46094 10.8076L9.41699 10.8447C9.19623 11.0189 8.87084 11.0067 8.66504 10.8076C8.45916 10.608 8.44597 10.2914 8.62598 10.0771L8.66504 10.0352L9.60254 9.12695C9.70795 9.02476 9.85095 8.96688 10 8.9668ZM8.53125 5.19238C8.75085 4.97967 9.10752 4.97971 9.32715 5.19238L9.86621 5.7168L10.4062 5.19238L10.4492 5.15527C10.67 4.9808 10.9962 4.99305 11.2021 5.19238C11.4081 5.39213 11.4205 5.7086 11.2402 5.92285L11.2021 5.96484L10.2646 6.87305C10.045 7.08607 9.68843 7.08607 9.46875 6.87305L8.53125 5.96484C8.31166 5.75181 8.3116 5.40538 8.53125 5.19238Z" fill="#111111"/>
</svg>
