<svg width="16" height="16" viewBox="0 0 16 16" fill="none" xmlns="http://www.w3.org/2000/svg">
<path fill-rule="evenodd" clip-rule="evenodd" d="M4.00001 2.53333C4.44184 2.53333 4.80001 2.8915 4.80001 3.33333L4.80001 12.6667C4.80001 13.1085 4.44184 13.4667 4.00001 13.4667C3.55819 13.4667 3.20001 13.1085 3.20001 12.6667L3.20001 3.33333C3.20001 2.8915 3.55818 2.53333 4.00001 2.53333ZM8.00001 2.53333C8.44184 2.53333 8.80001 2.8915 8.80001 3.33333L8.80001 12.6667C8.80001 13.1085 8.44184 13.4667 8.00001 13.4667C7.55818 13.4667 7.20001 13.1085 7.20001 12.6667L7.20001 3.33333C7.20001 2.8915 7.55818 2.53333 8.00001 2.53333ZM12 2.53333C12.4418 2.53333 12.8 2.8915 12.8 3.33333L12.8 12.6667C12.8 13.1085 12.4418 13.4667 12 13.4667C11.5582 13.4667 11.2 13.1085 11.2 12.6667L11.2 3.33333C11.2 2.8915 11.5582 2.53333 12 2.53333Z" fill="#111111"/>
</svg>
