<svg width="16" height="16" viewBox="0 0 16 16" fill="none" xmlns="http://www.w3.org/2000/svg">
<g clip-path="url(#clip0_1140_37)">
<path d="M12.4756 3.87988C12.7271 3.90475 12.9746 3.9664 13.209 4.06348C13.5215 4.193 13.8057 4.3829 14.0449 4.62207C14.2841 4.86133 14.475 5.14546 14.6045 5.45801C14.7339 5.77068 14.8008 6.10691 14.8008 6.44531V12.2227L14.7881 12.4756C14.7632 12.7272 14.7016 12.9746 14.6045 13.209C14.4749 13.5217 14.2843 13.8056 14.0449 14.0449C13.8056 14.2843 13.5217 14.4749 13.209 14.6045C12.9746 14.7016 12.7271 14.7632 12.4756 14.7881L12.2227 14.8008H6.44531C6.10691 14.8008 5.77067 14.7339 5.45801 14.6045C5.14546 14.475 4.86133 14.2841 4.62207 14.0449C4.3829 13.8057 4.193 13.5215 4.06348 13.209C3.96639 12.9746 3.90475 12.7271 3.87988 12.4756L3.86719 12.2227V6.44531C3.86719 5.76158 4.1386 5.10554 4.62207 4.62207C5.10554 4.1386 5.76159 3.86719 6.44531 3.86719H12.2227L12.4756 3.87988ZM6.44531 5.4668C6.18593 5.4668 5.93732 5.5705 5.75391 5.75391C5.5705 5.93732 5.4668 6.18593 5.4668 6.44531V12.2227L5.47168 12.3184C5.48112 12.4137 5.50422 12.5078 5.54102 12.5967C5.59016 12.7152 5.66319 12.8233 5.75391 12.9141C5.84451 13.0045 5.95207 13.0769 6.07031 13.126C6.18886 13.175 6.31702 13.2002 6.44531 13.2002H12.2227L12.3184 13.1953C12.4137 13.1859 12.5078 13.1628 12.5967 13.126C12.7153 13.0768 12.8233 13.0048 12.9141 12.9141C13.0048 12.8233 13.0768 12.7153 13.126 12.5967C13.1628 12.5078 13.1859 12.4137 13.1953 12.3184L13.2002 12.2227V6.44531L13.1953 6.34863C13.1859 6.2534 13.1627 6.15906 13.126 6.07031C13.0769 5.95207 13.0045 5.84451 12.9141 5.75391C12.8233 5.66319 12.7152 5.59016 12.5967 5.54102C12.5078 5.50422 12.4137 5.48112 12.3184 5.47168L12.2227 5.4668H6.44531ZM10 1.2002C10.3999 1.2002 10.7621 1.30708 11.0723 1.53223C11.2917 1.69155 11.4555 1.88863 11.583 2.08398L11.6992 2.27832L11.7354 2.35156C11.8955 2.72399 11.7506 3.16494 11.3887 3.36621C11.0266 3.56736 10.5755 3.4577 10.3438 3.125L10.3008 3.05566L10.2412 2.95605C10.1874 2.8741 10.1507 2.84084 10.1318 2.82715C10.1219 2.81997 10.1133 2.81542 10.1006 2.81152C10.0866 2.80722 10.0559 2.7998 10 2.7998H3.33301C3.04176 2.79998 2.79998 3.04176 2.7998 3.33301V9.99805L2.80469 10.0684C2.81407 10.1381 2.83742 10.2054 2.87305 10.2666C2.90865 10.3277 2.9558 10.3813 3.01172 10.4238L3.07129 10.4629L3.13965 10.5068C3.47004 10.7422 3.57532 11.1947 3.37012 11.5547C3.16491 11.9144 2.72227 12.0539 2.35156 11.8896L2.27832 11.8525L2.1582 11.7793C1.88476 11.5985 1.65588 11.3566 1.49023 11.0723C1.30095 10.7473 1.20111 10.378 1.2002 10.002V3.33301C1.20037 2.1581 2.1581 1.20037 3.33301 1.2002H10Z" fill="#111111"/>
</g>
<defs>
<clipPath id="clip0_1140_37">
<rect width="16" height="16" fill="white"/>
</clipPath>
</defs>
</svg>
