<svg width="16" height="16" viewBox="0 0 16 16" fill="none" xmlns="http://www.w3.org/2000/svg">
<path fill-rule="evenodd" clip-rule="evenodd" d="M1.86667 4.66668C1.86667 4.22485 2.22484 3.86668 2.66667 3.86668H13.3333C13.7752 3.86668 14.1333 4.22485 14.1333 4.66668C14.1333 5.10851 13.7752 5.46668 13.3333 5.46668H2.66667C2.22484 5.46668 1.86667 5.10851 1.86667 4.66668Z" fill="#111111"/>
<path fill-rule="evenodd" clip-rule="evenodd" d="M6.66667 6.53335C7.1085 6.53335 7.46667 6.89152 7.46667 7.33335V11.3333C7.46667 11.7752 7.1085 12.1333 6.66667 12.1333C6.22484 12.1333 5.86667 11.7752 5.86667 11.3333V7.33335C5.86667 6.89152 6.22484 6.53335 6.66667 6.53335Z" fill="#111111"/>
<path fill-rule="evenodd" clip-rule="evenodd" d="M9.33333 6.53335C9.77516 6.53335 10.1333 6.89152 10.1333 7.33335V11.3333C10.1333 11.7752 9.77516 12.1333 9.33333 12.1333C8.89151 12.1333 8.53333 11.7752 8.53333 11.3333V7.33335C8.53333 6.89152 8.89151 6.53335 9.33333 6.53335Z" fill="#111111"/>
<path fill-rule="evenodd" clip-rule="evenodd" d="M3.2669 3.86944C3.7072 3.83275 4.09388 4.15994 4.13057 4.60024L4.79724 12.6002C4.79908 12.6223 4.8 12.6445 4.8 12.6667C4.8 12.8081 4.85619 12.9438 4.95621 13.0438C5.05623 13.1438 5.19189 13.2 5.33333 13.2H10.6667C10.8081 13.2 10.9438 13.1438 11.0438 13.0438C11.1438 12.9438 11.2 12.8081 11.2 12.6667C11.2 12.6445 11.2009 12.6223 11.2028 12.6002L11.8694 4.60024C11.9061 4.15994 12.2928 3.83275 12.7331 3.86944C13.1734 3.90613 13.5006 4.29281 13.4639 4.73311L12.7997 12.7038C12.7901 13.2562 12.5665 13.7839 12.1752 14.1752C11.7751 14.5752 11.2325 14.8 10.6667 14.8H5.33333C4.76754 14.8 4.22492 14.5752 3.82484 14.1752C3.43353 13.7839 3.20993 13.2562 3.20032 12.7038L2.5361 4.73311C2.49941 4.29281 2.8266 3.90613 3.2669 3.86944Z" fill="#111111"/>
<path fill-rule="evenodd" clip-rule="evenodd" d="M6.8 2.80001V4.66668C6.8 5.10851 6.44183 5.46668 6 5.46668C5.55817 5.46668 5.2 5.10851 5.2 4.66668V2.66668C5.2 2.27769 5.35453 1.90464 5.62958 1.62959C5.90463 1.35454 6.27768 1.20001 6.66667 1.20001H9.33334C9.72232 1.20001 10.0954 1.35454 10.3704 1.62959C10.6455 1.90464 10.8 2.27769 10.8 2.66668V4.66668C10.8 5.10851 10.4418 5.46668 10 5.46668C9.55817 5.46668 9.2 5.10851 9.2 4.66668V2.80001H6.8Z" fill="#111111"/>
</svg>
