<svg width="16" height="16" viewBox="0 0 16 16" fill="none" xmlns="http://www.w3.org/2000/svg">
<path fill-rule="evenodd" clip-rule="evenodd" d="M1.20001 4.00001C1.20001 3.55818 1.55818 3.20001 2.00001 3.20001H14C14.4418 3.20001 14.8 3.55818 14.8 4.00001C14.8 4.44184 14.4418 4.80001 14 4.80001H2.00001C1.55818 4.80001 1.20001 4.44184 1.20001 4.00001ZM13.3333 5.86668C13.7752 5.86668 14.1333 6.22485 14.1333 6.66668V12.6667C14.1333 13.1085 13.7752 13.4667 13.3333 13.4667C12.8915 13.4667 12.5333 13.1085 12.5333 12.6667V7.46668H3.46668L3.46668 12.6667C3.46668 13.1085 3.10851 13.4667 2.66668 13.4667C2.22485 13.4667 1.86668 13.1085 1.86668 12.6667L1.86668 6.66668C1.86668 6.45451 1.95096 6.25102 2.10099 6.10099C2.25102 5.95096 2.45451 5.86668 2.66668 5.86668H13.3333Z" fill="#111111"/>
</svg>
