<svg width="16" height="16" viewBox="0 0 16 16" fill="none" xmlns="http://www.w3.org/2000/svg">
<path d="M11.9346 5.43457C12.247 5.12215 12.753 5.12215 13.0654 5.43457L15.0654 7.43457C15.3778 7.74699 15.3778 8.25302 15.0654 8.56543L13.0654 10.5654C12.753 10.8778 12.247 10.8778 11.9346 10.5654C11.6222 10.253 11.6222 9.74699 11.9346 9.43457L12.5693 8.79981H3.93066L4.56543 9.43457L4.62012 9.49512C4.87655 9.80934 4.85838 10.2725 4.56543 10.5654C4.27248 10.8584 3.80933 10.8765 3.49512 10.6201L3.43457 10.5654L1.43457 8.56543C1.4002 8.53106 1.37056 8.49362 1.34375 8.45508C1.32624 8.42988 1.30949 8.40415 1.29492 8.37695C1.29044 8.36859 1.28639 8.36005 1.28223 8.35156C1.25247 8.29092 1.22948 8.2263 1.21582 8.1582C1.21485 8.15338 1.21475 8.14839 1.21387 8.14356C1.20541 8.09694 1.2002 8.04906 1.2002 8C1.2002 7.95063 1.20531 7.90236 1.21387 7.85547C1.21915 7.82663 1.22493 7.79776 1.2334 7.76953C1.24611 7.72716 1.263 7.68656 1.28223 7.64746C1.31999 7.57063 1.37064 7.49851 1.43457 7.43457L3.43457 5.43457C3.74699 5.12215 4.25301 5.12215 4.56543 5.43457C4.87782 5.74699 4.87784 6.25302 4.56543 6.56543L3.93066 7.2002H12.5693L11.9346 6.56543C11.6222 6.25302 11.6222 5.74699 11.9346 5.43457Z" fill="#111111"/>
</svg>
