<svg width="16" height="16" viewBox="0 0 16 16" fill="none" xmlns="http://www.w3.org/2000/svg">
<path fill-rule="evenodd" clip-rule="evenodd" d="M5.33333 2.80001C5.19188 2.80001 5.05623 2.8562 4.95621 2.95622C4.85619 3.05624 4.8 3.1919 4.8 3.33335V13.2H11.2V3.33335C11.2 3.1919 11.1438 3.05624 11.0438 2.95622C10.9438 2.8562 10.8081 2.80001 10.6667 2.80001H5.33333ZM12.8 13.2V3.33335C12.8 2.76755 12.5752 2.22493 12.1752 1.82485C11.7751 1.42477 11.2325 1.20001 10.6667 1.20001H5.33333C4.76754 1.20001 4.22491 1.42477 3.82484 1.82485C3.42476 2.22493 3.2 2.76755 3.2 3.33335V13.2H2C1.55817 13.2 1.2 13.5582 1.2 14C1.2 14.4418 1.55817 14.8 2 14.8H14C14.4418 14.8 14.8 14.4418 14.8 14C14.8 13.5582 14.4418 13.2 14 13.2H12.8ZM9.33333 7.20001C9.77516 7.20001 10.1333 7.55818 10.1333 8.00001V8.00668C10.1333 8.44851 9.77516 8.80668 9.33333 8.80668C8.8915 8.80668 8.53333 8.44851 8.53333 8.00668V8.00001C8.53333 7.55818 8.8915 7.20001 9.33333 7.20001Z" fill="#111111"/>
</svg>
