<svg width="16" height="16" viewBox="0 0 16 16" fill="none" xmlns="http://www.w3.org/2000/svg">
<path fill-rule="evenodd" clip-rule="evenodd" d="M8 1.86667C8.44183 1.86667 8.8 2.22484 8.8 2.66667V8.7353L10.7676 6.76765C11.0801 6.45523 11.5866 6.45523 11.899 6.76765C12.2114 7.08007 12.2114 7.5866 11.899 7.89902L8.56569 11.2324C8.25327 11.5448 7.74674 11.5448 7.43432 11.2324L4.10098 7.89902C3.78856 7.5866 3.78856 7.08007 4.10098 6.76765C4.4134 6.45523 4.91993 6.45523 5.23235 6.76765L7.2 8.7353V2.66667C7.2 2.22484 7.55817 1.86667 8 1.86667ZM2.66667 10.5333C3.1085 10.5333 3.46667 10.8915 3.46667 11.3333V12.6667C3.46667 12.8081 3.52286 12.9438 3.62288 13.0438C3.7229 13.1438 3.85855 13.2 4 13.2H12C12.1414 13.2 12.2771 13.1438 12.3771 13.0438C12.4771 12.9438 12.5333 12.8081 12.5333 12.6667V11.3333C12.5333 10.8915 12.8915 10.5333 13.3333 10.5333C13.7752 10.5333 14.1333 10.8915 14.1333 11.3333V12.6667C14.1333 13.2325 13.9086 13.7751 13.5085 14.1752C13.1084 14.5752 12.5658 14.8 12 14.8H4C3.43421 14.8 2.89158 14.5752 2.49151 14.1752C2.09143 13.7751 1.86667 13.2325 1.86667 12.6667V11.3333C1.86667 10.8915 2.22484 10.5333 2.66667 10.5333Z" fill="#111111"/>
</svg>
