<svg width="16" height="16" viewBox="0 0 16 16" fill="none" xmlns="http://www.w3.org/2000/svg">
<path d="M11.7734 12.5547C11.8257 12.554 11.8773 12.5637 11.9258 12.582C11.9743 12.6004 12.0184 12.6275 12.0557 12.6621C12.0929 12.6968 12.1233 12.7377 12.1436 12.7832C12.1637 12.8286 12.1738 12.8776 12.1738 12.9268C12.1738 12.9761 12.1638 13.0257 12.1436 13.0713C12.1233 13.1168 12.0929 13.1577 12.0557 13.1924C12.0184 13.227 11.9743 13.2541 11.9258 13.2725C11.8773 13.2908 11.8257 13.3004 11.7734 13.2998H7.29492C7.2427 13.3005 7.19105 13.2908 7.14258 13.2725C7.09399 13.2541 7.049 13.227 7.01172 13.1924C6.97462 13.1578 6.94495 13.1167 6.9248 13.0713C6.9046 13.0257 6.89453 12.9761 6.89453 12.9268C6.8946 12.8776 6.90466 12.8286 6.9248 12.7832C6.94495 12.7378 6.97462 12.6967 7.01172 12.6621C7.049 12.6274 7.09399 12.6004 7.14258 12.582C7.19105 12.5637 7.2427 12.554 7.29492 12.5547H11.7734ZM13.6172 4.60742C14.4159 4.6076 15.0654 5.2205 15.0654 5.97363V10.4434C15.0654 11.1965 14.4159 11.8094 13.6172 11.8096H5.45117C4.65236 11.8095 4.00293 11.1965 4.00293 10.4434V5.97363C4.00293 5.22045 4.65236 4.60752 5.45117 4.60742H13.6172ZM10.0615 2C10.9389 2.00032 11.6595 2.67076 11.7393 3.52734C11.7473 3.61412 11.676 3.68532 11.5889 3.68555H10.6406C10.5534 3.68555 10.4852 3.61236 10.4531 3.53125C10.3915 3.37509 10.2395 3.26394 10.0615 3.26367H2.89648C2.54759 3.26384 2.26384 3.54759 2.26367 3.89648V7.68945C2.26384 8.03834 2.54759 8.32112 2.89648 8.32129C2.94614 8.32153 2.98633 8.36239 2.98633 8.41211V9.49512C2.98633 9.54483 2.94614 9.5857 2.89648 9.58594C1.84932 9.58577 1.00017 8.73661 1 7.68945V3.89648C1.00017 2.84932 1.84932 2.00017 2.89648 2H10.0615Z" fill="#111111"/>
</svg>
