<svg width="16" height="16" viewBox="0 0 16 16" fill="none" xmlns="http://www.w3.org/2000/svg">
<path d="M4.66667 13.6526C4.86 13.6526 5.04 13.6121 5.17333 13.5515C5.64667 13.3022 5.98 12.9586 6.31333 11.948C6.65333 10.897 7.29333 10.4052 7.90667 9.92685C8.43333 9.51588 8.98 9.09143 9.45333 8.22233C9.80667 7.57555 10 6.86814 10 6.24158C10 4.35515 8.53333 2.87295 6.66667 2.87295C5.02511 2.87295 3.69289 4.01922 3.39545 5.57864C3.32647 5.94031 3.03486 6.24158 2.66667 6.24158C2.29848 6.24158 1.99516 5.94147 2.0439 5.57652C2.35392 3.2555 4.27052 1.52551 6.66667 1.52551C9.28667 1.52551 11.3333 3.59384 11.3333 6.24158C11.3333 7.09047 11.08 8.02695 10.62 8.8691C10.0133 9.98075 9.3 10.5399 8.72 10.9913C8.18 11.409 7.79333 11.7122 7.58 12.3725C7.18 13.5987 6.66667 14.2859 5.76 14.7642C5.42 14.9192 5.04667 15 4.66667 15C3.41875 15 2.37171 14.1348 2.08053 12.9653C1.99158 12.608 2.29848 12.3051 2.66667 12.3051C3.03486 12.3051 3.31986 12.6209 3.49438 12.9451C3.72072 13.3655 4.16214 13.6526 4.66667 13.6526ZM11.3501 2.45437C11.1202 2.16561 11.1161 1.74502 11.3757 1.48265C11.6387 1.21691 12.0706 1.21517 12.3082 1.50383C13.3649 2.78784 14 4.43904 14 6.24158C14 8.0451 13.3642 9.69712 12.3064 10.9814C12.0697 11.2688 11.6396 11.2671 11.3777 11.0024C11.1202 10.7423 11.1229 10.3256 11.3499 10.0385C12.1717 8.99926 12.6667 7.67984 12.6667 6.24158C12.6667 4.80584 12.1735 3.48853 11.3501 2.45437ZM8.33333 6.24158C8.33333 7.17132 7.58667 7.92589 6.66667 7.92589C5.74667 7.92589 5 7.17132 5 6.24158C5 5.31184 5.74667 4.55727 6.66667 4.55727C7.58667 4.55727 8.33333 5.31184 8.33333 6.24158Z" fill="#111111"/>
</svg>
