<svg width="16" height="16" viewBox="0 0 16 16" fill="none" xmlns="http://www.w3.org/2000/svg">
<path fill-rule="evenodd" clip-rule="evenodd" d="M9.97226 2.51882C10.2981 2.38386 10.6473 2.31439 11 2.31439C11.3527 2.31439 11.7019 2.38386 12.0277 2.51882C12.3536 2.65379 12.6496 2.85161 12.899 3.10099C13.1484 3.35037 13.3462 3.64643 13.4812 3.97227C13.6162 4.29811 13.6856 4.64733 13.6856 5.00001C13.6856 5.35269 13.6162 5.70191 13.4812 6.02775C13.3462 6.35359 13.1484 6.64965 12.899 6.89903L12.2325 7.56553C12.2325 7.56559 12.2324 7.56564 12.2324 7.5657C12.2323 7.56575 12.2322 7.5658 12.2322 7.56586L5.89902 13.899C5.74899 14.0491 5.54551 14.1333 5.33334 14.1333H2.66667C2.22484 14.1333 1.86667 13.7752 1.86667 13.3333V10.6667C1.86667 10.4545 1.95095 10.251 2.10098 10.101L8.43428 3.7677C8.43429 3.76768 8.4343 3.76767 8.43432 3.76766L9.10098 3.10099C9.35037 2.85161 9.64643 2.65379 9.97226 2.51882ZM9 5.46471L3.46667 10.998V12.5333H5.00196L10.5353 7.00001L9 5.46471ZM11.6667 5.86864L10.1314 4.33334L10.2324 4.23236C10.3332 4.13155 10.4528 4.05159 10.5846 3.99703C10.7163 3.94247 10.8574 3.91439 11 3.91439C11.1426 3.91439 11.2837 3.94247 11.4155 3.99703C11.5472 4.05159 11.6668 4.13155 11.7677 4.23236C11.8685 4.33317 11.9484 4.45285 12.003 4.58456C12.0575 4.71627 12.0856 4.85744 12.0856 5.00001C12.0856 5.14258 12.0575 5.28375 12.003 5.41546C11.9484 5.54717 11.8685 5.66685 11.7677 5.76766L11.6667 5.86864Z" fill="#111111"/>
</svg>
