<svg width="16" height="16" viewBox="0 0 16 16" fill="none" xmlns="http://www.w3.org/2000/svg">
<path d="M7.33428 2.51978C2.59274 3.535 1.65517 9.97005 5.95891 12.2003C6.49584 12.4761 7.44167 12.7999 8.04469 12.7999C8.46184 12.7999 8.66836 12.2883 8.35446 12.0085C8.18512 11.8646 7.78448 11.8686 7.54906 11.8206C3.67487 11.0292 2.84469 5.94515 6.17368 3.93069C9.32507 2.02416 13.0795 4.59019 12.6541 8.14345C12.5012 9.43046 11.3282 11.2131 9.91157 11.325C9.17225 11.381 8.94509 10.8534 8.92856 10.2139H9.82896C9.82896 10.2139 9.99417 10.1419 10.019 10.1259C10.1511 10.038 10.2461 9.85014 10.2626 9.69826C10.3287 9.09472 10.2998 8.39926 10.3287 7.79173C10.337 7.62785 10.37 7.45998 10.3494 7.29211C10.4733 7.23216 10.6055 7.14822 10.622 6.99634C10.6344 6.90441 10.6344 6.60464 10.622 6.51671C10.6055 6.44476 10.4692 6.29288 10.4031 6.29288H10.019C9.98591 6.27289 9.99004 6.24891 9.98591 6.22093C9.92809 5.72931 10.0437 5.11778 9.98591 4.62216C9.94461 4.27843 9.55223 4.12255 9.28377 4.35037C9.22594 4.39834 9.13508 4.53023 9.13508 4.60218V6.29288H7.78861L7.75557 6.2609V4.56221C7.75557 4.53823 7.68949 4.42232 7.66883 4.39834C7.46645 4.15852 7.05756 4.21448 6.93365 4.50226C6.92126 4.52624 6.88821 4.63415 6.88821 4.64614V6.29288H6.54127C6.47106 6.29288 6.35128 6.43677 6.33063 6.50472C6.30172 6.61663 6.30172 6.96836 6.34302 7.07228C6.38432 7.1722 6.48758 7.24814 6.59084 7.26413C6.63214 7.29211 6.60736 7.60787 6.61149 7.68381C6.6404 8.33131 6.63214 9.05875 6.69822 9.69826C6.71887 9.92608 6.90061 10.1699 7.13603 10.2059C7.4045 10.2458 7.73492 10.1899 8.01165 10.2099C8.02817 11.1292 8.47424 12.0405 9.46963 12.2003C11.2456 12.4841 12.939 10.5456 13.3851 9.01478C14.4672 5.30963 11.2126 1.68842 7.33428 2.51978ZM8.18512 9.41847C8.16034 9.44645 8.11903 9.5104 8.09012 9.52639C7.99512 9.57835 7.87948 9.49441 7.90013 9.39049L8.14794 8.39526H7.65231C7.57384 8.39526 7.49949 8.26336 7.55732 8.19541C7.87535 7.77973 8.15621 7.32009 8.47424 6.9124C8.49489 6.88842 8.5238 6.84046 8.55271 6.82847C8.62706 6.7845 8.73031 6.83246 8.7427 6.9164L8.63945 7.79173H9.16812C9.16812 7.79173 9.21768 7.81571 9.22594 7.8237C9.27138 7.86367 9.27964 7.93961 9.24659 7.98757C8.88313 8.45122 8.55271 8.94684 8.18925 9.41448L8.18512 9.41847Z" fill="#111111"/>
</svg>
