<svg width="16" height="16" viewBox="0 0 16 16" fill="none" xmlns="http://www.w3.org/2000/svg">
<path fill-rule="evenodd" clip-rule="evenodd" d="M3.33333 4.13333C3.19188 4.13333 3.05623 4.18952 2.95621 4.28953C2.94562 4.30012 2.93552 4.31111 2.92593 4.32247L8 7.70518L13.0741 4.32247C13.0645 4.31111 13.0544 4.30012 13.0438 4.28953C12.9438 4.18952 12.8081 4.13333 12.6667 4.13333H3.33333ZM13.2 6.16147L8.44376 9.3323C8.17504 9.51145 7.82496 9.51145 7.55624 9.3323L2.8 6.16147V11.3333C2.8 11.4748 2.85619 11.6104 2.95621 11.7104C3.05623 11.8105 3.19188 11.8667 3.33333 11.8667H12.6667C12.8081 11.8667 12.9438 11.8105 13.0438 11.7104C13.1438 11.6104 13.2 11.4748 13.2 11.3333V6.16147ZM1.82484 3.15816C2.22491 2.75809 2.76754 2.53333 3.33333 2.53333H12.6667C13.2325 2.53333 13.7751 2.75809 14.1752 3.15816C14.5752 3.55824 14.8 4.10086 14.8 4.66666V11.3333C14.8 11.8991 14.5752 12.4417 14.1752 12.8418C13.7751 13.2419 13.2325 13.4667 12.6667 13.4667H3.33333C2.76753 13.4667 2.22491 13.2419 1.82484 12.8418C1.42476 12.4417 1.2 11.8991 1.2 11.3333V4.66666C1.2 4.10086 1.42476 3.55824 1.82484 3.15816Z" fill="#111111"/>
</svg>
