<svg width="16" height="16" viewBox="0 0 16 16" fill="none" xmlns="http://www.w3.org/2000/svg">
<path fill-rule="evenodd" clip-rule="evenodd" d="M3.19167 3.19169C4.46692 1.91644 6.19653 1.20001 8 1.20001C9.80347 1.20001 11.5331 1.91644 12.8083 3.19169C14.0836 4.46693 14.8 6.19654 14.8 8.00001C14.8 8.893 14.6241 9.77725 14.2824 10.6023C13.9406 11.4273 13.4398 12.1769 12.8083 12.8083C12.1769 13.4398 11.4273 13.9407 10.6022 14.2824C9.77723 14.6241 8.89299 14.8 8 14.8C7.10701 14.8 6.22276 14.6241 5.39775 14.2824C4.57274 13.9407 3.82311 13.4398 3.19167 12.8083C2.56023 12.1769 2.05935 11.4273 1.71762 10.6023C1.37588 9.77725 1.2 8.893 1.2 8.00001C1.2 6.19654 1.91642 4.46693 3.19167 3.19169ZM8 2.80001C6.62087 2.80001 5.29823 3.34787 4.32304 4.32306C3.34785 5.29825 2.8 6.62089 2.8 8.00001C2.8 8.68289 2.9345 9.35907 3.19582 9.98997C3.45715 10.6209 3.84018 11.1941 4.32304 11.677C4.80591 12.1598 5.37915 12.5429 6.01004 12.8042C6.64094 13.0655 7.31712 13.2 8 13.2C8.68287 13.2 9.35906 13.0655 9.98995 12.8042C10.6208 12.5429 11.1941 12.1598 11.677 11.677C12.1598 11.1941 12.5428 10.6209 12.8042 9.98997C13.0655 9.35907 13.2 8.68289 13.2 8.00001C13.2 6.62089 12.6521 5.29825 11.677 4.32306C10.7018 3.34787 9.37912 2.80001 8 2.80001ZM8.00666 5.20001C8.44849 5.20001 8.80666 5.55818 8.80666 6.00001L8.80666 8.66668C8.80666 9.10851 8.44849 9.46668 8.00666 9.46668C7.56484 9.46668 7.20666 9.10851 7.20666 8.66668L7.20666 6.00001C7.20667 5.55818 7.56484 5.20001 8.00666 5.20001ZM7.2 10.6667C7.2 10.2249 7.55817 9.86668 8 9.86668H8.00666C8.44849 9.86668 8.80666 10.2249 8.80666 10.6667C8.80666 11.1085 8.44849 11.4667 8.00666 11.4667H8C7.55817 11.4667 7.2 11.1085 7.2 10.6667Z" fill="#111111"/>
</svg>
