<svg width="16" height="16" viewBox="0 0 16 16" fill="none" xmlns="http://www.w3.org/2000/svg">
<path fill-rule="evenodd" clip-rule="evenodd" d="M2.66667 10.5333C3.1085 10.5333 3.46667 10.8915 3.46667 11.3333V12.6667C3.46667 12.8081 3.52286 12.9438 3.62288 13.0438C3.7229 13.1438 3.85855 13.2 4 13.2H12C12.1414 13.2 12.2771 13.1438 12.3771 13.0438C12.4771 12.9438 12.5333 12.8081 12.5333 12.6667V11.3333C12.5333 10.8915 12.8915 10.5333 13.3333 10.5333C13.7752 10.5333 14.1333 10.8915 14.1333 11.3333V12.6667C14.1333 13.2325 13.9086 13.7751 13.5085 14.1752C13.1084 14.5752 12.5658 14.8 12 14.8H4C3.43421 14.8 2.89158 14.5752 2.49151 14.1752C2.09143 13.7751 1.86667 13.2325 1.86667 12.6667V11.3333C1.86667 10.8915 2.22484 10.5333 2.66667 10.5333Z" fill="#111111"/>
<path fill-rule="evenodd" clip-rule="evenodd" d="M8.13333 11.4667C7.6915 11.4667 7.33333 11.1085 7.33333 10.6667L7.33333 4.59804L5.36568 6.56569C5.05326 6.87811 4.54673 6.87811 4.23431 6.56569C3.92189 6.25327 3.92189 5.74674 4.23431 5.43432L7.56764 2.10099C7.88006 1.78857 8.3866 1.78857 8.69902 2.10099L12.0323 5.43432C12.3448 5.74674 12.3448 6.25327 12.0323 6.56569C11.7199 6.87811 11.2134 6.87811 10.901 6.56569L8.93333 4.59805L8.93333 10.6667C8.93333 11.1085 8.57516 11.4667 8.13333 11.4667Z" fill="#111111"/>
</svg>
