<svg width="16" height="16" viewBox="0 0 16 16" fill="none" xmlns="http://www.w3.org/2000/svg">
<g clip-path="url(#clip0_1144_29)">
<path d="M8 3.2002C8.44168 3.20037 8.80078 3.55828 8.80078 4C8.80078 4.44172 8.44168 4.79963 8 4.7998H4C3.85875 4.79989 3.72297 4.85621 3.62305 4.95605C3.5231 5.056 3.46688 5.19168 3.4668 5.33301V12C3.4668 12.1414 3.52313 12.2769 3.62305 12.377C3.72297 12.4768 3.85875 12.5331 4 12.5332H10.667C10.8083 12.5331 10.944 12.4769 11.0439 12.377C11.1439 12.2769 11.2002 12.1414 11.2002 12V8C11.2002 7.55828 11.5583 7.20037 12 7.2002C12.4417 7.20037 12.8008 7.55828 12.8008 8V12C12.8008 12.5657 12.5758 13.1087 12.1758 13.5088C11.7758 13.9088 11.2327 14.1337 10.667 14.1338H4C3.43455 14.1337 2.89214 13.9085 2.49219 13.5088C2.09211 13.1087 1.86719 12.5658 1.86719 12V5.33301C1.86727 4.76733 2.09219 4.2252 2.49219 3.8252C2.89217 3.4253 3.4344 3.20028 4 3.2002H8ZM13.333 1.86719C13.407 1.86719 13.4788 1.8767 13.5469 1.89551C13.552 1.89693 13.5574 1.89788 13.5625 1.89941C13.6296 1.91944 13.6925 1.94946 13.751 1.98535C13.8034 2.01757 13.854 2.05612 13.8994 2.10156C13.9328 2.13496 13.9611 2.17164 13.9873 2.20898C14.0786 2.33886 14.1338 2.49626 14.1338 2.66699V6C14.1336 6.44168 13.7747 6.80078 13.333 6.80078C12.8914 6.80061 12.5334 6.44157 12.5332 6V4.59766L7.89844 9.23242C7.58599 9.54452 7.07989 9.54473 6.76758 9.23242C6.45527 8.92011 6.45548 8.41401 6.76758 8.10156L11.4023 3.4668H10C9.55828 3.4668 9.20037 3.10867 9.2002 2.66699C9.2002 2.22516 9.55817 1.86719 10 1.86719H13.333Z" fill="#111111"/>
</g>
<defs>
<clipPath id="clip0_1144_29">
<rect width="16" height="16" fill="white"/>
</clipPath>
</defs>
</svg>
