<svg width="16" height="16" viewBox="0 0 16 16" fill="none" xmlns="http://www.w3.org/2000/svg">
<path fill-rule="evenodd" clip-rule="evenodd" d="M2.43238 8.00001C4.02496 10.564 5.88648 11.7 8 11.7C10.1135 11.7 11.975 10.564 13.5676 8.00001C11.975 5.43607 10.1135 4.30001 8 4.30001C5.88648 4.30001 4.02496 5.43607 2.43238 8.00001ZM0.807305 7.59979C2.62945 4.44608 5.02046 2.70001 8 2.70001C10.9795 2.70001 13.3705 4.44608 15.1927 7.59979C15.3358 7.84742 15.3358 8.1526 15.1927 8.40023C13.3705 11.5539 10.9795 13.3 8 13.3C5.02046 13.3 2.62945 11.5539 0.807305 8.40023C0.664228 8.1526 0.664228 7.84742 0.807305 7.59979ZM6.37365 6.37367C6.80499 5.94233 7.39 5.70001 8 5.70001C8.61 5.70001 9.19501 5.94233 9.62634 6.37367C10.0577 6.805 10.3 7.39001 10.3 8.00001C10.3 8.61001 10.0577 9.19502 9.62634 9.62636C9.19501 10.0577 8.61 10.3 8 10.3C7.39 10.3 6.80499 10.0577 6.37365 9.62636C5.94232 9.19502 5.7 8.61001 5.7 8.00001C5.7 7.39001 5.94232 6.805 6.37365 6.37367ZM8 7.30001C7.81435 7.30001 7.6363 7.37376 7.50502 7.50504C7.37375 7.63631 7.3 7.81436 7.3 8.00001C7.3 8.18566 7.37375 8.36371 7.50502 8.49499C7.6363 8.62626 7.81435 8.70001 8 8.70001C8.18565 8.70001 8.3637 8.62626 8.49497 8.49499C8.62625 8.36371 8.7 8.18566 8.7 8.00001C8.7 7.81436 8.62625 7.63631 8.49497 7.50504C8.3637 7.37376 8.18565 7.30001 8 7.30001Z" fill="#111111"/>
</svg>
