<svg width="16" height="16" viewBox="0 0 16 16" fill="none" xmlns="http://www.w3.org/2000/svg">
<path fill-rule="evenodd" clip-rule="evenodd" d="M0.934315 0.434327C1.24673 0.121907 1.75327 0.121907 2.06569 0.434327L7.48223 5.85087C7.51646 5.8756 7.54918 5.90337 7.58001 5.93419C7.61093 5.9651 7.6388 5.99791 7.66361 6.03225L9.96593 8.33457C10.0008 8.35963 10.0342 8.38784 10.0655 8.41921C10.097 8.45067 10.1253 8.48411 10.1505 8.51911L15.0657 13.4343C15.3781 13.7467 15.3781 14.2533 15.0657 14.5657C14.7533 14.8781 14.2467 14.8781 13.9343 14.5657L11.6494 12.2808C10.5461 12.9544 9.28428 13.3081 7.99732 13.2998C5.01904 13.2988 2.62891 11.5529 0.807312 8.40016C0.66423 8.15252 0.66423 7.84734 0.807312 7.5997C1.62238 6.18904 2.55055 5.05638 3.60418 4.23556L0.934315 1.5657C0.621896 1.25328 0.621896 0.746746 0.934315 0.434327ZM4.7464 5.37778C3.92779 5.97654 3.15287 6.84078 2.43242 7.99999C4.02499 10.5638 5.8865 11.6998 8 11.6998H8.00548C8.86293 11.7057 9.7086 11.502 10.4752 11.1066L9.39937 10.0308C9.04807 10.2061 8.65772 10.2999 8.25768 10.3C7.57943 10.3001 6.92892 10.0308 6.44927 9.55122C5.96963 9.07167 5.70012 8.42123 5.7 7.74298C5.69993 7.34269 5.79369 6.95206 5.96911 6.6005L4.7464 5.37778ZM7.32394 7.95532C7.36371 8.12983 7.45196 8.29119 7.58053 8.41973C7.70906 8.54824 7.87035 8.63641 8.04475 8.67613L7.32394 7.95532ZM7.99786 4.30001C7.61255 4.29898 7.22804 4.33845 6.85014 4.4179C6.41776 4.50879 5.99356 4.23197 5.90267 3.79959C5.81177 3.36721 6.0886 2.94302 6.52098 2.85212C7.008 2.74974 7.50391 2.69876 8.00107 2.70001L8.00214 2.70001L8 2.70001L8.00107 2.70001C10.9801 2.70043 13.3708 4.44642 15.1927 7.5997C15.3358 7.84734 15.3358 8.15252 15.1927 8.40016C14.6716 9.30194 14.1592 9.91498 13.5916 10.5385C13.2942 10.8653 12.7882 10.889 12.4615 10.5916C12.1348 10.2942 12.111 9.78825 12.4084 9.46151C12.8403 8.98701 13.2057 8.55472 13.5654 7.9964C13.6468 8.12725 13.7274 8.26182 13.8073 8.40016L13.5654 7.9964L13.8073 7.5997C13.7265 7.73954 13.6461 7.87114 13.5654 7.9964C11.9733 5.435 10.1125 4.30001 8 4.30001L7.99786 4.30001Z" fill="#111111"/>
</svg>
