<svg width="16" height="16" viewBox="0 0 16 16" fill="none" xmlns="http://www.w3.org/2000/svg">
<path fill-rule="evenodd" clip-rule="evenodd" d="M4.66667 2.80001C4.52522 2.80001 4.38956 2.8562 4.28954 2.95622C4.18952 3.05624 4.13333 3.1919 4.13333 3.33335V8.00001C4.13333 8.44184 3.77516 8.80001 3.33333 8.80001C2.89151 8.80001 2.53333 8.44184 2.53333 8.00001V3.33335C2.53333 2.76755 2.75809 2.22493 3.15817 1.82485C3.55825 1.42477 4.10087 1.20001 4.66667 1.20001H9.33333C9.54551 1.20001 9.74899 1.2843 9.89902 1.43433L13.2324 4.76766C13.3824 4.91769 13.4667 5.12117 13.4667 5.33335V8.00001C13.4667 8.44184 13.1085 8.80001 12.6667 8.80001C12.2248 8.80001 11.8667 8.44184 11.8667 8.00001V6.13335H10C9.61102 6.13335 9.23796 5.97882 8.96291 5.70377C8.68786 5.42871 8.53333 5.05566 8.53333 4.66668V2.80001H4.66667ZM10.1333 3.93138L10.7353 4.53335H10.1333V3.93138ZM4 9.20001C4.44183 9.20001 4.8 9.55818 4.8 10V13.2H5.33333C5.77516 13.2 6.13333 13.5582 6.13333 14C6.13333 14.4418 5.77516 14.8 5.33333 14.8H4C3.55817 14.8 3.2 14.4418 3.2 14V10C3.2 9.55818 3.55817 9.20001 4 9.20001ZM8.33333 10.8C8.28029 10.8 8.22942 10.8211 8.19191 10.8586C8.1544 10.8961 8.13333 10.947 8.13333 11V13C8.13333 13.0531 8.1544 13.1039 8.19191 13.1414C8.22942 13.1789 8.28029 13.2 8.33333 13.2C8.38638 13.2 8.43725 13.1789 8.47475 13.1414C8.51226 13.1039 8.53333 13.0531 8.53333 13V11C8.53333 10.947 8.51226 10.8961 8.47475 10.8586C8.43725 10.8211 8.38638 10.8 8.33333 10.8ZM7.06054 9.72722C7.39811 9.38966 7.85594 9.20001 8.33333 9.20001C8.81072 9.20001 9.26856 9.38966 9.60613 9.72722C9.94369 10.0648 10.1333 10.5226 10.1333 11V13C10.1333 13.4774 9.94369 13.9352 9.60613 14.2728C9.26856 14.6104 8.81072 14.8 8.33333 14.8C7.85594 14.8 7.39811 14.6104 7.06054 14.2728C6.72298 13.9352 6.53333 13.4774 6.53333 13V11C6.53333 10.5226 6.72298 10.0648 7.06054 9.72722ZM11.1582 9.82485C11.5582 9.42477 12.1009 9.20001 12.6667 9.20001H13.3333C13.7752 9.20001 14.1333 9.55818 14.1333 10C14.1333 10.4418 13.7752 10.8 13.3333 10.8H12.6667C12.5252 10.8 12.3896 10.8562 12.2895 10.9562C12.1895 11.0562 12.1333 11.1919 12.1333 11.3333V12.6667C12.1333 12.8081 12.1895 12.9438 12.2895 13.0438C12.3575 13.1117 12.4419 13.1595 12.5333 13.1831V12C12.5333 11.5582 12.8915 11.2 13.3333 11.2C13.7752 11.2 14.1333 11.5582 14.1333 12V14C14.1333 14.4418 13.7752 14.8 13.3333 14.8H12.6667C12.1009 14.8 11.5582 14.5752 11.1582 14.1752C10.7581 13.7751 10.5333 13.2325 10.5333 12.6667V11.3333C10.5333 10.7676 10.7581 10.2249 11.1582 9.82485Z" fill="#111111"/>
</svg>
