<svg width="16" height="16" viewBox="0 0 16 16" fill="none" xmlns="http://www.w3.org/2000/svg">
<path fill-rule="evenodd" clip-rule="evenodd" d="M3.33333 2.80001C3.19188 2.80001 3.05623 2.8562 2.95621 2.95622C2.85619 3.05624 2.8 3.1919 2.8 3.33335V12.6667C2.8 12.8081 2.85619 12.9438 2.95621 13.0438C3.05623 13.1438 3.19188 13.2 3.33333 13.2H7.66667C8.10849 13.2 8.46667 13.5582 8.46667 14C8.46667 14.4418 8.10849 14.8 7.66667 14.8H3.33333C2.76754 14.8 2.22492 14.5753 1.82484 14.1752C1.42476 13.7751 1.2 13.2325 1.2 12.6667V3.33335C1.2 2.76755 1.42476 2.22493 1.82484 1.82485C2.22492 1.42477 2.76754 1.20001 3.33333 1.20001H8C8.21217 1.20001 8.41566 1.2843 8.56569 1.43433L11.899 4.76766C12.049 4.91769 12.1333 5.12117 12.1333 5.33335V6.66668C12.1333 7.10851 11.7752 7.46668 11.3333 7.46668C10.8915 7.46668 10.5333 7.10851 10.5333 6.66668V6.13335H8.66667C8.27768 6.13335 7.90463 5.97882 7.62958 5.70377C7.35452 5.42872 7.2 5.05566 7.2 4.66668V2.80001H3.33333ZM8.8 3.93138L9.40196 4.53335H8.8V3.93138ZM8.88203 8.88204C9.53216 8.23192 10.4139 7.86668 11.3333 7.86668C12.2528 7.86668 13.1345 8.23192 13.7846 8.88204C14.4348 9.53217 14.8 10.4139 14.8 11.3333C14.8 12.2528 14.4348 13.1345 13.7846 13.7846C13.1345 14.4348 12.2528 14.8 11.3333 14.8C10.4139 14.8 9.53216 14.4348 8.88203 13.7846C8.2319 13.1345 7.86667 12.2528 7.86667 11.3333C7.86667 10.4139 8.2319 9.53217 8.88203 8.88204ZM10.5333 9.6468C10.3421 9.7375 10.1659 9.8609 10.0134 10.0134C9.66333 10.3635 9.46667 10.8383 9.46667 11.3333C9.46667 11.8284 9.66333 12.3032 10.0134 12.6533C10.3635 13.0033 10.8383 13.2 11.3333 13.2C11.8284 13.2 12.3032 13.0033 12.6533 12.6533C12.8058 12.5008 12.9292 12.3246 13.0199 12.1333H11.3333C11.1212 12.1333 10.9177 12.0491 10.7676 11.899C10.6176 11.749 10.5333 11.5455 10.5333 11.3333L10.5333 9.6468ZM12.1333 9.6468L12.1333 10.5333H13.0199C12.9292 10.3421 12.8058 10.1659 12.6533 10.0134C12.5008 9.8609 12.3246 9.7375 12.1333 9.6468Z" fill="#111111"/>
</svg>
