<svg width="16" height="16" viewBox="0 0 16 16" fill="none" xmlns="http://www.w3.org/2000/svg">
<path fill-rule="evenodd" clip-rule="evenodd" d="M0.199997 4.00001C0.199997 3.55818 0.558169 3.20001 0.999997 3.20001H15C15.4418 3.20001 15.8 3.55818 15.8 4.00001C15.8 4.44184 15.4418 4.80001 15 4.80001H0.999997C0.558169 4.80001 0.199997 4.44184 0.199997 4.00001ZM3.7 8.00001C3.7 7.55818 4.05817 7.20001 4.5 7.20001H11.5C11.9418 7.20001 12.3 7.55818 12.3 8.00001C12.3 8.44184 11.9418 8.80001 11.5 8.80001H4.5C4.05817 8.80001 3.7 8.44184 3.7 8.00001ZM5.7 12C5.7 11.5582 6.05817 11.2 6.5 11.2H9.5C9.94182 11.2 10.3 11.5582 10.3 12C10.3 12.4418 9.94182 12.8 9.5 12.8H6.5C6.05817 12.8 5.7 12.4418 5.7 12Z" fill="#111111"/>
</svg>
