<svg width="16" height="16" viewBox="0 0 16 16" fill="none" xmlns="http://www.w3.org/2000/svg">
<path fill-rule="evenodd" clip-rule="evenodd" d="M2 3.2C2 2.53726 2.53726 2 3.2 2H12.8C13.4627 2 14 2.53726 14 3.2V12.8C14 13.4627 13.4627 14 12.8 14H3.2C2.53726 14 2 13.4627 2 12.8V8.68571C2 8.40168 2.23025 8.17143 2.51429 8.17143C2.79832 8.17143 3.02857 8.40168 3.02857 8.68571V9.31429H7.30893V6.62857C7.30893 6.34454 7.53918 6.11429 7.82321 6.11429C8.10725 6.11429 8.3375 6.34454 8.3375 6.62857V9.31429H9.37143C9.65546 9.31429 9.88571 9.54454 9.88571 9.82857C9.88571 10.1126 9.65546 10.3429 9.37143 10.3429H3.02857V12.8C3.02857 12.8947 3.10532 12.9714 3.2 12.9714H12.8C12.8947 12.9714 12.9714 12.8947 12.9714 12.8V10.3429H11.7714C11.4874 10.3429 11.2571 10.1126 11.2571 9.82857C11.2571 9.54454 11.4874 9.31429 11.7714 9.31429H12.9714V3.2C12.9714 3.10532 12.8947 3.02857 12.8 3.02857H8.3375V4.57143C8.3375 4.85546 8.10725 5.08571 7.82321 5.08571C7.53918 5.08571 7.30893 4.85546 7.30893 4.57143V3.02857H3.2C3.10532 3.02857 3.02857 3.10532 3.02857 3.2V6.28571C3.02857 6.56975 2.79832 6.8 2.51429 6.8C2.23025 6.8 2 6.56975 2 6.28571V3.2Z" fill="#111111" stroke="#111111" stroke-width="0.5" stroke-linecap="round" stroke-linejoin="round"/>
</svg>
