<svg width="16" height="16" viewBox="0 0 16 16" fill="none" xmlns="http://www.w3.org/2000/svg">
<path d="M6.5 2.5C7.05228 2.5 7.5 2.94772 7.5 3.5V4.2002H8.5V3.5C8.5 2.94772 8.94771 2.5 9.5 2.5H10.5C11.0523 2.5 11.5 2.94772 11.5 3.5V4.24707C12.6452 4.45367 13.5463 5.35478 13.7529 6.5H14.5C15.0523 6.5 15.5 6.94772 15.5 7.5V8.5C15.5 9.05228 15.0523 9.5 14.5 9.5H13.7529C13.5463 10.6452 12.6451 11.5453 11.5 11.752V12.5C11.5 13.0523 11.0523 13.5 10.5 13.5H9.5C8.94771 13.5 8.5 13.0523 8.5 12.5V11.7998H7.5V12.5C7.5 13.0523 7.05228 13.5 6.5 13.5H5.5C4.94772 13.5 4.5 13.0523 4.5 12.5V11.752C3.35486 11.5453 2.45366 10.6452 2.24707 9.5H1.5C0.947715 9.5 0.5 9.05228 0.5 8.5V7.5C0.5 6.94772 0.947715 6.5 1.5 6.5H2.24707C2.45367 5.35478 3.35478 4.45367 4.5 4.24707V3.5C4.5 2.94772 4.94772 2.5 5.5 2.5H6.5ZM5 5.7998C4.33726 5.7998 3.7998 6.33726 3.7998 7V9C3.7998 9.66274 4.33726 10.2002 5 10.2002H11C11.6627 10.2002 12.2002 9.66274 12.2002 9V7C12.2002 6.33726 11.6627 5.7998 11 5.7998H5Z" fill="#111111"/>
</svg>
