<svg width="16" height="16" viewBox="0 0 16 16" fill="none" xmlns="http://www.w3.org/2000/svg">
<path d="M7.75 0.700195C8.19183 0.700195 8.5498 1.05817 8.5498 1.5V14.25L8.5459 14.332C8.50481 14.7353 8.16413 15.0498 7.75 15.0498C7.33587 15.0498 6.99519 14.7353 6.9541 14.332L6.9502 14.25V10.792H4.86621L3.63574 13.8486L3.61816 13.9355C3.60963 13.9641 3.59877 13.9922 3.58496 14.0186L3.53711 14.0918C3.51874 14.1146 3.498 14.1357 3.47559 14.1543L3.4043 14.2021C3.37906 14.2156 3.35258 14.2265 3.3252 14.2344L3.24121 14.249L3.15625 14.2461C3.10012 14.2381 3.04587 14.2179 2.99707 14.1875C2.97267 14.1723 2.94968 14.1547 2.92871 14.1348L2.87207 14.0684C2.85506 14.0441 2.84017 14.0184 2.82812 13.9912L2.7998 13.9072C2.78633 13.8489 2.78393 13.7878 2.79297 13.7285L3.25879 10.792C3.12239 10.4793 3.06514 10.1366 2.7666 10.0098C2.74057 9.9987 2.71574 9.98492 2.69238 9.96875L2.62695 9.91309C2.60698 9.89226 2.58889 9.86917 2.57324 9.84473L2.5332 9.7666C2.51146 9.71166 2.50001 9.65233 2.5 9.59277C2.5 9.5332 2.51146 9.4739 2.5332 9.41895C2.55495 9.36411 2.58691 9.31421 2.62695 9.27246C2.667 9.23077 2.71446 9.19796 2.7666 9.17578C2.81889 9.15357 2.8753 9.14271 2.93164 9.14355H3.67578L3.75195 9.13672L3.81348 9.14355H6.9502V8.6748H5.5C4.43686 8.6748 3.57521 7.81313 3.5752 6.75V3.4502C3.5752 2.75984 4.13484 2.2002 4.8252 2.2002H6.9502V1.5C6.9502 1.05817 7.30817 0.700195 7.75 0.700195ZM5.1748 3.7998V6.75C5.17482 6.92948 5.32052 7.07519 5.5 7.0752H6.9502V3.7998H5.1748Z" fill="#111111"/>
<path opacity="0.4" d="M11.8242 9.14355H12.5684C12.6247 9.14271 12.6811 9.15357 12.7334 9.17578C12.7855 9.19796 12.833 9.23077 12.873 9.27246C12.9131 9.31421 12.9451 9.36411 12.9668 9.41895C12.9885 9.4739 13 9.5332 13 9.59277C13 9.65233 12.9885 9.71166 12.9668 9.7666L12.9268 9.84473C12.9111 9.86917 12.893 9.89226 12.873 9.91309L12.8076 9.96875C12.7843 9.98492 12.7594 9.9987 12.7334 10.0098C12.4349 10.1366 12.3776 10.4793 12.2412 10.792L12.707 13.7285C12.7161 13.7878 12.7137 13.8489 12.7002 13.9072L12.6719 13.9912C12.6598 14.0184 12.6449 14.0441 12.6279 14.0684L12.5713 14.1348C12.5503 14.1547 12.5273 14.1723 12.5029 14.1875C12.4541 14.2179 12.3999 14.2381 12.3438 14.2461L12.2588 14.249L12.1748 14.2344C12.1474 14.2265 12.1209 14.2156 12.0957 14.2021L12.0244 14.1543C12.002 14.1357 11.9813 14.1146 11.9629 14.0918L11.915 14.0186C11.9012 13.9922 11.8904 13.9641 11.8818 13.9355L11.8643 13.8486L10.6338 10.792H7.375V9.14355H11.6865L11.748 9.13672L11.8242 9.14355ZM10.6748 2.2002C11.3652 2.2002 11.9248 2.75984 11.9248 3.4502V6.75C11.9248 7.81313 11.0631 8.6748 10 8.6748H7.75V7.0752H10C10.1795 7.07519 10.3252 6.92948 10.3252 6.75V3.7998H7.75V2.2002H10.6748Z" fill="#111111"/>
</svg>
