<svg width="16" height="16" viewBox="0 0 16 16" fill="none" xmlns="http://www.w3.org/2000/svg">
<rect x="4.66602" y="4.66699" width="2.66667" height="2.66667" rx="0.666667" fill="#111111"/>
<rect x="4.66602" y="8.66699" width="2.66667" height="2.66667" rx="0.666667" fill="#111111"/>
<rect x="8.66602" y="4.66699" width="2.66667" height="2.66667" rx="0.666667" fill="#111111"/>
<rect x="8.66602" y="8.66699" width="2.66667" height="2.66667" rx="0.666667" fill="#111111"/>
<path d="M12.5007 4.69894C12.5007 4.03635 11.964 3.49898 11.3015 3.49875H4.69894C4.0362 3.49875 3.49875 4.0362 3.49875 4.69894V11.3015C3.49898 11.964 4.03635 12.5007 4.69894 12.5007H11.3015C11.9639 12.5005 12.5005 11.9639 12.5007 11.3015V4.69894ZM14.1013 11.3015C14.1011 12.8475 12.8475 14.1011 11.3015 14.1013H4.69894C3.15269 14.1013 1.89937 12.8477 1.89914 11.3015V4.69894C1.89914 3.15255 3.15255 1.89914 4.69894 1.89914H11.3015C12.8477 1.89937 14.1013 3.15269 14.1013 4.69894V11.3015Z" fill="#111111"/>
</svg>
