<svg width="15" height="15" viewBox="0 0 15 15" fill="none" xmlns="http://www.w3.org/2000/svg">
<path d="M7.3418 0.125C8.81425 0.125 10.2284 0.661959 11.2715 1.62012C12.3147 2.57847 12.9023 3.88031 12.9023 5.23926V5.82031C13.2962 5.91765 13.6508 6.12423 13.915 6.41699C14.2286 6.76455 14.3925 7.20747 14.373 7.66113V9.76465L14.3672 9.91113C14.3532 10.0567 14.3154 10.1996 14.2549 10.335C14.174 10.516 14.0541 10.6798 13.9033 10.8164C13.7526 10.9528 13.5739 11.06 13.3779 11.1309C13.2369 11.1819 13.0887 11.2119 12.9385 11.2236L12.6738 11.583L12.6699 11.5879C12.2992 12.0414 11.8181 12.4084 11.2666 12.6602C10.7902 12.8776 10.272 13.0024 9.74316 13.0312C9.65304 13.3063 9.49346 13.5586 9.27441 13.7646C8.86675 14.1478 8.31185 14.3664 7.73145 14.375H7.72656C7.16136 14.375 6.61767 14.1704 6.21387 13.8037C5.80977 13.4366 5.57764 12.9358 5.57129 12.4102V12.4072L5.58008 12.2236C5.62273 11.799 5.81452 11.3977 6.12695 11.0811C6.48412 10.7193 6.97452 10.4932 7.50098 10.4463C8.02718 10.3995 8.55433 10.534 8.97949 10.8252C9.32978 11.0651 9.58809 11.3991 9.72656 11.7783C10.0515 11.7531 10.3691 11.6745 10.6621 11.541C10.8565 11.4525 11.0361 11.3407 11.1992 11.2119C11.1041 11.1731 11.0175 11.1168 10.9502 11.04C10.8416 10.9162 10.7877 10.7566 10.8027 10.5957V6.47363C10.8027 6.31735 10.8509 6.15389 10.9502 6.02246C11.0518 5.88809 11.2223 5.77246 11.4482 5.77246H11.5391V5.23926C11.539 4.22187 11.0985 3.24455 10.3125 2.52246C9.52608 1.8001 8.45768 1.39258 7.34277 1.39258C6.22796 1.39264 5.16039 1.80016 4.37402 2.52246C3.58792 3.24458 3.14751 4.22176 3.14746 5.23926V5.77246H3.23828C3.46452 5.77254 3.63398 5.88923 3.73535 6.02344C3.83461 6.15481 3.88378 6.31758 3.88379 6.47363V10.625L3.875 10.7461C3.85431 10.8653 3.79632 10.9763 3.70801 11.0654C3.58922 11.1854 3.42524 11.2568 3.25195 11.2646H1.84766C1.38174 11.2534 0.938479 11.0728 0.615234 10.7607C0.292315 10.4489 0.115398 10.0304 0.125977 9.59668V7.49023C0.112662 7.04969 0.288257 6.62334 0.612305 6.30273C0.919546 5.99888 1.33697 5.81383 1.78223 5.77832V5.23926C1.78227 3.88026 2.36975 2.57848 3.41309 1.62012C4.45618 0.662116 5.86946 0.125052 7.3418 0.125ZM7.71191 11.6709C7.60728 11.6709 7.50325 11.6901 7.40723 11.7275C7.31138 11.765 7.22492 11.8195 7.15332 11.8877C7.08169 11.9559 7.02671 12.0366 6.99023 12.124C6.96283 12.1897 6.94625 12.2585 6.94141 12.3281L6.94043 12.3975V12.3984C6.94673 12.5848 7.03147 12.7644 7.17871 12.8975H7.17773C7.32462 13.0301 7.52303 13.1059 7.73145 13.1094C7.83721 13.1083 7.94172 13.088 8.03809 13.0488C8.13525 13.0093 8.22174 12.9519 8.29297 12.8809L8.29492 12.8799L8.29785 12.876L8.2998 12.875C8.3282 12.8482 8.35369 12.8189 8.37598 12.7881C8.40342 12.7501 8.42605 12.7095 8.44336 12.667C8.4748 12.5898 8.48842 12.5076 8.4834 12.4258V12.4248L8.48242 12.417V12.4053L8.4834 12.3975L8.48242 12.3281C8.47758 12.2585 8.46097 12.1897 8.43359 12.124C8.39711 12.0366 8.34121 11.9559 8.26953 11.8877C8.19788 11.8195 8.11153 11.765 8.01562 11.7275C7.91976 11.6901 7.81645 11.6709 7.71191 11.6709ZM12.1699 9.99902H12.626C12.7137 9.99901 12.8292 9.98445 12.9111 9.94336C12.9457 9.92602 12.9683 9.90687 12.9834 9.88477C12.9978 9.86368 13.0117 9.82996 13.0117 9.77051V7.6582C13.0117 7.52531 12.958 7.3521 12.8643 7.2168C12.7668 7.07627 12.6755 7.04011 12.626 7.04004H12.1699V9.99902ZM1.48926 9.62695C1.48849 9.65483 1.49175 9.68277 1.49805 9.70996C1.50228 9.72819 1.50825 9.74606 1.51562 9.76367C1.5341 9.80763 1.56149 9.84886 1.59766 9.88379L1.65723 9.93066C1.67885 9.94468 1.70205 9.9568 1.72656 9.9668C1.77491 9.98647 1.82758 9.9976 1.88086 9.99902H2.51758L2.51855 7.04004H1.88867C1.77352 7.05128 1.66864 7.10211 1.59473 7.18066C1.5188 7.2614 1.48118 7.36442 1.48828 7.46777L1.48926 7.47266L1.49023 7.48242H1.48926V9.62695Z" fill="#111111" stroke="#111111" stroke-width="0.25"/>
</svg>
