<svg width="16" height="16" viewBox="0 0 16 16" fill="none" xmlns="http://www.w3.org/2000/svg">
<path d="M12 1.86719C12.5657 1.86728 13.1088 2.09219 13.5088 2.49219C13.9085 2.89214 14.1337 3.43455 14.1338 4V12C14.1337 12.5657 13.9088 13.1088 13.5088 13.5088C13.1088 13.9088 12.5657 14.1337 12 14.1338H4C3.43455 14.1337 2.89214 13.9085 2.49219 13.5088C2.09219 13.1088 1.86727 12.5657 1.86719 12V4C1.86727 3.43432 2.09219 2.89219 2.49219 2.49219C2.89219 2.09219 3.43433 1.86727 4 1.86719H12ZM4 3.4668C3.85867 3.46688 3.72299 3.52311 3.62305 3.62305C3.5231 3.72299 3.46688 3.85867 3.4668 4V12C3.46688 12.1413 3.5231 12.278 3.62305 12.3779C3.72294 12.4776 3.8589 12.5331 4 12.5332H9.2002V3.4668H4ZM10.7998 12.5332H12C12.1413 12.5331 12.278 12.4779 12.3779 12.3779C12.4779 12.278 12.5331 12.1413 12.5332 12V4C12.5331 3.8589 12.4776 3.72294 12.3779 3.62305C12.278 3.52311 12.1413 3.46689 12 3.4668H10.7998V12.5332ZM6.10059 6.10156C6.413 5.78915 6.92 5.78915 7.23242 6.10156C7.54441 6.4139 7.54441 6.92008 7.23242 7.23242L6.46387 8L7.23242 8.76758C7.54479 9.07994 7.54468 9.58698 7.23242 9.89941C6.91998 10.2115 6.4129 10.2117 6.10059 9.89941L4.76758 8.56641C4.45528 8.2541 4.45549 7.74701 4.76758 7.43457L6.10059 6.10156Z" fill="#111111"/>
</svg>
