<svg width="16" height="16" viewBox="0 0 16 16" fill="none" xmlns="http://www.w3.org/2000/svg">
<g clip-path="url(#clip0_788_11)">
<path fill-rule="evenodd" clip-rule="evenodd" d="M8 2.3C7.896 2.3 7.79302 2.32056 7.69699 2.36049C7.60097 2.40042 7.51378 2.45895 7.44045 2.53269L7.43886 2.53428L6.93323 3.03991L6.93164 3.0415C6.48432 3.48631 5.87924 3.73615 5.2484 3.73651H4.52562C4.31634 3.73651 4.11562 3.81965 3.96764 3.96764C3.81965 4.11562 3.73651 4.31634 3.73651 4.52562V5.24795C3.73615 5.87878 3.48631 6.48432 3.0415 6.93164L3.03991 6.93323L2.53428 7.43886L2.53269 7.44045C2.45895 7.51378 2.40042 7.60097 2.36049 7.69699C2.32056 7.79302 2.3 7.896 2.3 8C2.3 8.104 2.32055 8.20697 2.36049 8.303C2.40042 8.39903 2.45895 8.48622 2.53269 8.55955L2.53429 8.56113L3.0415 9.06835C3.48631 9.51567 3.73615 10.1208 3.73651 10.7516V11.4744C3.73651 11.6837 3.81965 11.8844 3.96764 12.0324C4.11562 12.1803 4.31634 12.2635 4.52562 12.2635H5.24795C5.87878 12.2638 6.48432 12.5137 6.93164 12.9585L6.93323 12.9601L7.44045 13.4673C7.51378 13.541 7.60096 13.5996 7.69699 13.6395C7.79302 13.6794 7.896 13.7 8 13.7C8.10399 13.7 8.20697 13.6794 8.303 13.6395C8.39903 13.5996 8.48622 13.541 8.55955 13.4673L8.56114 13.4657L9.06676 12.9601L9.06835 12.9585C9.51567 12.5137 10.1208 12.2638 10.7516 12.2635L11.4744 12.2635C11.6837 12.2635 11.8844 12.1803 12.0324 12.0324C12.1803 11.8844 12.2635 11.6837 12.2635 11.4744V10.752C12.2638 10.1212 12.5137 9.51567 12.9585 9.06835L12.9601 9.06676L13.4657 8.56114L13.4673 8.55955C13.541 8.48622 13.5996 8.39903 13.6395 8.303C13.6794 8.20697 13.7 8.10399 13.7 8C13.7 7.896 13.6794 7.79302 13.6395 7.69699C13.5996 7.60096 13.541 7.51378 13.4673 7.44045L13.4657 7.43886L12.9601 6.93323L12.9587 6.93185C12.5133 6.48429 12.2635 5.87832 12.2635 5.24795V4.52562C12.2635 4.31634 12.1803 4.11562 12.0324 3.96764C11.8844 3.81965 11.6837 3.73651 11.4744 3.73651H10.752C10.1217 3.73651 9.51571 3.48668 9.06814 3.04129L9.06676 3.03991L8.56114 2.53428L8.55955 2.53269C8.48622 2.45895 8.39903 2.40042 8.303 2.36049C8.20697 2.32055 8.104 2.3 8 2.3ZM7.08262 0.883144C7.37336 0.762239 7.68513 0.699997 8 0.699997C8.31487 0.699997 8.62664 0.762239 8.91737 0.883144C9.20775 1.0039 9.47143 1.1808 9.69328 1.40369L9.69409 1.4045L10.1968 1.90716C10.3443 2.05378 10.5447 2.13651 10.752 2.13651H11.4744C12.108 2.13651 12.7157 2.38822 13.1637 2.83627C13.6118 3.28431 13.8635 3.89199 13.8635 4.52562V5.24795C13.8635 5.4552 13.9457 5.6551 14.0923 5.80267L14.5955 6.3059L14.5962 6.30663C14.8192 6.52851 14.9961 6.79221 15.1168 7.08262C15.2378 7.37336 15.3 7.68512 15.3 8C15.3 8.31487 15.2378 8.62664 15.1168 8.91737C14.9961 9.20769 14.8193 9.47132 14.5964 9.69315L14.5955 9.69409L14.093 10.1965C13.9466 10.3442 13.8636 10.5445 13.8635 10.7525V11.4744C13.8635 12.108 13.6118 12.7157 13.1637 13.1637C12.7157 13.6118 12.108 13.8635 11.4744 13.8635H10.7525C10.5445 13.8636 10.3449 13.9459 10.1972 14.0923L9.69409 14.5955L9.69315 14.5964C9.47132 14.8193 9.20769 14.9961 8.91737 15.1168C8.62664 15.2378 8.31487 15.3 8 15.3C7.68512 15.3 7.37336 15.2378 7.08262 15.1168C6.79221 14.9961 6.52851 14.8192 6.30663 14.5962L6.3059 14.5955L5.80345 14.093C5.65577 13.9465 5.45555 13.8636 5.24749 13.8635H4.52562C3.89199 13.8635 3.28431 13.6118 2.83627 13.1637C2.38822 12.7157 2.13651 12.108 2.13651 11.4744V10.7523C2.13633 10.5443 2.05403 10.3448 1.90753 10.1971L1.4045 9.69409L1.40369 9.69328C1.1808 9.47143 1.0039 9.20775 0.883144 8.91737C0.762239 8.62664 0.699997 8.31487 0.699997 8C0.699997 7.68513 0.762239 7.37336 0.883144 7.08262C1.0039 6.79225 1.18079 6.52858 1.40367 6.30673L1.4045 6.3059L1.90695 5.80345L1.90766 5.80274C2.05408 5.65512 2.13633 5.45567 2.13651 5.24773V4.52562C2.13651 3.89199 2.38822 3.28431 2.83627 2.83627C3.28431 2.38822 3.89199 2.13651 4.52562 2.13651H5.24773C5.45567 2.13633 5.65512 2.05408 5.80274 1.90766L5.80345 1.90695L6.3059 1.4045L6.30673 1.40367C6.52858 1.18079 6.79225 1.0039 7.08262 0.883144Z" fill="#111111"/>
<path fill-rule="evenodd" clip-rule="evenodd" d="M11.0946 5.96483C11.3902 6.29323 11.3636 6.79907 11.0352 7.09463L7.70184 10.0946C7.39759 10.3685 6.93574 10.3685 6.63149 10.0946L4.96483 8.59463C4.63642 8.29907 4.60979 7.79323 4.90536 7.46483C5.20093 7.13642 5.70676 7.10979 6.03517 7.40536L7.16666 8.42371L9.96482 5.90536C10.2932 5.60979 10.7991 5.63642 11.0946 5.96483Z" fill="#111111"/>
</g>
<defs>
<clipPath id="clip0_788_11">
<rect width="16" height="16" fill="white"/>
</clipPath>
</defs>
</svg>
