<svg width="16" height="16" viewBox="0 0 16 16" fill="none" xmlns="http://www.w3.org/2000/svg">
<path fill-rule="evenodd" clip-rule="evenodd" d="M10.5657 5.43431C10.8781 5.74673 10.8781 6.25326 10.5657 6.56568L6.56568 10.5657C6.25326 10.8781 5.74673 10.8781 5.43431 10.5657C5.12189 10.2533 5.12189 9.74673 5.43431 9.43431L9.43431 5.43431C9.74673 5.12189 10.2533 5.12189 10.5657 5.43431Z" fill="#111111"/>
<path fill-rule="evenodd" clip-rule="evenodd" d="M8.227 4.18924L7.93874 4.52295C7.64992 4.8573 7.14474 4.89422 6.81038 4.6054C6.47602 4.31658 6.43911 3.81139 6.72793 3.47704L7.03659 3.1197C7.04932 3.10497 7.06259 3.0907 7.07636 3.07693C7.8516 2.3018 8.90301 1.86638 9.99929 1.86646C11.0956 1.86653 12.1469 2.3021 12.9221 3.07735C13.6972 3.85259 14.1326 4.904 14.1325 6.00028C14.1325 7.09657 13.6969 8.14792 12.9216 8.92305C12.9085 8.93624 12.8948 8.94897 12.8807 8.96121L12.5247 9.27054C12.1912 9.56033 11.6859 9.52489 11.3961 9.19138C11.1063 8.85786 11.1418 8.35257 11.4753 8.06278L11.8087 7.77307C12.2724 7.29982 12.5325 6.66341 12.5325 6.00017C12.5326 5.32824 12.2657 4.6838 11.7906 4.20864C11.3155 3.73347 10.6711 3.4665 9.99918 3.46646C9.33632 3.46641 8.70023 3.72612 8.227 4.18924Z" fill="#111111"/>
<path fill-rule="evenodd" clip-rule="evenodd" d="M7.91114 11.7917L8.20021 11.4587C8.48984 11.125 8.99511 11.0893 9.32877 11.379C9.66242 11.6686 9.69812 12.1739 9.40849 12.5075L9.09896 12.8641C9.08619 12.8788 9.0729 12.8931 9.05909 12.9068C8.28197 13.68 7.22951 14.1129 6.13323 14.1102C5.03695 14.1075 3.98666 13.6693 3.21341 12.8922C2.44015 12.1151 2.00728 11.0626 2.01001 9.96637C2.01274 8.87009 2.45085 7.81979 3.22797 7.04654C3.2412 7.03338 3.25488 7.02069 3.26899 7.00848L3.62574 6.70001C3.95995 6.41103 4.46516 6.44769 4.75414 6.78191C5.04313 7.11612 5.00646 7.62133 4.67225 7.91031L4.33813 8.19921C3.8733 8.67134 3.61166 9.30712 3.61 9.97035C3.60833 10.6423 3.87365 11.2874 4.34759 11.7637C4.82154 12.24 5.46528 12.5085 6.13722 12.5102C6.80007 12.5118 7.43679 12.2537 7.91114 11.7917Z" fill="#111111"/>
</svg>
