<svg width="16" height="16" viewBox="0 0 16 16" fill="none" xmlns="http://www.w3.org/2000/svg">
<path fill-rule="evenodd" clip-rule="evenodd" d="M10.5657 5.43433C10.8781 5.74675 10.8781 6.25328 10.5657 6.5657L9.89903 7.23236C9.58661 7.54478 9.08008 7.54478 8.76766 7.23236C8.45524 6.91995 8.45524 6.41341 8.76766 6.10099L9.43433 5.43433C9.74675 5.12191 10.2533 5.12191 10.5657 5.43433ZM8.5657 7.43433C8.87812 7.74675 8.87812 8.25328 8.5657 8.5657L6.5657 10.5657C6.25328 10.8781 5.74675 10.8781 5.43433 10.5657C5.12191 10.2533 5.12191 9.74675 5.43433 9.43433L7.43433 7.43433C7.74675 7.12191 8.25328 7.12191 8.5657 7.43433Z" fill="#111111"/>
<path fill-rule="evenodd" clip-rule="evenodd" d="M8.227 4.18924L7.93875 4.52295C7.64993 4.8573 7.14474 4.89422 6.81038 4.6054C6.47603 4.31658 6.43911 3.81139 6.72793 3.47704L7.0366 3.1197C7.04933 3.10497 7.06259 3.0907 7.07636 3.07693C7.8516 2.3018 8.90302 1.86638 9.9993 1.86646C11.0956 1.86653 12.1469 2.3021 12.9221 3.07735C13.6972 3.85259 14.1326 4.904 14.1325 6.00028C14.1325 7.09657 13.6969 8.14792 12.9217 8.92305C12.9085 8.93624 12.8948 8.94897 12.8807 8.96121L12.5247 9.27054C12.1912 9.56033 11.6859 9.52489 11.3961 9.19138C11.1063 8.85786 11.1418 8.35257 11.4753 8.06278L11.8087 7.77307C12.2724 7.29982 12.5325 6.66341 12.5325 6.00017C12.5326 5.32824 12.2657 4.6838 11.7906 4.20864C11.3155 3.73347 10.6711 3.4665 9.99918 3.46646C9.33633 3.46641 8.70023 3.72612 8.227 4.18924Z" fill="#111111"/>
<path fill-rule="evenodd" clip-rule="evenodd" d="M7.66438 11.8562L7.93543 11.5083C8.207 11.1598 8.70968 11.0975 9.05819 11.369C9.4067 11.6406 9.46907 12.1433 9.19749 12.4918L8.90725 12.8643C8.89529 12.8796 8.88276 12.8945 8.8697 12.909C8.13457 13.7223 7.10648 14.2102 6.01159 14.2655C4.9167 14.3207 3.84471 13.9388 3.03143 13.2036C2.21815 12.4685 1.73021 11.4404 1.67496 10.3455C1.6197 9.25064 2.00164 8.17865 2.73677 7.36537C2.74928 7.35153 2.76228 7.33813 2.77572 7.3252L3.11566 6.99829C3.43412 6.69203 3.94055 6.70192 4.24681 7.02038C4.55307 7.33884 4.54318 7.84528 4.22472 8.15154L3.90635 8.45771C3.46714 8.95376 3.23949 9.60249 3.27292 10.2649C3.30679 10.936 3.60586 11.5661 4.10433 12.0167C4.60281 12.4673 5.25986 12.7014 5.93094 12.6675C6.59296 12.6341 7.21513 12.3426 7.66438 11.8562Z" fill="#111111"/>
<path fill-rule="evenodd" clip-rule="evenodd" d="M1.43433 1.43433C1.74675 1.12191 2.25328 1.12191 2.5657 1.43433L14.5657 13.4343C14.8781 13.7467 14.8781 14.2533 14.5657 14.5657C14.2533 14.8781 13.7467 14.8781 13.4343 14.5657L1.43433 2.5657C1.12191 2.25328 1.12191 1.74675 1.43433 1.43433Z" fill="#111111"/>
</svg>
