<svg width="16" height="16" viewBox="0 0 16 16" fill="none" xmlns="http://www.w3.org/2000/svg">
<path fill-rule="evenodd" clip-rule="evenodd" d="M3.86667 4.00001C3.86667 3.55818 4.22484 3.20001 4.66667 3.20001H13.6667C14.1085 3.20001 14.4667 3.55818 14.4667 4.00001C14.4667 4.44184 14.1085 4.80001 13.6667 4.80001H4.66667C4.22484 4.80001 3.86667 4.44184 3.86667 4.00001Z" fill="#111111"/>
<path fill-rule="evenodd" clip-rule="evenodd" d="M3.86667 8.00001C3.86667 7.55818 4.22484 7.20001 4.66667 7.20001H13.6667C14.1085 7.20001 14.4667 7.55818 14.4667 8.00001C14.4667 8.44184 14.1085 8.80001 13.6667 8.80001H4.66667C4.22484 8.80001 3.86667 8.44184 3.86667 8.00001Z" fill="#111111"/>
<path fill-rule="evenodd" clip-rule="evenodd" d="M3.86667 12C3.86667 11.5582 4.22484 11.2 4.66667 11.2H13.6667C14.1085 11.2 14.4667 11.5582 14.4667 12C14.4667 12.4418 14.1085 12.8 13.6667 12.8H4.66667C4.22484 12.8 3.86667 12.4418 3.86667 12Z" fill="#111111"/>
<path fill-rule="evenodd" clip-rule="evenodd" d="M2.00001 3.20001C2.44184 3.20001 2.80001 3.55818 2.80001 4.00001V4.00668C2.80001 4.44851 2.44184 4.80668 2.00001 4.80668C1.55818 4.80668 1.20001 4.44851 1.20001 4.00668V4.00001C1.20001 3.55818 1.55818 3.20001 2.00001 3.20001Z" fill="#111111"/>
<path fill-rule="evenodd" clip-rule="evenodd" d="M2.00001 7.20001C2.44184 7.20001 2.80001 7.55818 2.80001 8.00001V8.00668C2.80001 8.44851 2.44184 8.80668 2.00001 8.80668C1.55818 8.80668 1.20001 8.44851 1.20001 8.00668V8.00001C1.20001 7.55818 1.55818 7.20001 2.00001 7.20001Z" fill="#111111"/>
<path fill-rule="evenodd" clip-rule="evenodd" d="M2.00001 11.2C2.44184 11.2 2.80001 11.5582 2.80001 12V12.0067C2.80001 12.4485 2.44184 12.8067 2.00001 12.8067C1.55818 12.8067 1.20001 12.4485 1.20001 12.0067V12C1.20001 11.5582 1.55818 11.2 2.00001 11.2Z" fill="#111111"/>
</svg>
