<svg width="16" height="16" viewBox="0 0 16 16" fill="none" xmlns="http://www.w3.org/2000/svg">
<path fill-rule="evenodd" clip-rule="evenodd" d="M4.66666 8.13335C4.52521 8.13335 4.38955 8.18954 4.28953 8.28956C4.18952 8.38958 4.13333 8.52523 4.13333 8.66668V12.6667C4.13333 12.8081 4.18952 12.9438 4.28953 13.0438C4.38955 13.1438 4.52521 13.2 4.66666 13.2H11.3333C11.4748 13.2 11.6104 13.1438 11.7104 13.0438C11.8105 12.9438 11.8667 12.8081 11.8667 12.6667V8.66668C11.8667 8.52523 11.8105 8.38958 11.7104 8.28956C11.6104 8.18954 11.4748 8.13335 11.3333 8.13335H4.66666ZM3.15816 7.15818C3.55824 6.75811 4.10086 6.53335 4.66666 6.53335H11.3333C11.8991 6.53335 12.4417 6.75811 12.8418 7.15818C13.2419 7.55826 13.4667 8.10088 13.4667 8.66668V12.6667C13.4667 13.2325 13.2419 13.7751 12.8418 14.1752C12.4417 14.5752 11.8991 14.8 11.3333 14.8H4.66666C4.10086 14.8 3.55824 14.5753 3.15816 14.1752C2.75809 13.7751 2.53333 13.2325 2.53333 12.6667V8.66668C2.53333 8.10088 2.75809 7.55826 3.15816 7.15818Z" fill="#111111"/>
<path fill-rule="evenodd" clip-rule="evenodd" d="M7.99999 2.80001C7.50492 2.80001 7.03013 2.99668 6.68006 3.34675C6.32999 3.69681 6.13333 4.17161 6.13333 4.66668V7.33335C6.13333 7.77517 5.77515 8.13335 5.33333 8.13335C4.8915 8.13335 4.53333 7.77517 4.53333 7.33335V4.66668C4.53333 3.74726 4.89856 2.8655 5.54869 2.21538C6.19881 1.56525 7.08057 1.20001 7.99999 1.20001C8.91941 1.20001 9.80117 1.56525 10.4513 2.21538C11.1014 2.8655 11.4667 3.74726 11.4667 4.66668V7.33335C11.4667 7.77517 11.1085 8.13335 10.6667 8.13335C10.2248 8.13335 9.86666 7.77517 9.86666 7.33335V4.66668C9.86666 4.17161 9.66999 3.69681 9.31992 3.34675C8.96986 2.99668 8.49506 2.80001 7.99999 2.80001Z" fill="#111111"/>
</svg>
