<svg width="16" height="16" viewBox="0 0 16 16" fill="none" xmlns="http://www.w3.org/2000/svg">
<path fill-rule="evenodd" clip-rule="evenodd" d="M8 12.5333C8.14145 12.5333 8.2771 12.4771 8.37712 12.3771C8.47714 12.2771 8.53333 12.1415 8.53333 12V10.6667C8.53333 10.2248 8.8915 9.86667 9.33333 9.86667C9.77516 9.86667 10.1333 10.2248 10.1333 10.6667V12C10.1333 12.5658 9.90857 13.1084 9.50849 13.5085C9.10841 13.9086 8.56579 14.1333 8 14.1333H3.33333C2.76753 14.1333 2.22491 13.9086 1.82484 13.5085C1.42476 13.1084 1.2 12.5658 1.2 12L1.2 4C1.2 3.43421 1.42476 2.89159 1.82484 2.49151C2.22491 2.09143 2.76754 1.86667 3.33333 1.86667L8 1.86667C8.56579 1.86667 9.10842 2.09143 9.50849 2.49151C9.90857 2.89159 10.1333 3.43421 10.1333 4V5.33334C10.1333 5.77516 9.77516 6.13334 9.33333 6.13334C8.8915 6.13334 8.53333 5.77516 8.53333 5.33334V4C8.53333 3.85855 8.47714 3.7229 8.37712 3.62288C8.2771 3.52286 8.14145 3.46667 8 3.46667L3.33333 3.46667C3.19188 3.46667 3.05623 3.52286 2.95621 3.62288C2.85619 3.7229 2.8 3.85855 2.8 4L2.8 12C2.8 12.1415 2.85619 12.2771 2.95621 12.3771C3.05623 12.4771 3.19188 12.5333 3.33333 12.5333L8 12.5333Z" fill="#111111"/>
<path fill-rule="evenodd" clip-rule="evenodd" d="M11.4343 10.5657C11.1219 10.2533 11.1219 9.74674 11.4343 9.43432L12.0686 8.8L6 8.8C5.55817 8.8 5.2 8.44183 5.2 8C5.2 7.55818 5.55817 7.2 6 7.2L14 7.2C14.3236 7.2 14.6153 7.39492 14.7391 7.69386C14.8629 7.9928 14.7945 8.33689 14.5657 8.56569L12.5657 10.5657C12.2533 10.8781 11.7467 10.8781 11.4343 10.5657Z" fill="#111111"/>
<path fill-rule="evenodd" clip-rule="evenodd" d="M14.5657 8.56569C14.2533 8.87811 13.7467 8.87811 13.4343 8.56569L11.4343 6.56569C11.1219 6.25327 11.1219 5.74674 11.4343 5.43432C11.7467 5.1219 12.2533 5.1219 12.5657 5.43432L14.5657 7.43432C14.8781 7.74674 14.8781 8.25327 14.5657 8.56569Z" fill="#111111"/>
</svg>
