<svg width="16" height="16" viewBox="0 0 16 16" fill="none" xmlns="http://www.w3.org/2000/svg">
<path fill-rule="evenodd" clip-rule="evenodd" d="M8 3.46667C7.85855 3.46667 7.72289 3.52286 7.62287 3.62288C7.52285 3.7229 7.46666 3.85855 7.46666 4V5.33334C7.46666 5.77516 7.10849 6.13334 6.66666 6.13334C6.22484 6.13334 5.86666 5.77516 5.86666 5.33334V4C5.86666 3.43421 6.09142 2.89159 6.4915 2.49151C6.89158 2.09143 7.4342 1.86667 8 1.86667H12.6667C13.2325 1.86667 13.7751 2.09143 14.1752 2.49151C14.5752 2.89158 14.8 3.43421 14.8 4V12C14.8 12.5658 14.5752 13.1084 14.1752 13.5085C13.7751 13.9086 13.2325 14.1333 12.6667 14.1333H8C7.4342 14.1333 6.89158 13.9086 6.4915 13.5085C6.09143 13.1084 5.86666 12.5658 5.86666 12V10.6667C5.86666 10.2248 6.22484 9.86667 6.66666 9.86667C7.10849 9.86667 7.46666 10.2248 7.46666 10.6667V12C7.46666 12.1415 7.52285 12.2771 7.62287 12.3771C7.72289 12.4771 7.85855 12.5333 8 12.5333H12.6667C12.8081 12.5333 12.9438 12.4771 13.0438 12.3771C13.1438 12.2771 13.2 12.1414 13.2 12V4C13.2 3.85855 13.1438 3.7229 13.0438 3.62288C12.9438 3.52286 12.8081 3.46667 12.6667 3.46667H8ZM4.56568 5.43432C4.8781 5.74674 4.8781 6.25327 4.56568 6.56569L3.93137 7.2H10C10.4418 7.2 10.8 7.55817 10.8 8C10.8 8.44183 10.4418 8.8 10 8.8H3.93137L4.56568 9.43432C4.8781 9.74674 4.8781 10.2533 4.56568 10.5657C4.25326 10.8781 3.74673 10.8781 3.43431 10.5657L1.43431 8.56569C1.12189 8.25327 1.12189 7.74674 1.43431 7.43432L3.43431 5.43432C3.74673 5.1219 4.25326 5.1219 4.56568 5.43432Z" fill="#111111"/>
</svg>
