<svg width="16" height="16" viewBox="0 0 16 16" fill="none" xmlns="http://www.w3.org/2000/svg">
<path fill-rule="evenodd" clip-rule="evenodd" d="M4 3.46667C3.85855 3.46667 3.7229 3.52286 3.62288 3.62288C3.52286 3.7229 3.46667 3.85855 3.46667 4V5.33334C3.46667 5.77516 3.1085 6.13334 2.66667 6.13334C2.22484 6.13334 1.86667 5.77516 1.86667 5.33334V4C1.86667 3.43421 2.09143 2.89159 2.49151 2.49151C2.89159 2.09143 3.43421 1.86667 4 1.86667H5.33334C5.77516 1.86667 6.13334 2.22484 6.13334 2.66667C6.13334 3.1085 5.77516 3.46667 5.33334 3.46667H4Z" fill="#111111"/>
<path fill-rule="evenodd" clip-rule="evenodd" d="M2.66667 9.86667C3.1085 9.86667 3.46667 10.2248 3.46667 10.6667V12C3.46667 12.1415 3.52286 12.2771 3.62288 12.3771C3.7229 12.4771 3.85855 12.5333 4 12.5333H5.33334C5.77516 12.5333 6.13334 12.8915 6.13334 13.3333C6.13334 13.7752 5.77516 14.1333 5.33334 14.1333H4C3.43421 14.1333 2.89158 13.9086 2.49151 13.5085C2.09143 13.1084 1.86667 12.5658 1.86667 12V10.6667C1.86667 10.2248 2.22484 9.86667 2.66667 9.86667Z" fill="#111111"/>
<path fill-rule="evenodd" clip-rule="evenodd" d="M9.86667 2.66667C9.86667 2.22484 10.2248 1.86667 10.6667 1.86667H12C12.5658 1.86667 13.1084 2.09143 13.5085 2.49151C13.9086 2.89158 14.1333 3.43421 14.1333 4V5.33334C14.1333 5.77516 13.7752 6.13334 13.3333 6.13334C12.8915 6.13334 12.5333 5.77516 12.5333 5.33334V4C12.5333 3.85855 12.4771 3.7229 12.3771 3.62288C12.2771 3.52286 12.1415 3.46667 12 3.46667H10.6667C10.2248 3.46667 9.86667 3.1085 9.86667 2.66667Z" fill="#111111"/>
<path fill-rule="evenodd" clip-rule="evenodd" d="M13.3333 9.86667C13.7752 9.86667 14.1333 10.2248 14.1333 10.6667V12C14.1333 12.5658 13.9086 13.1084 13.5085 13.5085C13.1084 13.9086 12.5658 14.1333 12 14.1333H10.6667C10.2248 14.1333 9.86667 13.7752 9.86667 13.3333C9.86667 12.8915 10.2248 12.5333 10.6667 12.5333H12C12.1414 12.5333 12.2771 12.4771 12.3771 12.3771C12.4771 12.2771 12.5333 12.1414 12.5333 12V10.6667C12.5333 10.2248 12.8915 9.86667 13.3333 9.86667Z" fill="#111111"/>
</svg>
