<svg width="16" height="16" viewBox="0 0 16 16" fill="none" xmlns="http://www.w3.org/2000/svg">
<path fill-rule="evenodd" clip-rule="evenodd" d="M14.4206 1.98615C14.6564 2.13191 14.8 2.38941 14.8 2.66667V11.3333C14.8 11.6364 14.6288 11.9134 14.3578 12.0489L10.3578 14.0489C10.1325 14.1615 9.86745 14.1615 9.64223 14.0489L6 12.2278L2.35777 14.0489C2.10978 14.1729 1.81527 14.1596 1.57941 14.0139C1.34356 13.8681 1.2 13.6106 1.2 13.3333V4.66667C1.2 4.36365 1.3712 4.08664 1.64223 3.95113L5.64223 1.95113C5.86745 1.83852 6.13255 1.83852 6.35777 1.95113L10 3.77224L13.6422 1.95113C13.8902 1.82713 14.1847 1.84038 14.4206 1.98615ZM9.2 5.1611L6.8 3.9611V10.8389L9.2 12.0389V5.1611ZM10.8 12.0389L13.2 10.8389V3.9611L10.8 5.1611V12.0389ZM5.2 10.8389V3.9611L2.8 5.1611V12.0389L5.2 10.8389Z" fill="#111111"/>
</svg>
