<svg width="16" height="16" viewBox="0 0 16 16" fill="none" xmlns="http://www.w3.org/2000/svg">
<path d="M12.666 5.86719C13.0801 5.86719 13.4208 6.18168 13.4619 6.58496L13.4668 6.66699C13.4667 8.11668 12.8903 9.5071 11.8652 10.5322C11.0305 11.3668 9.9536 11.9025 8.7998 12.0732V13.2002H10.666L10.748 13.2041C11.1515 13.245 11.4668 13.5858 11.4668 14C11.4668 14.4142 11.1515 14.755 10.748 14.7959L10.666 14.7998H5.33301C4.89135 14.7996 4.5332 14.4417 4.5332 14C4.5332 13.5583 4.89135 13.2004 5.33301 13.2002H7.2002V12.0732C6.04623 11.9024 4.96844 11.3669 4.13379 10.5322C3.17305 9.5713 2.60721 8.28921 2.54004 6.93848L2.5332 6.66699C2.5332 6.22529 2.89135 5.86739 3.33301 5.86719C3.74714 5.86719 4.08783 6.18167 4.12891 6.58496L4.13281 6.66699C4.13288 7.69238 4.54058 8.67629 5.26562 9.40137C5.99066 10.1263 6.97471 10.5331 8 10.5332L8.19141 10.5293C9.14681 10.4819 10.0536 10.0808 10.7334 9.40137C11.4132 8.72153 11.8139 7.81411 11.8613 6.8584L11.8662 6.66699C11.8662 6.22539 12.2245 5.86756 12.666 5.86719ZM8.27637 0.546875C8.91743 0.610443 9.51996 0.894038 9.97949 1.35352C10.5045 1.87856 10.7997 2.59049 10.7998 3.33301V6.66602C10.7998 7.40856 10.5045 8.12139 9.97949 8.64648C9.45442 9.17138 8.74245 9.4668 8 9.4668C7.25755 9.4668 6.54558 9.17138 6.02051 8.64648C5.49548 8.12139 5.2002 7.40856 5.2002 6.66602V3.33301C5.20026 2.59049 5.49546 1.87856 6.02051 1.35352C6.5456 0.82849 7.25745 0.533203 8 0.533203L8.27637 0.546875ZM8 2.13281C7.6818 2.13281 7.3764 2.25941 7.15137 2.48438C6.92638 2.70936 6.79987 3.01484 6.7998 3.33301V6.66602C6.7998 6.98414 6.9265 7.28963 7.15137 7.51465C7.37641 7.73969 7.68174 7.86621 8 7.86621C8.31826 7.86621 8.62359 7.73969 8.84863 7.51465C9.0735 7.28963 9.2002 6.98414 9.2002 6.66602V3.33301C9.20013 3.01484 9.07362 2.70936 8.84863 2.48438C8.65163 2.28742 8.39299 2.16585 8.11816 2.13867L8 2.13281Z" fill="#111111"/>
</svg>
