<svg width="16" height="16" viewBox="0 0 16 16" fill="none" xmlns="http://www.w3.org/2000/svg">
<path d="M3.57143 3C2.70486 3 2 3.70485 2 4.57142V9.71426C2 10.5808 2.70486 11.2857 3.57143 11.2857H12.4286C13.2951 11.2857 14 10.5808 14 9.71426V4.57142C14 3.70485 13.2951 3 12.4286 3H3.57143ZM5.57143 12.1428C5.51464 12.142 5.45825 12.1525 5.40555 12.1737C5.35285 12.1949 5.30489 12.2263 5.26444 12.2662C5.224 12.3061 5.19188 12.3536 5.16996 12.406C5.14804 12.4584 5.13675 12.5146 5.13675 12.5714C5.13675 12.6282 5.14804 12.6844 5.16996 12.7368C5.19188 12.7892 5.224 12.8367 5.26444 12.8766C5.30489 12.9165 5.35285 12.9479 5.40555 12.9691C5.45825 12.9903 5.51464 13.0008 5.57143 13H10.4286C10.4854 13.0008 10.5417 12.9903 10.5944 12.9691C10.6471 12.9479 10.6951 12.9165 10.7356 12.8766C10.776 12.8367 10.8081 12.7892 10.83 12.7368C10.852 12.6844 10.8632 12.6282 10.8632 12.5714C10.8632 12.5146 10.852 12.4584 10.83 12.406C10.8081 12.3536 10.776 12.3061 10.7356 12.2662C10.6951 12.2263 10.6471 12.1949 10.5944 12.1737C10.5417 12.1525 10.4854 12.142 10.4286 12.1428H5.57143Z" fill="#111111"/>
</svg>
