<svg width="16" height="16" viewBox="0 0 16 16" fill="none" xmlns="http://www.w3.org/2000/svg">
<path d="M8.84863 9.05078C9.50204 9.05078 10.0321 9.57615 10.0322 10.2246V12.4258C10.0322 13.0743 9.50208 13.5996 8.84863 13.5996H7.94727C7.29382 13.5996 6.76373 13.0743 6.76367 12.4258V10.2246C6.76379 9.57615 7.29386 9.05078 7.94727 9.05078H8.84863ZM8.43066 2.40039C9.11052 2.40059 9.69418 2.81927 9.93164 3.41016H11.4766C11.7623 3.41016 11.9961 3.63821 11.9961 3.92578C11.9961 4.21337 11.7623 4.44531 11.4766 4.44531H9.9834C9.97545 4.46124 9.97177 4.48119 9.96777 4.49707C10.5873 4.66486 11.0418 5.22776 11.042 5.89453V9.8457H11.0303C10.9136 8.77523 9.99934 7.94434 8.89258 7.94434H7.9834C6.87666 7.94436 5.96339 8.77525 5.84668 9.8457H5.83398V5.89453C5.8342 5.23179 6.28504 4.67279 6.89648 4.50098C6.89262 4.48568 6.88189 4.44873 6.88086 4.44531H5.32324C5.03347 4.44531 4.7998 4.20938 4.7998 3.92578C4.79983 3.6422 5.03751 3.41016 5.32324 3.41016H6.92871C7.16622 2.81913 7.7506 2.40039 8.43066 2.40039ZM8.39844 3.42285C8.10464 3.42285 7.86719 3.65861 7.86719 3.9502C7.86741 4.24159 8.10478 4.47656 8.39844 4.47656C8.69189 4.47632 8.92947 4.24144 8.92969 3.9502C8.92969 3.65876 8.69203 3.42309 8.39844 3.42285Z" fill="#111111"/>
</svg>
