<svg width="16" height="16" viewBox="0 0 16 16" fill="none" xmlns="http://www.w3.org/2000/svg">
<path d="M8.50818 10.4005L9.18103 11.1036C8.7819 11.461 8.29533 11.72 8.06384 12.2344C7.76817 12.8915 7.70673 13.3856 7.11853 13.8956C6.07904 14.796 4.49429 14.4525 3.95642 13.1749C3.83735 12.8918 3.73863 12.5485 4.10291 12.4034C4.66805 12.1777 4.83707 12.864 5.13318 13.1319C5.5926 13.5473 6.1999 13.4317 6.58923 12.9913C6.90533 12.6331 6.9608 12.2333 7.1449 11.8174C7.42653 11.1833 7.93567 10.804 8.45837 10.3907L8.50818 10.4005ZM2.56091 3.37408C2.08658 2.83141 2.75622 2.07677 3.33435 2.54987L13.4564 12.8233C13.8305 13.2491 13.4149 13.9123 12.8802 13.7462C12.6206 13.6655 12.3435 13.2829 12.1488 13.0889C8.93034 9.8739 5.76802 6.60104 2.56091 3.37408ZM11.1136 4.03326C11.4665 3.97165 11.6446 4.2877 11.8197 4.53815C13.03 6.26993 13.1794 8.62529 12.1449 10.4815L11.3978 9.73737C12.0249 8.40315 11.9583 6.81822 11.2513 5.53131C11.1195 5.29109 10.7442 4.85465 10.7133 4.62897C10.6781 4.37107 10.8537 4.07831 11.1136 4.03326ZM7.14392 4.21295C8.99388 4.12072 10.602 5.48558 10.8041 7.35651C10.8609 7.88364 10.8097 8.46007 10.6205 8.95221L9.81873 8.13776C9.80896 7.91762 9.83264 7.71734 9.80798 7.49323C9.65053 6.0509 8.38425 5.07562 6.97107 5.24811L6.15076 4.41608C6.45229 4.2873 6.81457 4.22927 7.14392 4.21295ZM4.974 6.82135C4.84176 7.11551 4.87061 7.50595 4.57263 7.6983C4.36156 7.8346 4.03731 7.79752 3.89783 7.57623C3.79364 7.41124 3.82139 7.30103 3.84802 7.12213C3.90208 6.75718 4.0403 6.37061 4.224 6.05377L4.974 6.82135Z" fill="black"/>
<path d="M7.14808 9.03134C6.59814 8.99317 6.11049 8.49622 6.07249 7.93964L7.14808 9.03134Z" fill="black"/>
</svg>
