<svg width="16" height="16" viewBox="0 0 16 16" fill="none" xmlns="http://www.w3.org/2000/svg">
<path d="M10.7822 1.93359C11.7548 1.93372 12.6153 2.53332 12.9434 3.42188L14.0537 6.43066C14.8086 6.69413 15.3232 7.399 15.3232 8.19727V12.3818C15.3228 13.3033 14.563 14.0671 13.6045 14.0674C12.7233 14.0673 12.0103 13.4215 11.9004 12.6016C9.3033 12.7907 6.69572 12.7907 4.09863 12.6016C3.98866 13.4215 3.27672 14.0674 2.39551 14.0674C1.43695 14.0673 0.676268 13.3033 0.675781 12.3818V8.19727C0.675833 7.3996 1.19033 6.69459 1.94434 6.43066L3.05566 3.42188C3.38367 2.5332 4.24509 1.93368 5.21777 1.93359H10.7822ZM11.8975 7.51855C9.31914 7.0701 6.68087 7.07012 4.10254 7.51855L2.51953 7.79395C2.33084 7.82705 2.18268 7.99247 2.18262 8.19727V12.3818C2.18309 12.5092 2.28541 12.6005 2.39551 12.6006C2.5057 12.6006 2.60793 12.5093 2.6084 12.3818V11.8096C2.60852 11.6021 2.69904 11.4055 2.85449 11.2676C3.01002 11.1299 3.2173 11.0622 3.4248 11.0791L3.73047 11.1045C6.57181 11.3378 9.42819 11.3379 12.2695 11.1045L12.5742 11.0791C12.7819 11.062 12.9889 11.1298 13.1445 11.2676C13.3003 11.4056 13.3905 11.6019 13.3906 11.8096V12.3818C13.3911 12.5092 13.4944 12.6005 13.6045 12.6006C13.7145 12.6003 13.8169 12.5091 13.8174 12.3818V8.19727C13.8173 7.99227 13.6685 7.82681 13.4795 7.79395L11.8975 7.51855ZM4.28906 8.5625C4.69811 8.5625 5.04297 8.88402 5.04297 9.2959C5.0426 9.70746 4.69789 10.0293 4.28906 10.0293H3.98047C3.57174 10.0292 3.22693 9.70739 3.22656 9.2959C3.22656 8.88409 3.57152 8.56261 3.98047 8.5625H4.28906ZM9.7002 8.5625C10.1092 8.5625 10.4541 8.88402 10.4541 9.2959C10.4537 9.70746 10.109 10.0293 9.7002 10.0293H6.29883C5.89025 10.029 5.54627 9.70726 5.5459 9.2959C5.5459 8.88422 5.89003 8.5628 6.29883 8.5625H9.7002ZM12.0195 8.5625C12.4285 8.56257 12.7725 8.88407 12.7725 9.2959C12.7721 9.70741 12.4283 10.0292 12.0195 10.0293H11.71C11.3013 10.0291 10.9574 9.70731 10.957 9.2959C10.957 8.88417 11.3011 8.56273 11.71 8.5625H12.0195ZM5.21777 3.40039C4.89026 3.40048 4.58992 3.6029 4.47363 3.91797L3.66602 6.10449L3.83691 6.0752C6.59058 5.59623 9.40843 5.59627 12.1621 6.0752L12.333 6.10449L11.5264 3.91797C11.4101 3.60287 11.1097 3.40051 10.7822 3.40039H5.21777Z" fill="#111111"/>
</svg>
