<svg width="16" height="16" viewBox="0 0 16 16" fill="none" xmlns="http://www.w3.org/2000/svg">
<path d="M11.0283 1.90039C12.0052 1.90039 12.8705 2.48531 13.2002 3.35352L14.3867 6.47754C15.164 6.71848 15.6991 7.41195 15.6992 8.20117V12.4805C15.6992 13.3671 14.947 14.0995 14 14.0996C13.094 14.0996 12.3671 13.4292 12.3057 12.5947C9.50524 12.7981 6.69299 12.7981 3.89258 12.5947C3.83114 13.4292 3.10523 14.0996 2.19922 14.0996C1.25226 14.0995 0.5 13.3671 0.5 12.4805V8.20117C0.500106 7.41225 1.03475 6.71874 1.81152 6.47754L2.99902 3.35352C3.32875 2.48531 4.19397 1.90039 5.1709 1.90039H11.0283ZM12.2227 7.4043C9.49518 6.94344 6.70404 6.94344 3.97656 7.4043L2.31055 7.68555C2.05839 7.72827 1.86437 7.94166 1.86426 8.20117V12.4805C1.86426 12.6685 2.02161 12.8095 2.19922 12.8096C2.3769 12.8096 2.53418 12.6686 2.53418 12.4805V11.8965C2.53418 11.7134 2.61655 11.5404 2.75781 11.4189C2.89881 11.2977 3.08619 11.2379 3.27441 11.2529L3.59473 11.2783C6.59254 11.5175 9.60667 11.5175 12.6045 11.2783L12.9248 11.2529C13.113 11.2379 13.3004 11.2977 13.4414 11.4189C13.5827 11.5404 13.665 11.7134 13.665 11.8965V12.4805C13.665 12.6686 13.8223 12.8096 14 12.8096C14.1776 12.8095 14.335 12.6685 14.335 12.4805V8.20117C14.3348 7.94166 14.1408 7.72827 13.8887 7.68555L12.2227 7.4043ZM4.19336 8.67969C4.56382 8.67973 4.87571 8.9619 4.87598 9.32422C4.87598 9.68676 4.56397 9.96968 4.19336 9.96973H3.86816C3.49751 9.96973 3.18555 9.68679 3.18555 9.32422C3.18581 8.96187 3.49767 8.67969 3.86816 8.67969H4.19336ZM9.88965 8.67969C10.2601 8.67969 10.572 8.96187 10.5723 9.32422C10.5723 9.68679 10.2603 9.96973 9.88965 9.96973H6.30957C5.93892 9.96973 5.62695 9.68679 5.62695 9.32422C5.62722 8.96187 5.93907 8.67969 6.30957 8.67969H9.88965ZM12.3311 8.67969C12.7016 8.67969 13.0134 8.96187 13.0137 9.32422C13.0137 9.68679 12.7017 9.96973 12.3311 9.96973H12.0059C11.6352 9.96968 11.3232 9.68676 11.3232 9.32422C11.3235 8.9619 11.6354 8.67973 12.0059 8.67969H12.3311ZM5.1709 3.19043C4.7788 3.19043 4.42122 3.42663 4.2832 3.79004L3.36914 6.19531L3.73633 6.13379C6.62268 5.64609 9.57653 5.64609 12.4629 6.13379L12.8291 6.19531L11.916 3.79004C11.778 3.42663 11.4204 3.19043 11.0283 3.19043H5.1709Z" fill="#111111"/>
</svg>
