<svg width="16" height="16" viewBox="0 0 16 16" fill="none" xmlns="http://www.w3.org/2000/svg">
<path d="M4.8736 1.10266C5.57017 0.396637 6.51491 0 7.5 0C8.48509 0 9.42983 0.396637 10.1264 1.10266C10.823 1.80868 11.2143 2.76624 11.2143 3.76471C11.2143 4.76317 10.823 5.72074 10.1264 6.42675C9.42983 7.13277 8.48509 7.52941 7.5 7.52941C6.51491 7.52941 5.57017 7.13277 4.8736 6.42675C4.17704 5.72074 3.78571 4.76317 3.78571 3.76471C3.78571 2.76624 4.17704 1.80868 4.8736 1.10266Z" fill="#111111"/>
<path d="M1 10.7739C1 10.021 1.60103 9.41177 2.34389 9.41177H12.6561C13.399 9.41177 14 10.021 14 10.7739V12.0018C14 14.0941 11.3656 16 7.5 16C3.63436 16 1 14.0941 1 12.0018V10.7739Z" fill="#111111"/>
</svg>
