<svg width="16" height="16" viewBox="0 0 16 16" fill="none" xmlns="http://www.w3.org/2000/svg">
<path fill-rule="evenodd" clip-rule="evenodd" d="M9.2 5.33335C9.2 4.89152 9.55817 4.53335 10 4.53335H10.0067C10.4485 4.53335 10.8067 4.89152 10.8067 5.33335C10.8067 5.77517 10.4485 6.13335 10.0067 6.13335H10C9.55817 6.13335 9.2 5.77517 9.2 5.33335Z" fill="#111111"/>
<path fill-rule="evenodd" clip-rule="evenodd" d="M4 2.80001C3.68174 2.80001 3.37651 2.92644 3.15147 3.15148C2.92643 3.37653 2.8 3.68175 2.8 4.00001V12C2.8 12.3183 2.92643 12.6235 3.15147 12.8485C3.37651 13.0736 3.68174 13.2 4 13.2H12C12.3183 13.2 12.6235 13.0736 12.8485 12.8485C13.0736 12.6235 13.2 12.3183 13.2 12V4.00001C13.2 3.68175 13.0736 3.37653 12.8485 3.15148C12.6235 2.92644 12.3183 2.80001 12 2.80001H4ZM2.0201 2.02011C2.5452 1.49501 3.25739 1.20001 4 1.20001H12C12.7426 1.20001 13.4548 1.49501 13.9799 2.02011C14.505 2.54522 14.8 3.25741 14.8 4.00001V12C14.8 12.7426 14.505 13.4548 13.9799 13.9799C13.4548 14.505 12.7426 14.8 12 14.8H4C3.25739 14.8 2.5452 14.505 2.0201 13.9799C1.495 13.4548 1.2 12.7426 1.2 12V4.00001C1.2 3.25741 1.495 2.54522 2.0201 2.02011Z" fill="#111111"/>
<path fill-rule="evenodd" clip-rule="evenodd" d="M5.89294 7.90511L2.56568 11.2324C2.25326 11.5448 1.74673 11.5448 1.43431 11.2324C1.12189 10.9199 1.12189 10.4134 1.43431 10.101L4.76764 6.76766L4.77862 6.75689C5.20807 6.34364 5.7442 6.08685 6.33333 6.08685C6.92246 6.08685 7.45859 6.34364 7.88804 6.75689L7.89902 6.76766L11.2323 10.101C11.5448 10.4134 11.5448 10.9199 11.2323 11.2324C10.9199 11.5448 10.4134 11.5448 10.101 11.2324L6.77372 7.90511C6.58674 7.72702 6.43399 7.68685 6.33333 7.68685C6.23267 7.68685 6.07992 7.72702 5.89294 7.90511Z" fill="#111111"/>
<path fill-rule="evenodd" clip-rule="evenodd" d="M10.5596 9.23843L9.89902 9.89903C9.5866 10.2115 9.08006 10.2115 8.76764 9.89903C8.45522 9.58661 8.45522 9.08008 8.76764 8.76766L9.43431 8.10099L9.44529 8.09023C9.87474 7.67697 10.4109 7.42018 11 7.42018C11.5891 7.42018 12.1253 7.67697 12.5547 8.09023L12.5657 8.10099L14.5657 10.101C14.8781 10.4134 14.8781 10.9199 14.5657 11.2324C14.2533 11.5448 13.7467 11.5448 13.4343 11.2324L11.4404 9.23843C11.2534 9.06035 11.1007 9.02018 11 9.02018C10.8993 9.02018 10.7466 9.06035 10.5596 9.23843Z" fill="#111111"/>
</svg>
