<svg width="16" height="16" viewBox="0 0 16 16" fill="none" xmlns="http://www.w3.org/2000/svg">
<path fill-rule="evenodd" clip-rule="evenodd" d="M6.0201 5.35344C6.5452 4.82833 7.2574 4.53333 8 4.53333C8.74261 4.53333 9.4548 4.82833 9.9799 5.35344C10.505 5.87854 10.8 6.59073 10.8 7.33333C10.8 8.07594 10.505 8.78813 9.9799 9.31323C9.4548 9.83834 8.74261 10.1333 8 10.1333C7.2574 10.1333 6.5452 9.83834 6.0201 9.31323C5.495 8.78813 5.2 8.07594 5.2 7.33333C5.2 6.59073 5.495 5.87854 6.0201 5.35344ZM8 6.13333C7.68174 6.13333 7.37652 6.25976 7.15147 6.48481C6.92643 6.70985 6.8 7.01507 6.8 7.33333C6.8 7.65159 6.92643 7.95682 7.15147 8.18186C7.37652 8.40691 7.68174 8.53333 8 8.53333C8.31826 8.53333 8.62349 8.40691 8.84853 8.18186C9.07357 7.95682 9.2 7.65159 9.2 7.33333C9.2 7.01507 9.07357 6.70985 8.84853 6.48481C8.62349 6.25976 8.31826 6.13333 8 6.13333Z" fill="#111111"/>
<path fill-rule="evenodd" clip-rule="evenodd" d="M8 2.8002C7.1034 2.8002 6.22694 3.06606 5.48144 3.56418C4.73594 4.0623 4.15489 4.7703 3.81177 5.59864C3.46865 6.42699 3.37886 7.33848 3.55376 8.21785C3.72865 9.0972 4.16036 9.90494 4.79431 10.5389L7.6234 13.3674C7.72341 13.4673 7.85898 13.5234 8.00033 13.5234C8.14169 13.5234 8.27726 13.4673 8.37727 13.3674L11.2056 10.539C11.8396 9.90499 12.2713 9.09722 12.4462 8.21785C12.6211 7.33848 12.5314 6.42699 12.1882 5.59864C11.8451 4.7703 11.2641 4.0623 10.5186 3.56418C9.77306 3.06606 8.8966 2.8002 8 2.8002ZM4.59254 2.23383C5.60115 1.5599 6.78696 1.2002 8 1.2002C9.21305 1.2002 10.3989 1.5599 11.4075 2.23383C12.4161 2.90775 13.2022 3.86563 13.6664 4.98633C14.1307 6.10703 14.2521 7.34023 14.0155 8.52997C13.7789 9.71971 13.1948 10.8126 12.337 11.6703L9.50835 14.499C9.10834 14.8986 8.56576 15.1234 8.00033 15.1234C7.43491 15.1234 6.89262 14.8989 6.4926 14.4993L3.66305 11.6704C2.80532 10.8126 2.22113 9.71971 1.98449 8.52997C1.74786 7.34023 1.86934 6.10703 2.33357 4.98633C2.7978 3.86563 3.58392 2.90775 4.59254 2.23383Z" fill="#111111"/>
</svg>
