<svg width="16" height="16" viewBox="0 0 16 16" fill="none" xmlns="http://www.w3.org/2000/svg">
<g clip-path="url(#clip0_1496_34)">
<path d="M8 1.2002C8.10237 1.2002 8.20428 1.20251 8.30566 1.20703C8.3402 1.20858 8.37469 1.21081 8.40918 1.21289C8.48275 1.21729 8.55594 1.22374 8.62891 1.23047C8.65136 1.23255 8.67386 1.23402 8.69629 1.23633C8.78303 1.24519 8.8693 1.2555 8.95508 1.26758C8.97591 1.27053 8.99678 1.27322 9.01758 1.27637C9.03288 1.27867 9.0482 1.2808 9.06348 1.2832C9.08102 1.28597 9.09815 1.2901 9.11523 1.29395C9.62431 1.37857 10.1236 1.51939 10.6025 1.71777C11.0837 1.91712 11.5385 2.17176 11.96 2.47363C11.9727 2.48186 11.9856 2.48998 11.998 2.49902C12.0099 2.50764 12.0214 2.51669 12.0332 2.52539C12.0457 2.53462 12.0578 2.5444 12.0703 2.55371C12.1404 2.60615 12.2094 2.65981 12.2773 2.71484C12.3036 2.73608 12.3295 2.75767 12.3555 2.7793C12.403 2.81896 12.4497 2.85946 12.4961 2.90039C12.5283 2.92875 12.5611 2.95636 12.5928 2.98535C12.7391 3.11945 12.8795 3.25993 13.0137 3.40625C13.0413 3.43636 13.0677 3.46746 13.0947 3.49805C13.1371 3.54595 13.1787 3.59446 13.2197 3.64355C13.2414 3.66949 13.2629 3.69544 13.2842 3.72168C13.3351 3.78455 13.3849 3.84839 13.4336 3.91309C13.4469 3.93073 13.4605 3.94805 13.4736 3.96582C13.4826 3.97797 13.4921 3.98974 13.501 4.00195C13.5097 4.014 13.5174 4.0267 13.5254 4.03906C13.8276 4.46086 14.0827 4.91584 14.2822 5.39746C14.4805 5.87606 14.6204 6.3751 14.7051 6.88379C14.709 6.90124 14.714 6.91859 14.7168 6.93652C14.7191 6.95143 14.7204 6.96651 14.7227 6.98145C14.7258 7.00225 14.7285 7.02311 14.7314 7.04395C14.7435 7.12973 14.7538 7.21599 14.7627 7.30273C14.765 7.32516 14.7665 7.34766 14.7686 7.37012C14.7747 7.43696 14.7809 7.50394 14.7852 7.57129C14.7877 7.61196 14.7902 7.65263 14.792 7.69336C14.7965 7.79508 14.7998 7.89729 14.7998 8C14.7998 8.1004 14.7973 8.20035 14.793 8.2998C14.7914 8.33631 14.7883 8.37272 14.7861 8.40918C14.782 8.47782 14.7766 8.54614 14.7705 8.61426C14.768 8.64162 14.7655 8.66896 14.7627 8.69629C14.7538 8.78304 14.7435 8.86929 14.7314 8.95508C14.7286 8.97491 14.7266 8.99485 14.7236 9.01465C14.7212 9.03091 14.7193 9.04725 14.7168 9.06348C14.714 9.08109 14.7089 9.09809 14.7051 9.11523C14.6205 9.62425 14.4806 10.1236 14.2822 10.6025C14.0836 11.082 13.8297 11.5349 13.5293 11.9551C13.5202 11.9695 13.5111 11.9841 13.501 11.998C13.4957 12.0054 13.4897 12.0122 13.4844 12.0195C13.4684 12.0413 13.4517 12.0624 13.4355 12.084C13.3863 12.1494 13.3357 12.2138 13.2842 12.2773C13.2629 12.3036 13.2414 12.3295 13.2197 12.3555C13.1787 12.4046 13.1371 12.4531 13.0947 12.501C13.0677 12.5316 13.0413 12.5627 13.0137 12.5928C12.8795 12.7391 12.7391 12.8795 12.5928 13.0137C12.5627 13.0413 12.5316 13.0677 12.501 13.0947C12.4531 13.1371 12.4046 13.1787 12.3555 13.2197C12.3313 13.2399 12.3076 13.2605 12.2832 13.2803C12.2186 13.3328 12.1525 13.3835 12.0859 13.4336C12.0683 13.4469 12.051 13.4605 12.0332 13.4736C12.0213 13.4824 12.01 13.4922 11.998 13.501C11.9858 13.5099 11.9726 13.5173 11.96 13.5254C11.5383 13.8274 11.0839 14.0828 10.6025 14.2822C10.1236 14.4806 9.62425 14.6205 9.11523 14.7051C9.09809 14.7089 9.08109 14.714 9.06348 14.7168C9.04825 14.7192 9.03284 14.7204 9.01758 14.7227C8.99678 14.7258 8.97591 14.7285 8.95508 14.7314C8.86929 14.7435 8.78304 14.7538 8.69629 14.7627C8.67386 14.765 8.65136 14.7665 8.62891 14.7686C8.55593 14.7753 8.48276 14.7817 8.40918 14.7861C8.37468 14.7882 8.3402 14.7904 8.30566 14.792C8.20426 14.7965 8.10238 14.7998 8 14.7998C7.63884 14.7998 7.28337 14.7713 6.93652 14.7168C6.50029 14.648 6.20194 14.2391 6.27051 13.8027C6.3391 13.3663 6.74908 13.0681 7.18555 13.1367C7.45044 13.1783 7.72242 13.2002 8 13.2002C8.18197 13.2002 8.36135 13.1891 8.53809 13.1709C9.03638 13.1189 9.52572 12.9961 9.99023 12.8037C10.621 12.5424 11.194 12.1595 11.6768 11.6768C12.1595 11.194 12.5424 10.621 12.8037 9.99023C12.9963 9.52539 13.1199 9.03577 13.1719 8.53711C13.1824 8.43482 13.1898 8.33164 13.1943 8.22754C13.1977 8.1518 13.2002 8.07596 13.2002 8C13.2002 7.91785 13.1982 7.8358 13.1943 7.75391C13.1897 7.65539 13.1809 7.55782 13.1709 7.46094C13.1188 6.96298 12.996 6.47398 12.8037 6.00977C12.5424 5.37903 12.1595 4.806 11.6768 4.32324C11.194 3.84048 10.621 3.45761 9.99023 3.19629C9.52569 3.00387 9.03641 2.88015 8.53809 2.82812C8.36138 2.80994 8.18193 2.7998 8 2.7998C7.72242 2.7998 7.45044 2.82167 7.18555 2.86328C6.74908 2.93187 6.3391 2.63374 6.27051 2.19727C6.20194 1.76094 6.50029 1.35199 6.93652 1.2832C7.28337 1.22869 7.63884 1.2002 8 1.2002ZM2.6748 10.8799C3.03203 10.62 3.53203 10.6994 3.79199 11.0566C4.11312 11.4979 4.50214 11.8869 4.94336 12.208C5.30056 12.468 5.38 12.968 5.12012 13.3252C4.86013 13.6824 4.35919 13.761 4.00195 13.501C3.42589 13.0817 2.91834 12.5741 2.49902 11.998C2.23903 11.6408 2.31757 11.1399 2.6748 10.8799ZM6.4209 5.56445C6.57744 5.47612 6.76962 5.4789 6.92383 5.57129L10.2578 7.57129C10.4082 7.6617 10.5 7.82454 10.5 8C10.5 8.17546 10.4082 8.3383 10.2578 8.42871L6.92383 10.4287C6.76962 10.5211 6.57744 10.5239 6.4209 10.4355C6.26414 10.3468 6.16699 10.1801 6.16699 10V6C6.16699 5.81987 6.26415 5.65321 6.4209 5.56445ZM2.19727 6.27051C2.63374 6.3391 2.93187 6.74908 2.86328 7.18555C2.82167 7.45044 2.7998 7.72242 2.7998 8C2.7998 8.27758 2.82167 8.54956 2.86328 8.81445C2.93187 9.25092 2.63374 9.6609 2.19727 9.72949C1.76094 9.79806 1.35199 9.49971 1.2832 9.06348C1.22869 8.71663 1.2002 8.36116 1.2002 8C1.2002 7.63884 1.22869 7.28337 1.2832 6.93652C1.35199 6.50029 1.76094 6.20194 2.19727 6.27051ZM4.00195 2.49902C4.35919 2.23903 4.86013 2.31757 5.12012 2.6748C5.38 3.03203 5.30056 3.53203 4.94336 3.79199C4.50214 4.11312 4.11312 4.50214 3.79199 4.94336C3.53203 5.30056 3.03203 5.38 2.6748 5.12012C2.31757 4.86013 2.23903 4.35919 2.49902 4.00195C2.91834 3.42589 3.42589 2.91834 4.00195 2.49902Z" fill="#111111"/>
</g>
<defs>
<clipPath id="clip0_1496_34">
<rect width="16" height="16" fill="white"/>
</clipPath>
</defs>
</svg>
