<svg width="16" height="16" viewBox="0 0 16 16" fill="none" xmlns="http://www.w3.org/2000/svg">
<path d="M12.9229 2C13.5186 2.00013 13.9999 2.48143 14 3.07715V12.9229C13.9999 13.5186 13.5186 13.9999 12.9229 14H3.07715C2.48143 13.9999 2.00013 13.5186 2 12.9229V3.07715C2.00012 2.48143 2.48143 2.00012 3.07715 2H12.9229ZM5.62207 5.07227C4.80857 5.78213 4.29496 6.89102 4.29492 8.03613C4.29492 9.18129 4.76691 10.2123 5.52344 10.917H10.4873C11.2385 10.2071 11.7148 9.22782 11.7148 8.03613C11.7148 6.84439 11.197 5.78213 10.3887 5.07227H5.62207ZM8.01074 8.66309C8.33699 8.66329 8.60152 8.92762 8.60156 9.25391V9.84473H7.41992V9.25391C7.41996 8.92749 7.68432 8.66309 8.01074 8.66309ZM9.18652 6.26367C9.34716 6.26367 9.47656 6.39405 9.47656 6.55469V7.53906C9.47643 7.69958 9.34708 7.8291 9.18652 7.8291C9.02601 7.82906 8.89661 7.69956 8.89648 7.53906V6.55469C8.89648 6.39408 9.02593 6.26372 9.18652 6.26367ZM6.81348 6.26367C6.9737 6.26372 7.10352 6.39446 7.10352 6.55469V7.5332C7.10352 7.69343 6.9737 7.82417 6.81348 7.82422C6.65322 7.82422 6.52344 7.69346 6.52344 7.5332V6.55469C6.52344 6.39443 6.65322 6.26367 6.81348 6.26367Z" fill="#111111"/>
</svg>
