<svg width="16" height="16" viewBox="0 0 16 16" fill="none" xmlns="http://www.w3.org/2000/svg">
<path fill-rule="evenodd" clip-rule="evenodd" d="M4.88328 2.70811C6.06084 2.02782 7.4294 1.75357 8.77816 1.9276C10.1269 2.10164 11.381 2.7143 12.3473 3.67121C13.3136 4.62813 13.9385 5.87621 14.1257 7.22321C14.1865 7.66083 13.8811 8.06489 13.4435 8.12571C13.0058 8.18653 12.6018 7.88106 12.5409 7.44344C12.4021 6.44406 11.9384 5.51806 11.2215 4.80809C10.5046 4.09812 9.57409 3.64357 8.5734 3.51445C7.57271 3.38533 6.55733 3.5888 5.68366 4.09353C5.18595 4.38106 4.74997 4.75727 4.39517 5.19999H5.33333C5.77516 5.19999 6.13333 5.55816 6.13333 5.99999C6.13333 6.44182 5.77516 6.79999 5.33333 6.79999H3.01789C3.00577 6.80027 2.99363 6.80027 2.98146 6.79999H2.66667C2.22484 6.79999 1.86667 6.44182 1.86667 5.99999V3.33332C1.86667 2.8915 2.22484 2.53332 2.66667 2.53332C3.10849 2.53332 3.46667 2.8915 3.46667 3.33332V3.8308C3.87881 3.39223 4.35527 3.01314 4.88328 2.70811Z" fill="#111111"/>
<path fill-rule="evenodd" clip-rule="evenodd" d="M2.55655 7.87427C2.99417 7.81346 3.39823 8.11892 3.45905 8.55654C3.59794 9.55592 4.06156 10.4819 4.77849 11.1919C5.49543 11.9019 6.42591 12.3564 7.4266 12.4855C8.42729 12.6147 9.44267 12.4112 10.3163 11.9064C10.814 11.6189 11.25 11.2427 11.6048 10.8H10.6667C10.2248 10.8 9.86667 10.4418 9.86667 9.99999C9.86667 9.55816 10.2248 9.19999 10.6667 9.19999H12.9821C12.9942 9.19971 13.0064 9.19971 13.0185 9.19999H13.3333C13.7752 9.19999 14.1333 9.55816 14.1333 9.99999V12.6667C14.1333 13.1085 13.7752 13.4667 13.3333 13.4667C12.8915 13.4667 12.5333 13.1085 12.5333 12.6667V12.1692C12.1212 12.6078 11.6447 12.9868 11.1167 13.2919C9.93916 13.9722 8.5706 14.2464 7.22184 14.0724C5.87309 13.8983 4.61896 13.2857 3.65266 12.3288C2.68635 11.3719 2.06148 10.1238 1.87428 8.77678C1.81346 8.33915 2.11893 7.93509 2.55655 7.87427Z" fill="#111111"/>
</svg>
