<svg width="16" height="16" viewBox="0 0 16 16" fill="none" xmlns="http://www.w3.org/2000/svg">
<path fill-rule="evenodd" clip-rule="evenodd" d="M11.2898 1.86786C11.3043 1.86706 11.3188 1.86667 11.3333 1.86667C12.0759 1.86667 12.7881 2.16167 13.3132 2.68677C13.8383 3.21187 14.1333 3.92406 14.1333 4.66667C14.1333 4.6812 14.1329 4.69572 14.1321 4.71022C14.0589 6.0531 13.5892 7.34411 12.7822 8.42001C12.0802 9.35607 11.1504 10.0927 10.085 10.5623C9.99351 11.1884 9.77882 11.792 9.45148 12.3376C9.03153 13.0375 8.44003 13.6187 7.7329 14.0264C7.49995 14.1607 7.21512 14.169 6.97476 14.0485C6.7344 13.928 6.57065 13.6948 6.53892 13.4277C6.41884 12.4173 5.96232 11.4767 5.24282 10.7572C4.52332 10.0377 3.58268 9.58116 2.57226 9.46108C2.30525 9.42935 2.07204 9.2656 1.95153 9.02524C1.83101 8.78488 1.8393 8.50005 1.97359 8.26711C2.38127 7.55997 2.96253 6.96847 3.66245 6.54852C4.20802 6.22118 4.81163 6.0065 5.43768 5.91497C5.90728 4.84963 6.64393 3.91982 7.57999 3.21777C8.65589 2.41085 9.9469 1.94107 11.2898 1.86786ZM11.3531 3.46683C10.3348 3.52703 9.35639 3.88547 8.53999 4.49777C7.71725 5.11483 7.09595 5.962 6.75466 6.93215C6.64521 7.24328 6.35604 7.45535 6.0264 7.46623C5.48254 7.48419 4.95225 7.64055 4.48564 7.92051C4.35196 8.00072 4.22477 8.09032 4.10493 8.18843C4.95298 8.49211 5.72925 8.98087 6.37419 9.62581C7.01913 10.2708 7.50789 11.047 7.81157 11.8951C7.90968 11.7752 7.99928 11.648 8.07949 11.5144C8.35946 11.0478 8.51581 10.5175 8.53377 9.9736C8.54465 9.64396 8.75672 9.35479 9.06785 9.24534C10.038 8.90405 10.8852 8.28275 11.5022 7.46001C12.1145 6.64361 12.473 5.66524 12.5332 4.64687C12.528 4.33577 12.4022 4.03851 12.1819 3.81814C11.9615 3.59777 11.6642 3.47196 11.3531 3.46683Z" fill="#111111"/>
<path fill-rule="evenodd" clip-rule="evenodd" d="M5.36331 8.94004C5.58053 9.32479 5.44471 9.81277 5.05996 10.03C4.50488 10.3434 4.05604 10.8154 3.77098 11.3855C3.58717 11.7531 3.47685 12.1507 3.44375 12.5562C3.84928 12.5231 4.24689 12.4128 4.61451 12.229C5.18464 11.944 5.65665 11.4951 5.97002 10.94C6.18723 10.5553 6.67521 10.4195 7.05996 10.6367C7.44471 10.8539 7.58053 11.3419 7.36331 11.7266C6.89326 12.5592 6.18525 13.2325 5.33005 13.6601C4.47485 14.0877 3.51144 14.2502 2.56331 14.1266C2.20347 14.0798 1.92025 13.7965 1.87337 13.4367C1.74985 12.4886 1.9123 11.5251 2.33989 10.67C2.76749 9.81475 3.44075 9.10674 4.27337 8.63669C4.65812 8.41948 5.1461 8.55529 5.36331 8.94004Z" fill="#111111"/>
<path fill-rule="evenodd" clip-rule="evenodd" d="M8.82149 4.82149C9.13405 4.50893 9.55797 4.33334 10 4.33334C10.442 4.33334 10.8659 4.50893 11.1785 4.82149C11.4911 5.13405 11.6667 5.55797 11.6667 6C11.6667 6.44203 11.4911 6.86595 11.1785 7.17851C10.8659 7.49107 10.442 7.66667 10 7.66667C9.55797 7.66667 9.13405 7.49107 8.82149 7.17851C8.50893 6.86595 8.33333 6.44203 8.33333 6C8.33333 5.55797 8.50893 5.13405 8.82149 4.82149ZM10 6.33334C10.0884 6.33334 10.1732 6.29822 10.2357 6.2357C10.2982 6.17319 10.3333 6.08841 10.3333 6C10.3333 5.9116 10.2982 5.82681 10.2357 5.7643C10.1732 5.70179 10.0884 5.66667 10 5.66667C9.91159 5.66667 9.82681 5.70179 9.7643 5.7643C9.70179 5.82681 9.66667 5.9116 9.66667 6C9.66667 6.08841 9.70179 6.17319 9.7643 6.2357C9.82681 6.29822 9.91159 6.33334 10 6.33334Z" fill="#111111"/>
</svg>
