<svg width="16" height="16" viewBox="0 0 16 16" fill="none" xmlns="http://www.w3.org/2000/svg">
<path fill-rule="evenodd" clip-rule="evenodd" d="M4.78043 1.64151C5.48412 1.35003 6.23833 1.20001 7 1.20001C7.76166 1.20001 8.51587 1.35003 9.21956 1.64151C9.92325 1.93299 10.5626 2.36021 11.1012 2.89879C11.6398 3.43737 12.067 4.07676 12.3585 4.78045C12.65 5.48414 12.8 6.23835 12.8 7.00001C12.8 7.76168 12.65 8.51589 12.3585 9.21958C12.067 9.92327 11.6398 10.5627 11.1012 11.1012C10.5626 11.6398 9.92325 12.067 9.21956 12.3585C8.51587 12.65 7.76166 12.8 7 12.8C6.23833 12.8 5.48412 12.65 4.78043 12.3585C4.07674 12.067 3.43736 11.6398 2.89878 11.1012C2.3602 10.5627 1.93297 9.92327 1.6415 9.21958C1.35002 8.51589 1.2 7.76168 1.2 7.00001C1.2 6.23835 1.35002 5.48414 1.6415 4.78045C1.93297 4.07676 2.3602 3.43737 2.89878 2.89879C3.43736 2.36021 4.07674 1.93299 4.78043 1.64151ZM7 2.80001C6.44845 2.80001 5.90229 2.90865 5.39273 3.11972C4.88316 3.33079 4.42015 3.64016 4.03015 4.03016C3.64014 4.42017 3.33077 4.88317 3.1197 5.39274C2.90863 5.90231 2.8 6.44846 2.8 7.00001C2.8 7.55156 2.90863 8.09772 3.1197 8.60728C3.33077 9.11685 3.64014 9.57985 4.03015 9.96986C4.42015 10.3599 4.88316 10.6692 5.39273 10.8803C5.90229 11.0914 6.44844 11.2 7 11.2C7.55155 11.2 8.0977 11.0914 8.60727 10.8803C9.11683 10.6692 9.57984 10.3599 9.96985 9.96986C10.3599 9.57985 10.6692 9.11685 10.8803 8.60728C11.0914 8.09772 11.2 7.55156 11.2 7.00001C11.2 6.44846 11.0914 5.90231 10.8803 5.39274C10.6692 4.88318 10.3599 4.42017 9.96985 4.03016C9.57984 3.64016 9.11684 3.33079 8.60727 3.11972C8.0977 2.90865 7.55155 2.80001 7 2.80001Z" fill="#111111"/>
<path fill-rule="evenodd" clip-rule="evenodd" d="M10.4343 10.4343C10.7467 10.1219 11.2533 10.1219 11.5657 10.4343L14.5657 13.4343C14.8781 13.7467 14.8781 14.2533 14.5657 14.5657C14.2533 14.8781 13.7467 14.8781 13.4343 14.5657L10.4343 11.5657C10.1219 11.2533 10.1219 10.7467 10.4343 10.4343Z" fill="#111111"/>
</svg>
