<svg width="16" height="16" viewBox="0 0 16 16" fill="none" xmlns="http://www.w3.org/2000/svg">
<path d="M12 1.2002C12.7426 1.2002 13.4544 1.49541 13.9795 2.02051C14.5046 2.54561 14.7998 3.25739 14.7998 4C14.7998 4.74261 14.5046 5.45439 13.9795 5.97949C13.4544 6.50459 12.7426 6.7998 12 6.7998C11.2574 6.7998 10.5456 6.50459 10.0205 5.97949C9.99405 5.95303 9.97059 5.92387 9.94531 5.89648L6.75781 7.53809C6.78327 7.68993 6.7998 7.84399 6.7998 8C6.7998 8.15536 6.78306 8.30873 6.75781 8.45996L9.94629 10.1016C9.97112 10.0747 9.99455 10.0465 10.0205 10.0205C10.5456 9.49541 11.2574 9.2002 12 9.2002C12.7426 9.2002 13.4544 9.49541 13.9795 10.0205C14.5046 10.5456 14.7998 11.2574 14.7998 12C14.7998 12.7426 14.5046 13.4544 13.9795 13.9795C13.4544 14.5046 12.7426 14.7998 12 14.7998C11.2574 14.7998 10.5456 14.5046 10.0205 13.9795C9.49541 13.4544 9.2002 12.7426 9.2002 12C9.2002 11.8444 9.21588 11.6905 9.24121 11.5391L6.05371 9.89648C6.02857 9.9237 6.00579 9.95319 5.97949 9.97949C5.45439 10.5046 4.74261 10.7998 4 10.7998C3.25739 10.7998 2.54561 10.5046 2.02051 9.97949C1.49541 9.45439 1.2002 8.74261 1.2002 8C1.2002 7.25739 1.49541 6.54561 2.02051 6.02051C2.54561 5.49541 3.25739 5.2002 4 5.2002C4.74261 5.2002 5.45439 5.49541 5.97949 6.02051C6.0053 6.04631 6.02805 6.07488 6.05273 6.10156L9.24121 4.45996C9.21599 4.30878 9.2002 4.1553 9.2002 4C9.2002 3.25739 9.49541 2.54561 10.0205 2.02051C10.5456 1.49541 11.2574 1.2002 12 1.2002ZM12 10.7998C11.6817 10.7998 11.3764 10.9263 11.1514 11.1514C10.9263 11.3764 10.7998 11.6817 10.7998 12C10.7998 12.3183 10.9263 12.6236 11.1514 12.8486C11.3764 13.0737 11.6817 13.2002 12 13.2002C12.3183 13.2002 12.6236 13.0737 12.8486 12.8486C13.0737 12.6236 13.2002 12.3183 13.2002 12C13.2002 11.6817 13.0737 11.3764 12.8486 11.1514C12.6236 10.9263 12.3183 10.7998 12 10.7998ZM4 6.7998C3.68174 6.7998 3.37641 6.92632 3.15137 7.15137C2.92632 7.37641 2.7998 7.68174 2.7998 8C2.7998 8.31826 2.92632 8.62359 3.15137 8.84863C3.37641 9.07368 3.68174 9.2002 4 9.2002C4.31826 9.2002 4.62359 9.07368 4.84863 8.84863C5.07368 8.62359 5.2002 8.31826 5.2002 8C5.2002 7.68174 5.07368 7.37641 4.84863 7.15137C4.62359 6.92632 4.31826 6.7998 4 6.7998ZM12 2.7998C11.6817 2.7998 11.3764 2.92632 11.1514 3.15137C10.9263 3.37641 10.7998 3.68174 10.7998 4C10.7998 4.31826 10.9263 4.62359 11.1514 4.84863C11.3764 5.07368 11.6817 5.2002 12 5.2002C12.3183 5.2002 12.6236 5.07368 12.8486 4.84863C13.0737 4.62359 13.2002 4.31826 13.2002 4C13.2002 3.68174 13.0737 3.37641 12.8486 3.15137C12.6236 2.92632 12.3183 2.7998 12 2.7998Z" fill="#111111"/>
</svg>
