<svg width="16" height="16" viewBox="0 0 16 16" fill="none" xmlns="http://www.w3.org/2000/svg">
<path d="M12.7002 2C13.8598 2.00011 14.7997 2.93997 14.7998 4.09961V11.5C14.7997 12.6596 13.8598 13.5995 12.7002 13.5996H3.2998C2.14016 13.5995 1.2003 12.6596 1.2002 11.5V10.5771C1.20043 10.1355 1.55832 9.77734 2 9.77734C2.44168 9.77734 2.79957 10.1355 2.7998 10.5771V11.5C2.79991 11.776 3.02382 11.9999 3.2998 12H12.7002C12.9762 11.9999 13.2001 11.776 13.2002 11.5V4.09961C13.2001 3.82362 12.9762 3.59971 12.7002 3.59961H3.2998C3.02382 3.59971 2.79991 3.82362 2.7998 4.09961V5.57715C2.7998 6.01898 2.44183 6.37793 2 6.37793C1.55817 6.37793 1.2002 6.01898 1.2002 5.57715V4.09961C1.2003 2.93997 2.14016 2.00011 3.2998 2H12.7002ZM5.23438 5.53418C5.54673 5.22183 6.0528 5.22196 6.36523 5.53418L8.36523 7.53418C8.67765 7.8466 8.67765 8.35262 8.36523 8.66504L6.36523 10.665C6.05281 10.9775 5.54679 10.9775 5.23438 10.665C4.92215 10.3526 4.92202 9.84653 5.23438 9.53418L5.86816 8.89941H1.7998C1.35807 8.89931 1 8.54137 1 8.09961C1.00011 7.65794 1.35813 7.29991 1.7998 7.2998H5.86816L5.23438 6.66504C4.92215 6.3526 4.92202 5.84653 5.23438 5.53418Z" fill="#111111"/>
</svg>
