<svg width="16" height="16" viewBox="0 0 16 16" fill="none" xmlns="http://www.w3.org/2000/svg">
<path d="M8.1026 2.80231C8.26479 2.79131 8.42449 2.82231 8.5694 2.88922L8.64166 2.92633L8.70807 2.96735C8.85973 3.06938 8.97885 3.20896 9.06061 3.36383C9.15385 3.54072 9.20031 3.73939 9.20026 3.9361V12.065L9.19147 12.2115C9.17412 12.3586 9.13071 12.5044 9.06061 12.6373C8.96715 12.8141 8.82567 12.9708 8.64166 13.0748C8.45535 13.1799 8.23768 13.2227 8.02057 13.189C7.82063 13.1579 7.64312 13.0649 7.50201 12.9351L4.58795 10.5396H2.55573C2.23182 10.5395 1.94624 10.3835 1.75299 10.1509C1.56213 9.9212 1.46692 9.62749 1.46686 9.33746V6.66266C1.4669 6.37265 1.56217 6.07892 1.75299 5.84918C1.94624 5.61664 2.2318 5.46058 2.55573 5.46051H4.58795L7.50494 3.06305C7.64564 2.93446 7.82183 2.84202 8.02057 2.8111L8.1026 2.80231ZM11.3331 4.46735C12.2251 4.46735 13.0496 4.91037 13.6358 5.64313C14.2194 6.37277 14.5333 7.34192 14.5333 8.33356C14.5332 9.32517 14.2195 10.2944 13.6358 11.024C13.0496 11.7566 12.225 12.1998 11.3331 12.1998C11.0387 12.1996 10.8 11.9609 10.7999 11.6666C10.8 11.3722 11.0387 11.1335 11.3331 11.1334C11.8554 11.1334 12.3888 10.8752 12.8028 10.358C13.2192 9.83746 13.4668 9.10983 13.4669 8.33356C13.4669 7.55723 13.2192 6.82971 12.8028 6.30914C12.3888 5.79174 11.8555 5.53375 11.3331 5.53375C11.0388 5.53361 10.8002 5.29473 10.7999 5.00055C10.7999 4.70609 11.0386 4.46749 11.3331 4.46735ZM10.3331 6.13336C10.8714 6.13336 11.3563 6.40168 11.6924 6.82184C12.0261 7.23893 12.2003 7.78391 12.2003 8.33356L12.1924 8.53961C12.1545 9.01764 11.9843 9.48047 11.6924 9.84528C11.3563 10.2653 10.8713 10.5338 10.3331 10.5338C10.0388 10.5336 9.80019 10.2947 9.79987 10.0005C9.79987 9.70609 10.0386 9.46749 10.3331 9.46735C10.5019 9.46735 10.6955 9.38313 10.8594 9.17828C11.0049 8.9964 11.1051 8.74208 11.128 8.45758L11.1339 8.33356C11.1339 7.99943 11.0257 7.69683 10.8594 7.48883C10.6955 7.2839 10.5019 7.19977 10.3331 7.19977C10.0387 7.19962 9.79996 6.96095 9.79987 6.66656C9.79999 6.37221 10.0387 6.13351 10.3331 6.13336Z" fill="#111111"/>
</svg>
