<svg width="16" height="16" viewBox="0 0 16 16" fill="none" xmlns="http://www.w3.org/2000/svg">
<g clip-path="url(#clip0_2082_123)">
<path d="M0.952362 3.05609C1.15843 2.84612 1.49597 2.84265 1.70627 3.04828L11.8039 12.9506C12.014 13.1568 12.0168 13.4943 11.8108 13.7045C11.6046 13.9147 11.2672 13.9184 11.0569 13.7123L8.91232 11.6088V12.6098C8.91215 12.8019 8.80812 12.9791 8.64084 13.0737C8.45455 13.1787 8.23779 13.2216 8.02072 13.1879C7.8207 13.1568 7.6433 13.0639 7.50217 12.934L4.5881 10.5395H2.5549C2.23111 10.5393 1.94533 10.3833 1.75217 10.1508C1.56143 9.92105 1.46701 9.62635 1.46701 9.33636V6.99652C1.46722 6.51769 1.85539 6.12886 2.3342 6.12933L3.32639 6.13031L0.960175 3.81C0.75018 3.60379 0.746363 3.26632 0.952362 3.05609ZM11.3332 4.46625C12.2251 4.46625 13.0488 4.91045 13.635 5.64301C14.2185 6.37246 14.5332 7.34104 14.5334 8.33246L14.5295 8.51801C14.4929 9.4442 14.1821 10.3388 13.635 11.0229C13.3057 11.4345 12.9025 11.7553 12.4514 11.9575C12.1826 12.0779 11.8668 11.9577 11.7463 11.6889C11.6261 11.4202 11.7462 11.1042 12.0149 10.9838C12.2981 10.8569 12.5701 10.6479 12.8029 10.3569C13.1931 9.86892 13.4343 9.19915 13.4631 8.47797L13.467 8.33246C13.4668 7.55653 13.2191 6.82939 12.8029 6.30902C12.389 5.79175 11.8556 5.53265 11.3332 5.53265C11.0387 5.53258 10.8 5.29396 10.8 4.99945C10.8003 4.70518 11.0389 4.46632 11.3332 4.46625ZM10.3332 6.13324C10.8713 6.13324 11.3565 6.40088 11.6926 6.82074C12.0261 7.23763 12.1993 7.78305 12.1994 8.33246L12.1916 8.53851C12.1538 9.01654 11.9843 9.47929 11.6926 9.84418C11.4645 10.1293 11.1685 10.3443 10.8303 10.4536C10.55 10.5439 10.2489 10.3901 10.1584 10.1098C10.0688 9.82998 10.2225 9.52943 10.5022 9.4389C10.6212 9.40048 10.748 9.31761 10.8596 9.17816C11.0051 8.99615 11.1054 8.74121 11.1281 8.45648L11.133 8.33246C11.1328 7.9985 11.0258 7.69557 10.8596 7.48773C10.6957 7.28302 10.502 7.19965 10.3332 7.19965C10.0388 7.19958 9.80013 6.96086 9.80002 6.66644C9.80023 6.37211 10.0389 6.13331 10.3332 6.13324ZM8.10178 2.80121C8.26411 2.79014 8.42452 2.82212 8.56955 2.8891L8.64084 2.92523L8.70822 2.96722C8.85976 3.06918 8.97901 3.20801 9.06076 3.36273C9.15409 3.53958 9.19941 3.73828 9.19943 3.935V7.99945C9.19943 8.294 8.96078 8.53265 8.66623 8.53265C8.51697 8.53253 8.38215 8.47139 8.28537 8.3725C8.22774 8.34678 8.1721 8.31093 8.12228 8.26117L5.31467 5.45453C5.07927 5.21913 5.11754 4.83592 5.37326 4.64594C5.39893 4.61611 5.42813 4.58824 5.46115 4.5639L7.50803 3.05902C7.64812 2.93226 7.82374 2.84158 8.02072 2.81097L8.10178 2.80121Z" fill="black"/>
</g>
<defs>
<clipPath id="clip0_2082_123">
<rect width="16" height="16" fill="white"/>
</clipPath>
</defs>
</svg>
