<svg width="16" height="16" viewBox="0 0 16 16" fill="none" xmlns="http://www.w3.org/2000/svg">
<path d="M10.6353 2.80154C10.7977 2.79047 10.9579 2.82239 11.103 2.88943L11.1743 2.92557L11.2417 2.96756C11.3932 3.06951 11.5115 3.20839 11.5933 3.36307C11.6867 3.54003 11.7329 3.73849 11.7329 3.93533V12.0642L11.7241 12.2117C11.7068 12.3588 11.6633 12.5037 11.5933 12.6365C11.4998 12.8135 11.3585 12.97 11.1743 13.074C10.988 13.1791 10.7713 13.2219 10.5542 13.1883C10.3541 13.1572 10.1759 13.0643 10.0347 12.9344L7.12061 10.5398H5.08838C4.7645 10.5397 4.47887 10.3837 4.28564 10.1512C4.09476 9.92135 3.99951 9.6268 3.99951 9.3367V6.66287C3.99953 6.37279 4.09475 6.0782 4.28564 5.84842C4.47887 5.61596 4.76456 5.45986 5.08838 5.45975H7.12061L10.0376 3.06326C10.1784 2.93449 10.3552 2.84221 10.5542 2.81131L10.6353 2.80154Z" fill="#111111"/>
</svg>
