<svg width="16" height="16" viewBox="0 0 16 16" fill="none" xmlns="http://www.w3.org/2000/svg">
<path fill-rule="evenodd" clip-rule="evenodd" d="M3.76568 3.7657C3.12009 4.41129 2.8 5.5943 2.8 8.00001C2.8 10.4057 3.12009 11.5887 3.76568 12.2343C4.41128 12.8799 5.59428 13.2 8 13.2C10.4057 13.2 11.5887 12.8799 12.2343 12.2343C12.8799 11.5887 13.2 10.4057 13.2 8.00001C13.2 5.5943 12.8799 4.41129 12.2343 3.7657C11.5887 3.1201 10.4057 2.80001 8 2.80001C5.59428 2.80001 4.41128 3.1201 3.76568 3.7657ZM2.63431 2.63433C3.78872 1.47992 5.60571 1.20001 8 1.20001C10.3943 1.20001 12.2113 1.47992 13.3657 2.63433C14.5201 3.78873 14.8 5.60573 14.8 8.00001C14.8 10.3943 14.5201 12.2113 13.3657 13.3657C12.2113 14.5201 10.3943 14.8 8 14.8C5.60571 14.8 3.78872 14.5201 2.63431 13.3657C1.47991 12.2113 1.2 10.3943 1.2 8.00001C1.2 5.60573 1.47991 3.78873 2.63431 2.63433Z" fill="#111111"/>
<path fill-rule="evenodd" clip-rule="evenodd" d="M5.2 8.00001C5.2 7.55818 5.55817 7.20001 6 7.20001H10C10.4418 7.20001 10.8 7.55818 10.8 8.00001C10.8 8.44184 10.4418 8.80001 10 8.80001H6C5.55817 8.80001 5.2 8.44184 5.2 8.00001Z" fill="#111111"/>
<path fill-rule="evenodd" clip-rule="evenodd" d="M8 5.20001C8.44182 5.20001 8.8 5.55818 8.8 6.00001V10C8.8 10.4418 8.44182 10.8 8 10.8C7.55817 10.8 7.2 10.4418 7.2 10V6.00001C7.2 5.55818 7.55817 5.20001 8 5.20001Z" fill="#111111"/>
</svg>
