<svg width="10" height="12" viewBox="0 0 10 12" fill="none" xmlns="http://www.w3.org/2000/svg">
<path d="M0.680664 0.000137329C0.799037 0.00262634 0.914735 0.0368169 1.01562 0.0987701L9.68262 5.43178L9.75195 5.48158C9.81791 5.53483 9.87339 5.60052 9.91504 5.67494C9.97058 5.77429 9.99996 5.88632 10 6.00014C10 6.11397 9.97056 6.22596 9.91504 6.32533C9.85945 6.42473 9.77963 6.50886 9.68262 6.5685L1.01562 11.9015L0.9375 11.9425C0.856806 11.9784 0.769546 11.9983 0.680664 12.0001L0.591797 11.9962C0.533197 11.9896 0.475721 11.975 0.420898 11.9533L0.341797 11.9152C0.264284 11.8718 0.195962 11.8138 0.141602 11.7443L0.0917969 11.671C0.0318356 11.5687 -3.34096e-05 11.4517 0 11.3331V0.66713C1.64016e-05 0.54861 0.0318411 0.431478 0.0917969 0.329239C0.151787 0.227162 0.238444 0.142878 0.341797 0.0850983C0.445236 0.0273602 0.562222 -0.00233569 0.680664 0.000137329ZM1.59961 9.66225L7.55176 6.00014L1.59961 2.33705V9.66225Z" fill="black"/>
</svg>
