<svg width="16" height="16" viewBox="0 0 16 16" fill="none" xmlns="http://www.w3.org/2000/svg">
<path fill-rule="evenodd" clip-rule="evenodd" d="M13.3334 6.13332C12.8915 6.13332 12.5334 5.77515 12.5334 5.33332V3.99999C12.5334 3.85854 12.4772 3.72288 12.3772 3.62286C12.2771 3.52284 12.1415 3.46665 12 3.46665L4.00003 3.46665C3.85858 3.46665 3.72293 3.52284 3.62291 3.62286C3.52289 3.72288 3.4667 3.85854 3.4667 3.99999L3.4667 5.33332C3.4667 5.77515 3.10853 6.13332 2.6667 6.13332C2.22487 6.13332 1.8667 5.77515 1.8667 5.33332L1.8667 3.99999C1.8667 3.43419 2.09146 2.89157 2.49154 2.49149C2.89162 2.09142 3.43424 1.86665 4.00003 1.86665L12 1.86665C12.5658 1.86665 13.1085 2.09142 13.5085 2.49149C13.9086 2.89157 14.1334 3.43419 14.1334 3.99999V5.33332C14.1334 5.77515 13.7752 6.13332 13.3334 6.13332Z" fill="#111111"/>
<path fill-rule="evenodd" clip-rule="evenodd" d="M11.8991 9.89901C11.5866 10.2114 11.0801 10.2114 10.7677 9.89901L8.00003 7.13136L5.23239 9.89901C4.91997 10.2114 4.41343 10.2114 4.10102 9.89901C3.7886 9.58659 3.7886 9.08005 4.10102 8.76763L7.43435 5.4343C7.74677 5.12188 8.2533 5.12188 8.56572 5.4343L11.8991 8.76764C12.2115 9.08006 12.2115 9.58659 11.8991 9.89901Z" fill="#111111"/>
<path fill-rule="evenodd" clip-rule="evenodd" d="M8.00005 14.8C7.55822 14.8 7.20005 14.4418 7.20005 14L7.20005 6.00001C7.20005 5.55818 7.55823 5.20001 8.00005 5.20001C8.44188 5.20001 8.80005 5.55818 8.80005 6.00001L8.80005 14C8.80005 14.4418 8.44188 14.8 8.00005 14.8Z" fill="#111111"/>
</svg>
