<svg width="16" height="16" viewBox="0 0 16 16" fill="none" xmlns="http://www.w3.org/2000/svg">
<path fill-rule="evenodd" clip-rule="evenodd" d="M3.54871 2.21536C4.19883 1.56523 5.0806 1.2 6.00001 1.2C6.91943 1.2 7.80119 1.56523 8.45132 2.21536C9.10144 2.86549 9.46668 3.74725 9.46668 4.66666C9.46668 5.58608 9.10144 6.46784 8.45132 7.11797C7.80119 7.76809 6.91943 8.13333 6.00001 8.13333C5.0806 8.13333 4.19883 7.76809 3.54871 7.11797C2.89858 6.46784 2.53335 5.58608 2.53335 4.66666C2.53335 3.74725 2.89858 2.86549 3.54871 2.21536ZM6.00001 2.8C5.50494 2.8 5.03015 2.99666 4.68008 3.34673C4.33001 3.6968 4.13335 4.17159 4.13335 4.66666C4.13335 5.16173 4.33001 5.63653 4.68008 5.9866C5.03015 6.33666 5.50494 6.53333 6.00001 6.53333C6.49508 6.53333 6.96988 6.33666 7.31995 5.9866C7.67001 5.63653 7.86668 5.16173 7.86668 4.66666C7.86668 4.17159 7.67001 3.6968 7.31995 3.34673C6.96988 2.99666 6.49508 2.8 6.00001 2.8Z" fill="#111111"/>
<path fill-rule="evenodd" clip-rule="evenodd" d="M4.66668 10.8C4.17161 10.8 3.69681 10.9967 3.34675 11.3467C2.99668 11.6968 2.80001 12.1716 2.80001 12.6667V14C2.80001 14.4418 2.44184 14.8 2.00001 14.8C1.55818 14.8 1.20001 14.4418 1.20001 14V12.6667C1.20001 11.7472 1.56525 10.8655 2.21538 10.2154C2.8655 9.56524 3.74726 9.2 4.66668 9.2H7.33335C8.16474 9.2 8.92856 9.49353 9.52577 9.98082C9.8681 10.2601 9.91918 10.7641 9.63986 11.1064C9.36054 11.4488 8.85659 11.4998 8.51425 11.2205C8.19146 10.9571 7.78195 10.8 7.33335 10.8H4.66668Z" fill="#111111"/>
<path fill-rule="evenodd" clip-rule="evenodd" d="M9.89168 1.88823C10.0013 1.46021 10.4371 1.20207 10.8651 1.31166C11.6108 1.50259 12.2717 1.93627 12.7437 2.54433C13.2157 3.15239 13.4719 3.90025 13.4719 4.67C13.4719 5.43974 13.2157 6.1876 12.7437 6.79566C12.2717 7.40372 11.6108 7.8374 10.8651 8.02833C10.4371 8.13792 10.0013 7.87978 9.89168 7.45176C9.78209 7.02374 10.0402 6.58792 10.4682 6.47833C10.8698 6.37552 11.2257 6.142 11.4798 5.81458C11.734 5.48717 11.8719 5.08448 11.8719 4.67C11.8719 4.25552 11.734 3.85283 11.4798 3.52541C11.2257 3.19799 10.8698 2.96447 10.4682 2.86166C10.0402 2.75207 9.78209 2.31625 9.89168 1.88823Z" fill="#111111"/>
<path fill-rule="evenodd" clip-rule="evenodd" d="M9.86668 12.6667C9.86668 12.2248 10.2249 11.8667 10.6667 11.8667H14.6667C15.1085 11.8667 15.4667 12.2248 15.4667 12.6667C15.4667 13.1085 15.1085 13.4667 14.6667 13.4667H10.6667C10.2249 13.4667 9.86668 13.1085 9.86668 12.6667Z" fill="#111111"/>
<path fill-rule="evenodd" clip-rule="evenodd" d="M12.6667 9.86666C13.1085 9.86666 13.4667 10.2248 13.4667 10.6667V14.6667C13.4667 15.1085 13.1085 15.4667 12.6667 15.4667C12.2249 15.4667 11.8667 15.1085 11.8667 14.6667V10.6667C11.8667 10.2248 12.2249 9.86666 12.6667 9.86666Z" fill="#111111"/>
</svg>
