<svg width="16" height="16" viewBox="0 0 16 16" fill="none" xmlns="http://www.w3.org/2000/svg">
<path d="M3.68066 1.99986C3.79904 2.00235 3.91474 2.03654 4.01562 2.0985L12.6826 7.4315L12.752 7.48131C12.8179 7.53455 12.8734 7.60024 12.915 7.67467C12.9706 7.77402 13 7.88604 13 7.99986C13 8.1137 12.9706 8.22569 12.915 8.32506C12.8595 8.42445 12.7796 8.50858 12.6826 8.56822L4.01562 13.9012L3.9375 13.9422C3.85681 13.9781 3.76955 13.998 3.68066 13.9999L3.5918 13.996C3.5332 13.9893 3.47572 13.9747 3.4209 13.953L3.3418 13.9149C3.26428 13.8716 3.19596 13.8135 3.1416 13.744L3.0918 13.6708C3.03184 13.5685 2.99997 13.4514 3 13.3329V2.66685C3.00002 2.54834 3.03184 2.4312 3.0918 2.32896C3.15179 2.22689 3.23844 2.1426 3.3418 2.08482C3.44524 2.02709 3.56222 1.99739 3.68066 1.99986ZM4.59961 11.662L10.5518 7.99986L4.59961 4.33678V11.662Z" fill="black"/>
</svg>
