<svg width="16" height="16" viewBox="0 0 16 16" fill="none" xmlns="http://www.w3.org/2000/svg">
<path d="M3 2.66683V13.3332C2.99997 13.4518 3.03158 13.5683 3.09158 13.6706C3.15159 13.7729 3.2378 13.8574 3.34134 13.9152C3.44487 13.9731 3.56198 14.0023 3.68057 13.9999C3.79916 13.9974 3.91494 13.9633 4.01597 13.9011L12.6824 8.56798C12.7794 8.50834 12.8596 8.42481 12.9152 8.32538C12.9708 8.22595 13 8.11393 13 8C13 7.88608 12.9708 7.77405 12.9152 7.67462C12.8596 7.57519 12.7794 7.49166 12.6824 7.43202L4.01597 2.09885C3.91494 2.0367 3.79916 2.00262 3.68057 2.00015C3.56198 1.99767 3.44487 2.02688 3.34134 2.08476C3.2378 2.14264 3.15159 2.2271 3.09158 2.32942C3.03158 2.43174 2.99997 2.54822 3 2.66683Z" fill="#111111"/>
</svg>
