<svg width="16" height="16" viewBox="0 0 16 16" fill="none" xmlns="http://www.w3.org/2000/svg">
<path fill-rule="evenodd" clip-rule="evenodd" d="M6.98103 1.24579C7.29205 1.07057 7.64301 0.978516 7.99999 0.978516C8.35698 0.978516 8.70793 1.07057 9.01896 1.24579C9.32998 1.42101 9.59057 1.67347 9.77555 1.97879L9.77768 1.98231L15.1884 11.0176C15.3694 11.3315 15.465 11.6873 15.4659 12.0496C15.4668 12.4119 15.3729 12.7681 15.1935 13.0828C15.0141 13.3976 14.7554 13.6599 14.4432 13.8437C14.131 14.0275 13.7762 14.1264 13.4139 14.1306L13.4047 14.1307L2.58634 14.1307C2.22391 14.1266 1.86887 14.0277 1.55652 13.8438C1.24417 13.6599 0.985399 13.3975 0.805952 13.0826C0.626505 12.7677 0.532632 12.4112 0.533669 12.0488C0.534707 11.6864 0.63062 11.3305 0.811868 11.0166L0.818255 11.0056L6.21061 2.00253C6.21508 1.99455 6.21969 1.98663 6.22444 1.97879C6.40942 1.67347 6.67 1.42101 6.98103 1.24579ZM7.99999 2.57852C7.91814 2.57852 7.83767 2.59962 7.76636 2.6398C7.69916 2.67766 7.64222 2.73124 7.60039 2.79588C7.59861 2.79895 7.5968 2.80201 7.59498 2.80506L2.19505 11.8209C2.15505 11.8919 2.1339 11.9719 2.13366 12.0534C2.13342 12.1365 2.15495 12.2182 2.19609 12.2904C2.23724 12.3626 2.29657 12.4228 2.36819 12.4649C2.43884 12.5065 2.51902 12.5292 2.60095 12.5307H13.3989C13.4808 12.5291 13.5609 12.5065 13.6314 12.4649C13.703 12.4228 13.7623 12.3626 13.8035 12.2905C13.8446 12.2183 13.8661 12.1366 13.8659 12.0536C13.8657 11.9722 13.8447 11.8922 13.8048 11.8213L8.4071 2.80787L8.4063 2.80654C8.36394 2.73713 8.30449 2.67972 8.23363 2.6398C8.16231 2.59962 8.08184 2.57852 7.99999 2.57852Z" fill="#111111"/>
<path fill-rule="evenodd" clip-rule="evenodd" d="M8.80644 10.6667C8.80644 11.1085 8.44826 11.4667 8.00644 11.4667H7.99977C7.55794 11.4667 7.19977 11.1085 7.19977 10.6667C7.19977 10.2249 7.55794 9.86668 7.99977 9.86668H8.00644C8.44826 9.86668 8.80644 10.2249 8.80644 10.6667Z" fill="#111111"/>
<path fill-rule="evenodd" clip-rule="evenodd" d="M8.00643 9.46669C7.56461 9.46669 7.20643 9.10852 7.20643 8.66669V6.00002C7.20643 5.5582 7.56461 5.20002 8.00643 5.20002C8.44826 5.20002 8.80643 5.5582 8.80643 6.00002V8.66669C8.80643 9.10852 8.44826 9.46669 8.00643 9.46669Z" fill="#111111"/>
</svg>
