<svg width="16" height="16" viewBox="0 0 16 16" fill="none" xmlns="http://www.w3.org/2000/svg">
<path d="M11.879 8.853L11.1666 6.893C10.9724 6.359 10.447 6 9.85919 6H6.14081C5.55304 6 5.02758 6.359 4.83373 6.89267L4.12135 8.85267C3.74092 9.09367 3.5 9.51 3.5 9.968V12.3333C3.5 12.7017 3.80981 13 4.19231 13C4.57481 13 4.88462 12.7017 4.88462 12.3333V11.913C4.88462 11.913 6.71265 12 8 12C9.28735 12 11.1154 11.913 11.1154 11.913V12.3333C11.1154 12.7017 11.4252 13 11.8077 13C12.1902 13 12.5 12.7017 12.5 12.3333V9.968C12.5 9.51 12.2587 9.09367 11.879 8.853ZM5.09058 8.20433L5.48727 7.113C5.58454 6.84567 5.84658 6.66667 6.14081 6.66667H9.85919C10.1534 6.66667 10.4155 6.84567 10.5127 7.113L10.9094 8.20433C10.9717 8.376 10.8232 8.549 10.6367 8.52C9.95785 8.41433 9.08519 8.33333 8 8.33333C6.91481 8.33333 6.04215 8.41433 5.36335 8.52C5.17677 8.549 5.02827 8.376 5.09058 8.20433ZM5.05769 10.6667C4.77108 10.6667 4.53846 10.4427 4.53846 10.1667C4.53846 9.89067 4.77108 9.66667 5.05769 9.66667C5.34431 9.66667 5.57692 9.89067 5.57692 10.1667C5.57692 10.4427 5.34431 10.6667 5.05769 10.6667ZM9.03846 10.3333H6.96154C6.77046 10.3333 6.61538 10.184 6.61538 10C6.61538 9.816 6.77046 9.66667 6.96154 9.66667H9.03846C9.22954 9.66667 9.38462 9.816 9.38462 10C9.38462 10.184 9.22954 10.3333 9.03846 10.3333ZM10.9423 10.6667C10.6557 10.6667 10.4231 10.4427 10.4231 10.1667C10.4231 9.89067 10.6557 9.66667 10.9423 9.66667C11.2289 9.66667 11.4615 9.89067 11.4615 10.1667C11.4615 10.4427 11.2289 10.6667 10.9423 10.6667Z" fill="#111111"/>
<path d="M13.3184 13.3974V2.70522L2.68156 4.20522V13.3974C2.68156 13.7303 2.41714 14 2.09078 14C1.76442 14 1.5 13.7303 1.5 13.3974V3.60261C1.5 3.26972 1.76442 3 2.09078 3L13.9092 1.5C14.2356 1.5 14.5 1.76972 14.5 2.10261V13.3974C14.5 13.7303 14.2356 14 13.9092 14C13.5829 14 13.3184 13.7303 13.3184 13.3974Z" fill="#111111"/>
</svg>
