<svg width="16" height="16" viewBox="0 0 16 16" fill="none" xmlns="http://www.w3.org/2000/svg">
<path d="M8.63999 4.04189C8.85514 3.92356 9.17122 4.06159 9.19859 4.30653L8.88609 6.87196H10.4544C10.4544 6.87196 10.6077 6.94852 10.6234 6.96767C10.7601 7.08249 10.7834 7.3085 10.6898 7.45399C9.614 8.82116 8.63963 10.2693 7.55601 11.6288C7.48566 11.7168 7.36074 11.9039 7.26694 11.954C6.98528 12.1072 6.64087 11.8579 6.70737 11.5477L7.45054 8.62978H5.97984C5.74514 8.62978 5.52949 8.25081 5.69761 8.05165C6.63257 6.83384 7.46184 5.48566 8.41245 4.287C8.47113 4.21807 8.56175 4.08401 8.63999 4.04189ZM3.99644 4.4745C4.21912 4.43648 4.41413 4.58584 4.37925 4.81142C4.35578 4.95692 4.10209 5.16054 4.00034 5.2831C2.77591 6.73831 2.66971 8.83302 3.75327 10.3993C3.91753 10.6367 4.11731 10.8089 4.2855 11.0194C4.54369 11.3449 4.19123 11.6784 3.87827 11.4755C3.73345 11.3795 3.4292 10.985 3.31577 10.828C1.95832 8.96301 2.10629 6.25141 3.78062 4.62001C3.83929 4.55875 3.90648 4.48982 3.99644 4.4745ZM11.64 4.86903C11.523 4.55905 11.8946 4.33302 12.1605 4.5663C12.9741 5.27473 13.5373 6.65756 13.6039 7.70302L13.6 7.69911V8.30067C13.5178 9.32698 13.1419 10.2923 12.473 11.0927C12.379 11.2039 12.1333 11.5058 12.0003 11.5292C11.7343 11.579 11.5304 11.3563 11.6478 11.1112C11.6988 11.0002 11.9026 10.8316 11.9964 10.7206C13.3222 9.14293 13.3222 6.86083 11.9964 5.287C11.9025 5.17212 11.683 4.98775 11.64 4.86903ZM10.9789 5.31337C11.1862 5.27124 11.2804 5.3941 11.4056 5.52431C12.665 6.83013 12.6844 8.94747 11.5384 10.3261C11.3741 10.5252 11.0808 10.8892 10.8226 10.579C10.6076 10.3225 10.9122 10.131 11.0609 9.95107C12.0154 8.77538 11.9998 7.20886 11.0531 6.037C10.9161 5.8648 10.6506 5.71538 10.7914 5.46278C10.8227 5.40537 10.9163 5.3249 10.9789 5.31337ZM4.85288 5.31337C5.08364 5.26366 5.27481 5.44008 5.23569 5.66982C5.21597 5.79231 5.02095 5.94538 4.93491 6.04872C3.98039 7.22057 3.99994 8.79086 4.94663 9.95888C5.08746 10.135 5.36877 10.3 5.19273 10.5565V10.5604C5.09881 10.6941 4.9193 10.7362 4.77476 10.6522C4.6261 10.5642 4.34425 10.1882 4.23862 10.035C3.37426 8.76749 3.41704 7.08247 4.32847 5.8456C4.41464 5.72292 4.71992 5.34017 4.85288 5.31337Z" fill="#111111"/>
</svg>
